<?xml version="1.0" standalone="no"?>
<!DOCTYPE svg PUBLIC "-//W3C//DTD SVG 1.1//EN" "http://www.w3.org/Graphics/SVG/1.1/DTD/svg11.dtd" >
<svg>
<metadata>
Created by FontForge 20090914 at Wed Nov 23 10:44:02 2016
 By www-data
Copyright (c) 2012, Eduardo Tunni (http://www.tipo.net.ar), with Reserved Font Name 'Changa'
</metadata>
<defs>
<font id="Changa-Regular" horiz-adv-x="555" >
  <font-face 
    font-family="Changa"
    font-weight="400"
    font-stretch="normal"
    units-per-em="1000"
    panose-1="2 0 0 0 0 0 0 0 0 0"
    ascent="800"
    descent="-200"
    x-height="499.999"
    cap-height="625"
    bbox="-33.002 -267.001 1161 914"
    underline-thickness="50"
    underline-position="-50"
    unicode-range="U+0020-U+FB04"
  />
<missing-glyph horiz-adv-x="250" 
 />
    <glyph glyph-name="fi" unicode="fi" horiz-adv-x="613" 
d="M220 420v-420h-100v420h-70v80h70l7 60c5.33301 45.333 18 75.833 38 91.5s45 23.5 75 23.5s61 -3.33301 93 -10l-11 -81l-102 8v-92h249l54 8v-508h-100v420h-203zM424.5 588c-8.33301 8.66699 -12.5 24.167 -12.5 46.5s4.16699 38 12.5 47s24.666 13.5 48.999 13.5
s40.666 -4.5 48.999 -13.5s12.5 -24.667 12.5 -47s-4.16699 -37.833 -12.5 -46.5s-24.666 -13 -48.999 -13s-40.666 4.33301 -48.999 13z" />
    <glyph glyph-name="fl" unicode="fl" horiz-adv-x="613" 
d="M220 500h80v-80h-80v-420h-100v420h-70v80h70l7 60c5.33301 45.333 18 75.833 38 91.5s45 23.5 75 23.5s61 -3.33301 93 -10l-11 -81l-102 8v-92zM423 84v566.001l100 15v-592c22.667 -2.66699 38 -4.33398 46 -5.00098l-6 -79c-56.667 0 -94.167 6 -112.5 18
s-27.5 37.667 -27.5 77z" />
    <glyph glyph-name=".notdef" horiz-adv-x="250" 
 />
    <glyph glyph-name="space" unicode=" " horiz-adv-x="250" 
 />
    <glyph glyph-name="exclam" unicode="!" horiz-adv-x="270" 
d="M112 625h46c24.667 0 37 -9 37 -27l-30 -388h-60l-30 388c0 18 12.333 27 37 27zM85.5 7c-8.33301 9.33301 -12.5 25.5 -12.5 48.5s4.16699 39.333 12.5 49s24.666 14.5 48.999 14.5s40.666 -4.83301 48.999 -14.5s12.5 -26 12.5 -49s-4.16699 -39.167 -12.5 -48.5
s-24.666 -14 -48.999 -14s-40.666 4.66699 -48.999 14z" />
    <glyph glyph-name="quotedbl" unicode="&#x22;" horiz-adv-x="480" 
d="M85 623c0 18 12.333 27 37 27h46c24.667 0 37 -9 37 -27v-58l-40 -205h-40l-40 205v58zM275 623c0 18 12.333 27 37 27h46c24.667 0 37 -9 37 -27v-58l-40 -205h-40l-40 205v58z" />
    <glyph glyph-name="numbersign" unicode="#" horiz-adv-x="686" 
d="M161 467h84.002l84 173c4.66699 9.33301 9.66699 15.833 15 19.5s14.666 5.5 27.999 5.5h41l-96 -198h201l84 173c4.66699 9.33301 9.66699 15.833 15 19.5s14.666 5.5 27.999 5.5h41l-96 -198h96l-18 -37c-5.33301 -12 -10.833 -19.667 -16.5 -23s-13.834 -5 -24.501 -5
h-69l-87 -181h118l-18 -37c-5.33301 -12 -10.833 -19.667 -16.5 -23s-13.834 -5 -24.501 -5h-91l-82 -171c-4.66699 -9.33301 -9.66699 -15.833 -15 -19.5s-14.666 -5.5 -27.999 -5.5h-41l95 196h-202l-82 -171c-4.66699 -9.33301 -9.66699 -15.833 -15 -19.5
s-14.666 -5.5 -27.999 -5.5h-41l95 196h-91l18 37c5.33301 12 11 19.667 17 23s14.333 5 25 5h62l88 181h-113l18 37c5.33301 12 11 19.667 17 23s14.333 5 25 5zM285.002 402l-87 -181h201l88 181h-202z" />
    <glyph glyph-name="dollar" unicode="$" horiz-adv-x="491" 
d="M255 92c26 0 50.668 1.33301 74.001 4v147l-62 8c-76.667 10 -128.334 28.333 -155.001 55s-40 64 -40 112c0 74 12.5 128.5 37.5 163.5s67.167 54.167 126.5 57.5l4 79h57l-4 -79c33.333 -1.33301 72 -7 116 -17l-19 -75h-157c-24.667 0 -41 -12.5 -49 -37.5
s-12.333 -68.5 -13 -130.5l63 -8c78.667 -10 132 -28.333 160 -55s42 -70.667 42 -132s-14.667 -106.833 -44 -136.5s-73.666 -46.167 -132.999 -49.5l-5 -98h-57l5 98c-56.667 2 -105.667 11 -147 27l19 89c57.333 -14.667 117.666 -22 180.999 -22z" />
    <glyph glyph-name="percent" unicode="%" horiz-adv-x="971" 
d="M347 -40h-51l269 680c3.33301 6.66699 6.33301 11.334 9 14.001c7.33301 7.33301 18.666 11 33.999 11h51l-269 -680c-3.33301 -6.66699 -6.33301 -11.334 -9 -14.001c-7.33301 -7.33301 -18.666 -11 -33.999 -11zM587 193c0 71.333 11 122.833 33 154.5
s64.167 47.5 126.5 47.5s104.5 -15.833 126.5 -47.5s33 -83.167 33 -154.5s-11 -122.833 -33 -154.5s-64.167 -47.5 -126.5 -47.5s-104.5 15.833 -126.5 47.5s-33 83.167 -33 154.5zM685 284v-224h64c21.333 0 36.333 2.5 45 7.5s13 16.167 13 33.5v224h-66
c-22 0 -36.833 -2.33301 -44.5 -7s-11.5 -16 -11.5 -34zM36 420c0 71.333 11 122.833 33 154.5s64.167 47.5 126.5 47.5s104.5 -15.833 126.5 -47.5s33 -83.167 33 -154.5s-11 -122.833 -33 -154.5s-64.167 -47.5 -126.5 -47.5s-104.5 15.833 -126.5 47.5
s-33 83.167 -33 154.5zM134 511v-224h64c21.333 0 36.333 2.5 45 7.5s13 16.167 13 33.5v224h-66c-22 0 -36.833 -2.33301 -44.5 -7s-11.5 -16 -11.5 -34z" />
    <glyph glyph-name="ampersand" unicode="&#x26;" horiz-adv-x="544" 
d="M196 0c-100.667 0 -150.998 60.001 -150.998 180.001c0 79.333 13 132 39 158c11.333 11.333 25.666 18.666 42.999 21.999v4l-43 17c0 125.333 20.667 201 62 227c18.667 11.333 47.167 17 85.5 17s83.166 -7 134.499 -21l-19 -73h-107
c-22 0 -37.667 -6.16699 -47 -18.5s-14 -36.833 -14 -73.5v-82h345l-22 -80h-75v-349l-47 -13l-26 136c-53.333 -34 -106 -51 -158 -51zM167.502 107.501c13.667 -14.333 30.166 -21.5 49.499 -21.5s41.833 2.83301 67.5 8.5s44.834 12.5 57.501 20.5l-30 162h-165v-112
c0 -24 6.83301 -43.167 20.5 -57.5z" />
    <glyph glyph-name="quotesingle" unicode="'" horiz-adv-x="290" 
d="M85 623c0 18 12.333 27 37 27h46c24.667 0 37 -9 37 -27v-58l-40 -205h-40l-40 205v58z" />
    <glyph glyph-name="parenleft" unicode="(" horiz-adv-x="291" 
d="M178 494c-18.667 -48 -28 -119.33 -28 -213.997s9.33301 -165.334 28 -212.001s39.667 -75.667 63 -87l-4 -77c-38 14 -70.167 36.167 -96.5 66.5s-45.666 64.666 -57.999 102.999s-20.833 74 -25.5 107s-7 66.833 -7 101.5s2.33301 68.5 7 101.5s13.167 68.667 25.5 107
s31.666 72.666 57.999 102.999s58.5 52.5 96.5 66.5l4 -77c-23.333 -11.333 -44.333 -41 -63 -89z" />
    <glyph glyph-name="parenright" unicode=")" horiz-adv-x="291" 
d="M113 70c18.667 48 28 119.33 28 213.997s-9.33301 165.334 -28 212.001s-39.667 75.667 -63 87l4 77c38 -14 70.167 -36.167 96.5 -66.5s45.666 -64.666 57.999 -102.999s20.833 -74 25.5 -107s7 -66.833 7 -101.5s-2.33301 -68.5 -7 -101.5s-13.167 -68.667 -25.5 -107
s-31.666 -72.666 -57.999 -102.999s-58.5 -52.5 -96.5 -66.5l-4 77c23.333 11.333 44.333 41 63 89z" />
    <glyph glyph-name="asterisk" unicode="*" horiz-adv-x="536" 
d="M428 561c8 0 14.333 -6 19 -18l14 -44c2 -6 3 -12.833 3 -20.5s-5 -13.167 -15 -16.5l-37 -12l-94 -12l70 -64l23 -32c3.33301 -4.66699 5 -10 5 -16s-5.33301 -12.667 -16 -20l-33 -24c-8.66699 -6 -16 -9 -22 -9s-11.333 3 -16 9l-23 32l-41 88l-41 -88l-23 -32
c-4.66699 -6 -10 -9 -16 -9s-13.333 3 -22 9l-33 24c-10.667 7.33301 -16 14 -16 20s1.66699 11.333 5 16l23 32l69 65l-93 11l-37 12c-10 3.33301 -15 8.83301 -15 16.5s1 14.5 3 20.5l14 44c4.66699 12 11 18 19 18c2 0 5.66699 -0.666992 11 -2l37 -12l83 -46l-18 92v39
c0 15.333 10.333 23 31 23h40c20.667 0 31 -7.66699 31 -23v-39l-18 -91l81 45l37 12c5.33301 1.33301 9 2 11 2z" />
    <glyph glyph-name="plus" unicode="+" horiz-adv-x="570" 
d="M107 272v80h137v137h80v-137h138v-80h-138v-138h-80v138h-137z" />
    <glyph glyph-name="comma" unicode="," horiz-adv-x="221" 
d="M53.5 18.5c-5.66699 11.667 -8.5 31.334 -8.5 59.001s4.5 47.5 13.5 59.5s26.333 18 52 18s43 -6 52 -18s13.5 -33.833 13.5 -65.5s-8.66699 -65.834 -26 -102.501l-47 -101l-43 14l26 114c-16 3.33301 -26.833 10.833 -32.5 22.5z" />
    <glyph glyph-name="hyphen" unicode="-" horiz-adv-x="350" 
d="M33 233v50c0 14.667 3.66699 24 11 28s20.666 6 39.999 6h233v-50c0 -14.667 -3.66699 -24 -11 -28s-20.666 -6 -39.999 -6h-233z" />
    <glyph glyph-name="period" unicode="." horiz-adv-x="221" 
d="M45 74c0 30 4.5 51 13.5 63s26.333 18 52 18s43 -6 52 -18s13.5 -33 13.5 -63s-4.33301 -50.833 -13 -62.5s-26 -17.5 -52 -17.5s-43.5 5.83301 -52.5 17.5s-13.5 32.5 -13.5 62.5z" />
    <glyph glyph-name="slash" unicode="/" horiz-adv-x="413" 
d="M41 -40h-41l329 680c3.33301 6.66699 6.33301 11.334 9 14.001c7.33301 7.33301 18.666 11 33.999 11h41l-329 -680c-3.33301 -6.66699 -6.33301 -11.334 -9 -14.001c-7.33301 -7.33301 -18.666 -11 -33.999 -11z" />
    <glyph glyph-name="zero" unicode="0" horiz-adv-x="561" 
d="M50 312c0 36 0.333008 64.998 1 86.998s2.66699 46 6 72s8.16602 46.5 14.499 61.5s15 30.333 26 46s24.833 27.5 41.5 35.5c38.667 17.333 86 26 142 26c58 0 101 -7 129 -21c15.333 -8 28.666 -16.333 39.999 -25s20.833 -21 28.5 -37s13.667 -31.167 18 -45.5
s7.5 -33.5 9.5 -57.5s3.33301 -45.833 4 -65.5s1 -45.167 1 -76.5s-0.333008 -56.833 -1 -76.5s-2 -41.5 -4 -65.5s-5.16699 -43 -9.5 -57s-10.333 -29 -18 -45s-17.167 -28.333 -28.5 -37s-24.666 -17 -39.999 -25c-28 -14 -64.333 -21 -109 -21s-78.667 2.5 -102 7.5
s-43.333 11.333 -60 19s-30.5 19.334 -41.5 35.001s-19.667 30.834 -26 45.501s-11.166 35 -14.499 61s-5.33301 50 -6 72s-1 51 -1 87zM166 485.998v-400h148c30 0 51 3.16699 63 9.5s18 20.833 18 43.5v400h-153c-29.333 0 -49.333 -3 -60 -9s-16 -20.667 -16 -44z" />
    <glyph glyph-name="one" unicode="1" horiz-adv-x="470" 
d="M440 0h-400v90h168v415l-168 -12v80l220 52h58v-535h122v-90z" />
    <glyph glyph-name="two" unicode="2" horiz-adv-x="523" 
d="M266 640c33.333 0 60.333 -1.99805 81 -5.99805s41 -12.333 61 -25c40 -24.667 60 -81.334 60 -170.001c0 -52.667 -13.333 -95.334 -40 -128.001c-19.333 -24.667 -66 -52.334 -140 -83.001c-29.333 -12.667 -57.833 -24.167 -85.5 -34.5s-43.167 -16.166 -46.5 -17.499
v-86h302v-90h-403v114c0 50.667 8.33301 88 25 112l19 25c5.33301 7.33301 14.166 15 26.499 23l31.5 20c8.66699 5.33301 21.834 12 39.501 20l44.5 19.5l53 22.5l59 25v149c-26 2 -52.667 3 -80 3c-65.333 0 -125 -6.66699 -179 -20l-25 93c66 22.667 131.667 34 197 34z
" />
    <glyph glyph-name="three" unicode="3" horiz-adv-x="507" 
d="M327 530c-16 2 -47.167 2.99805 -93.5 2.99805s-99.833 -6.33301 -160.5 -19l-26 88c66.667 25.333 129.667 38 189 38c52 0 89.5 -4 112.5 -12s39.833 -17.667 50.5 -29c24.667 -26 37 -65.333 37 -118c0 -73.333 -27.667 -124.666 -83 -153.999v-5
c32.667 -14.667 57.334 -34.334 74.001 -59.001s25 -55 25 -91s-4.5 -65.167 -13.5 -87.5s-20.333 -39.666 -34 -51.999s-31.167 -22.166 -52.5 -29.499c-36 -12 -82.667 -18 -140 -18s-116.333 7.66699 -177 23l28 98c58 -14 109.667 -21 155 -21s81.666 1.33301 108.999 4
v164l-162 22v83l162 27v145z" />
    <glyph glyph-name="four" unicode="4" horiz-adv-x="534" 
d="M328 0v130h-308v85l154 410h254v-403h65v-92h-65v-130h-100zM328 222v313h-74l-129 -313h203z" />
    <glyph glyph-name="five" unicode="5" horiz-adv-x="529" 
d="M271 92c31.333 0 62.333 0.998047 93 2.99805v149l-75 8c-86 9.33301 -143 21.5 -171 36.5s-42 45.167 -42 90.5c0 10 3.33301 92 10 246h355l-15 -112l-237 14v-151l59 -6c90 -9.33301 151 -27.833 183 -55.5s48 -71.167 48 -130.5
c0 -37.333 -4.66699 -68.833 -14 -94.5s-20.333 -45.167 -33 -58.5s-30.5 -23.666 -53.5 -30.999s-43.167 -11.666 -60.5 -12.999s-40.666 -2 -69.999 -2c-70.667 0 -136 8.66699 -196 26l23 101c55.333 -13.333 120.666 -20 195.999 -20z" />
    <glyph glyph-name="six" unicode="6" horiz-adv-x="540" 
d="M370 128v149h-141c-22 0 -37.333 -2.5 -46 -7.5s-13 -16.5 -13 -34.5v-149h141c22 0 37.333 2.5 46 7.5s13 16.5 13 34.5zM485 185c0 -78.667 -17.668 -131.666 -53.001 -158.999s-89.333 -41 -162 -41c-47.333 0 -84.833 5 -112.5 15s-49.334 28.833 -65.001 56.5
s-25.834 60.5 -30.501 98.5s-7 90.167 -7 156.5s3.33301 119 10 158s19.5 72 38.5 99s44.833 45.667 77.5 56s67.334 15.5 104.001 15.5c68 0 127 -7.66699 177 -23l-26 -96c-47.333 7.33301 -97.166 11 -149.499 11s-91.166 -2 -116.499 -6v-151h70
c40 0 73.5 -2.33301 100.5 -7s52.167 -13.334 75.5 -26.001c46 -26 69 -78.333 69 -157z" />
    <glyph glyph-name="seven" unicode="7" horiz-adv-x="412" 
d="M407 625v-66l-200 -559h-116l189 521l-263 -3l-12 107h402z" />
    <glyph glyph-name="eight" unicode="8" horiz-adv-x="540" 
d="M71 459c0 120.667 66.834 181.001 200.501 181.001s200.5 -60.333 200.5 -181c0 -64 -18.333 -112 -55 -144v-7c20.667 -12 37.167 -30.5 49.5 -55.5s18.5 -52.167 18.5 -81.5c0 -68 -18 -116 -54 -144s-89.333 -42 -160 -42s-124.334 14.167 -161.001 42.5
s-55 76.166 -55 143.499c0 29.333 6.66699 56.5 20 81.5s30.333 43.5 51 55.5v7c-36.667 31.333 -55 79.333 -55 144zM181.001 290.001c-7.33301 0 -11 -5.66699 -11 -17v-187h141c22 0 37.333 2.5 46 7.5s13 16.5 13 34.5v83l-169 73c-9.33301 4 -16 6 -20 6z
M350.001 335.001c13.333 0 20 6 20 18v181h-141c-22 0 -37.333 -2.5 -46 -7.5s-13 -16.5 -13 -34.5v-79l165 -74c5.33301 -2.66699 10.333 -4 15 -4z" />
    <glyph glyph-name="nine" unicode="9" horiz-adv-x="540" 
d="M169 497v-151h141c22 0 37.333 2.5 46 7.5s13 16.5 13 34.5v151h-141c-22 0 -37.333 -2.5 -46 -7.5s-13 -16.5 -13 -34.5zM369 248l-80.002 -0.000976562c-79.333 0 -138.333 12.333 -177 37s-58 71.334 -58 140.001c0 89.333 20 148.333 60 177
c20 14.667 42 24.667 66 30s56.667 8 98 8s75.833 -5 103.5 -15s49.334 -28.833 65.001 -56.5s25.834 -60.5 30.501 -98.5s7 -90.333 7 -157c0 -126 -14.667 -212.167 -44 -258.5s-86 -69.5 -170 -69.5c-70 0 -135.667 7.66699 -197 23l24 105
c58.667 -14 112.167 -21 160.5 -21s85.5 1.33301 111.5 4v152z" />
    <glyph glyph-name="colon" unicode=":" horiz-adv-x="221" 
d="M45 74c0 30 4.5 51 13.5 63s26.333 18 52 18s43 -6 52 -18s13.5 -33 13.5 -63s-4.33301 -50.833 -13 -62.5s-26 -17.5 -52 -17.5s-43.5 5.83301 -52.5 17.5s-13.5 32.5 -13.5 62.5zM45 424c0 30 4.5 51 13.5 63s26.333 18 52 18s43 -6 52 -18s13.5 -33 13.5 -63
s-4.33301 -50.833 -13 -62.5s-26 -17.5 -52 -17.5s-43.5 5.83301 -52.5 17.5s-13.5 32.5 -13.5 62.5z" />
    <glyph glyph-name="semicolon" unicode=";" horiz-adv-x="221" 
d="M53.5 18.5c-5.66699 11.667 -8.5 31.334 -8.5 59.001s4.5 47.5 13.5 59.5s26.333 18 52 18s43 -6 52 -18s13.5 -33.833 13.5 -65.5s-8.66699 -65.834 -26 -102.501l-47 -101l-43 14l26 114c-16 3.33301 -26.833 10.833 -32.5 22.5zM45 424c0 30 4.5 51 13.5 63
s26.333 18 52 18s43 -6 52 -18s13.5 -33 13.5 -63s-4.33301 -50.833 -13 -62.5s-26 -17.5 -52 -17.5s-43.5 5.83301 -52.5 17.5s-13.5 32.5 -13.5 62.5z" />
    <glyph glyph-name="less" unicode="&#x3c;" horiz-adv-x="570" 
d="M107 271v81l322 168l38 -75l-264 -128v-11l264 -128l-38 -75z" />
    <glyph glyph-name="equal" unicode="=" horiz-adv-x="570" 
d="M107 173v80h355v-80h-355zM107 371v80h355v-80h-355z" />
    <glyph glyph-name="greater" unicode="&#x3e;" horiz-adv-x="570" 
d="M467 352v-81l-322 -168l-38 75l264 128v11l-264 128l38 75z" />
    <glyph glyph-name="question" unicode="?" horiz-adv-x="418" 
d="M142 220c-2 28 -6 76.333 -12 145c0 9.33301 4.16699 16.833 12.5 22.5s24.833 12.834 49.5 21.501l96 33v105c-12 1.33301 -31.667 2 -59 2c-66 0 -121 -6.66699 -165 -20l-24 83c56 18.667 104.167 28 144.5 28s70 -1.33301 89 -4s38.167 -8.33398 57.5 -17.001
c38 -17.333 57 -56 57 -116c0 -47.333 -12.833 -82.5 -38.5 -105.5s-68.5 -44.833 -128.5 -65.5l-5 -112h-74zM111 57c0 24 4.5 40.833 13.5 50.5s26.333 14.5 52 14.5s43 -4.83301 52 -14.5s13.5 -26.5 13.5 -50.5s-4.33301 -40.667 -13 -50s-26 -14 -52 -14
s-43.5 4.66699 -52.5 14s-13.5 26 -13.5 50z" />
    <glyph glyph-name="at" unicode="@" horiz-adv-x="847" 
d="M467 207l0.000976562 -126.001h111c29.333 0 48.166 3.33301 56.499 10s12.5 15.334 12.5 26.001v132h-111c-24 0 -41.5 -2.5 -52.5 -7.5s-16.5 -16.5 -16.5 -34.5zM90.001 177.999l-0.00585938 81.001c0 123.333 32.667 208.666 98 255.999
c59.333 43.333 142.5 65 249.5 65s185.167 -15 234.5 -45s74 -77.333 74 -142v-393h-55l-31 53c-39.333 -41.333 -92.666 -62 -159.999 -62c-92.667 0 -139 56 -139 168c0 61.333 16.333 104.333 49 129s88.334 37 167.001 37h70v148
c-43.333 6.66699 -91.166 10 -143.499 10s-86.666 -0.5 -102.999 -1.5s-35.5 -3.16699 -57.5 -6.5s-40.333 -8.83301 -55 -16.5s-28.667 -17.5 -42 -29.5c-27.333 -24 -41 -63.667 -41 -119v-226c0 -30 4.33301 -55.667 13 -77s19.334 -37.5 32.001 -48.5s30 -19.5 52 -25.5
c30.667 -8.66699 72.334 -13 125.001 -13h193v-68c-60 -11.333 -115.333 -17 -166 -17c-127.333 0 -219.833 25.333 -277.5 76s-86.5 139.667 -86.5 267z" />
    <glyph glyph-name="A" unicode="A" horiz-adv-x="549" 
d="M425 0l-34 137h-234l-33 -137h-106l162 625h189l162 -625h-106zM254 533l-75 -306h190l-74 306h-41z" />
    <glyph glyph-name="B" unicode="B" horiz-adv-x="532" 
d="M70 0v625h230c53.333 0 91.833 -13.167 115.5 -39.5s35.5 -64.833 35.5 -115.5c0 -32.667 -4.5 -60.167 -13.5 -82.5s-24.833 -41.5 -47.5 -57.5v-6c32 -10.667 55.333 -29.5 70 -56.5s22 -57.5 22 -91.5c0 -53.333 -13.833 -96 -41.5 -128s-67.167 -48 -118.5 -48h-252z
M323 278h-152.999v-188h152c17.333 0 31.166 7.83301 41.499 23.5s15.5 38.667 15.5 69s-5.16699 53.833 -15.5 70.5s-23.833 25 -40.5 25zM308.001 535l-138 0.000976562v-172h137c15.333 0 28 7.66699 38 23s15 36.666 15 63.999s-4.83301 48.333 -14.5 63
s-22.167 22 -37.5 22z" />
    <glyph glyph-name="C" unicode="C" horiz-adv-x="445" 
d="M274 -10c-90 0 -149.833 21.833 -179.5 65.5s-44.5 130 -44.5 259s14.833 215.5 44.5 259.5s89.5 66 179.5 66c54 0 99.333 -7 136 -21l-15 -88c-45.333 9.33301 -88.5 14 -129.5 14s-68.833 -3.66699 -83.5 -11s-22 -22.333 -22 -45v-391c31.333 -10 68.333 -15 111 -15
s89 6.66699 139 20l10 -92c-39.333 -14 -88 -21 -146 -21z" />
    <glyph glyph-name="D" unicode="D" horiz-adv-x="561" 
d="M70 0v624.998h194c53.333 0 95.166 -3.83301 125.499 -11.5s55.166 -23.667 74.499 -48s32 -55.666 38 -93.999s9 -91.333 9 -159s-3 -120.667 -9 -159s-18.667 -69.666 -38 -93.999s-44.166 -40.333 -74.499 -48s-72.166 -11.5 -125.499 -11.5h-194zM323 534.998h-153
v-445h153c27.333 0 47.166 3.16699 59.499 9.5s18.5 20.833 18.5 43.5v339c0 22.667 -6.16699 37.167 -18.5 43.5s-32.166 9.5 -59.499 9.5z" />
    <glyph glyph-name="E" unicode="E" horiz-adv-x="455" 
d="M370 266h-200v-176h245v-90h-345v625h340l-15 -90h-225v-184h200v-85z" />
    <glyph glyph-name="F" unicode="F" horiz-adv-x="410" 
d="M350 264h-180v-264h-100v625h320l-15 -90h-205v-186h180v-85z" />
    <glyph glyph-name="G" unicode="G" horiz-adv-x="530" 
d="M390 142l0.00195312 102.001h-71v90h161v-304c-66.667 -30 -136 -45 -208 -45c-90.667 0 -150.334 21.667 -179.001 65s-43 130.666 -43 261.999s16.333 218.833 49 262.5s100 65.5 202 65.5c52 0 101.667 -7 149 -21l-15 -88c-54 9.33301 -104 14 -150 14
s-78.333 -3.66699 -97 -11s-28 -22.333 -28 -45v-407h137c21.333 0 37.666 1 48.999 3s21.5 7.5 30.5 16.5s13.5 22.5 13.5 40.5z" />
    <glyph glyph-name="H" unicode="H" horiz-adv-x="580" 
d="M410 0v267h-240v-267h-100v625h100v-268h240v268h100v-625h-100z" />
    <glyph glyph-name="I" unicode="I" horiz-adv-x="240" 
d="M70 0v625h100v-625h-100z" />
    <glyph glyph-name="J" unicode="J" horiz-adv-x="316" 
d="M103 90c20.667 0 33.833 2.83105 39.5 8.49805s8.5 12.834 8.5 21.501v415h-113v90h213v-490c0 -51.333 -12.5 -86.666 -37.5 -105.999s-64.167 -29 -117.5 -29h-74l-12 90h93z" />
    <glyph glyph-name="K" unicode="K" horiz-adv-x="493" 
d="M170 276v-275.998h-100v625h100v-259h84c1.33301 23.333 4.66602 40.666 9.99902 51.999l98 207h116l-150 -307l155 -318h-116l-103 224c-5.33301 11.333 -8.66602 28.666 -9.99902 51.999h-84z" />
    <glyph glyph-name="L" unicode="L" horiz-adv-x="380" 
d="M380 0h-310v625h100v-535h210v-90z" />
    <glyph glyph-name="M" unicode="M" horiz-adv-x="701" 
d="M149 0h-99l31 625h148l118 -358h7l118 358h148l31 -625h-99l-22 483h-7l-136 -403h-73l-137 403h-6z" />
    <glyph glyph-name="N" unicode="N" horiz-adv-x="575" 
d="M170 458v-458h-100v625h108l213 -410c5.33301 -7.33301 8.66602 -23.333 9.99902 -48h4v458h100v-625h-108l-213 410c-5.33301 7.33301 -8.66602 23.333 -9.99902 48h-4z" />
    <glyph glyph-name="O" unicode="O" horiz-adv-x="581" 
d="M98 51c-32 44 -48 131.167 -48 261.5s16 217.5 48 261.5s96 66 192 66s160.167 -22.167 192.5 -66.5s48.5 -131.5 48.5 -261.5s-16.167 -217 -48.5 -261s-96.5 -66 -192.5 -66s-160 22 -192 66zM160 486l0.000976562 -400h183c27.333 0 47.166 3.16699 59.499 9.5
s18.5 20.833 18.5 43.5v400h-184c-26.667 0 -46.167 -3.16699 -58.5 -9.5s-18.5 -20.833 -18.5 -43.5z" />
    <glyph glyph-name="P" unicode="P" horiz-adv-x="490" 
d="M290 196h-120v-196h-100v625h205c80.667 0 134.167 -16.333 160.5 -49s39.5 -86 39.5 -160c0 -33.333 -1.83301 -61 -5.5 -83s-11.167 -44.333 -22.5 -67c-22.667 -46.667 -75 -70 -157 -70zM170 535v-249h126c24 0 41.5 2.5 52.5 7.5s16.5 16.5 16.5 34.5v165
c0 18 -5.5 29.5 -16.5 34.5s-28.5 7.5 -52.5 7.5h-126z" />
    <glyph glyph-name="Q" unicode="Q" horiz-adv-x="581" 
d="M50 312c0 130.667 16 217.999 48 261.999s96 66 192 66s160.167 -22.167 192.5 -66.5s48.5 -131.5 48.5 -261.5c0 -113.333 -25.667 -195.666 -77 -246.999l111 -50l-23 -55l-175 38v26l-77 -24c-50 0 -89.667 4 -119 12s-53.5 23.833 -72.5 47.5s-31.833 55 -38.5 94
s-10 91.833 -10 158.5zM160 485.999l0.000976562 -390h183c27.333 0 47.166 3.16699 59.499 9.5s18.5 20.833 18.5 43.5v390h-184c-26.667 0 -46.167 -3.16699 -58.5 -9.5s-18.5 -20.833 -18.5 -43.5z" />
    <glyph glyph-name="R" unicode="R" horiz-adv-x="530" 
d="M170 221v-221.002h-100v625h229c64 0 109 -17.667 135 -53s39 -84.666 39 -147.999c0 -89.333 -31 -149.666 -93 -180.999l115 -243h-110l-99 221h-116zM170 534.998v-224h126c24 0 41.5 2.5 52.5 7.5s16.5 16.5 16.5 34.5v140c0 18 -5.5 29.5 -16.5 34.5
s-28.5 7.5 -52.5 7.5h-126z" />
    <glyph glyph-name="S" unicode="S" horiz-adv-x="502" 
d="M63 106c61.333 -15.333 117.336 -23.001 168.003 -23.001s91 2 121 6v163l-90 7c-84.667 6.66699 -140.5 22.667 -167.5 48s-40.5 72.166 -40.5 140.499s13.333 117.5 40 147.5s73.167 45 139.5 45s131.166 -6.33301 194.499 -19l-15 -91c-62 10 -112.5 15 -151.5 15
s-71.5 -1.66699 -97.5 -5v-168l102 -7c82 -5.33301 136 -24.333 162 -57c13.333 -17.333 22.333 -36.5 27 -57.5s7 -48.167 7 -81.5s-3.66699 -61.5 -11 -84.5s-16.333 -40.667 -27 -53s-26.334 -21.666 -47.001 -27.999s-39.334 -10.166 -56.001 -11.499
s-50.167 -2 -100.5 -2s-108.833 6.66699 -175.5 20z" />
    <glyph glyph-name="T" unicode="T" horiz-adv-x="410" 
d="M400 535h-145v-535h-100v535h-145v90h390v-90z" />
    <glyph glyph-name="U" unicode="U" horiz-adv-x="567" 
d="M502 625l-0.000976562 -400c0 -82.667 -7.33301 -136.334 -22 -161.001c-17.333 -30.667 -38.666 -50.667 -63.999 -60c-35.333 -12.667 -73.666 -19 -114.999 -19s-73 1.83301 -95 5.5s-40.833 8.33398 -56.5 14.001s-28.667 14.167 -39 25.5s-18.5 22.5 -24.5 33.5
s-10.667 25.833 -14 44.5c-4.66699 32 -7 71 -7 117v400h100v-539h123c43.333 0 73.166 3.16699 89.499 9.5s24.5 20.833 24.5 43.5v486h100z" />
    <glyph glyph-name="V" unicode="V" horiz-adv-x="522" 
d="M396 625h106l-163 -625h-157l-162 625h106l130 -533h9z" />
    <glyph glyph-name="W" unicode="W" horiz-adv-x="761" 
d="M331 600h99l106 -508h9l90 533h106l-122 -625h-152l-83 389h-7l-83 -389h-152l-122 625h106l90 -533h9z" />
    <glyph glyph-name="X" unicode="X" horiz-adv-x="522" 
d="M149 625l111 -200h11l109 200h107l-167 -309l177 -316h-109l-126 222h-11l-119 -222h-107l177 329l-167 296h114z" />
    <glyph glyph-name="Y" unicode="Y" horiz-adv-x="470" 
d="M285 0h-100v200l-175 425h106l115 -310h7l116 310h106l-175 -425v-200z" />
    <glyph glyph-name="Z" unicode="Z" horiz-adv-x="499" 
d="M469 0h-439v85l299 434l-3 6h-256l-12 100h407v-85l-296 -434l3 -6h297v-100z" />
    <glyph glyph-name="bracketleft" unicode="[" horiz-adv-x="279" 
d="M70 9l0.000976562 546c0 54 23.667 86.333 71 97c26 5.33301 59.667 8 101 8l7 -77c-2 0 -29.667 -2.66699 -83 -8v-586l83 -8l-7 -77c-72.667 0 -119.334 8.33301 -140.001 25c-21.333 17.333 -32 44 -32 80z" />
    <glyph glyph-name="backslash" unicode="\" horiz-adv-x="413" 
d="M41 665c12.667 0 21.667 -1.83301 27 -5.5s10.666 -10.167 15.999 -19.5l329 -680h-41c-12.667 0 -21.667 1.83301 -27 5.5s-10.666 10.167 -15.999 19.5l-329 680h41z" />
    <glyph glyph-name="bracketright" unicode="]" horiz-adv-x="279" 
d="M209 555v-546c0 -54 -23.667 -86.333 -71 -97c-26 -5.33301 -59.667 -8 -101 -8l-7 77c2 0 29.667 2.66699 83 8v586l-83 8l7 77c72.667 0 119 -8.33301 139 -25c22 -17.333 33 -44 33 -80z" />
    <glyph glyph-name="asciicircum" unicode="^" horiz-adv-x="570" 
d="M245 578h81l168 -322l-75 -38l-128 264h-11l-128 -264l-75 38z" />
    <glyph glyph-name="underscore" unicode="_" horiz-adv-x="495" 
d="M25 -79v42c0 18 4.33301 29.5 13 34.5s24 7.5 46 7.5h386v-42c0 -18 -4.33301 -29.5 -13 -34.5s-24 -7.5 -46 -7.5h-386z" />
    <glyph glyph-name="grave" unicode="`" horiz-adv-x="429" 
d="M77 624c-2.66699 2.66699 -3.99902 5.16797 -3.99902 7.50098s2 6.16602 6 11.499l44 54c2.66699 3.33301 5.16699 5 7.5 5s5.16602 -1.33301 8.49902 -4l152 -110l-22 -34l-140 35c-8.66699 2 -16 5.33301 -22 10z" />
    <glyph glyph-name="a" unicode="a" horiz-adv-x="533" 
d="M156 81h114c29.333 0 49.833 3.66699 61.5 11s17.5 23 17.5 47v89h-114c-29.333 0 -49.833 -3.66699 -61.5 -11s-17.5 -23 -17.5 -47v-89zM201 -10c-97.333 0 -146 51.667 -146 155c0 60 19.5 102.833 58.5 128.5s96.167 38.5 171.5 38.5h64v100
c-20.667 2.66699 -45.667 4 -75 4c-68 0 -122 -7 -162 -21l-12 84c62 20.667 121.5 31 178.5 31s99.5 -9.5 127.5 -28.5s42 -56.5 42 -112.5v-369h-46l-27 50c-44.667 -40 -102.667 -60 -174 -60z" />
    <glyph glyph-name="b" unicode="b" horiz-adv-x="563" 
d="M333 510c60.667 0 102.832 -17.666 126.499 -52.999s35.5 -103.5 35.5 -204.5s-15.667 -170 -47 -207s-87.333 -55.5 -168 -55.5s-144 9.33301 -190 28v637l90 10v-209c18.667 15.333 42.334 28.166 71.001 38.499s56 15.5 82 15.5zM189.998 81.001h117
c29.333 0 49.833 3.66699 61.5 11s17.5 23 17.5 47v270h-117c-29.333 0 -49.833 -3.66699 -61.5 -11s-17.5 -23 -17.5 -47v-270z" />
    <glyph glyph-name="c" unicode="c" horiz-adv-x="417" 
d="M387 10c-40 -13.333 -84.167 -20 -132.5 -20s-85.5 7.16699 -111.5 21.5s-45 40 -57 77s-18 90.833 -18 161.5c0 102.667 14.5 171.667 43.5 207s81.167 53 156.5 53c42 0 81 -6 117 -18l-22 -84c-40.667 7.33301 -73 11 -97 11c-59.333 0 -89 -24 -89 -72v-265
c25.333 -3.33301 55 -5 89 -5s70.333 6 109 18z" />
    <glyph glyph-name="d" unicode="d" horiz-adv-x="562" 
d="M399 50c-36.667 -43.333 -86.333 -64.999 -149 -64.999s-108.667 18.5 -138 55.5s-44 104.667 -44 203s16.667 165.666 50 201.999s90 54.5 170 54.5h85v153l99 12v-665h-47zM177.001 81.001h117c29.333 0 49.833 3.66699 61.5 11s17.5 23 17.5 47v269h-117
c-29.333 0 -49.833 -3.66699 -61.5 -11s-17.5 -23 -17.5 -47v-269z" />
    <glyph glyph-name="e" unicode="e" horiz-adv-x="533" 
d="M371 420h-114c-29.333 0 -49.833 -3.66699 -61.5 -11s-17.5 -23 -17.5 -47v-89h114c29.333 0 49.833 3.66699 61.5 11s17.5 23 17.5 47v89zM456 20c-56 -18.667 -114.331 -28.001 -174.998 -28.001s-104.834 7 -132.501 21s-48 39.333 -61 76s-19.5 90.334 -19.5 161.001
c0 103.333 15.167 173.333 45.5 210s84 55 161 55s129.333 -10.833 157 -32.5s41.5 -65.834 41.5 -132.501c0 -43.333 -3.83301 -72.166 -11.5 -86.499s-14.334 -25.333 -20.001 -33s-15.5 -14.167 -29.5 -19.5s-26.833 -9.33301 -38.5 -12s-28.834 -5 -51.501 -7
c-32.667 -2 -80.667 -3 -144 -3v-99c30.667 -7.33301 67.334 -11 110.001 -11s92.667 8 150 24z" />
    <glyph glyph-name="f" unicode="f" horiz-adv-x="333" 
d="M220 500h80v-80h-80v-420h-100v420h-70v80h70l7 60c5.33301 45.333 18 75.833 38 91.5s45 23.5 75 23.5s61 -3.33301 93 -10l-11 -81l-102 8v-92z" />
    <glyph glyph-name="g" unicode="g" horiz-adv-x="496" 
d="M81 197.5c-20.667 27 -30.998 73.668 -30.998 140.001s14.5 112.5 43.5 138.5s78.833 39 149.5 39c48.667 0 86.667 -5.66699 114 -17l69 54l50 -49l-57 -67c11.333 -28 17 -63.333 17 -106c0 -68 -13 -115.167 -39 -141.5s-70.667 -40.5 -134 -42.5l-5 -62
c69.333 -4 118.166 -13.333 146.499 -28s42.5 -46.334 42.5 -95.001c0 -42 -11 -71.667 -33 -89c-11.333 -8.66699 -22.333 -15.667 -33 -21s-26.334 -9 -47.001 -11c-26 -3.33301 -66.167 -5 -120.5 -5s-106.166 10 -155.499 30l15 86c61.333 -19.333 125 -29 191 -29
c22.667 0 45 1.66699 67 5v65c-83.333 0 -138.333 7.66699 -165 23c-10 6 -15 12.667 -15 20l34 114c-48.667 5.33301 -83.334 21.5 -104.001 48.5zM153.002 380.001v-145h111c24 0 41.5 2.5 52.5 7.5s16.5 16.5 16.5 34.5v145h-111c-24 0 -41.5 -2.5 -52.5 -7.5
s-16.5 -16.5 -16.5 -34.5z" />
    <glyph glyph-name="h" unicode="h" 
d="M370 510c34 0 59.167 -7.16699 75.5 -21.5s24.5 -40.5 24.5 -78.5v-410h-100v408h-101c-29.333 0 -49.833 -3.66699 -61.5 -11s-17.5 -23 -17.5 -47v-350h-100v657l95 8v-217c61.333 41.333 123 62 185 62z" />
    <glyph glyph-name="i" unicode="i" horiz-adv-x="280" 
d="M90 0v493l100 15v-508h-100zM91.5 588c-8.33301 8.66699 -12.5 24.167 -12.5 46.5s4.16699 38 12.5 47s24.666 13.5 48.999 13.5s40.666 -4.5 48.999 -13.5s12.5 -24.667 12.5 -47s-4.16699 -37.833 -12.5 -46.5s-24.666 -13 -48.999 -13s-40.666 4.33301 -48.999 13z
" />
    <glyph glyph-name="j" unicode="j" horiz-adv-x="280" 
d="M-10 -165v60l52 10c32 6 48 22.667 48 50v538l100 15v-528c0 -52 -10.333 -89.167 -31 -111.5s-51.667 -33.5 -93 -33.5h-76zM91.5 588c-8.33301 8.66699 -12.5 24.167 -12.5 46.5s4.16699 38 12.5 47s24.666 13.5 48.999 13.5s40.666 -4.5 48.999 -13.5
s12.5 -24.667 12.5 -47s-4.16699 -37.833 -12.5 -46.5s-24.666 -13 -48.999 -13s-40.666 4.33301 -48.999 13z" />
    <glyph glyph-name="k" unicode="k" horiz-adv-x="510" 
d="M190 227v-227h-100v650l100 15v-358h69l104 193h107l-128 -233l133 -267h-107l-115 227h-63z" />
    <glyph glyph-name="l" unicode="l" horiz-adv-x="280" 
d="M90 84v566.001l100 15v-592c22.667 -2.66699 38 -4.33398 46 -5.00098l-6 -79c-56.667 0 -94.167 6 -112.5 18s-27.5 37.667 -27.5 77z" />
    <glyph glyph-name="m" unicode="m" horiz-adv-x="825" 
d="M365 510c27.333 0 48.833 -4.5 64.5 -13.5s26.167 -24.833 31.5 -47.5c64 40.667 123.667 61 179 61c34 0 59.167 -7.16699 75.5 -21.5s24.5 -40.5 24.5 -78.5v-410h-100v408h-96c-28 0 -48.167 -3.5 -60.5 -10.5s-18.5 -20.5 -18.5 -40.5v-357h-100v408h-96
c-29.333 0 -49.833 -3.66699 -61.5 -11s-17.5 -23 -17.5 -47v-350h-100v500h46l37 -60c69.333 46.667 133.333 70 192 70z" />
    <glyph glyph-name="n" unicode="n" 
d="M370 510c34 0 59.167 -7.16699 75.5 -21.5s24.5 -40.5 24.5 -78.5v-410h-100v408h-101c-29.333 0 -49.833 -3.66699 -61.5 -11s-17.5 -23 -17.5 -47v-350h-100v500h46l37 -60c69.333 46.667 135 70 197 70z" />
    <glyph glyph-name="o" unicode="o" horiz-adv-x="550" 
d="M68 250c0 94 14.333 161.667 43 203s83.334 62 164.001 62s135.334 -20.667 164.001 -62s43 -109 43 -203s-14.333 -161.667 -43 -203s-83.334 -62 -164.001 -62s-135.334 20.667 -164.001 62s-43 109 -43 203zM177 81h117c29.333 0 49.833 3.66699 61.5 11
s17.5 23 17.5 47v280h-117c-29.333 0 -49.833 -3.66699 -61.5 -11s-17.5 -23 -17.5 -47v-280z" />
    <glyph glyph-name="p" unicode="p" 
d="M334 510c54 0 93 -19.167 117 -57.5s36 -103.833 36 -196.5s-14 -158.5 -42 -197.5s-77.333 -58.5 -148 -58.5h-107v-165l-100 -12v677h46l37 -60c39.333 46.667 93 70 161 70zM191 91h108c29.333 0 49.833 3.66699 61.5 11s17.5 23 17.5 47v260h-107
c-29.333 0 -50 -3.83301 -62 -11.5s-18 -23.167 -18 -46.5v-260z" />
    <glyph glyph-name="q" unicode="q" 
d="M465 500v-666l-100 -11v203c-41.333 -22 -84.333 -33 -129 -33c-67.333 0 -112.166 18.833 -134.499 56.5s-33.5 105 -33.5 202s12.5 164.333 37.5 202s70.667 56.5 137 56.5s118.166 -14.667 155.499 -44l21 34h46zM177 91h109c29.333 0 49.833 3.66699 61.5 11
s17.5 23 17.5 47v260h-109c-29.333 0 -49.833 -3.66699 -61.5 -11s-17.5 -23 -17.5 -47v-260z" />
    <glyph glyph-name="r" unicode="r" horiz-adv-x="338" 
d="M90 500h46.001l35 -79c56 50 101.667 81.333 137 94l10 -98c-20 -4 -42.333 -12.167 -67 -24.5s-45.334 -25.5 -62.001 -39.5v-353h-99v500z" />
    <glyph glyph-name="s" unicode="s" horiz-adv-x="456" 
d="M53 361c0 102.667 55.999 153.999 167.999 153.999c55.333 0 108.333 -8 159 -24l-18 -93c-48 14.667 -96.667 22 -146 22c-14 0 -35 -1.33301 -63 -4v-102c100.667 -14.667 168.834 -35.167 204.501 -61.5s53.5 -65.166 53.5 -116.499c0 -50.667 -11.667 -88 -35 -112
c-24.667 -26 -70.5 -39 -137.5 -39s-129.833 8.33301 -188.5 25l19 96c52.667 -17.333 110 -26 172 -26c22.667 0 46 1.33301 70 4v92c-104 14.667 -173 34.667 -207 60s-51 67 -51 125z" />
    <glyph glyph-name="t" unicode="t" horiz-adv-x="354" 
d="M220 500h89v-79h-89v-348c16 -2 34.667 -3.66699 56 -5l-6 -79c-58 0 -97.5 6.16699 -118.5 18.5s-31.5 37.833 -31.5 76.5v337h-70v79h70v107l100 25v-132z" />
    <glyph glyph-name="u" unicode="u" 
d="M465 0h-47l-26 50c-53.333 -40 -115.333 -60 -186 -60c-38.667 0 -68.5 8 -89.5 24s-31.5 44.667 -31.5 86v400h100v-419h68c36.667 0 64.5 5 83.5 15s28.5 31 28.5 63v341h100v-500z" />
    <glyph glyph-name="v" unicode="v" horiz-adv-x="484" 
d="M163 0l-143 500h102l115 -415h10l115 415h102l-143 -500h-158z" />
    <glyph glyph-name="w" unicode="w" horiz-adv-x="704" 
d="M123 0l-103 500h102l81 -415h11l96 385h84l89 -385h11l88 415h102l-112 -500h-150l-69 295h-8l-73 -295h-149z" />
    <glyph glyph-name="x" unicode="x" horiz-adv-x="490" 
d="M139 500l109 -168l104 168h108l-157 -252l162 -248h-109l-115 176l-108 -176h-108l162 259l-157 241h109z" />
    <glyph glyph-name="y" unicode="y" horiz-adv-x="477" 
d="M219 30l-59.998 -0.000976562l-143 470h102l115 -385h10l115 385h102l-155 -515c-16.667 -55.333 -40.667 -94.166 -72 -116.499s-73 -33.5 -125 -33.5h-84v60l94 18c31.333 6 54.666 14.667 69.999 26s25.666 27 30.999 47v44z" />
    <glyph glyph-name="z" unicode="z" horiz-adv-x="500" 
d="M424 500v-67l-227 -335l3 -6h230v-92h-370v76l230 326l-3 6h-206l-11 92h354z" />
    <glyph glyph-name="braceleft" unicode="{" horiz-adv-x="296" 
d="M201 152l-18 -164.002l83 -7l-6 -77c-65.333 0 -110 5.83301 -134 17.5s-36 40.834 -36 87.501l15 220l-65 16v72l65 16l-15 222c0 46.667 11.167 75.834 33.5 87.501s67.833 17.5 136.5 17.5l6 -77c-2 0 -29.667 -2.33301 -83 -7l18 -166c0 -60 -18.667 -101 -56 -123
v-12c37.333 -22 56 -63 56 -123z" />
    <glyph glyph-name="bar" unicode="|" horiz-adv-x="264" 
d="M100 -180v884h64v-884h-64z" />
    <glyph glyph-name="braceright" unicode="}" horiz-adv-x="296" 
d="M95 412l18 164.002l-83 7l6 77c65.333 0 110 -5.83301 134 -17.5s36 -40.834 36 -87.501l-15 -220l65 -16v-72l-65 -16l15 -222c0 -46.667 -11.167 -75.834 -33.5 -87.501s-67.833 -17.5 -136.5 -17.5l-6 77c2 0 29.667 2.33301 83 7l-18 166c0 60 18.667 101 56 123v12
c-37.333 22 -56 63 -56 123z" />
    <glyph glyph-name="asciitilde" unicode="~" horiz-adv-x="570" 
d="M462 273c-22.667 -25.333 -46.667 -38 -72 -38s-60.666 12.5 -105.999 37.5s-80.5 37.5 -105.5 37.5s-48.833 -12.333 -71.5 -37v80c22.667 24.667 46.5 37 71.5 37s60.167 -12.5 105.5 -37.5s80.666 -37.5 105.999 -37.5s49.333 12.667 72 38v-80z" />
    <glyph glyph-name="nbspace" unicode="&#xa0;" horiz-adv-x="250" 
 />
    <glyph glyph-name="exclamdown" unicode="&#xa1;" horiz-adv-x="270" 
d="M158 -117h-46c-24.667 0 -37 9 -37 27l30 388h60l30 -388c0 -18 -12.333 -27 -37 -27zM184.5 501c8.33301 -9.33301 12.5 -25.5 12.5 -48.5s-4.16699 -39.333 -12.5 -49s-24.666 -14.5 -48.999 -14.5s-40.666 4.83301 -48.999 14.5s-12.5 26 -12.5 49
s4.16699 39.167 12.5 48.5s24.666 14 48.999 14s40.666 -4.66699 48.999 -14z" />
    <glyph glyph-name="cent" unicode="&#xa2;" horiz-adv-x="399" 
d="M59 245c0 164.667 47.332 253.999 141.999 267.999l5 87h57l-4 -86c28 -2 59.667 -8 95 -18l-18 -75h-87c-22.667 0 -40.167 -5.66699 -52.5 -17s-19.5 -36 -21.5 -74l-10 -211c19.333 -2 44 -3 74 -3s62.333 5 97 15l6 -75c-31.333 -16 -68.666 -24.333 -111.999 -25
l-4 -95h-57l5 100c-41.333 9.33301 -70.833 31.333 -88.5 66s-26.5 82.334 -26.5 143.001z" />
    <glyph glyph-name="sterling" unicode="&#xa3;" horiz-adv-x="526" 
d="M60 287l-0.000976562 56.999h75l9 99c6 66.667 22.167 116.334 48.5 149.001s63.833 49 112.5 49s95.334 -6.33301 140.001 -19l-20 -75h-104c-23.333 0 -41 -7.16699 -53 -21.5s-20 -46.833 -24 -97.5l-7 -84h150l-7 -57h-148l-16 -197h235l25 -90h-416v48l50 17l20 222
h-70z" />
    <glyph glyph-name="currency" unicode="&#xa4;" horiz-adv-x="558" 
d="M89 313c0 68 7.66699 114.666 23 139.999l-92 93l46 46l95 -96c27.333 12.667 66 19 116 19s89.667 -6.33301 119 -19l96 96l46 -46l-93 -93c15.333 -27.333 23 -74.166 23 -140.499s-7.66699 -112.833 -23 -139.5l93 -93l-46 -46l-96 96
c-27.333 -12.667 -66.333 -19 -117 -19s-90 6 -118 18l-95 -95l-46 46l92 92c-15.333 26 -23 73 -23 141zM197 393.999v-203h103c21.333 0 36.333 2.5 45 7.5s13 16.167 13 33.5v203h-105c-22 0 -36.833 -2.33301 -44.5 -7s-11.5 -16 -11.5 -34z" />
    <glyph glyph-name="yen" unicode="&#xa5;" horiz-adv-x="500" 
d="M440 150h-140v-150h-100v150h-140v57h131l-31 80h-100v57h78l-108 281h106l106 -294h16l106 294h106l-109 -281h79v-57h-101l-31 -80h132v-57z" />
    <glyph glyph-name="brokenbar" unicode="&#xa6;" horiz-adv-x="264" 
d="M100 368v336h64v-336h-64zM100 -180v336h64v-336h-64z" />
    <glyph glyph-name="section" unicode="&#xa7;" horiz-adv-x="528" 
d="M200 186l180 -0.000976562v86c0 15.333 -1.83301 25 -5.5 29s-13.167 6 -28.5 6h-180v-85c0 -15.333 1.83301 -25.166 5.5 -29.499s13.167 -6.5 28.5 -6.5zM360 -29.001l0.00195312 134.002c-106.667 0 -180.167 11.167 -220.5 33.5s-60.5 58.5 -60.5 108.5
c0 39.333 7.66699 71 23 95c-15.333 22 -23 50 -23 84s2.16699 61.5 6.5 82.5s11.333 38.167 21 51.5s19.667 24 30 32s23.833 14 40.5 18c26 5.33301 63 8 111 8s96.667 -8.33301 146 -25l-22 -67h-227v-134c107.333 0 180.666 -13.333 219.999 -40
c19.333 -12.667 33 -27.167 41 -43.5s12 -39.833 12 -70.5s-8.33301 -58.334 -25 -83.001c16.667 -24 25 -51.5 25 -82.5s-2.16699 -56.167 -6.5 -75.5s-9.83301 -35.5 -16.5 -48.5s-15.834 -24 -27.501 -33s-22.667 -15.833 -33 -20.5s-23.833 -8.33398 -40.5 -11.001
c-25.333 -3.33301 -54 -5 -86 -5c-64.667 0 -124 10 -178 30l22 62h268z" />
    <glyph glyph-name="dieresis" unicode="&#xa8;" horiz-adv-x="386" 
d="M50 632c0 22 3.33301 37.167 10 45.5s20.5 12.5 41.5 12.5s34.833 -4.16699 41.5 -12.5s10 -23.5 10 -45.5s-3.33301 -37 -10 -45s-20.5 -12 -41.5 -12s-34.833 4 -41.5 12s-10 23 -10 45zM233 632c0 22 3.33301 37.167 10 45.5s20.5 12.5 41.5 12.5
s34.833 -4.16699 41.5 -12.5s10 -23.5 10 -45.5s-3.33301 -37 -10 -45s-20.5 -12 -41.5 -12s-34.833 4 -41.5 12s-10 23 -10 45z" />
    <glyph glyph-name="copyright" unicode="&#xa9;" horiz-adv-x="563" 
d="M30 431c0 84.667 19.833 147.667 59.5 189s103.667 62 192 62s152.333 -20.667 192 -62s59.5 -104.333 59.5 -189s-19.833 -147.834 -59.5 -189.501s-103.667 -62.5 -192 -62.5s-152.333 20.833 -192 62.5s-59.5 104.834 -59.5 189.501zM114 602.5
c-32.667 -32.333 -49 -89.666 -49 -171.999s16.333 -139.666 49 -171.999s88.5 -48.5 167.5 -48.5s134.833 16.167 167.5 48.5s49 89.666 49 171.999s-16.333 139.666 -49 171.999s-88.5 48.5 -167.5 48.5s-134.833 -16.167 -167.5 -48.5zM289 274
c-46.667 0 -78.6689 12.3301 -96.002 36.9971s-26 64.334 -26 119.001s8.66699 94.334 26 119.001s49.333 37 96 37c34 0 60.667 -4 80 -12l-12 -60c-18.667 4.66699 -37.667 7 -57 7s-32.333 -1.66699 -39 -5s-10 -9.66602 -10 -18.999v-152
c12.667 -2.66699 28.334 -4 47.001 -4s40.334 3.66699 65.001 11l6 -66c-19.333 -8 -46 -12 -80 -12z" />
    <glyph glyph-name="ordfeminine" unicode="&#xaa;" horiz-adv-x="458" 
d="M88 748c42 14.667 87.834 22.001 137.501 22.001s87.667 -9.83301 114 -29.5s39.5 -54.834 39.5 -105.501v-279h-45l-20 42c-32 -36 -76.333 -54 -133 -54c-82.667 0 -124 43.667 -124 131c0 46 14.167 77.667 42.5 95s77.166 26 146.499 26h54v96c-20 2 -46.5 3 -79.5 3
s-70.833 -5.66699 -113.5 -17zM141.001 503.001l-0.000976562 -81h111c10.667 0 19 0.5 25 1.5s11.333 4 16 9s7 12.167 7 21.5v84h-113c-11.333 0 -19.666 -0.666992 -24.999 -2c-14 -2 -21 -13 -21 -33zM85 221.001l0.000976562 30c0 13.333 3.5 21.5 10.5 24.5
s19.5 4.5 37.5 4.5h240v-28c0 -13.333 -3.83301 -21.833 -11.5 -25.5s-19.834 -5.5 -36.501 -5.5h-240z" />
    <glyph glyph-name="guillemotleft" unicode="&#xab;" horiz-adv-x="432" 
d="M25 290l151 154l35 -27l-96 -167l96 -167l-35 -27l-151 153v81zM221 290l151 154l35 -27l-96 -167l96 -167l-35 -27l-151 153v81z" />
    <glyph glyph-name="logicalnot" unicode="&#xac;" horiz-adv-x="570" 
d="M107 272v80h355v-188h-79v108h-276z" />
    <glyph glyph-name="registered" unicode="&#xae;" horiz-adv-x="563" 
d="M30 431c0 84.667 19.833 147.667 59.5 189s103.667 62 192 62s152.333 -20.667 192 -62s59.5 -104.333 59.5 -189s-19.833 -147.834 -59.5 -189.501s-103.667 -62.5 -192 -62.5s-152.333 20.833 -192 62.5s-59.5 104.834 -59.5 189.501zM114 602.5
c-32.667 -32.333 -49 -89.666 -49 -171.999s16.333 -139.666 49 -171.999s88.5 -48.5 167.5 -48.5s134.833 16.167 167.5 48.5s49 89.666 49 171.999s-16.333 139.666 -49 171.999s-88.5 48.5 -167.5 48.5s-134.833 -16.167 -167.5 -48.5zM247 378v-97h-77v300h132
c66.667 0 100 -33.667 100 -101c0 -46 -15 -76.333 -45 -91l56 -108h-87l-42 97h-37zM247 519l0.000976562 -82h41c11.333 0 19.666 1.33301 24.999 4s8 8.33398 8 17.001v41c0 11.333 -5 17.666 -15 18.999c-4 0.666992 -10 1 -18 1h-41z" />
    <glyph glyph-name="macron" unicode="&#xaf;" horiz-adv-x="399" 
d="M321 586h-198.001c-19.333 0 -31.666 3.16699 -36.999 9.5s-8 18.5 -8 36.5v35h199c19.333 0 31.5 -3 36.5 -9s7.5 -18 7.5 -36v-36z" />
    <glyph glyph-name="degree" unicode="&#xb0;" horiz-adv-x="407" 
d="M91 419.5c-23.333 24.333 -35 61.333 -35 111s11.667 86.667 35 111s60.833 36.5 112.5 36.5s89.167 -12.167 112.5 -36.5s35 -61.333 35 -111s-11.667 -86.667 -35 -111s-60.833 -36.5 -112.5 -36.5s-89.167 12.167 -112.5 36.5zM140 562v-101h63
c15.333 0 26.5 0.5 33.5 1.5s13.5 4.5 19.5 10.5s9 15 9 27v100h-57c-16.667 0 -29 -0.5 -37 -1.5s-15.167 -4.33301 -21.5 -10s-9.5 -14.5 -9.5 -26.5z" />
    <glyph glyph-name="plusminus" unicode="&#xb1;" horiz-adv-x="570" 
d="M108 333v80h137v137h80v-137h138v-80h-138v-138h-80v138h-137zM107 22v80h355v-80h-355z" />
    <glyph glyph-name="twosuperior" unicode="&#xb2;" horiz-adv-x="373" 
d="M50 719c47.333 12.667 94.5 19.001 141.5 19.001s82.5 -7.5 106.5 -22.5s36 -44.833 36 -89.5s-11.833 -76.667 -35.5 -96s-73.834 -42 -150.501 -68v-50h180v-69h-288v69c0 41.333 14 72.666 42 93.999c24.667 18 59.334 36.667 104.001 56l51 22v71
c-18 3.33301 -42.333 5 -73 5s-64 -4 -100 -12z" />
    <glyph glyph-name="threesuperior" unicode="&#xb3;" horiz-adv-x="373" 
d="M49 346c6 36 10.999 63 14.999 81c34.667 -8.66699 65.834 -13 93.501 -13s53.167 1.33301 76.5 4v73l-104 15v59l104 17v73c-16.667 3.33301 -38.667 5 -66 5s-60 -3.66699 -98 -11l-14 67c45.333 14.667 90.5 22 135.5 22s79 -6 102 -18s34.5 -37 34.5 -75
s-18.333 -68.333 -55 -91v-6c43.333 -23.333 65 -55 65 -95c0 -41.333 -11 -71.333 -33 -90c-18 -15.333 -45 -24.333 -81 -27c-13.333 -1.33301 -36.5 -2 -69.5 -2s-68.167 4 -105.5 12z" />
    <glyph glyph-name="acute" unicode="&#xb4;" horiz-adv-x="429" 
d="M260 708c3.33301 2.66699 6.16699 3.99902 8.5 3.99902s4.83301 -1.66699 7.5 -5l44 -54c4 -5.33301 6 -9.16602 6 -11.499s-1.33301 -4.83301 -4 -7.5l-30 -25c-6 -4.66699 -13.333 -8 -22 -10l-140 -35l-22 34z" />
    <glyph glyph-name="mu" unicode="&#xb5;" horiz-adv-x="560" 
d="M255 0l-82.001 0.000976562l-32 -165h-51v665h100v-419h83c30 0 53.667 5.16699 71 15.5s26 31.166 26 62.499v341l100 15v-515h-47l-26 50c-31.333 -33.333 -78.666 -50 -141.999 -50z" />
    <glyph glyph-name="paragraph" unicode="&#xb6;" horiz-adv-x="604" 
d="M110 0v35l95 32v230c-90 12 -135 65.667 -135 161c0 111.333 62.333 167 187 167h267v-90h-50v-535h-95v535h-110v-535h-159z" />
    <glyph glyph-name="periodcentered" unicode="&#xb7;" horiz-adv-x="221" 
d="M45 224c0 30 4.5 51 13.5 63s26.333 18 52 18s43 -6 52 -18s13.5 -33 13.5 -63s-4.33301 -50.833 -13 -62.5s-26 -17.5 -52 -17.5s-43.5 5.83301 -52.5 17.5s-13.5 32.5 -13.5 62.5z" />
    <glyph glyph-name="cedilla" unicode="&#xb8;" horiz-adv-x="266" 
d="M137 -66l-0.000976562 87h19c18.667 -8.66699 33.334 -22.5 44.001 -41.5s16 -39.833 16 -62.5s-8.16699 -42 -24.5 -58s-38 -24 -65 -24s-52.5 5.33301 -76.5 16l9 51h35c15.333 0 26.333 2 33 6s10 12.667 10 26z" />
    <glyph glyph-name="onesuperior" unicode="&#xb9;" horiz-adv-x="373" 
d="M167 641l-108 -9v64l136 32h66v-316h78v-69h-280v69h108v229z" />
    <glyph glyph-name="ordmasculine" unicode="&#xba;" horiz-adv-x="472" 
d="M65 557c0 80 12.667 135.5 38 166.5s68.666 46.5 129.999 46.5s104.666 -15.5 129.999 -46.5s38 -86.5 38 -166.5s-12.667 -135.5 -38 -166.5s-68.666 -46.5 -129.999 -46.5s-104.666 15.5 -129.999 46.5s-38 86.5 -38 166.5zM156 678v-266h107c16 0 27.833 1.5 35.5 4.5
s11.5 9.83301 11.5 20.5v266h-108c-16 0 -27.667 -1.5 -35 -4.5s-11 -9.83301 -11 -20.5zM85 221l0.000976562 30c0 13.333 3.5 21.5 10.5 24.5s19.5 4.5 37.5 4.5h240v-28c0 -13.333 -3.83301 -21.833 -11.5 -25.5s-19.834 -5.5 -36.501 -5.5h-240z" />
    <glyph glyph-name="guillemotright" unicode="&#xbb;" horiz-adv-x="432" 
d="M256 444l151 -154v-81l-151 -153l-35 27l96 167l-96 167zM60 444l151 -154v-81l-151 -153l-35 27l96 167l-96 167z" />
    <glyph glyph-name="onequarter" unicode="&#xbc;" horiz-adv-x="971" 
d="M377 -40h-51l269 680c3.33301 6.66699 6.33301 11.334 9 14.001c7.33301 7.33301 18.666 11 33.999 11h51l-269 -680c-3.33301 -6.66699 -6.33301 -11.334 -9 -14.001c-7.33301 -7.33301 -18.666 -11 -33.999 -11zM584 129l97 256h188v-245h42v-70h-42v-70h-87v70h-198
v59zM782 140v183h-32l-77 -183h109zM173 538l-108 -9v64l136 32h66v-316h78v-69h-280v69h108v229z" />
    <glyph glyph-name="onehalf" unicode="&#xbd;" horiz-adv-x="971" 
d="M347 -40h-51l269 680c3.33301 6.66699 6.33301 11.334 9 14.001c7.33301 7.33301 18.666 11 33.999 11h51l-269 -680c-3.33301 -6.66699 -6.33301 -11.334 -9 -14.001c-7.33301 -7.33301 -18.666 -11 -33.999 -11zM607 376c47.333 12.667 94.5 19 141.5 19
s82.5 -7.5 106.5 -22.5s36 -44.833 36 -89.5s-11.833 -76.667 -35.5 -96s-73.834 -42 -150.501 -68v-50h180v-69h-288v69c0 41.333 14 72.333 42 93c24.667 18.667 59.334 37.667 104.001 57l51 22v71c-18.667 3.33301 -43.167 5 -73.5 5s-63.5 -4 -99.5 -12zM173 538
l-108 -9v64l136 32h66v-316h78v-69h-280v69h108v229z" />
    <glyph glyph-name="threequarters" unicode="&#xbe;" horiz-adv-x="971" 
d="M358 -40h-51l269 680c3.33301 6.66699 6.33301 11.334 9 14.001c7.33301 7.33301 18.666 11 33.999 11h51l-269 -680c-3.33301 -6.66699 -6.33301 -11.334 -9 -14.001c-7.33301 -7.33301 -18.666 -11 -33.999 -11zM584 129l97 256h188v-245h42v-70h-42v-70h-87v70h-198
v59zM782 140v183h-32l-77 -183h109zM250 552c-16.667 3.33301 -38.668 4.99902 -66.001 4.99902s-60 -3.66699 -98 -11l-14 67c45.333 14.667 90.5 22 135.5 22s79 -6 102 -18s34.5 -37 34.5 -75s-18.333 -68.333 -55 -91v-6c43.333 -23.333 65 -55 65 -95
c0 -41.333 -11 -71.333 -33 -90c-18 -15.333 -45 -24.666 -81 -27.999c-13.333 -0.666992 -36.5 -1 -69.5 -1s-68.167 4 -105.5 12l15 81c34.667 -8.66699 65.834 -13 93.501 -13s53.167 1.33301 76.5 4v73l-104 15v59l104 17v73z" />
    <glyph glyph-name="questiondown" unicode="&#xbf;" horiz-adv-x="418" 
d="M276 288c2 -28 6 -76.333 12 -145c0 -9.33301 -4.16699 -16.833 -12.5 -22.5s-24.833 -12.834 -49.5 -21.501l-96 -33v-105c12 -1.33301 31.667 -2 59 -2c66 0 121 6.66699 165 20l24 -83c-56 -18.667 -104.167 -28 -144.5 -28s-70 1.33301 -89 4
s-38.167 8.33398 -57.5 17.001c-38 17.333 -57 56 -57 116c0 47.333 12.833 82.5 38.5 105.5s68.5 44.833 128.5 65.5l5 112h74zM307 451c0 -24 -4.5 -40.833 -13.5 -50.5s-26.333 -14.5 -52 -14.5s-43 4.83301 -52 14.5s-13.5 26.5 -13.5 50.5s4.33301 40.667 13 50
s26 14 52 14s43.5 -4.66699 52.5 -14s13.5 -26 13.5 -50z" />
    <glyph glyph-name="Agrave" unicode="&#xc0;" horiz-adv-x="549" 
d="M425 0l-34 137h-234l-33 -137h-106l162 625h189l162 -625h-106zM254 533l-75 -306h190l-74 306h-41zM137 749c-2.66699 2.66699 -3.99902 5.16797 -3.99902 7.50098s2 6.16602 6 11.499l44 54c2.66699 3.33301 5.16699 5 7.5 5s5.16602 -1.33301 8.49902 -4l152 -110
l-22 -34l-140 35c-8.66699 2 -16 5.33301 -22 10z" />
    <glyph glyph-name="Aacute" unicode="&#xc1;" horiz-adv-x="549" 
d="M425 0l-34 137h-234l-33 -137h-106l162 625h189l162 -625h-106zM254 533l-75 -306h190l-74 306h-41zM320 818c3.33301 2.66699 6.16699 3.99902 8.5 3.99902s4.83301 -1.66699 7.5 -5l44 -54c4 -5.33301 6 -9.16602 6 -11.499s-1.33301 -4.83301 -4 -7.5l-30 -25
c-6 -4.66699 -13.333 -8 -22 -10l-140 -35l-22 34z" />
    <glyph glyph-name="Acircumflex" unicode="&#xc2;" horiz-adv-x="549" 
d="M425 0l-34 137h-234l-33 -137h-106l162 625h189l162 -625h-106zM254 533l-75 -306h190l-74 306h-41zM265 836h18.002c3.33301 0 6.66602 -2 9.99902 -6l114 -116l-40 -34l-93 64l-93 -64l-40 34l114 116c3.33301 4 6.66602 6 9.99902 6z" />
    <glyph glyph-name="Atilde" unicode="&#xc3;" horiz-adv-x="549" 
d="M425 0l-34 137h-234l-33 -137h-106l162 625h189l162 -625h-106zM254 533l-75 -306h190l-74 306h-41zM329 695.5c-11.333 -5 -23.6689 -7.5 -37.002 -7.5s-30.666 10.333 -51.999 31l-15 12l-66 -33l-31 51l30 21c30 19.333 50.333 31.5 61 36.5s22.5 7.5 35.5 7.5
s30.833 -10.333 53.5 -31l15 -12l66 33l31 -51l-30 -21c-29.333 -19.333 -49.666 -31.5 -60.999 -36.5z" />
    <glyph glyph-name="Adieresis" unicode="&#xc4;" horiz-adv-x="549" 
d="M425 0l-34 137h-234l-33 -137h-106l162 625h189l162 -625h-106zM254 533l-75 -306h190l-74 306h-41zM131 756c0 22 3.33301 37.167 10 45.5s20.5 12.5 41.5 12.5s34.833 -4.16699 41.5 -12.5s10 -23.5 10 -45.5s-3.33301 -37 -10 -45s-20.5 -12 -41.5 -12
s-34.833 4 -41.5 12s-10 23 -10 45zM314 756c0 22 3.33301 37.167 10 45.5s20.5 12.5 41.5 12.5s34.833 -4.16699 41.5 -12.5s10 -23.5 10 -45.5s-3.33301 -37 -10 -45s-20.5 -12 -41.5 -12s-34.833 4 -41.5 12s-10 23 -10 45z" />
    <glyph glyph-name="Aring" unicode="&#xc5;" horiz-adv-x="549" 
d="M425 0l-34 137h-234l-33 -137h-106l162 625h189l162 -625h-106zM254 533l-75 -306h190l-74 306h-41zM176 762c0 33.333 7.83301 58 23.5 74s40.834 24 75.501 24s59.667 -8 75 -24s23 -40.667 23 -74s-7.66699 -58.166 -23 -74.499s-40.333 -24.5 -75 -24.5
s-59.834 8.16699 -75.501 24.5s-23.5 41.166 -23.5 74.499zM232 783v-68h42c10 0 17.333 0.333008 22 1c13.333 2 20 10.333 20 25v67h-39c-20 0 -32.5 -2.33301 -37.5 -7s-7.5 -10.667 -7.5 -18z" />
    <glyph glyph-name="AE" unicode="&#xc6;" horiz-adv-x="736" 
d="M619 351v-85h-157l45 -176h204v-90h-286l-34 137h-234l-33 -137h-106l162 625h481l-15 -90h-254l48 -184h179zM254 533l-75 -306h190l-74 306h-41z" />
    <glyph glyph-name="Ccedilla" unicode="&#xc7;" horiz-adv-x="445" 
d="M239 -66l0.000976562 56.999c-74.667 4.66699 -124.834 29.334 -150.501 74.001s-38.5 129.667 -38.5 255s14.833 210 44.5 254s89.5 66 179.5 66c54 0 99.333 -7 136 -21l-15 -88c-45.333 9.33301 -88.5 14 -129.5 14s-68.833 -3.66699 -83.5 -11s-22 -22.333 -22 -45
v-391c31.333 -10 68.333 -15 111 -15s89 6.66699 139 20l10 -92c-34 -12 -75.667 -19 -125 -21c15.333 -20.667 23 -43.667 23 -69s-8.16699 -46 -24.5 -62s-38 -24 -65 -24s-52.5 5.33301 -76.5 16l9 51h35c15.333 0 26.333 2 33 6s10 12.667 10 26z" />
    <glyph glyph-name="Egrave" unicode="&#xc8;" horiz-adv-x="455" 
d="M370 266h-200v-176h245v-90h-345v625h340l-15 -90h-225v-184h200v-85zM132 749c-2.66699 2.66699 -3.99902 5.16797 -3.99902 7.50098s2 6.16602 6 11.499l44 54c2.66699 3.33301 5.16699 5 7.5 5s5.16602 -1.33301 8.49902 -4l152 -110l-22 -34l-140 35
c-8.66699 2 -16 5.33301 -22 10z" />
    <glyph glyph-name="Eacute" unicode="&#xc9;" horiz-adv-x="455" 
d="M370 266h-200v-176h245v-90h-345v625h340l-15 -90h-225v-184h200v-85zM290 818c3.33301 2.66699 6.16699 3.99902 8.5 3.99902s4.83301 -1.66699 7.5 -5l44 -54c4 -5.33301 6 -9.16602 6 -11.499s-1.33301 -4.83301 -4 -7.5l-30 -25c-6 -4.66699 -13.333 -8 -22 -10
l-140 -35l-22 34z" />
    <glyph glyph-name="Ecircumflex" unicode="&#xca;" horiz-adv-x="455" 
d="M370 266h-200v-176h245v-90h-345v625h340l-15 -90h-225v-184h200v-85zM236 836h18c4 0 7.33301 -2 10 -6l114 -116l-40 -34l-93 64l-93 -64l-40 34l114 116c2.66699 4 6 6 10 6z" />
    <glyph glyph-name="Edieresis" unicode="&#xcb;" horiz-adv-x="455" 
d="M370 266h-200v-176h245v-90h-345v625h340l-15 -90h-225v-184h200v-85zM104 756c0 22 3.33301 37.167 10 45.5s20.5 12.5 41.5 12.5s34.833 -4.16699 41.5 -12.5s10 -23.5 10 -45.5s-3.33301 -37 -10 -45s-20.5 -12 -41.5 -12s-34.833 4 -41.5 12s-10 23 -10 45zM287 756
c0 22 3.33301 37.167 10 45.5s20.5 12.5 41.5 12.5s34.833 -4.16699 41.5 -12.5s10 -23.5 10 -45.5s-3.33301 -37 -10 -45s-20.5 -12 -41.5 -12s-34.833 4 -41.5 12s-10 23 -10 45z" />
    <glyph glyph-name="Igrave" unicode="&#xcc;" horiz-adv-x="240" 
d="M70 0v625h100v-625h-100zM-17 749c-2.66699 2.66699 -3.99902 5.16797 -3.99902 7.50098s2 6.16602 6 11.499l44 54c2.66699 3.33301 5.16699 5 7.5 5s5.16602 -1.33301 8.49902 -4l152 -110l-22 -34l-140 35c-8.66699 2 -16 5.33301 -22 10z" />
    <glyph glyph-name="Iacute" unicode="&#xcd;" horiz-adv-x="240" 
d="M70 0v625h100v-625h-100zM166 818c3.33301 2.66699 6.16699 3.99902 8.5 3.99902s4.83301 -1.66699 7.5 -5l44 -54c4 -5.33301 6 -9.16602 6 -11.499s-1.33301 -4.83301 -4 -7.5l-30 -25c-6 -4.66699 -13.333 -8 -22 -10l-140 -35l-22 34z" />
    <glyph glyph-name="Icircumflex" unicode="&#xce;" horiz-adv-x="240" 
d="M70 0v625h100v-625h-100zM111 836h18.001c3.33301 0 6.66602 -2 9.99902 -6l114 -116l-40 -34l-93 64l-93 -64l-40 34l114 116c2.66699 4 6 6 10 6z" />
    <glyph glyph-name="Idieresis" unicode="&#xcf;" horiz-adv-x="240" 
d="M70 0v625h100v-625h-100zM-23 756c0 22 3.33301 37.167 10 45.5s20.5 12.5 41.5 12.5s34.833 -4.16699 41.5 -12.5s10 -23.5 10 -45.5s-3.33301 -37 -10 -45s-20.5 -12 -41.5 -12s-34.833 4 -41.5 12s-10 23 -10 45zM160 756c0 22 3.33301 37.167 10 45.5
s20.5 12.5 41.5 12.5s34.833 -4.16699 41.5 -12.5s10 -23.5 10 -45.5s-3.33301 -37 -10 -45s-20.5 -12 -41.5 -12s-34.833 4 -41.5 12s-10 23 -10 45z" />
    <glyph glyph-name="Eth" unicode="&#xd0;" horiz-adv-x="561" 
d="M70 0v269.998h-58v56c0 16.667 12.667 25 38 25h20v274h194c53.333 0 95.166 -3.83301 125.499 -11.5s55.166 -23.667 74.499 -48s32 -55.666 38 -93.999s9 -91.333 9 -159s-3 -120.667 -9 -159s-18.667 -69.666 -38 -93.999s-44.166 -40.333 -74.499 -48
s-72.166 -11.5 -125.499 -11.5h-194zM323 534.998h-153v-184h88v-55c0 -14 -8 -22 -24 -24c-6 -1.33301 -14.667 -2 -26 -2h-38v-180h153c27.333 0 47.166 3.16699 59.499 9.5s18.5 20.833 18.5 43.5v339c0 22.667 -6.16699 37.167 -18.5 43.5s-32.166 9.5 -59.499 9.5z" />
    <glyph glyph-name="Ntilde" unicode="&#xd1;" horiz-adv-x="575" 
d="M170 458v-458h-100v625h108l213 -410c5.33301 -7.33301 8.66602 -23.333 9.99902 -48h4v458h100v-625h-108l-213 410c-5.33301 7.33301 -8.66602 23.333 -9.99902 48h-4zM342 695.5c-11.333 -5 -23.6689 -7.5 -37.002 -7.5s-30.666 10.333 -51.999 31l-15 12l-66 -33
l-31 51l30 21c30 19.333 50.333 31.5 61 36.5s22.5 7.5 35.5 7.5s30.833 -10.333 53.5 -31l15 -12l66 33l31 -51l-30 -21c-29.333 -19.333 -49.666 -31.5 -60.999 -36.5z" />
    <glyph glyph-name="Ograve" unicode="&#xd2;" horiz-adv-x="581" 
d="M98 51c-32 44 -48 131.167 -48 261.5s16 217.5 48 261.5s96 66 192 66s160.167 -22.167 192.5 -66.5s48.5 -131.5 48.5 -261.5s-16.167 -217 -48.5 -261s-96.5 -66 -192.5 -66s-160 22 -192 66zM160 486l0.000976562 -400h183c27.333 0 47.166 3.16699 59.499 9.5
s18.5 20.833 18.5 43.5v400h-184c-26.667 0 -46.167 -3.16699 -58.5 -9.5s-18.5 -20.833 -18.5 -43.5zM152.001 749c-2.66699 2.66699 -3.99902 5.16797 -3.99902 7.50098s2 6.16602 6 11.499l44 54c2.66699 3.33301 5.16699 5 7.5 5s5.16602 -1.33301 8.49902 -4l152 -110
l-22 -34l-140 35c-8.66699 2 -16 5.33301 -22 10z" />
    <glyph glyph-name="Oacute" unicode="&#xd3;" horiz-adv-x="581" 
d="M98 51c-32 44 -48 131.167 -48 261.5s16 217.5 48 261.5s96 66 192 66s160.167 -22.167 192.5 -66.5s48.5 -131.5 48.5 -261.5s-16.167 -217 -48.5 -261s-96.5 -66 -192.5 -66s-160 22 -192 66zM160 486l0.000976562 -400h183c27.333 0 47.166 3.16699 59.499 9.5
s18.5 20.833 18.5 43.5v400h-184c-26.667 0 -46.167 -3.16699 -58.5 -9.5s-18.5 -20.833 -18.5 -43.5zM336.001 818c3.33301 2.66699 6.16699 3.99902 8.5 3.99902s4.83301 -1.66699 7.5 -5l44 -54c4 -5.33301 6 -9.16602 6 -11.499s-1.33301 -4.83301 -4 -7.5l-30 -25
c-6 -4.66699 -13.333 -8 -22 -10l-140 -35l-22 34z" />
    <glyph glyph-name="Ocircumflex" unicode="&#xd4;" horiz-adv-x="581" 
d="M98 51c-32 44 -48 131.167 -48 261.5s16 217.5 48 261.5s96 66 192 66s160.167 -22.167 192.5 -66.5s48.5 -131.5 48.5 -261.5s-16.167 -217 -48.5 -261s-96.5 -66 -192.5 -66s-160 22 -192 66zM160 486l0.000976562 -400h183c27.333 0 47.166 3.16699 59.499 9.5
s18.5 20.833 18.5 43.5v400h-184c-26.667 0 -46.167 -3.16699 -58.5 -9.5s-18.5 -20.833 -18.5 -43.5zM281.001 836h18.002c3.33301 0 6.66602 -2 9.99902 -6l114 -116l-40 -34l-93 64l-93 -64l-40 34l114 116c3.33301 4 6.66602 6 9.99902 6z" />
    <glyph glyph-name="Otilde" unicode="&#xd5;" horiz-adv-x="581" 
d="M98 51c-32 44 -48 131.167 -48 261.5s16 217.5 48 261.5s96 66 192 66s160.167 -22.167 192.5 -66.5s48.5 -131.5 48.5 -261.5s-16.167 -217 -48.5 -261s-96.5 -66 -192.5 -66s-160 22 -192 66zM160 486l0.000976562 -400h183c27.333 0 47.166 3.16699 59.499 9.5
s18.5 20.833 18.5 43.5v400h-184c-26.667 0 -46.167 -3.16699 -58.5 -9.5s-18.5 -20.833 -18.5 -43.5zM345.001 695.5c-11.333 -5 -23.6689 -7.5 -37.002 -7.5s-30.666 10.333 -51.999 31l-15 12l-66 -33l-31 51l30 21c30 19.333 50.333 31.5 61 36.5s22.5 7.5 35.5 7.5
s30.833 -10.333 53.5 -31l15 -12l66 33l31 -51l-30 -21c-29.333 -19.333 -49.666 -31.5 -60.999 -36.5z" />
    <glyph glyph-name="Odieresis" unicode="&#xd6;" horiz-adv-x="581" 
d="M98 51c-32 44 -48 131.167 -48 261.5s16 217.5 48 261.5s96 66 192 66s160.167 -22.167 192.5 -66.5s48.5 -131.5 48.5 -261.5s-16.167 -217 -48.5 -261s-96.5 -66 -192.5 -66s-160 22 -192 66zM160 486l0.000976562 -400h183c27.333 0 47.166 3.16699 59.499 9.5
s18.5 20.833 18.5 43.5v400h-184c-26.667 0 -46.167 -3.16699 -58.5 -9.5s-18.5 -20.833 -18.5 -43.5zM147.001 756c0 22 3.33301 37.167 10 45.5s20.5 12.5 41.5 12.5s34.833 -4.16699 41.5 -12.5s10 -23.5 10 -45.5s-3.33301 -37 -10 -45s-20.5 -12 -41.5 -12
s-34.833 4 -41.5 12s-10 23 -10 45zM330.001 756c0 22 3.33301 37.167 10 45.5s20.5 12.5 41.5 12.5s34.833 -4.16699 41.5 -12.5s10 -23.5 10 -45.5s-3.33301 -37 -10 -45s-20.5 -12 -41.5 -12s-34.833 4 -41.5 12s-10 23 -10 45z" />
    <glyph glyph-name="multiply" unicode="&#xd7;" horiz-adv-x="570" 
d="M166 137l-57 56l118 118l-118 119l57 56l118 -118l119 119l56 -57l-119 -119l119 -118l-56 -57l-119 119z" />
    <glyph glyph-name="Oslash" unicode="&#xd8;" horiz-adv-x="581" 
d="M531 312c0 -130 -16.167 -217.001 -48.5 -261.001s-96.5 -66 -192.5 -66c-48.667 0 -87.334 4.66699 -116.001 14l-6 -14c-3.33301 -6.66699 -6.33301 -11.334 -9 -14.001c-7.33301 -7.33301 -18.666 -11 -33.999 -11h-41l34 70c-25.333 22 -43 55 -53 99
s-15 105 -15 183c0 130.667 16 218 48 262s96 66 192 66c48.667 0 87.334 -4.66699 116.001 -14l7 14c3.33301 6.66699 6.33301 11.334 9 14.001c7.33301 7.33301 18.666 11 33.999 11h41l-34 -70c24.667 -22.667 42.167 -56.167 52.5 -100.5s15.5 -105.166 15.5 -182.499z
M160 485.999v-369l204 422h-127c-26.667 0 -46.167 -3.16699 -58.5 -9.5s-18.5 -20.833 -18.5 -43.5zM343 85.999c27.333 0 47.167 3.16699 59.5 9.5s18.5 20.833 18.5 43.5v369l-204 -422h126z" />
    <glyph glyph-name="Ugrave" unicode="&#xd9;" horiz-adv-x="567" 
d="M502 625l-0.000976562 -400c0 -82.667 -7.33301 -136.334 -22 -161.001c-17.333 -30.667 -38.666 -50.667 -63.999 -60c-35.333 -12.667 -73.666 -19 -114.999 -19s-73 1.83301 -95 5.5s-40.833 8.33398 -56.5 14.001s-28.667 14.167 -39 25.5s-18.5 22.5 -24.5 33.5
s-10.667 25.833 -14 44.5c-4.66699 32 -7 71 -7 117v400h100v-539h123c43.333 0 73.166 3.16699 89.499 9.5s24.5 20.833 24.5 43.5v486h100zM145.999 749c-2.66699 2.66699 -3.99902 5.16797 -3.99902 7.50098s2 6.16602 6 11.499l44 54c2.66699 3.33301 5.16699 5 7.5 5
s5.16602 -1.33301 8.49902 -4l152 -110l-22 -34l-140 35c-8.66699 2 -16 5.33301 -22 10z" />
    <glyph glyph-name="Uacute" unicode="&#xda;" horiz-adv-x="567" 
d="M502 625l-0.000976562 -400c0 -82.667 -7.33301 -136.334 -22 -161.001c-17.333 -30.667 -38.666 -50.667 -63.999 -60c-35.333 -12.667 -73.666 -19 -114.999 -19s-73 1.83301 -95 5.5s-40.833 8.33398 -56.5 14.001s-28.667 14.167 -39 25.5s-18.5 22.5 -24.5 33.5
s-10.667 25.833 -14 44.5c-4.66699 32 -7 71 -7 117v400h100v-539h123c43.333 0 73.166 3.16699 89.499 9.5s24.5 20.833 24.5 43.5v486h100zM328.999 818c3.33301 2.66699 6.16699 3.99902 8.5 3.99902s4.83301 -1.66699 7.5 -5l44 -54c4 -5.33301 6 -9.16602 6 -11.499
s-1.33301 -4.83301 -4 -7.5l-30 -25c-6 -4.66699 -13.333 -8 -22 -10l-140 -35l-22 34z" />
    <glyph glyph-name="Ucircumflex" unicode="&#xdb;" horiz-adv-x="567" 
d="M502 625l-0.000976562 -400c0 -82.667 -7.33301 -136.334 -22 -161.001c-17.333 -30.667 -38.666 -50.667 -63.999 -60c-35.333 -12.667 -73.666 -19 -114.999 -19s-73 1.83301 -95 5.5s-40.833 8.33398 -56.5 14.001s-28.667 14.167 -39 25.5s-18.5 22.5 -24.5 33.5
s-10.667 25.833 -14 44.5c-4.66699 32 -7 71 -7 117v400h100v-539h123c43.333 0 73.166 3.16699 89.499 9.5s24.5 20.833 24.5 43.5v486h100zM273.999 836h18c4 0 7.33301 -2 10 -6l114 -116l-40 -34l-93 64l-93 -64l-40 34l114 116c2.66699 4 6 6 10 6z" />
    <glyph glyph-name="Udieresis" unicode="&#xdc;" horiz-adv-x="567" 
d="M502 625l-0.000976562 -400c0 -82.667 -7.33301 -136.334 -22 -161.001c-17.333 -30.667 -38.666 -50.667 -63.999 -60c-35.333 -12.667 -73.666 -19 -114.999 -19s-73 1.83301 -95 5.5s-40.833 8.33398 -56.5 14.001s-28.667 14.167 -39 25.5s-18.5 22.5 -24.5 33.5
s-10.667 25.833 -14 44.5c-4.66699 32 -7 71 -7 117v400h100v-539h123c43.333 0 73.166 3.16699 89.499 9.5s24.5 20.833 24.5 43.5v486h100zM139.999 756c0 22 3.33301 37.167 10 45.5s20.5 12.5 41.5 12.5s34.833 -4.16699 41.5 -12.5s10 -23.5 10 -45.5
s-3.33301 -37 -10 -45s-20.5 -12 -41.5 -12s-34.833 4 -41.5 12s-10 23 -10 45zM322.999 756c0 22 3.33301 37.167 10 45.5s20.5 12.5 41.5 12.5s34.833 -4.16699 41.5 -12.5s10 -23.5 10 -45.5s-3.33301 -37 -10 -45s-20.5 -12 -41.5 -12s-34.833 4 -41.5 12s-10 23 -10 45
z" />
    <glyph glyph-name="Yacute" unicode="&#xdd;" horiz-adv-x="470" 
d="M285 0h-100v200l-175 425h106l115 -310h7l116 310h106l-175 -425v-200zM296 832c3.33301 2.66699 6.16699 3.99902 8.5 3.99902s4.83301 -1.66699 7.5 -5l44 -54c4 -5.33301 6 -9.16602 6 -11.499s-1.33301 -4.83301 -4 -7.5l-30 -25c-6 -4.66699 -13.333 -8 -22 -10
l-140 -35l-22 34z" />
    <glyph glyph-name="Thorn" unicode="&#xde;" horiz-adv-x="524" 
d="M289 98h-120v-98h-99v625h99v-98h105c80.667 0 134.167 -16.333 160.5 -49s39.5 -86 39.5 -160c0 -33.333 -1.83301 -61 -5.5 -83s-11.167 -44.333 -22.5 -67c-22.667 -46.667 -75 -70 -157 -70zM169 437v-249h126c24 0 41.5 2.5 52.5 7.5s16.5 16.5 16.5 34.5v165
c0 18 -5.5 29.5 -16.5 34.5s-28.5 7.5 -52.5 7.5h-126z" />
    <glyph glyph-name="germandbls" unicode="&#xdf;" horiz-adv-x="625" 
d="M480 196c-105.333 0 -158.002 31.3311 -158.002 93.998c0 16.667 7.66699 35.334 23 56.001s30.833 43.334 46.5 68.001s23.5 51.667 23.5 81c0 63.333 -38.333 95 -115 95c-24 0 -50.667 -2.66699 -80 -8v-582h-100v420h-70v80h70l3 40c4 48 23.833 82.5 59.5 103.5
s78.834 31.5 129.501 31.5c96 0 157 -25.667 183 -77c11.333 -22 17 -49.667 17 -83c0 -64 -34 -134.333 -102 -211c53.333 0 97.5 -13.5 132.5 -40.5s52.5 -67.5 52.5 -121.5s-18.333 -93.667 -55 -119s-80.167 -38 -130.5 -38s-100.833 7.66699 -151.5 23l28 98
c44.667 -16 82.334 -24 113.001 -24s57.667 2.33301 81 7v107z" />
    <glyph glyph-name="agrave" unicode="&#xe0;" horiz-adv-x="533" 
d="M156 81h114c29.333 0 49.833 3.66699 61.5 11s17.5 23 17.5 47v89h-114c-29.333 0 -49.833 -3.66699 -61.5 -11s-17.5 -23 -17.5 -47v-89zM201 -10c-97.333 0 -146 51.667 -146 155c0 60 19.5 102.833 58.5 128.5s96.167 38.5 171.5 38.5h64v100
c-20.667 2.66699 -45.667 4 -75 4c-68 0 -122 -7 -162 -21l-12 84c62 20.667 121.5 31 178.5 31s99.5 -9.5 127.5 -28.5s42 -56.5 42 -112.5v-369h-46l-27 50c-44.667 -40 -102.667 -60 -174 -60zM158 624c-2.66699 2.66699 -3.99902 5.16797 -3.99902 7.50098
s2 6.16602 6 11.499l44 54c2.66699 3.33301 5.16699 5 7.5 5s5.16602 -1.33301 8.49902 -4l152 -110l-22 -34l-140 35c-8.66699 2 -16 5.33301 -22 10z" />
    <glyph glyph-name="aacute" unicode="&#xe1;" horiz-adv-x="533" 
d="M156 81h114c29.333 0 49.833 3.66699 61.5 11s17.5 23 17.5 47v89h-114c-29.333 0 -49.833 -3.66699 -61.5 -11s-17.5 -23 -17.5 -47v-89zM201 -10c-97.333 0 -146 51.667 -146 155c0 60 19.5 102.833 58.5 128.5s96.167 38.5 171.5 38.5h64v100
c-20.667 2.66699 -45.667 4 -75 4c-68 0 -122 -7 -162 -21l-12 84c62 20.667 121.5 31 178.5 31s99.5 -9.5 127.5 -28.5s42 -56.5 42 -112.5v-369h-46l-27 50c-44.667 -40 -102.667 -60 -174 -60zM342 708c3.33301 2.66699 6.16699 3.99902 8.5 3.99902
s4.83301 -1.66699 7.5 -5l44 -54c4 -5.33301 6 -9.16602 6 -11.499s-1.33301 -4.83301 -4 -7.5l-30 -25c-6 -4.66699 -13.333 -8 -22 -10l-140 -35l-22 34z" />
    <glyph glyph-name="acircumflex" unicode="&#xe2;" horiz-adv-x="533" 
d="M156 81h114c29.333 0 49.833 3.66699 61.5 11s17.5 23 17.5 47v89h-114c-29.333 0 -49.833 -3.66699 -61.5 -11s-17.5 -23 -17.5 -47v-89zM201 -10c-97.333 0 -146 51.667 -146 155c0 60 19.5 102.833 58.5 128.5s96.167 38.5 171.5 38.5h64v100
c-20.667 2.66699 -45.667 4 -75 4c-68 0 -122 -7 -162 -21l-12 84c62 20.667 121.5 31 178.5 31s99.5 -9.5 127.5 -28.5s42 -56.5 42 -112.5v-369h-46l-27 50c-44.667 -40 -102.667 -60 -174 -60zM252 712h18c4 0 7.33301 -2 10 -6l114 -116l-40 -34l-93 64l-93 -64l-40 34
l114 116c2.66699 4 6 6 10 6z" />
    <glyph glyph-name="atilde" unicode="&#xe3;" horiz-adv-x="533" 
d="M156 81h114c29.333 0 49.833 3.66699 61.5 11s17.5 23 17.5 47v89h-114c-29.333 0 -49.833 -3.66699 -61.5 -11s-17.5 -23 -17.5 -47v-89zM201 -10c-97.333 0 -146 51.667 -146 155c0 60 19.5 102.833 58.5 128.5s96.167 38.5 171.5 38.5h64v100
c-20.667 2.66699 -45.667 4 -75 4c-68 0 -122 -7 -162 -21l-12 84c62 20.667 121.5 31 178.5 31s99.5 -9.5 127.5 -28.5s42 -56.5 42 -112.5v-369h-46l-27 50c-44.667 -40 -102.667 -60 -174 -60zM317 571.5c-11.333 -5 -23.6689 -7.5 -37.002 -7.5
s-30.666 10.333 -51.999 31l-15 12l-66 -33l-31 51l30 21c30 19.333 50.333 31.5 61 36.5s22.5 7.5 35.5 7.5s30.833 -10.333 53.5 -31l15 -12l66 33l31 -51l-30 -21c-29.333 -19.333 -49.666 -31.5 -60.999 -36.5z" />
    <glyph glyph-name="adieresis" unicode="&#xe4;" horiz-adv-x="533" 
d="M156 81h114c29.333 0 49.833 3.66699 61.5 11s17.5 23 17.5 47v89h-114c-29.333 0 -49.833 -3.66699 -61.5 -11s-17.5 -23 -17.5 -47v-89zM201 -10c-97.333 0 -146 51.667 -146 155c0 60 19.5 102.833 58.5 128.5s96.167 38.5 171.5 38.5h64v100
c-20.667 2.66699 -45.667 4 -75 4c-68 0 -122 -7 -162 -21l-12 84c62 20.667 121.5 31 178.5 31s99.5 -9.5 127.5 -28.5s42 -56.5 42 -112.5v-369h-46l-27 50c-44.667 -40 -102.667 -60 -174 -60zM133 632c0 22 3.33301 37.167 10 45.5s20.5 12.5 41.5 12.5
s34.833 -4.16699 41.5 -12.5s10 -23.5 10 -45.5s-3.33301 -37 -10 -45s-20.5 -12 -41.5 -12s-34.833 4 -41.5 12s-10 23 -10 45zM316 632c0 22 3.33301 37.167 10 45.5s20.5 12.5 41.5 12.5s34.833 -4.16699 41.5 -12.5s10 -23.5 10 -45.5s-3.33301 -37 -10 -45
s-20.5 -12 -41.5 -12s-34.833 4 -41.5 12s-10 23 -10 45z" />
    <glyph glyph-name="aring" unicode="&#xe5;" horiz-adv-x="533" 
d="M156 81h114c29.333 0 49.833 3.66699 61.5 11s17.5 23 17.5 47v89h-114c-29.333 0 -49.833 -3.66699 -61.5 -11s-17.5 -23 -17.5 -47v-89zM201 -10c-97.333 0 -146 51.667 -146 155c0 60 19.5 102.833 58.5 128.5s96.167 38.5 171.5 38.5h64v100
c-20.667 2.66699 -45.667 4 -75 4c-68 0 -122 -7 -162 -21l-12 84c62 20.667 121.5 31 178.5 31s99.5 -9.5 127.5 -28.5s42 -56.5 42 -112.5v-369h-46l-27 50c-44.667 -40 -102.667 -60 -174 -60zM178 638c0 33.333 7.83301 58 23.5 74s40.834 24 75.501 24
s59.667 -8 75 -24s23 -40.667 23 -74s-7.66699 -58.166 -23 -74.499s-40.333 -24.5 -75 -24.5s-59.834 8.16699 -75.501 24.5s-23.5 41.166 -23.5 74.499zM234 659v-68h42c10 0 17.333 0.333008 22 1c13.333 2 20 10.333 20 25v67h-39c-20 0 -32.5 -2.33301 -37.5 -7
s-7.5 -10.667 -7.5 -18z" />
    <glyph glyph-name="ae" unicode="&#xe6;" horiz-adv-x="803" 
d="M726 20c-56 -18.667 -111.833 -28 -167.5 -28s-96.5 4.16699 -122.5 12.5s-46.333 23.5 -61 45.5c-44.667 -40 -102.667 -60 -174 -60c-97.333 0 -146 51.667 -146 155c0 60 19.5 102.833 58.5 128.5s96.167 38.5 171.5 38.5h64v100c-20.667 2.66699 -45.667 4 -75 4
c-68 0 -122 -7 -162 -21l-12 84c62 20.667 122 31 180 31s100 -14.333 126 -43c30 32 79.833 48 149.5 48s118.334 -10.833 146.001 -32.5s41.5 -65.834 41.5 -132.501c0 -43.333 -3.83301 -72.166 -11.5 -86.499s-14.334 -25.333 -20.001 -33s-15.5 -14.167 -29.5 -19.5
s-26.833 -9.33301 -38.5 -12s-28.834 -5 -51.501 -7c-32.667 -2 -80.667 -3 -144 -3v-99c30.667 -7.33301 67.334 -11 110.001 -11s92.667 8 150 24zM641 420h-114c-28 0 -48.167 -3.5 -60.5 -10.5s-18.5 -20.5 -18.5 -40.5v-96h114c29.333 0 49.833 3.66699 61.5 11
s17.5 23 17.5 47v89zM156 81h114c29.333 0 49.833 3.66699 61.5 11s17.5 23 17.5 47v89h-114c-29.333 0 -49.833 -3.66699 -61.5 -11s-17.5 -23 -17.5 -47v-89z" />
    <glyph glyph-name="ccedilla" unicode="&#xe7;" horiz-adv-x="417" 
d="M221 -66l0.000976562 58.001c-58.667 4 -98.834 24.167 -120.501 60.5s-32.5 104 -32.5 203s14.5 166.167 43.5 201.5s81.167 53 156.5 53c42 0 81 -6 117 -18l-22 -84c-40.667 7.33301 -73 11 -97 11c-59.333 0 -89 -24 -89 -72v-265c25.333 -3.33301 55 -5 89 -5
s70.333 6 109 18l12 -85c-30.667 -10.667 -67.667 -17 -111 -19c16 -20.667 24 -43.834 24 -69.501s-8.16699 -46.5 -24.5 -62.5s-38 -24 -65 -24s-52.5 5.33301 -76.5 16l9 51h35c15.333 0 26.333 2 33 6s10 12.667 10 26z" />
    <glyph glyph-name="egrave" unicode="&#xe8;" horiz-adv-x="533" 
d="M371 420h-114c-29.333 0 -49.833 -3.66699 -61.5 -11s-17.5 -23 -17.5 -47v-89h114c29.333 0 49.833 3.66699 61.5 11s17.5 23 17.5 47v89zM456 20c-56 -18.667 -114.331 -28.001 -174.998 -28.001s-104.834 7 -132.501 21s-48 39.333 -61 76s-19.5 90.334 -19.5 161.001
c0 103.333 15.167 173.333 45.5 210s84 55 161 55s129.333 -10.833 157 -32.5s41.5 -65.834 41.5 -132.501c0 -43.333 -3.83301 -72.166 -11.5 -86.499s-14.334 -25.333 -20.001 -33s-15.5 -14.167 -29.5 -19.5s-26.833 -9.33301 -38.5 -12s-28.834 -5 -51.501 -7
c-32.667 -2 -80.667 -3 -144 -3v-99c30.667 -7.33301 67.334 -11 110.001 -11s92.667 8 150 24zM160.002 623.999c-2.66699 2.66699 -3.99902 5.16797 -3.99902 7.50098s2 6.16602 6 11.499l44 54c2.66699 3.33301 5.16699 5 7.5 5s5.16602 -1.33301 8.49902 -4l152 -110
l-22 -34l-140 35c-8.66699 2 -16 5.33301 -22 10z" />
    <glyph glyph-name="eacute" unicode="&#xe9;" horiz-adv-x="533" 
d="M371 420h-114c-29.333 0 -49.833 -3.66699 -61.5 -11s-17.5 -23 -17.5 -47v-89h114c29.333 0 49.833 3.66699 61.5 11s17.5 23 17.5 47v89zM456 20c-56 -18.667 -114.331 -28.001 -174.998 -28.001s-104.834 7 -132.501 21s-48 39.333 -61 76s-19.5 90.334 -19.5 161.001
c0 103.333 15.167 173.333 45.5 210s84 55 161 55s129.333 -10.833 157 -32.5s41.5 -65.834 41.5 -132.501c0 -43.333 -3.83301 -72.166 -11.5 -86.499s-14.334 -25.333 -20.001 -33s-15.5 -14.167 -29.5 -19.5s-26.833 -9.33301 -38.5 -12s-28.834 -5 -51.501 -7
c-32.667 -2 -80.667 -3 -144 -3v-99c30.667 -7.33301 67.334 -11 110.001 -11s92.667 8 150 24zM348.002 707.999c3.33301 2.66699 6.16699 3.99902 8.5 3.99902s4.83301 -1.66699 7.5 -5l44 -54c4 -5.33301 6 -9.16602 6 -11.499s-1.33301 -4.83301 -4 -7.5l-30 -25
c-6 -4.66699 -13.333 -8 -22 -10l-140 -35l-22 34z" />
    <glyph glyph-name="ecircumflex" unicode="&#xea;" horiz-adv-x="533" 
d="M371 420h-114c-29.333 0 -49.833 -3.66699 -61.5 -11s-17.5 -23 -17.5 -47v-89h114c29.333 0 49.833 3.66699 61.5 11s17.5 23 17.5 47v89zM456 20c-56 -18.667 -114.331 -28.001 -174.998 -28.001s-104.834 7 -132.501 21s-48 39.333 -61 76s-19.5 90.334 -19.5 161.001
c0 103.333 15.167 173.333 45.5 210s84 55 161 55s129.333 -10.833 157 -32.5s41.5 -65.834 41.5 -132.501c0 -43.333 -3.83301 -72.166 -11.5 -86.499s-14.334 -25.333 -20.001 -33s-15.5 -14.167 -29.5 -19.5s-26.833 -9.33301 -38.5 -12s-28.834 -5 -51.501 -7
c-32.667 -2 -80.667 -3 -144 -3v-99c30.667 -7.33301 67.334 -11 110.001 -11s92.667 8 150 24zM258.002 711.999h18c4 0 7.33301 -2 10 -6l114 -116l-40 -34l-93 64l-93 -64l-40 34l114 116c2.66699 4 6 6 10 6z" />
    <glyph glyph-name="edieresis" unicode="&#xeb;" horiz-adv-x="533" 
d="M371 420h-114c-29.333 0 -49.833 -3.66699 -61.5 -11s-17.5 -23 -17.5 -47v-89h114c29.333 0 49.833 3.66699 61.5 11s17.5 23 17.5 47v89zM456 20c-56 -18.667 -114.331 -28.001 -174.998 -28.001s-104.834 7 -132.501 21s-48 39.333 -61 76s-19.5 90.334 -19.5 161.001
c0 103.333 15.167 173.333 45.5 210s84 55 161 55s129.333 -10.833 157 -32.5s41.5 -65.834 41.5 -132.501c0 -43.333 -3.83301 -72.166 -11.5 -86.499s-14.334 -25.333 -20.001 -33s-15.5 -14.167 -29.5 -19.5s-26.833 -9.33301 -38.5 -12s-28.834 -5 -51.501 -7
c-32.667 -2 -80.667 -3 -144 -3v-99c30.667 -7.33301 67.334 -11 110.001 -11s92.667 8 150 24zM125.002 631.999c0 22 3.33301 37.167 10 45.5s20.5 12.5 41.5 12.5s34.833 -4.16699 41.5 -12.5s10 -23.5 10 -45.5s-3.33301 -37 -10 -45s-20.5 -12 -41.5 -12
s-34.833 4 -41.5 12s-10 23 -10 45zM308.002 631.999c0 22 3.33301 37.167 10 45.5s20.5 12.5 41.5 12.5s34.833 -4.16699 41.5 -12.5s10 -23.5 10 -45.5s-3.33301 -37 -10 -45s-20.5 -12 -41.5 -12s-34.833 4 -41.5 12s-10 23 -10 45z" />
    <glyph glyph-name="igrave" unicode="&#xec;" horiz-adv-x="280" 
d="M10 624c-2.66699 2.66699 -3.99902 5.16797 -3.99902 7.50098s2 6.16602 6 11.499l44 54c2.66699 3.33301 5.16699 5 7.5 5s5.16602 -1.33301 8.49902 -4l152 -110l-22 -34l-140 35c-8.66699 2 -16 5.33301 -22 10zM90.001 0.000976562v493l100 15v-508h-100z" />
    <glyph glyph-name="iacute" unicode="&#xed;" horiz-adv-x="280" 
d="M227 708c3.33301 2.66699 6.16699 3.99902 8.5 3.99902s4.83301 -1.66699 7.5 -5l44 -54c4 -5.33301 6 -9.16602 6 -11.499s-1.33301 -4.83301 -4 -7.5l-30 -25c-6 -4.66699 -13.333 -8 -22 -10l-140 -35l-22 34zM90.001 -0.000976562v493l100 15v-508h-100z" />
    <glyph glyph-name="icircumflex" unicode="&#xee;" horiz-adv-x="280" 
d="M138 712h18c4 0 7.33301 -2 10 -6l114 -116l-40 -34l-93 64l-93 -64l-40 34l114 116c2.66699 4 6 6 10 6zM90 0v493l100 15v-508h-100z" />
    <glyph glyph-name="idieresis" unicode="&#xef;" horiz-adv-x="280" 
d="M90 0v493l100 15v-508h-100zM4 632c0 22 3.33301 37.167 10 45.5s20.5 12.5 41.5 12.5s34.833 -4.16699 41.5 -12.5s10 -23.5 10 -45.5s-3.33301 -37 -10 -45s-20.5 -12 -41.5 -12s-34.833 4 -41.5 12s-10 23 -10 45zM187 632c0 22 3.33301 37.167 10 45.5
s20.5 12.5 41.5 12.5s34.833 -4.16699 41.5 -12.5s10 -23.5 10 -45.5s-3.33301 -37 -10 -45s-20.5 -12 -41.5 -12s-34.833 4 -41.5 12s-10 23 -10 45z" />
    <glyph glyph-name="eth" unicode="&#xf0;" horiz-adv-x="514" 
d="M398 588c0 -10.667 -10.3311 -19.668 -30.998 -27.001l-36 -12l59 -93c49.333 -78.667 74 -158.5 74 -239.5s-14.333 -139.833 -43 -176.5s-83.334 -55 -164.001 -55s-135.334 18.333 -164.001 55s-43 94.834 -43 174.501s19.833 138 59.5 175s102.167 55.5 187.5 55.5
l-49 76l-89 -29l-15 44c-1.33301 5.33301 -2 8.66602 -2 9.99902c0 10.667 10.333 19.667 31 27l35 12l-43 69l93 11l33 -53l90 30l15 -44c1.33301 -5.33301 2 -8.66602 2 -9.99902zM159.002 80.999h117c29.333 0 49.833 3.66699 61.5 11s17.5 23 17.5 47v210h-117
c-29.333 0 -49.833 -3.66699 -61.5 -11s-17.5 -23 -17.5 -47v-210z" />
    <glyph glyph-name="ntilde" unicode="&#xf1;" 
d="M370 510c34 0 59.167 -7.16699 75.5 -21.5s24.5 -40.5 24.5 -78.5v-410h-100v408h-101c-29.333 0 -49.833 -3.66699 -61.5 -11s-17.5 -23 -17.5 -47v-350h-100v500h46l37 -60c69.333 46.667 135 70 197 70zM332 571.5c-11.333 -5 -23.6689 -7.5 -37.002 -7.5
s-30.666 10.333 -51.999 31l-15 12l-66 -33l-31 51l30 21c30 19.333 50.333 31.5 61 36.5s22.5 7.5 35.5 7.5s30.833 -10.333 53.5 -31l15 -12l66 33l31 -51l-30 -21c-29.333 -19.333 -49.666 -31.5 -60.999 -36.5z" />
    <glyph glyph-name="ograve" unicode="&#xf2;" horiz-adv-x="550" 
d="M68 250c0 94 14.333 161.667 43 203s83.334 62 164.001 62s135.334 -20.667 164.001 -62s43 -109 43 -203s-14.333 -161.667 -43 -203s-83.334 -62 -164.001 -62s-135.334 20.667 -164.001 62s-43 109 -43 203zM177 81h117c29.333 0 49.833 3.66699 61.5 11
s17.5 23 17.5 47v280h-117c-29.333 0 -49.833 -3.66699 -61.5 -11s-17.5 -23 -17.5 -47v-280zM137 624c-2.66699 2.66699 -3.99902 5.16797 -3.99902 7.50098s2 6.16602 6 11.499l44 54c2.66699 3.33301 5.16699 5 7.5 5s5.16602 -1.33301 8.49902 -4l152 -110l-22 -34
l-140 35c-8.66699 2 -16 5.33301 -22 10z" />
    <glyph glyph-name="oacute" unicode="&#xf3;" horiz-adv-x="550" 
d="M68 250c0 94 14.333 161.667 43 203s83.334 62 164.001 62s135.334 -20.667 164.001 -62s43 -109 43 -203s-14.333 -161.667 -43 -203s-83.334 -62 -164.001 -62s-135.334 20.667 -164.001 62s-43 109 -43 203zM177 81h117c29.333 0 49.833 3.66699 61.5 11
s17.5 23 17.5 47v280h-117c-29.333 0 -49.833 -3.66699 -61.5 -11s-17.5 -23 -17.5 -47v-280zM355 708c3.33301 2.66699 6.16699 3.99902 8.5 3.99902s4.83301 -1.66699 7.5 -5l44 -54c4 -5.33301 6 -9.16602 6 -11.499s-1.33301 -4.83301 -4 -7.5l-30 -25
c-6 -4.66699 -13.333 -8 -22 -10l-140 -35l-22 34z" />
    <glyph glyph-name="ocircumflex" unicode="&#xf4;" horiz-adv-x="550" 
d="M68 250c0 94 14.333 161.667 43 203s83.334 62 164.001 62s135.334 -20.667 164.001 -62s43 -109 43 -203s-14.333 -161.667 -43 -203s-83.334 -62 -164.001 -62s-135.334 20.667 -164.001 62s-43 109 -43 203zM177 81h117c29.333 0 49.833 3.66699 61.5 11
s17.5 23 17.5 47v280h-117c-29.333 0 -49.833 -3.66699 -61.5 -11s-17.5 -23 -17.5 -47v-280zM265 712h18.002c3.33301 0 6.66602 -2 9.99902 -6l114 -116l-40 -34l-93 64l-93 -64l-40 34l114 116c3.33301 4 6.66602 6 9.99902 6z" />
    <glyph glyph-name="otilde" unicode="&#xf5;" horiz-adv-x="550" 
d="M68 250c0 94 14.333 161.667 43 203s83.334 62 164.001 62s135.334 -20.667 164.001 -62s43 -109 43 -203s-14.333 -161.667 -43 -203s-83.334 -62 -164.001 -62s-135.334 20.667 -164.001 62s-43 109 -43 203zM177 81h117c29.333 0 49.833 3.66699 61.5 11
s17.5 23 17.5 47v280h-117c-29.333 0 -49.833 -3.66699 -61.5 -11s-17.5 -23 -17.5 -47v-280zM330 571.5c-11.333 -5 -23.6689 -7.5 -37.002 -7.5s-30.666 10.333 -51.999 31l-15 12l-66 -33l-31 51l30 21c30 19.333 50.333 31.5 61 36.5s22.5 7.5 35.5 7.5
s30.833 -10.333 53.5 -31l15 -12l66 33l31 -51l-30 -21c-29.333 -19.333 -49.666 -31.5 -60.999 -36.5z" />
    <glyph glyph-name="odieresis" unicode="&#xf6;" horiz-adv-x="550" 
d="M68 250c0 94 14.333 161.667 43 203s83.334 62 164.001 62s135.334 -20.667 164.001 -62s43 -109 43 -203s-14.333 -161.667 -43 -203s-83.334 -62 -164.001 -62s-135.334 20.667 -164.001 62s-43 109 -43 203zM177 81h117c29.333 0 49.833 3.66699 61.5 11
s17.5 23 17.5 47v280h-117c-29.333 0 -49.833 -3.66699 -61.5 -11s-17.5 -23 -17.5 -47v-280zM132 632c0 22 3.33301 37.167 10 45.5s20.5 12.5 41.5 12.5s34.833 -4.16699 41.5 -12.5s10 -23.5 10 -45.5s-3.33301 -37 -10 -45s-20.5 -12 -41.5 -12s-34.833 4 -41.5 12
s-10 23 -10 45zM315 632c0 22 3.33301 37.167 10 45.5s20.5 12.5 41.5 12.5s34.833 -4.16699 41.5 -12.5s10 -23.5 10 -45.5s-3.33301 -37 -10 -45s-20.5 -12 -41.5 -12s-34.833 4 -41.5 12s-10 23 -10 45z" />
    <glyph glyph-name="divide" unicode="&#xf7;" horiz-adv-x="570" 
d="M107 272v80h355v-80h-355zM237 141c0 22.667 3.33301 38.5 10 47.5s19.667 13.5 39 13.5s32.333 -4.5 39 -13.5s10 -24.833 10 -47.5s-3.33301 -38.334 -10 -47.001s-19.667 -13 -39 -13s-32.333 4.33301 -39 13s-10 24.334 -10 47.001zM237 482
c0 22.667 3.33301 38.5 10 47.5s19.667 13.5 39 13.5s32.333 -4.5 39 -13.5s10 -24.833 10 -47.5s-3.33301 -38.334 -10 -47.001s-19.667 -13 -39 -13s-32.333 4.33301 -39 13s-10 24.334 -10 47.001z" />
    <glyph glyph-name="oslash" unicode="&#xf8;" horiz-adv-x="550" 
d="M482 250c0 -94 -14.333 -161.667 -43 -203s-83.334 -62 -164.001 -62c-32.667 0 -61.667 3.66699 -87 11l-35 -73c-3.33301 -6.66699 -6.33301 -11.334 -9 -14.001c-7.33301 -7.33301 -18.666 -11 -33.999 -11h-41l62 128c-42 36 -63 110.667 -63 224
c0 94 14.333 161.667 43 203s83.334 62 164.001 62c32.667 0 61.667 -3.66699 87 -11l36 74c3.33301 6.66699 6.33301 11.334 9 14.001c7.33301 7.33301 18.666 11 33.999 11h41l-63 -130c42 -36 63 -110.333 63 -223zM177 361v-240l144 298h-65
c-29.333 0 -49.833 -3.66699 -61.5 -11s-17.5 -23 -17.5 -47zM294 81c29.333 0 49.833 3.66699 61.5 11s17.5 23 17.5 47v238l-144 -296h65z" />
    <glyph glyph-name="ugrave" unicode="&#xf9;" 
d="M465 0h-47l-26 50c-53.333 -40 -115.333 -60 -186 -60c-38.667 0 -68.5 8 -89.5 24s-31.5 44.667 -31.5 86v400h100v-419h68c36.667 0 64.5 5 83.5 15s28.5 31 28.5 63v341h100v-500zM143 624c-2.66699 2.66699 -3.99902 5.16797 -3.99902 7.50098s2 6.16602 6 11.499
l44 54c2.66699 3.33301 5.16699 5 7.5 5s5.16602 -1.33301 8.49902 -4l152 -110l-22 -34l-140 35c-8.66699 2 -16 5.33301 -22 10z" />
    <glyph glyph-name="uacute" unicode="&#xfa;" 
d="M465 0h-47l-26 50c-53.333 -40 -115.333 -60 -186 -60c-38.667 0 -68.5 8 -89.5 24s-31.5 44.667 -31.5 86v400h100v-419h68c36.667 0 64.5 5 83.5 15s28.5 31 28.5 63v341h100v-500zM361 708c3.33301 2.66699 6.16699 3.99902 8.5 3.99902s4.83301 -1.66699 7.5 -5
l44 -54c4 -5.33301 6 -9.16602 6 -11.499s-1.33301 -4.83301 -4 -7.5l-30 -25c-6 -4.66699 -13.333 -8 -22 -10l-140 -35l-22 34z" />
    <glyph glyph-name="ucircumflex" unicode="&#xfb;" 
d="M465 0h-47l-26 50c-53.333 -40 -115.333 -60 -186 -60c-38.667 0 -68.5 8 -89.5 24s-31.5 44.667 -31.5 86v400h100v-419h68c36.667 0 64.5 5 83.5 15s28.5 31 28.5 63v341h100v-500zM271 712h18.002c3.33301 0 6.66602 -2 9.99902 -6l114 -116l-40 -34l-93 64l-93 -64
l-40 34l114 116c3.33301 4 6.66602 6 9.99902 6z" />
    <glyph glyph-name="udieresis" unicode="&#xfc;" 
d="M465 0h-47l-26 50c-53.333 -40 -115.333 -60 -186 -60c-38.667 0 -68.5 8 -89.5 24s-31.5 44.667 -31.5 86v400h100v-419h68c36.667 0 64.5 5 83.5 15s28.5 31 28.5 63v341h100v-500zM138 632c0 22 3.33301 37.167 10 45.5s20.5 12.5 41.5 12.5
s34.833 -4.16699 41.5 -12.5s10 -23.5 10 -45.5s-3.33301 -37 -10 -45s-20.5 -12 -41.5 -12s-34.833 4 -41.5 12s-10 23 -10 45zM321 632c0 22 3.33301 37.167 10 45.5s20.5 12.5 41.5 12.5s34.833 -4.16699 41.5 -12.5s10 -23.5 10 -45.5s-3.33301 -37 -10 -45
s-20.5 -12 -41.5 -12s-34.833 4 -41.5 12s-10 23 -10 45z" />
    <glyph glyph-name="yacute" unicode="&#xfd;" horiz-adv-x="477" 
d="M219 30l-59.998 -0.000976562l-143 470h102l115 -385h10l115 385h102l-155 -515c-16.667 -55.333 -40.667 -94.166 -72 -116.499s-73 -33.5 -125 -33.5h-84v60l94 18c31.333 6 54.666 14.667 69.999 26s25.666 27 30.999 47v44zM284.002 707.999
c3.33301 2.66699 6.16699 3.99902 8.5 3.99902s4.83301 -1.66699 7.5 -5l44 -54c4 -5.33301 6 -9.16602 6 -11.499s-1.33301 -4.83301 -4 -7.5l-30 -25c-6 -4.66699 -13.333 -8 -22 -10l-140 -35l-22 34z" />
    <glyph glyph-name="thorn" unicode="&#xfe;" 
d="M185 453c38 38 85.833 57 143.5 57s98.5 -19.167 122.5 -57.5s36 -103.833 36 -196.5s-14 -158.5 -42 -197.5s-77.333 -58.5 -148 -58.5h-107v-165l-100 -12v834l95 8v-212zM191 91h108c29.333 0 49.833 3.66699 61.5 11s17.5 23 17.5 47v260h-107
c-29.333 0 -50 -3.83301 -62 -11.5s-18 -23.167 -18 -46.5v-260z" />
    <glyph glyph-name="ydieresis" unicode="&#xff;" horiz-adv-x="477" 
d="M219 30l-59.998 -0.000976562l-143 470h102l115 -385h10l115 385h102l-155 -515c-16.667 -55.333 -40.667 -94.166 -72 -116.499s-73 -33.5 -125 -33.5h-84v60l94 18c31.333 6 54.666 14.667 69.999 26s25.666 27 30.999 47v44zM288.002 631.999
c0 22 3.33301 37.167 10 45.5s20.5 12.5 41.5 12.5s34.833 -4.16699 41.5 -12.5s10 -23.5 10 -45.5s-3.33301 -37 -10 -45s-20.5 -12 -41.5 -12s-34.833 4 -41.5 12s-10 23 -10 45zM105.002 631.999c0 22 3.33301 37.167 10 45.5s20.5 12.5 41.5 12.5
s34.833 -4.16699 41.5 -12.5s10 -23.5 10 -45.5s-3.33301 -37 -10 -45s-20.5 -12 -41.5 -12s-34.833 4 -41.5 12s-10 23 -10 45z" />
    <glyph glyph-name="Amacron" unicode="&#x100;" horiz-adv-x="549" 
d="M425 0l-34 137h-234l-33 -137h-106l162 625h189l162 -625h-106zM254 533l-75 -306h190l-74 306h-41zM396 711h-198.001c-19.333 0 -31.666 3.16699 -36.999 9.5s-8 18.5 -8 36.5v35h199c19.333 0 31.5 -3 36.5 -9s7.5 -18 7.5 -36v-36z" />
    <glyph glyph-name="amacron" unicode="&#x101;" horiz-adv-x="533" 
d="M156 81h114c29.333 0 49.833 3.66699 61.5 11s17.5 23 17.5 47v89h-114c-29.333 0 -49.833 -3.66699 -61.5 -11s-17.5 -23 -17.5 -47v-89zM201 -10c-97.333 0 -146 51.667 -146 155c0 60 19.5 102.833 58.5 128.5s96.167 38.5 171.5 38.5h64v100
c-20.667 2.66699 -45.667 4 -75 4c-68 0 -122 -7 -162 -21l-12 84c62 20.667 121.5 31 178.5 31s99.5 -9.5 127.5 -28.5s42 -56.5 42 -112.5v-369h-46l-27 50c-44.667 -40 -102.667 -60 -174 -60zM405 586h-198.001c-19.333 0 -31.666 3.16699 -36.999 9.5s-8 18.5 -8 36.5
v35h199c19.333 0 31.5 -3 36.5 -9s7.5 -18 7.5 -36v-36z" />
    <glyph glyph-name="Abreve" unicode="&#x102;" horiz-adv-x="549" 
d="M425 0l-34 137h-234l-33 -137h-106l162 625h189l162 -625h-106zM254 533l-75 -306h190l-74 306h-41zM274 765c11.333 0 22.001 4 32.001 12s17 19.333 21 34l65 -11c-8.66699 -36 -23.334 -63 -44.001 -81s-45.334 -27 -74.001 -27c-63.333 0 -102.666 36 -117.999 108
l65 11c4 -14.667 11 -26 21 -34s20.667 -12 32 -12z" />
    <glyph glyph-name="abreve" unicode="&#x103;" horiz-adv-x="533" 
d="M156 81h114c29.333 0 49.833 3.66699 61.5 11s17.5 23 17.5 47v89h-114c-29.333 0 -49.833 -3.66699 -61.5 -11s-17.5 -23 -17.5 -47v-89zM201 -10c-97.333 0 -146 51.667 -146 155c0 60 19.5 102.833 58.5 128.5s96.167 38.5 171.5 38.5h64v100
c-20.667 2.66699 -45.667 4 -75 4c-68 0 -122 -7 -162 -21l-12 84c62 20.667 121.5 31 178.5 31s99.5 -9.5 127.5 -28.5s42 -56.5 42 -112.5v-369h-46l-27 50c-44.667 -40 -102.667 -60 -174 -60zM273 640c11.333 0 22.001 4 32.001 12s17 19.333 21 34l65 -11
c-8.66699 -36 -23.334 -63 -44.001 -81s-45.334 -27 -74.001 -27c-63.333 0 -102.666 36 -117.999 108l65 11c4 -14.667 11 -26 21 -34s20.667 -12 32 -12z" />
    <glyph glyph-name="Aogonek" unicode="&#x104;" horiz-adv-x="549" 
d="M454 -45v-21c0 -22.667 9.66699 -34 29 -34c2.66699 0 7.33398 0.666992 14.001 2l19 5l19 -51c-22.667 -14 -47.334 -21 -74.001 -21s-47.667 8 -63 24s-23 36 -23 60c0 38.667 16.667 65.667 50 81l-34 137h-234l-33 -137h-106l162 625h189l162 -625l-43 -5
c-14 -4 -23.167 -8.33301 -27.5 -13s-6.5 -13.667 -6.5 -27zM254 533l-75 -306h190l-74 306h-41z" />
    <glyph glyph-name="aogonek" unicode="&#x105;" horiz-adv-x="533" 
d="M394 -45l-0.000976562 -20.999c0 -22.667 9.66699 -34 29 -34c2.66699 0 7.33398 0.666992 14.001 2l19 5l19 -51c-22.667 -14 -47.334 -21 -74.001 -21s-47.667 8 -63 24s-23 35.833 -23 59.5s5.83301 43.167 17.5 58.5s32.834 26.666 63.501 33.999l-21 39
c-44.667 -40 -102.667 -60 -174 -60c-97.333 0 -146 51.667 -146 155c0 60 19.5 102.833 58.5 128.5s96.167 38.5 171.5 38.5h64v100c-20.667 2.66699 -45.667 4 -75 4c-68 0 -122 -7 -162 -21l-12 84c62 20.667 121.5 31 178.5 31s99.5 -9.5 127.5 -28.5
s42 -56.5 42 -112.5v-369l-20 -5c-14 -4 -23.167 -8.33301 -27.5 -13s-6.5 -13.667 -6.5 -27zM155.999 81.001h114c29.333 0 49.833 3.66699 61.5 11s17.5 23 17.5 47v89h-114c-29.333 0 -49.833 -3.66699 -61.5 -11s-17.5 -23 -17.5 -47v-89z" />
    <glyph glyph-name="Cacute" unicode="&#x106;" horiz-adv-x="445" 
d="M274 -10c-90 0 -149.833 21.833 -179.5 65.5s-44.5 130 -44.5 259s14.833 215.5 44.5 259.5s89.5 66 179.5 66c54 0 99.333 -7 136 -21l-15 -88c-45.333 9.33301 -88.5 14 -129.5 14s-68.833 -3.66699 -83.5 -11s-22 -22.333 -22 -45v-391c31.333 -10 68.333 -15 111 -15
s89 6.66699 139 20l10 -92c-39.333 -14 -88 -21 -146 -21zM315 833c3.33301 2.66699 6.16699 3.99902 8.5 3.99902s4.83301 -1.66699 7.5 -5l44 -54c4 -5.33301 6 -9.16602 6 -11.499s-1.33301 -4.83301 -4 -7.5l-30 -25c-6 -4.66699 -13.333 -8 -22 -10l-140 -35l-22 34z
" />
    <glyph glyph-name="cacute" unicode="&#x107;" horiz-adv-x="423" 
d="M387 10c-40 -13.333 -84.167 -20 -132.5 -20s-85.5 7.16699 -111.5 21.5s-45 40 -57 77s-18 90.833 -18 161.5c0 102.667 14.5 171.667 43.5 207s81.167 53 156.5 53c42 0 81 -6 117 -18l-22 -84c-40.667 7.33301 -73 11 -97 11c-59.333 0 -89 -24 -89 -72v-265
c25.333 -3.33301 55 -5 89 -5s70.333 6 109 18zM298 708c3.33301 2.66699 6.16699 3.99902 8.5 3.99902s4.83301 -1.66699 7.5 -5l44 -54c4 -5.33301 6 -9.16602 6 -11.499s-1.33301 -4.83301 -4 -7.5l-30 -25c-6 -4.66699 -13.333 -8 -22 -10l-140 -35l-22 34z" />
    <glyph glyph-name="Ccircumflex" unicode="&#x108;" horiz-adv-x="445" 
d="M274 -10c-90 0 -149.833 21.833 -179.5 65.5s-44.5 130 -44.5 259s14.833 215.5 44.5 259.5s89.5 66 179.5 66c54 0 99.333 -7 136 -21l-15 -88c-45.333 9.33301 -88.5 14 -129.5 14s-68.833 -3.66699 -83.5 -11s-22 -22.333 -22 -45v-391c31.333 -10 68.333 -15 111 -15
s89 6.66699 139 20l10 -92c-39.333 -14 -88 -21 -146 -21zM259 837h18.002c3.33301 0 6.66602 -2 9.99902 -6l114 -116l-40 -34l-93 64l-93 -64l-40 34l114 116c3.33301 4 6.66602 6 9.99902 6z" />
    <glyph glyph-name="ccircumflex" unicode="&#x109;" horiz-adv-x="440" 
d="M387 10c-40 -13.333 -84.167 -20 -132.5 -20s-85.5 7.16699 -111.5 21.5s-45 40 -57 77s-18 90.833 -18 161.5c0 102.667 14.5 171.667 43.5 207s81.167 53 156.5 53c42 0 81 -6 117 -18l-22 -84c-40.667 7.33301 -73 11 -97 11c-59.333 0 -89 -24 -89 -72v-265
c25.333 -3.33301 55 -5 89 -5s70.333 6 109 18zM238 713h18c4 0 7.33301 -2 10 -6l114 -116l-40 -34l-93 64l-93 -64l-40 34l114 116c2.66699 4 6 6 10 6z" />
    <glyph glyph-name="Cdotaccent" unicode="&#x10a;" horiz-adv-x="445" 
d="M274 -10c-90 0 -149.833 21.833 -179.5 65.5s-44.5 130 -44.5 259s14.833 215.5 44.5 259.5s89.5 66 179.5 66c54 0 99.333 -7 136 -21l-15 -88c-45.333 9.33301 -88.5 14 -129.5 14s-68.833 -3.66699 -83.5 -11s-22 -22.333 -22 -45v-391c31.333 -10 68.333 -15 111 -15
s89 6.66699 139 20l10 -92c-39.333 -14 -88 -21 -146 -21zM196 762c0 25.333 4.5 43.001 13.5 53.001s27 15 54 15s44.833 -5 53.5 -15s13 -27.833 13 -53.5s-4.33301 -43 -13 -52s-26.5 -13.5 -53.5 -13.5s-45 4.66699 -54 14s-13.5 26.666 -13.5 51.999z" />
    <glyph glyph-name="cdotaccent" unicode="&#x10b;" horiz-adv-x="417" 
d="M387 10c-40 -13.333 -84.167 -20 -132.5 -20s-85.5 7.16699 -111.5 21.5s-45 40 -57 77s-18 90.833 -18 161.5c0 102.667 14.5 171.667 43.5 207s81.167 53 156.5 53c42 0 81 -6 117 -18l-22 -84c-40.667 7.33301 -73 11 -97 11c-59.333 0 -89 -24 -89 -72v-265
c25.333 -3.33301 55 -5 89 -5s70.333 6 109 18zM184 637c0 25.333 4.5 43.001 13.5 53.001s27 15 54 15s44.833 -5 53.5 -15s13 -27.833 13 -53.5s-4.33301 -43 -13 -52s-26.5 -13.5 -53.5 -13.5s-45 4.66699 -54 14s-13.5 26.666 -13.5 51.999z" />
    <glyph glyph-name="Ccaron" unicode="&#x10c;" horiz-adv-x="445" 
d="M274 -10c-90 0 -149.833 21.833 -179.5 65.5s-44.5 130 -44.5 259s14.833 215.5 44.5 259.5s89.5 66 179.5 66c54 0 99.333 -7 136 -21l-15 -88c-45.333 9.33301 -88.5 14 -129.5 14s-68.833 -3.66699 -83.5 -11s-22 -22.333 -22 -45v-391c31.333 -10 68.333 -15 111 -15
s89 6.66699 139 20l10 -92c-39.333 -14 -88 -21 -146 -21zM273 685h-18.001c-4 0 -7.33301 2 -10 6l-114 116l40 34l93 -64l93 64l40 -34l-114 -116c-3.33301 -4 -6.66602 -6 -9.99902 -6z" />
    <glyph glyph-name="ccaron" unicode="&#x10d;" horiz-adv-x="422" 
d="M387 10c-40 -13.333 -84.167 -20 -132.5 -20s-85.5 7.16699 -111.5 21.5s-45 40 -57 77s-18 90.833 -18 161.5c0 102.667 14.5 171.667 43.5 207s81.167 53 156.5 53c42 0 81 -6 117 -18l-22 -84c-40.667 7.33301 -73 11 -97 11c-59.333 0 -89 -24 -89 -72v-265
c25.333 -3.33301 55 -5 89 -5s70.333 6 109 18zM258 560h-18c-4 0 -7.33301 2 -10 6l-114 116l40 34l93 -64l93 64l40 -34l-114 -116c-2.66699 -4 -6 -6 -10 -6z" />
    <glyph glyph-name="Dcaron" unicode="&#x10e;" horiz-adv-x="561" 
d="M70 0v624.998h194c53.333 0 95.166 -3.83301 125.499 -11.5s55.166 -23.667 74.499 -48s32 -55.666 38 -93.999s9 -91.333 9 -159s-3 -120.667 -9 -159s-18.667 -69.666 -38 -93.999s-44.166 -40.333 -74.499 -48s-72.166 -11.5 -125.499 -11.5h-194zM323 534.998h-153
v-445h153c27.333 0 47.166 3.16699 59.499 9.5s18.5 20.833 18.5 43.5v339c0 22.667 -6.16699 37.167 -18.5 43.5s-32.166 9.5 -59.499 9.5zM275 684.998h-18.002c-3.33301 0 -6.66602 2 -9.99902 6l-114 116l40 34l93 -64l93 64l40 -34l-114 -116
c-3.33301 -4 -6.66602 -6 -9.99902 -6z" />
    <glyph glyph-name="dcaron" unicode="&#x10f;" horiz-adv-x="562" 
d="M399 50c-36.667 -43.333 -86.333 -64.999 -149 -64.999s-108.667 18.5 -138 55.5s-44 104.667 -44 203s16.667 165.666 50 201.999s90 54.5 170 54.5h85v153l99 12v-665h-47zM177.001 81.001h117c29.333 0 49.833 3.66699 61.5 11s17.5 23 17.5 47v269h-117
c-29.333 0 -49.833 -3.66699 -61.5 -11s-17.5 -23 -17.5 -47v-269zM508.501 544.501c-6.33301 8.33301 -9.50195 24.6699 -9.50195 49.0029s4.33301 42.333 13 54s25.334 17.5 50.001 17.5s41.334 -5.83301 50.001 -17.5s13 -31.834 13 -60.501s-6 -56.334 -18 -83.001
l-31 -68l-39 12l8 82c-18 1.33301 -30.167 6.16602 -36.5 14.499z" />
    <glyph glyph-name="Dcroat" unicode="&#x110;" horiz-adv-x="561" 
d="M70 0v624.998h194c53.333 0 95.166 -3.83301 125.499 -11.5s55.166 -23.667 74.499 -48s32 -55.666 38 -93.999s9 -91.333 9 -159s-3 -120.667 -9 -159s-18.667 -69.666 -38 -93.999s-44.166 -40.333 -74.499 -48s-72.166 -11.5 -125.499 -11.5h-194zM323 534.998h-153
v-445h153c27.333 0 47.166 3.16699 59.499 9.5s18.5 20.833 18.5 43.5v339c0 22.667 -6.16699 37.167 -18.5 43.5s-32.166 9.5 -59.499 9.5zM402 710.998h-198.001c-19.333 0 -31.666 3.16699 -36.999 9.5s-8 18.5 -8 36.5v35h199c19.333 0 31.5 -3 36.5 -9s7.5 -18 7.5 -36
v-36z" />
    <glyph glyph-name="dcroat" unicode="&#x111;" horiz-adv-x="595" 
d="M302 549v37.001c0 11.333 2.66699 18.5 8 21.5s15.333 4.5 30 4.5h33v41l99 12v-53h73v-38c0 -11.333 -2.66699 -18.333 -8 -21s-15.666 -4 -30.999 -4h-34v-549h-47l-26 50c-36.667 -43.333 -86.334 -65 -149.001 -65s-108.667 18.5 -138 55.5s-44 104.667 -44 203
s16.667 165.666 50 201.999s90 54.5 170 54.5h85v49h-71zM177 81.001h117c29.333 0 49.833 3.66699 61.5 11s17.5 23 17.5 47v269h-117c-29.333 0 -49.833 -3.66699 -61.5 -11s-17.5 -23 -17.5 -47v-269z" />
    <glyph glyph-name="Emacron" unicode="&#x112;" horiz-adv-x="455" 
d="M370 266h-200v-176h245v-90h-345v625h340l-15 -90h-225v-184h200v-85zM369 711h-198.001c-19.333 0 -31.666 3.16699 -36.999 9.5s-8 18.5 -8 36.5v35h199c19.333 0 31.5 -3 36.5 -9s7.5 -18 7.5 -36v-36z" />
    <glyph glyph-name="emacron" unicode="&#x113;" horiz-adv-x="533" 
d="M371 420h-114c-29.333 0 -49.833 -3.66699 -61.5 -11s-17.5 -23 -17.5 -47v-89h114c29.333 0 49.833 3.66699 61.5 11s17.5 23 17.5 47v89zM456 20c-56 -18.667 -114.331 -28.001 -174.998 -28.001s-104.834 7 -132.501 21s-48 39.333 -61 76s-19.5 90.334 -19.5 161.001
c0 103.333 15.167 173.333 45.5 210s84 55 161 55s129.333 -10.833 157 -32.5s41.5 -65.834 41.5 -132.501c0 -43.333 -3.83301 -72.166 -11.5 -86.499s-14.334 -25.333 -20.001 -33s-15.5 -14.167 -29.5 -19.5s-26.833 -9.33301 -38.5 -12s-28.834 -5 -51.501 -7
c-32.667 -2 -80.667 -3 -144 -3v-99c30.667 -7.33301 67.334 -11 110.001 -11s92.667 8 150 24zM417.002 585.999h-198.001c-19.333 0 -31.666 3.16699 -36.999 9.5s-8 18.5 -8 36.5v35h199c19.333 0 31.5 -3 36.5 -9s7.5 -18 7.5 -36v-36z" />
    <glyph glyph-name="Ebreve" unicode="&#x114;" horiz-adv-x="455" 
d="M370 266h-200v-176h245v-90h-345v625h340l-15 -90h-225v-184h200v-85zM255 765c11.333 0 22.001 4 32.001 12s17 19.333 21 34l65 -11c-8.66699 -36 -23.334 -63 -44.001 -81s-45.334 -27 -74.001 -27c-63.333 0 -102.666 36 -117.999 108l65 11c4 -14.667 11 -26 21 -34
s20.667 -12 32 -12z" />
    <glyph glyph-name="ebreve" unicode="&#x115;" horiz-adv-x="533" 
d="M371 420h-114c-29.333 0 -49.833 -3.66699 -61.5 -11s-17.5 -23 -17.5 -47v-89h114c29.333 0 49.833 3.66699 61.5 11s17.5 23 17.5 47v89zM456 20c-56 -18.667 -114.331 -28.001 -174.998 -28.001s-104.834 7 -132.501 21s-48 39.333 -61 76s-19.5 90.334 -19.5 161.001
c0 103.333 15.167 173.333 45.5 210s84 55 161 55s129.333 -10.833 157 -32.5s41.5 -65.834 41.5 -132.501c0 -43.333 -3.83301 -72.166 -11.5 -86.499s-14.334 -25.333 -20.001 -33s-15.5 -14.167 -29.5 -19.5s-26.833 -9.33301 -38.5 -12s-28.834 -5 -51.501 -7
c-32.667 -2 -80.667 -3 -144 -3v-99c30.667 -7.33301 67.334 -11 110.001 -11s92.667 8 150 24zM295.002 639.999c11.333 0 22.001 4 32.001 12s17 19.333 21 34l65 -11c-8.66699 -36 -23.334 -63 -44.001 -81s-45.334 -27 -74.001 -27c-63.333 0 -102.666 36 -117.999 108
l65 11c4 -14.667 11 -26 21 -34s20.667 -12 32 -12z" />
    <glyph glyph-name="Edotaccent" unicode="&#x116;" horiz-adv-x="455" 
d="M370 266h-200v-176h245v-90h-345v625h340l-15 -90h-225v-184h200v-85zM187 762c0 25.333 4.5 43.001 13.5 53.001s27 15 54 15s44.833 -5 53.5 -15s13 -27.833 13 -53.5s-4.33301 -43 -13 -52s-26.5 -13.5 -53.5 -13.5s-45 4.66699 -54 14s-13.5 26.666 -13.5 51.999z
" />
    <glyph glyph-name="edotaccent" unicode="&#x117;" horiz-adv-x="533" 
d="M371 420h-114c-29.333 0 -49.833 -3.66699 -61.5 -11s-17.5 -23 -17.5 -47v-89h114c29.333 0 49.833 3.66699 61.5 11s17.5 23 17.5 47v89zM456 20c-56 -18.667 -114.331 -28.001 -174.998 -28.001s-104.834 7 -132.501 21s-48 39.333 -61 76s-19.5 90.334 -19.5 161.001
c0 103.333 15.167 173.333 45.5 210s84 55 161 55s129.333 -10.833 157 -32.5s41.5 -65.834 41.5 -132.501c0 -43.333 -3.83301 -72.166 -11.5 -86.499s-14.334 -25.333 -20.001 -33s-15.5 -14.167 -29.5 -19.5s-26.833 -9.33301 -38.5 -12s-28.834 -5 -51.501 -7
c-32.667 -2 -80.667 -3 -144 -3v-99c30.667 -7.33301 67.334 -11 110.001 -11s92.667 8 150 24zM229.002 636.999c0 25.333 4.5 43.001 13.5 53.001s27 15 54 15s44.833 -5 53.5 -15s13 -27.833 13 -53.5s-4.33301 -43 -13 -52s-26.5 -13.5 -53.5 -13.5s-45 4.66699 -54 14
s-13.5 26.666 -13.5 51.999z" />
    <glyph glyph-name="Eogonek" unicode="&#x118;" horiz-adv-x="455" 
d="M361 -45v-21c0 -22.667 9.66699 -34 29 -34c2.66699 0 7.33398 0.666992 14.001 2l19 5l19 -51c-22.667 -14 -47.334 -21 -74.001 -21s-47.667 8 -63 24s-23 36 -23 60c0 38.667 16.333 65.667 49 81h-261v625h340l-15 -90h-225v-184h200v-85h-200v-176h245v-90l-20 -5
c-14 -4 -23.167 -8.33301 -27.5 -13s-6.5 -13.667 -6.5 -27z" />
    <glyph glyph-name="eogonek" unicode="&#x119;" horiz-adv-x="533" 
d="M269 -8c-52.667 0 -92.8311 6.99902 -120.498 20.999s-48 39.333 -61 76s-19.5 90.334 -19.5 161.001c0 103.333 15.167 173.333 45.5 210s84 55 161 55s129.333 -10.833 157 -32.5s41.5 -65.834 41.5 -132.501c0 -43.333 -3.83301 -72.166 -11.5 -86.499
s-14.334 -25.333 -20.001 -33s-15.5 -14.167 -29.5 -19.5s-26.833 -9.33301 -38.5 -12s-28.834 -5 -51.501 -7c-32.667 -2 -80.667 -3 -144 -3v-99c30.667 -7.33301 67.334 -11 110.001 -11s92.667 8 150 24l18 -83c-16.667 -5.33301 -32.334 -9.66602 -47.001 -12.999
c-13.333 -5.33301 -20 -17.333 -20 -36v-21c0 -22.667 9.66699 -34 29 -34c2.66699 0 7.33398 0.666992 14.001 2l19 5l19 -51c-22.667 -14 -47.334 -21 -74.001 -21s-47.667 8 -63 24s-23 36.667 -23 62s6.33301 44.666 19 57.999c-36 -2 -56 -3 -60 -3zM371.003 419.999
h-114c-29.333 0 -49.833 -3.66699 -61.5 -11s-17.5 -23 -17.5 -47v-89h114c29.333 0 49.833 3.66699 61.5 11s17.5 23 17.5 47v89z" />
    <glyph glyph-name="Ecaron" unicode="&#x11a;" horiz-adv-x="455" 
d="M370 266h-200v-176h245v-90h-345v625h340l-15 -90h-225v-184h200v-85zM264 685h-18c-4 0 -7.33301 2 -10 6l-114 116l40 34l93 -64l93 64l40 -34l-114 -116c-2.66699 -4 -6 -6 -10 -6z" />
    <glyph glyph-name="ecaron" unicode="&#x11b;" horiz-adv-x="533" 
d="M371 420h-114c-29.333 0 -49.833 -3.66699 -61.5 -11s-17.5 -23 -17.5 -47v-89h114c29.333 0 49.833 3.66699 61.5 11s17.5 23 17.5 47v89zM456 20c-56 -18.667 -114.331 -28.001 -174.998 -28.001s-104.834 7 -132.501 21s-48 39.333 -61 76s-19.5 90.334 -19.5 161.001
c0 103.333 15.167 173.333 45.5 210s84 55 161 55s129.333 -10.833 157 -32.5s41.5 -65.834 41.5 -132.501c0 -43.333 -3.83301 -72.166 -11.5 -86.499s-14.334 -25.333 -20.001 -33s-15.5 -14.167 -29.5 -19.5s-26.833 -9.33301 -38.5 -12s-28.834 -5 -51.501 -7
c-32.667 -2 -80.667 -3 -144 -3v-99c30.667 -7.33301 67.334 -11 110.001 -11s92.667 8 150 24zM306.002 559.999h-18c-4 0 -7.33301 2 -10 6l-114 116l40 34l93 -64l93 64l40 -34l-114 -116c-2.66699 -4 -6 -6 -10 -6z" />
    <glyph glyph-name="Gcircumflex" unicode="&#x11c;" horiz-adv-x="600" 
d="M390 142l0.00195312 102.001h-71v90h161v-304c-66.667 -30 -136 -45 -208 -45c-90.667 0 -150.334 21.667 -179.001 65s-43 130.666 -43 261.999s16.333 218.833 49 262.5s100 65.5 202 65.5c52 0 101.667 -7 149 -21l-15 -88c-54 9.33301 -104 14 -150 14
s-78.333 -3.66699 -97 -11s-28 -22.333 -28 -45v-407h137c21.333 0 37.666 1 48.999 3s21.5 7.5 30.5 16.5s13.5 22.5 13.5 40.5zM291.002 837.001h18.002c3.33301 0 6.66602 -2 9.99902 -6l114 -116l-40 -34l-93 64l-93 -64l-40 34l114 116c3.33301 4 6.66602 6 9.99902 6z
" />
    <glyph glyph-name="gcircumflex" unicode="&#x11d;" horiz-adv-x="496" 
d="M81 197.5c-20.667 27 -30.998 73.668 -30.998 140.001s14.5 112.5 43.5 138.5s78.833 39 149.5 39c48.667 0 86.667 -5.66699 114 -17l69 54l50 -49l-57 -67c11.333 -28 17 -63.333 17 -106c0 -68 -13 -115.167 -39 -141.5s-70.667 -40.5 -134 -42.5l-5 -62
c69.333 -4 118.166 -13.333 146.499 -28s42.5 -46.334 42.5 -95.001c0 -42 -11 -71.667 -33 -89c-11.333 -8.66699 -22.333 -15.667 -33 -21s-26.334 -9 -47.001 -11c-26 -3.33301 -66.167 -5 -120.5 -5s-106.166 10 -155.499 30l15 86c61.333 -19.333 125 -29 191 -29
c22.667 0 45 1.66699 67 5v65c-83.333 0 -138.333 7.66699 -165 23c-10 6 -15 12.667 -15 20l34 114c-48.667 5.33301 -83.334 21.5 -104.001 48.5zM153.002 380.001v-145h111c24 0 41.5 2.5 52.5 7.5s16.5 16.5 16.5 34.5v145h-111c-24 0 -41.5 -2.5 -52.5 -7.5
s-16.5 -16.5 -16.5 -34.5zM245.002 712.001h18.002c3.33301 0 6.66602 -2 9.99902 -6l114 -116l-40 -34l-93 64l-93 -64l-40 34l114 116c3.33301 4 6.66602 6 9.99902 6z" />
    <glyph glyph-name="Gbreve" unicode="&#x11e;" horiz-adv-x="600" 
d="M390 142l0.00195312 102.001h-71v90h161v-304c-66.667 -30 -136 -45 -208 -45c-90.667 0 -150.334 21.667 -179.001 65s-43 130.666 -43 261.999s16.333 218.833 49 262.5s100 65.5 202 65.5c52 0 101.667 -7 149 -21l-15 -88c-54 9.33301 -104 14 -150 14
s-78.333 -3.66699 -97 -11s-28 -22.333 -28 -45v-407h137c21.333 0 37.666 1 48.999 3s21.5 7.5 30.5 16.5s13.5 22.5 13.5 40.5zM300.002 765.001c11.333 0 22.001 4 32.001 12s17 19.333 21 34l65 -11c-8.66699 -36 -23.334 -63 -44.001 -81s-45.334 -27 -74.001 -27
c-63.333 0 -102.666 36 -117.999 108l65 11c4 -14.667 11 -26 21 -34s20.667 -12 32 -12z" />
    <glyph glyph-name="gbreve" unicode="&#x11f;" horiz-adv-x="496" 
d="M81 197.5c-20.667 27 -30.998 73.668 -30.998 140.001s14.5 112.5 43.5 138.5s78.833 39 149.5 39c48.667 0 86.667 -5.66699 114 -17l69 54l50 -49l-57 -67c11.333 -28 17 -63.333 17 -106c0 -68 -13 -115.167 -39 -141.5s-70.667 -40.5 -134 -42.5l-5 -62
c69.333 -4 118.166 -13.333 146.499 -28s42.5 -46.334 42.5 -95.001c0 -42 -11 -71.667 -33 -89c-11.333 -8.66699 -22.333 -15.667 -33 -21s-26.334 -9 -47.001 -11c-26 -3.33301 -66.167 -5 -120.5 -5s-106.166 10 -155.499 30l15 86c61.333 -19.333 125 -29 191 -29
c22.667 0 45 1.66699 67 5v65c-83.333 0 -138.333 7.66699 -165 23c-10 6 -15 12.667 -15 20l34 114c-48.667 5.33301 -83.334 21.5 -104.001 48.5zM153.002 380.001v-145h111c24 0 41.5 2.5 52.5 7.5s16.5 16.5 16.5 34.5v145h-111c-24 0 -41.5 -2.5 -52.5 -7.5
s-16.5 -16.5 -16.5 -34.5zM253.002 640.001c11.333 0 22.001 4 32.001 12s17 19.333 21 34l65 -11c-8.66699 -36 -23.334 -63 -44.001 -81s-45.334 -27 -74.001 -27c-63.333 0 -102.666 36 -117.999 108l65 11c4 -14.667 11 -26 21 -34s20.667 -12 32 -12z" />
    <glyph glyph-name="Gdotaccent" unicode="&#x120;" horiz-adv-x="600" 
d="M390 142l0.00195312 102.001h-71v90h161v-304c-66.667 -30 -136 -45 -208 -45c-90.667 0 -150.334 21.667 -179.001 65s-43 130.666 -43 261.999s16.333 218.833 49 262.5s100 65.5 202 65.5c52 0 101.667 -7 149 -21l-15 -88c-54 9.33301 -104 14 -150 14
s-78.333 -3.66699 -97 -11s-28 -22.333 -28 -45v-407h137c21.333 0 37.666 1 48.999 3s21.5 7.5 30.5 16.5s13.5 22.5 13.5 40.5zM232.002 762.001c0 25.333 4.5 43.001 13.5 53.001s27 15 54 15s44.833 -5 53.5 -15s13 -27.833 13 -53.5s-4.33301 -43 -13 -52
s-26.5 -13.5 -53.5 -13.5s-45 4.66699 -54 14s-13.5 26.666 -13.5 51.999z" />
    <glyph glyph-name="gdotaccent" unicode="&#x121;" horiz-adv-x="536" 
d="M81 197.5c-20.667 27 -30.998 73.668 -30.998 140.001s14.5 112.5 43.5 138.5s78.833 39 149.5 39c48.667 0 86.667 -5.66699 114 -17l69 54l50 -49l-57 -67c11.333 -28 17 -63.333 17 -106c0 -68 -13 -115.167 -39 -141.5s-70.667 -40.5 -134 -42.5l-5 -62
c69.333 -4 118.166 -13.333 146.499 -28s42.5 -46.334 42.5 -95.001c0 -42 -11 -71.667 -33 -89c-11.333 -8.66699 -22.333 -15.667 -33 -21s-26.334 -9 -47.001 -11c-26 -3.33301 -66.167 -5 -120.5 -5s-106.166 10 -155.499 30l15 86c61.333 -19.333 125 -29 191 -29
c22.667 0 45 1.66699 67 5v65c-83.333 0 -138.333 7.66699 -165 23c-10 6 -15 12.667 -15 20l34 114c-48.667 5.33301 -83.334 21.5 -104.001 48.5zM153.002 380.001v-145h111c24 0 41.5 2.5 52.5 7.5s16.5 16.5 16.5 34.5v145h-111c-24 0 -41.5 -2.5 -52.5 -7.5
s-16.5 -16.5 -16.5 -34.5zM188.002 637.001c0 25.333 4.5 43.001 13.5 53.001s27 15 54 15s44.833 -5 53.5 -15s13 -27.833 13 -53.5s-4.33301 -43 -13 -52s-26.5 -13.5 -53.5 -13.5s-45 4.66699 -54 14s-13.5 26.666 -13.5 51.999z" />
    <glyph glyph-name="uni0122" unicode="&#x122;" horiz-adv-x="530" 
d="M390 142l0.00195312 102.001h-71v90h161v-304c-66.667 -30 -136 -45 -208 -45c-90.667 0 -150.334 21.667 -179.001 65s-43 130.666 -43 261.999s16.333 218.833 49 262.5s100 65.5 202 65.5c52 0 101.667 -7 149 -21l-15 -88c-54 9.33301 -104 14 -150 14
s-78.333 -3.66699 -97 -11s-28 -22.333 -28 -45v-407h137c21.333 0 37.666 1 48.999 3s21.5 7.5 30.5 16.5s13.5 22.5 13.5 40.5zM211.502 -158.499c-6.33301 8.33301 -9.50195 24.6699 -9.50195 49.0029s4.33301 42.333 13 54s25.334 17.5 50.001 17.5
s41.334 -5.83301 50.001 -17.5s13 -31.834 13 -60.501s-6 -56.334 -18 -83.001l-31 -68l-39 12l8 82c-18 1.33301 -30.167 6.16602 -36.5 14.499z" />
    <glyph glyph-name="uni0123" unicode="&#x123;" horiz-adv-x="496" 
d="M81 197.5c-20.667 27 -30.998 73.668 -30.998 140.001s14.5 112.5 43.5 138.5s78.833 39 149.5 39c48.667 0 86.667 -5.66699 114 -17l69 54l50 -49l-57 -67c11.333 -28 17 -63.333 17 -106c0 -68 -13 -115.167 -39 -141.5s-70.667 -40.5 -134 -42.5l-5 -62
c69.333 -4 118.166 -13.333 146.499 -28s42.5 -46.334 42.5 -95.001c0 -42 -11 -71.667 -33 -89c-11.333 -8.66699 -22.333 -15.667 -33 -21s-26.334 -9 -47.001 -11c-26 -3.33301 -66.167 -5 -120.5 -5s-106.166 10 -155.499 30l15 86c61.333 -19.333 125 -29 191 -29
c22.667 0 45 1.66699 67 5v65c-83.333 0 -138.333 7.66699 -165 23c-10 6 -15 12.667 -15 20l34 114c-48.667 5.33301 -83.334 21.5 -104.001 48.5zM153.002 380.001v-145h111c24 0 41.5 2.5 52.5 7.5s16.5 16.5 16.5 34.5v145h-111c-24 0 -41.5 -2.5 -52.5 -7.5
s-16.5 -16.5 -16.5 -34.5zM309.502 686.501c6.33301 -8.33301 9.50195 -24.6699 9.50195 -49.0029s-4.33301 -42.333 -13 -54s-25.334 -17.5 -50.001 -17.5s-41.334 5.83301 -50.001 17.5s-13 31.834 -13 60.501s6 56.334 18 83.001l31 68l39 -12l-8 -82
c18 -1.33301 30.167 -6.16602 36.5 -14.499z" />
    <glyph glyph-name="Hcircumflex" unicode="&#x124;" horiz-adv-x="580" 
d="M410 0v267h-240v-267h-100v625h100v-268h240v268h100v-625h-100zM281 837h18.002c3.33301 0 6.66602 -2 9.99902 -6l114 -116l-40 -34l-93 64l-93 -64l-40 34l114 116c3.33301 4 6.66602 6 9.99902 6z" />
    <glyph glyph-name="hcircumflex" unicode="&#x125;" 
d="M370 510c34 0 59.167 -7.16699 75.5 -21.5s24.5 -40.5 24.5 -78.5v-410h-100v408h-101c-29.333 0 -49.833 -3.66699 -61.5 -11s-17.5 -23 -17.5 -47v-350h-100v657l95 8v-217c61.333 41.333 123 62 185 62zM136 855h18c4 0 7.33301 -2 10 -6l114 -116l-40 -34l-93 64
l-93 -64l-40 34l114 116c2.66699 4 6 6 10 6z" />
    <glyph glyph-name="Hbar" unicode="&#x126;" horiz-adv-x="580" 
d="M18 468l-0.000976562 37c0 11.333 2.66699 18.5 8 21.5s15.333 4.5 30 4.5h14v94h100v-94h240v94h100v-94h54v-38c0 -11.333 -2.66699 -18.333 -8 -21s-15.666 -4 -30.999 -4h-15v-468h-100v267h-240v-267h-100v468h-52zM169.999 357h240v111h-240v-111z" />
    <glyph glyph-name="hbar" unicode="&#x127;" 
d="M14 549l-0.000976562 37c0 11.333 2.66699 18.5 8 21.5s15.333 4.5 30 4.5h38v45l95 8v-53h72v-38c0 -11.333 -2.66699 -18.333 -8 -21s-15.666 -4 -30.999 -4h-33v-101c61.333 41.333 123 62 185 62c34 0 59.167 -7.16699 75.5 -21.5s24.5 -40.5 24.5 -78.5v-410h-100
v408h-101c-29.333 0 -49.833 -3.66699 -61.5 -11s-17.5 -23 -17.5 -47v-350h-100v549h-76z" />
    <glyph glyph-name="Itilde" unicode="&#x128;" horiz-adv-x="240" 
d="M70 0v625h100v-625h-100zM175 696.5c-11.333 -5 -23.668 -7.5 -37.001 -7.5s-30.666 10.333 -51.999 31l-15 12l-66 -33l-31 51l30 21c28 19.333 47.667 31.5 59 36.5s23.666 7.5 36.999 7.5s31.333 -10.333 54 -31l15 -12l66 33l31 -51l-30 -21
c-29.333 -19.333 -49.666 -31.5 -60.999 -36.5z" />
    <glyph glyph-name="itilde" unicode="&#x129;" horiz-adv-x="280" 
d="M90 0v493l100 15v-508h-100zM195 571.5c-11.333 -5 -23.668 -7.5 -37.001 -7.5s-30.666 10.333 -51.999 31l-15 12l-66 -33l-31 51l30 21c28 19.333 47.667 31.5 59 36.5s23.666 7.5 36.999 7.5s31.333 -10.333 54 -31l15 -12l66 33l31 -51l-30 -21
c-29.333 -19.333 -49.666 -31.5 -60.999 -36.5z" />
    <glyph glyph-name="Imacron" unicode="&#x12a;" horiz-adv-x="240" 
d="M70 0v625h100v-625h-100zM242 711h-198.001c-19.333 0 -31.666 3.16699 -36.999 9.5s-8 18.5 -8 36.5v35h199c19.333 0 31.5 -3 36.5 -9s7.5 -18 7.5 -36v-36z" />
    <glyph glyph-name="imacron" unicode="&#x12b;" horiz-adv-x="280" 
d="M90 0v493l100 15v-508h-100zM262 586h-198.001c-19.333 0 -31.666 3.16699 -36.999 9.5s-8 18.5 -8 36.5v35h199c19.333 0 31.5 -3 36.5 -9s7.5 -18 7.5 -36v-36z" />
    <glyph glyph-name="Ibreve" unicode="&#x12c;" horiz-adv-x="240" 
d="M70 0v625h100v-625h-100zM120 765c11.333 0 22.001 4 32.001 12s17 19.333 21 34l65 -11c-8.66699 -36 -23.334 -63 -44.001 -81s-45.334 -27 -74.001 -27c-63.333 0 -102.666 36 -117.999 108l65 11c4 -14.667 11 -26 21 -34s20.667 -12 32 -12z" />
    <glyph glyph-name="ibreve" unicode="&#x12d;" horiz-adv-x="280" 
d="M90 0v493l100 15v-508h-100zM140 640c11.333 0 22.001 4 32.001 12s17 19.333 21 34l65 -11c-8.66699 -36 -23.334 -63 -44.001 -81s-45.334 -27 -74.001 -27c-63.333 0 -102.666 36 -117.999 108l65 11c4 -14.667 11 -26 21 -34s20.667 -12 32 -12z" />
    <glyph glyph-name="Iogonek" unicode="&#x12e;" horiz-adv-x="240" 
d="M70 625h100v-625l-36 -5c-13.333 -2 -22.333 -5.66699 -27 -11s-7 -15 -7 -29v-21c0 -22.667 9.66699 -34 29 -34c2.66699 0 7.33398 0.666992 14.001 2l19 5l19 -51c-22.667 -14 -47.334 -21 -74.001 -21s-47.667 8 -63 24s-23 36 -23 60c0 38.667 16.333 65.667 49 81
v625z" />
    <glyph glyph-name="iogonek" unicode="&#x12f;" horiz-adv-x="280" 
d="M120 -45v-21c0 -22.667 9.66699 -34 29 -34c2.66699 0 7.33398 0.666992 14.001 2l19 5l19 -51c-22.667 -14 -47.334 -21 -74.001 -21s-47.667 8 -63 24s-23 36 -23 60c0 38.667 16.333 65.667 49 81v493l100 15v-508l-36 -5c-13.333 -2 -22.333 -5.66699 -27 -11
s-7 -15 -7 -29zM91.5 588c-8.33301 8.66699 -12.5 24.167 -12.5 46.5s4.16699 38 12.5 47s24.666 13.5 48.999 13.5s40.666 -4.5 48.999 -13.5s12.5 -24.667 12.5 -47s-4.16699 -37.833 -12.5 -46.5s-24.666 -13 -48.999 -13s-40.666 4.33301 -48.999 13z" />
    <glyph glyph-name="Idotaccent" unicode="&#x130;" horiz-adv-x="240" 
d="M70 0v625h100v-625h-100zM53 762c0 25.333 4.5 43.001 13.5 53.001s27 15 54 15s44.833 -5 53.5 -15s13 -27.833 13 -53.5s-4.33301 -43 -13 -52s-26.5 -13.5 -53.5 -13.5s-45 4.66699 -54 14s-13.5 26.666 -13.5 51.999z" />
    <glyph glyph-name="dotlessi" unicode="&#x131;" horiz-adv-x="280" 
d="M90 0v493l100 15v-508h-100z" />
    <glyph glyph-name="IJ" unicode="&#x132;" horiz-adv-x="556" 
d="M70 0v625h100v-625h-100zM343 90c20.667 0 33.833 2.83105 39.5 8.49805s8.5 12.834 8.5 21.501v415h-113v90h213v-490c0 -51.333 -12.5 -86.666 -37.5 -105.999s-64.167 -29 -117.5 -29h-74l-12 90h93z" />
    <glyph glyph-name="ij" unicode="&#x133;" horiz-adv-x="560" 
d="M90 0v493l100 15v-508h-100zM91.5 588c-8.33301 8.66699 -12.5 24.167 -12.5 46.5s4.16699 38 12.5 47s24.666 13.5 48.999 13.5s40.666 -4.5 48.999 -13.5s12.5 -24.667 12.5 -47s-4.16699 -37.833 -12.5 -46.5s-24.666 -13 -48.999 -13s-40.666 4.33301 -48.999 13z
M270 -165v60l52 10c32 6 48 22.667 48 50v538l100 15v-528c0 -52 -10.333 -89.167 -31 -111.5s-51.667 -33.5 -93 -33.5h-76zM371.5 588c-8.33301 8.66699 -12.5 24.167 -12.5 46.5s4.16699 38 12.5 47s24.666 13.5 48.999 13.5s40.666 -4.5 48.999 -13.5
s12.5 -24.667 12.5 -47s-4.16699 -37.833 -12.5 -46.5s-24.666 -13 -48.999 -13s-40.666 4.33301 -48.999 13z" />
    <glyph glyph-name="Jcircumflex" unicode="&#x134;" horiz-adv-x="316" 
d="M103 90c20.667 0 33.833 2.83105 39.5 8.49805s8.5 12.834 8.5 21.501v415h-113v90h213v-490c0 -51.333 -12.5 -86.666 -37.5 -105.999s-64.167 -29 -117.5 -29h-74l-12 90h93zM183.999 836.998h18.001c3.33301 0 6.66602 -2 9.99902 -6l114 -116l-40 -34l-93 64l-93 -64
l-40 34l114 116c2.66699 4 6 6 10 6z" />
    <glyph glyph-name="jcircumflex" unicode="&#x135;" horiz-adv-x="280" 
d="M-10 -165v60l52 10c32 6 48 22.667 48 50v538l100 15v-528c0 -52 -10.333 -89.167 -31 -111.5s-51.667 -33.5 -93 -33.5h-76zM131 712h18.001c3.33301 0 6.66602 -2 9.99902 -6l114 -116l-40 -34l-93 64l-93 -64l-40 34l114 116c2.66699 4 6 6 10 6z" />
    <glyph glyph-name="uni0136" unicode="&#x136;" horiz-adv-x="493" 
d="M170 276v-275.998h-100v625h100v-259h84c1.33301 23.333 4.66602 40.666 9.99902 51.999l98 207h116l-150 -307l155 -318h-116l-103 224c-5.33301 11.333 -8.66602 28.666 -9.99902 51.999h-84zM192.5 -158.498c-6.33301 8.33301 -9.50195 24.6699 -9.50195 49.0029
s4.33301 42.333 13 54s25.334 17.5 50.001 17.5s41.334 -5.83301 50.001 -17.5s13 -31.834 13 -60.501s-6 -56.334 -18 -83.001l-31 -68l-39 12l8 82c-18 1.33301 -30.167 6.16602 -36.5 14.499z" />
    <glyph glyph-name="uni0137" unicode="&#x137;" horiz-adv-x="510" 
d="M190 227v-227h-100v650l100 15v-358h69l104 193h107l-128 -233l133 -267h-107l-115 227h-63zM221.5 -158.5c-6.33301 8.33301 -9.50195 24.6699 -9.50195 49.0029s4.33301 42.333 13 54s25.334 17.5 50.001 17.5s41.334 -5.83301 50.001 -17.5s13 -31.834 13 -60.501
s-6 -56.334 -18 -83.001l-31 -68l-39 12l8 82c-18 1.33301 -30.167 6.16602 -36.5 14.499z" />
    <glyph glyph-name="kgreenlandic" unicode="&#x138;" horiz-adv-x="510" 
d="M190 227v-227h-100v500h100v-193h69l104 193h107l-128 -233l133 -267h-107l-115 227h-63z" />
    <glyph glyph-name="Lacute" unicode="&#x139;" horiz-adv-x="380" 
d="M380 0h-310v625h100v-535h210v-90zM193 833c3.33301 2.66699 6.16699 3.99902 8.5 3.99902s4.83301 -1.66699 7.5 -5l44 -54c4 -5.33301 6 -9.16602 6 -11.499s-1.33301 -4.83301 -4 -7.5l-30 -25c-6 -4.66699 -13.333 -8 -22 -10l-140 -35l-22 34z" />
    <glyph glyph-name="lacute" unicode="&#x13a;" horiz-adv-x="280" 
d="M90 84v566.001l100 15v-592c22.667 -2.66699 38 -4.33398 46 -5.00098l-6 -79c-56.667 0 -94.167 6 -112.5 18s-27.5 37.667 -27.5 77zM200 838.001c3.33301 2.66699 6.16699 3.99902 8.5 3.99902s4.83301 -1.66699 7.5 -5l44 -54c4 -5.33301 6 -9.16602 6 -11.499
s-1.33301 -4.83301 -4 -7.5l-30 -25c-6 -4.66699 -13.333 -8 -22 -10l-140 -35l-22 34z" />
    <glyph glyph-name="uni013B" unicode="&#x13b;" horiz-adv-x="380" 
d="M380 0h-310v625h100v-535h210v-90zM171.5 -158.5c-6.33301 8.33301 -9.50195 24.6699 -9.50195 49.0029s4.33301 42.333 13 54s25.334 17.5 50.001 17.5s41.334 -5.83301 50.001 -17.5s13 -31.834 13 -60.501s-6 -56.334 -18 -83.001l-31 -68l-39 12l8 82
c-18 1.33301 -30.167 6.16602 -36.5 14.499z" />
    <glyph glyph-name="uni013C" unicode="&#x13c;" horiz-adv-x="280" 
d="M90 84v566.001l100 15v-592c22.667 -2.66699 38 -4.33398 46 -5.00098l-6 -79c-56.667 0 -94.167 6 -112.5 18s-27.5 37.667 -27.5 77zM90.5 -158.499c-6.33301 8.33301 -9.50195 24.6699 -9.50195 49.0029s4.33301 42.333 13 54s25.334 17.5 50.001 17.5
s41.334 -5.83301 50.001 -17.5s13 -31.834 13 -60.501s-6 -56.334 -18 -83.001l-31 -68l-39 12l8 82c-18 1.33301 -30.167 6.16602 -36.5 14.499z" />
    <glyph glyph-name="Lcaron" unicode="&#x13d;" horiz-adv-x="380" 
d="M380 0h-310v625h100v-535h210v-90zM241.5 544.5c-6.33301 8.33301 -9.50195 24.6699 -9.50195 49.0029s4.33301 42.333 13 54s25.334 17.5 50.001 17.5s41.334 -5.83301 50.001 -17.5s13 -31.834 13 -60.501s-6 -56.334 -18 -83.001l-31 -68l-39 12l8 82
c-18 1.33301 -30.167 6.16602 -36.5 14.499z" />
    <glyph glyph-name="lcaron" unicode="&#x13e;" horiz-adv-x="309" 
d="M90 84v566.001l100 15v-592c22.667 -2.66699 38 -4.33398 46 -5.00098l-6 -79c-56.667 0 -94.167 6 -112.5 18s-27.5 37.667 -27.5 77zM255.5 544.501c-6.33301 8.33301 -9.50195 24.6699 -9.50195 49.0029s4.33301 42.333 13 54s25.334 17.5 50.001 17.5
s41.334 -5.83301 50.001 -17.5s13 -31.834 13 -60.501s-6 -56.334 -18 -83.001l-31 -68l-39 12l8 82c-18 1.33301 -30.167 6.16602 -36.5 14.499z" />
    <glyph glyph-name="Ldot" unicode="&#x13f;" horiz-adv-x="380" 
d="M380 0h-310v625h100v-535h210v-90zM249 327c0 30 4.5 51 13.5 63s26.333 18 52 18s43 -6 52 -18s13.5 -33 13.5 -63s-4.33301 -50.833 -13 -62.5s-26 -17.5 -52 -17.5s-43.5 5.83301 -52.5 17.5s-13.5 32.5 -13.5 62.5z" />
    <glyph glyph-name="ldot" unicode="&#x140;" horiz-adv-x="309" 
d="M90 84v566.001l100 15v-592c22.667 -2.66699 38 -4.33398 46 -5.00098l-6 -79c-56.667 0 -94.167 6 -112.5 18s-27.5 37.667 -27.5 77zM229 327.001c0 30 4.5 51 13.5 63s26.333 18 52 18s43 -6 52 -18s13.5 -33 13.5 -63s-4.33301 -50.833 -13 -62.5
s-26 -17.5 -52 -17.5s-43.5 5.83301 -52.5 17.5s-13.5 32.5 -13.5 62.5z" />
    <glyph glyph-name="Lslash" unicode="&#x141;" horiz-adv-x="380" 
d="M250 361c0 -10.667 -10.333 -19.667 -31 -27l-49 -17v-227h210v-90h-310v284l-59 -19l-15 44c-1.33301 5.33301 -2 8.66602 -2 9.99902c0 10.667 10.333 19.667 31 27l45 15v264h100v-231l63 21l15 -44c1.33301 -5.33301 2 -8.66602 2 -9.99902z" />
    <glyph glyph-name="lslash" unicode="&#x142;" horiz-adv-x="280" 
d="M270 361c0 -10.667 -10.333 -19.666 -31 -26.999l-49 -17v-244c22.667 -2.66699 38 -4.33398 46 -5.00098l-6 -79c-56.667 0 -94.167 6 -112.5 18s-27.5 37.667 -27.5 77v200l-59 -19l-15 44c-1.33301 5.33301 -2 8.66602 -2 9.99902c0 10.667 10.333 19.667 31 27l45 15
v289l100 15v-271l63 21l15 -44c1.33301 -5.33301 2 -8.66602 2 -9.99902z" />
    <glyph glyph-name="Nacute" unicode="&#x143;" horiz-adv-x="575" 
d="M170 458v-458h-100v625h108l213 -410c5.33301 -7.33301 8.66602 -23.333 9.99902 -48h4v458h100v-625h-108l-213 410c-5.33301 7.33301 -8.66602 23.333 -9.99902 48h-4zM373 833c3.33301 2.66699 6.16699 3.99902 8.5 3.99902s4.83301 -1.66699 7.5 -5l44 -54
c4 -5.33301 6 -9.16602 6 -11.499s-1.33301 -4.83301 -4 -7.5l-30 -25c-6 -4.66699 -13.333 -8 -22 -10l-140 -35l-22 34z" />
    <glyph glyph-name="nacute" unicode="&#x144;" 
d="M370 510c34 0 59.167 -7.16699 75.5 -21.5s24.5 -40.5 24.5 -78.5v-410h-100v408h-101c-29.333 0 -49.833 -3.66699 -61.5 -11s-17.5 -23 -17.5 -47v-350h-100v500h46l37 -60c69.333 46.667 135 70 197 70zM340 708c3.33301 2.66699 6.16699 3.99902 8.5 3.99902
s4.83301 -1.66699 7.5 -5l44 -54c4 -5.33301 6 -9.16602 6 -11.499s-1.33301 -4.83301 -4 -7.5l-30 -25c-6 -4.66699 -13.333 -8 -22 -10l-140 -35l-22 34z" />
    <glyph glyph-name="uni0145" unicode="&#x145;" horiz-adv-x="575" 
d="M170 458v-458h-100v625h108l213 -410c5.33301 -7.33301 8.66602 -23.333 9.99902 -48h4v458h100v-625h-108l-213 410c-5.33301 7.33301 -8.66602 23.333 -9.99902 48h-4zM233.5 -158.5c-6.33301 8.33301 -9.50195 24.6699 -9.50195 49.0029s4.33301 42.333 13 54
s25.334 17.5 50.001 17.5s41.334 -5.83301 50.001 -17.5s13 -31.834 13 -60.501s-6 -56.334 -18 -83.001l-31 -68l-39 12l8 82c-18 1.33301 -30.167 6.16602 -36.5 14.499z" />
    <glyph glyph-name="uni0146" unicode="&#x146;" 
d="M370 510c34 0 59.167 -7.16699 75.5 -21.5s24.5 -40.5 24.5 -78.5v-410h-100v408h-101c-29.333 0 -49.833 -3.66699 -61.5 -11s-17.5 -23 -17.5 -47v-350h-100v500h46l37 -60c69.333 46.667 135 70 197 70zM223.5 -158.5
c-6.33301 8.33301 -9.50195 24.6699 -9.50195 49.0029s4.33301 42.333 13 54s25.334 17.5 50.001 17.5s41.334 -5.83301 50.001 -17.5s13 -31.834 13 -60.501s-6 -56.334 -18 -83.001l-31 -68l-39 12l8 82c-18 1.33301 -30.167 6.16602 -36.5 14.499z" />
    <glyph glyph-name="Ncaron" unicode="&#x147;" horiz-adv-x="575" 
d="M170 458v-458h-100v625h108l213 -410c5.33301 -7.33301 8.66602 -23.333 9.99902 -48h4v458h100v-625h-108l-213 410c-5.33301 7.33301 -8.66602 23.333 -9.99902 48h-4zM296 685h-18c-4 0 -7.33301 2 -10 6l-114 116l40 34l93 -64l93 64l40 -34l-114 -116
c-2.66699 -4 -6 -6 -10 -6z" />
    <glyph glyph-name="ncaron" unicode="&#x148;" 
d="M370 510c34 0 59.167 -7.16699 75.5 -21.5s24.5 -40.5 24.5 -78.5v-410h-100v408h-101c-29.333 0 -49.833 -3.66699 -61.5 -11s-17.5 -23 -17.5 -47v-350h-100v500h46l37 -60c69.333 46.667 135 70 197 70zM296 560h-18c-4 0 -7.33301 2 -10 6l-114 116l40 34l93 -64
l93 64l40 -34l-114 -116c-2.66699 -4 -6 -6 -10 -6z" />
    <glyph glyph-name="napostrophe" unicode="&#x149;" 
d="M370 510c34 0 59.167 -7.16699 75.5 -21.5s24.5 -40.5 24.5 -78.5v-410h-100v408h-101c-29.333 0 -49.833 -3.66699 -61.5 -11s-17.5 -23 -17.5 -47v-350h-100v500h46l37 -60c69.333 46.667 135 70 197 70zM-23.5 647.5
c-6.33301 8.33301 -9.50195 24.6699 -9.50195 49.0029s4.33301 42.333 13 54s25.334 17.5 50.001 17.5s41.334 -5.83301 50.001 -17.5s13 -31.834 13 -60.501s-6 -56.334 -18 -83.001l-31 -68l-39 12l8 82c-18 1.33301 -30.167 6.16602 -36.5 14.499z" />
    <glyph glyph-name="Eng" unicode="&#x14a;" horiz-adv-x="575" 
d="M305 -165v60l52 10c32 6 48 22.667 48 50v31l-221 424c-5.33301 7.33301 -8.66602 23.333 -9.99902 48h-4v-458h-100v625h108l213 -410c5.33301 -7.33301 8.66602 -23.333 9.99902 -48h4v458h100v-645c0 -52 -10.333 -89.167 -31 -111.5s-51.667 -33.5 -93 -33.5h-76z
" />
    <glyph glyph-name="eng" unicode="&#x14b;" 
d="M270 -165v60l52 10c32 6 48 22.667 48 50v453h-101c-29.333 0 -49.833 -3.66699 -61.5 -11s-17.5 -23 -17.5 -47v-350h-100v500h46l37 -60c69.333 46.667 135 70 197 70c34 0 59.167 -7.16699 75.5 -21.5s24.5 -40.5 24.5 -78.5v-430c0 -52 -10.333 -89.167 -31 -111.5
s-51.667 -33.5 -93 -33.5h-76z" />
    <glyph glyph-name="Omacron" unicode="&#x14c;" horiz-adv-x="581" 
d="M98 51c-32 44 -48 131.167 -48 261.5s16 217.5 48 261.5s96 66 192 66s160.167 -22.167 192.5 -66.5s48.5 -131.5 48.5 -261.5s-16.167 -217 -48.5 -261s-96.5 -66 -192.5 -66s-160 22 -192 66zM160 486l0.000976562 -400h183c27.333 0 47.166 3.16699 59.499 9.5
s18.5 20.833 18.5 43.5v400h-184c-26.667 0 -46.167 -3.16699 -58.5 -9.5s-18.5 -20.833 -18.5 -43.5zM412.001 711h-198.001c-19.333 0 -31.666 3.16699 -36.999 9.5s-8 18.5 -8 36.5v35h199c19.333 0 31.5 -3 36.5 -9s7.5 -18 7.5 -36v-36z" />
    <glyph glyph-name="omacron" unicode="&#x14d;" horiz-adv-x="550" 
d="M68 250c0 94 14.333 161.667 43 203s83.334 62 164.001 62s135.334 -20.667 164.001 -62s43 -109 43 -203s-14.333 -161.667 -43 -203s-83.334 -62 -164.001 -62s-135.334 20.667 -164.001 62s-43 109 -43 203zM177 81h117c29.333 0 49.833 3.66699 61.5 11
s17.5 23 17.5 47v280h-117c-29.333 0 -49.833 -3.66699 -61.5 -11s-17.5 -23 -17.5 -47v-280zM397 586h-198.001c-19.333 0 -31.666 3.16699 -36.999 9.5s-8 18.5 -8 36.5v35h199c19.333 0 31.5 -3 36.5 -9s7.5 -18 7.5 -36v-36z" />
    <glyph glyph-name="Obreve" unicode="&#x14e;" horiz-adv-x="581" 
d="M98 51c-32 44 -48 131.167 -48 261.5s16 217.5 48 261.5s96 66 192 66s160.167 -22.167 192.5 -66.5s48.5 -131.5 48.5 -261.5s-16.167 -217 -48.5 -261s-96.5 -66 -192.5 -66s-160 22 -192 66zM160 486l0.000976562 -400h183c27.333 0 47.166 3.16699 59.499 9.5
s18.5 20.833 18.5 43.5v400h-184c-26.667 0 -46.167 -3.16699 -58.5 -9.5s-18.5 -20.833 -18.5 -43.5zM290.001 765c11.333 0 22.001 4 32.001 12s17 19.333 21 34l65 -11c-8.66699 -36 -23.334 -63 -44.001 -81s-45.334 -27 -74.001 -27
c-63.333 0 -102.666 36 -117.999 108l65 11c4 -14.667 11 -26 21 -34s20.667 -12 32 -12z" />
    <glyph glyph-name="obreve" unicode="&#x14f;" horiz-adv-x="550" 
d="M68 250c0 94 14.333 161.667 43 203s83.334 62 164.001 62s135.334 -20.667 164.001 -62s43 -109 43 -203s-14.333 -161.667 -43 -203s-83.334 -62 -164.001 -62s-135.334 20.667 -164.001 62s-43 109 -43 203zM177 81h117c29.333 0 49.833 3.66699 61.5 11
s17.5 23 17.5 47v280h-117c-29.333 0 -49.833 -3.66699 -61.5 -11s-17.5 -23 -17.5 -47v-280zM275 640c11.333 0 22.001 4 32.001 12s17 19.333 21 34l65 -11c-8.66699 -36 -23.334 -63 -44.001 -81s-45.334 -27 -74.001 -27c-63.333 0 -102.666 36 -117.999 108l65 11
c4 -14.667 11 -26 21 -34s20.667 -12 32 -12z" />
    <glyph glyph-name="Ohungarumlaut" unicode="&#x150;" horiz-adv-x="581" 
d="M98 51c-32 44 -48 131.167 -48 261.5s16 217.5 48 261.5s96 66 192 66s160.167 -22.167 192.5 -66.5s48.5 -131.5 48.5 -261.5s-16.167 -217 -48.5 -261s-96.5 -66 -192.5 -66s-160 22 -192 66zM160 486l0.000976562 -400h183c27.333 0 47.166 3.16699 59.499 9.5
s18.5 20.833 18.5 43.5v400h-184c-26.667 0 -46.167 -3.16699 -58.5 -9.5s-18.5 -20.833 -18.5 -43.5zM256.001 833c3.33301 2.66699 6.16699 3.99902 8.5 3.99902s4.83301 -1.66699 7.5 -5l44 -54c4 -5.33301 6 -9.16602 6 -11.499s-1.33301 -4.83301 -4 -7.5l-30 -25
c-6 -4.66699 -13.333 -8 -22 -10l-121 -30l-22 34zM478.002 832.999c3.33301 2.66699 6.16699 3.99902 8.5 3.99902s4.83301 -1.66699 7.5 -5l44 -54c4 -5.33301 6 -9.16602 6 -11.499s-1.33301 -4.83301 -4 -7.5l-30 -25c-6 -4.66699 -13.333 -8 -22 -10l-121 -30l-22 34z
" />
    <glyph glyph-name="ohungarumlaut" unicode="&#x151;" horiz-adv-x="550" 
d="M68 250c0 94 14.333 161.667 43 203s83.334 62 164.001 62s135.334 -20.667 164.001 -62s43 -109 43 -203s-14.333 -161.667 -43 -203s-83.334 -62 -164.001 -62s-135.334 20.667 -164.001 62s-43 109 -43 203zM177 81h117c29.333 0 49.833 3.66699 61.5 11
s17.5 23 17.5 47v280h-117c-29.333 0 -49.833 -3.66699 -61.5 -11s-17.5 -23 -17.5 -47v-280zM218 708c3.33301 2.66699 6.16699 3.99902 8.5 3.99902s4.83301 -1.66699 7.5 -5l44 -54c4 -5.33301 6 -9.16602 6 -11.499s-1.33301 -4.83301 -4 -7.5l-30 -25
c-6 -4.66699 -13.333 -8 -22 -10l-121 -30l-22 34zM440.001 707.999c3.33301 2.66699 6.16699 3.99902 8.5 3.99902s4.83301 -1.66699 7.5 -5l44 -54c4 -5.33301 6 -9.16602 6 -11.499s-1.33301 -4.83301 -4 -7.5l-30 -25c-6 -4.66699 -13.333 -8 -22 -10l-121 -30l-22 34z
" />
    <glyph glyph-name="OE" unicode="&#x152;" horiz-adv-x="807" 
d="M291 625l471 -0.000976562l-15 -90h-225v-184h200v-85h-200v-176h245v-90h-476c-52.667 0 -93.834 3.83301 -123.501 11.5s-53.667 23.667 -72 48s-30.333 55.5 -36 93.5s-8.5 91 -8.5 159s2.83301 121 8.5 159s17.667 69.333 36 94s42.333 40.834 72 48.501
s70.834 11.5 123.501 11.5zM161 481.999l0.000976562 -392h183c27.333 0 47.166 3.16699 59.499 9.5s18.5 20.833 18.5 43.5v392h-184c-26.667 0 -46.167 -3.16699 -58.5 -9.5s-18.5 -20.833 -18.5 -43.5z" />
    <glyph glyph-name="oe" unicode="&#x153;" horiz-adv-x="838" 
d="M761 20c-56 -18.667 -119.167 -28 -189.5 -28s-119.166 13.333 -146.499 40c-30.667 -31.333 -83.5 -47 -158.5 -47s-126.833 20.667 -155.5 62s-43 109 -43 203s14.333 161.667 43 203s80.334 62 155.001 62s127.667 -15.667 159 -47
c29.333 31.333 81.666 47 156.999 47s126.833 -10.833 154.5 -32.5s41.5 -65.834 41.5 -132.501c0 -43.333 -3.83301 -72.166 -11.5 -86.499s-14.334 -25.333 -20.001 -33s-15.5 -14.167 -29.5 -19.5s-26.833 -9.33301 -38.5 -12s-29.167 -5 -52.5 -7
c-32 -2 -79.667 -3 -143 -3v-99c30.667 -7.33301 67.5 -11 110.5 -11s92.833 8 149.5 24zM177 81h117c29.333 0 49.833 3.66699 61.5 11s17.5 23 17.5 47v280h-117c-29.333 0 -49.833 -3.66699 -61.5 -11s-17.5 -23 -17.5 -47v-280zM676 420h-114
c-29.333 0 -49.833 -3.66699 -61.5 -11s-17.5 -23 -17.5 -47v-89h114c29.333 0 49.833 3.66699 61.5 11s17.5 23 17.5 47v89z" />
    <glyph glyph-name="Racute" unicode="&#x154;" horiz-adv-x="530" 
d="M170 221v-221.002h-100v625h229c64 0 109 -17.667 135 -53s39 -84.666 39 -147.999c0 -89.333 -31 -149.666 -93 -180.999l115 -243h-110l-99 221h-116zM170 534.998v-224h126c24 0 41.5 2.5 52.5 7.5s16.5 16.5 16.5 34.5v140c0 18 -5.5 29.5 -16.5 34.5
s-28.5 7.5 -52.5 7.5h-126zM328 832.998c3.33301 2.66699 6.16699 3.99902 8.5 3.99902s4.83301 -1.66699 7.5 -5l44 -54c4 -5.33301 6 -9.16602 6 -11.499s-1.33301 -4.83301 -4 -7.5l-30 -25c-6 -4.66699 -13.333 -8 -22 -10l-140 -35l-22 34z" />
    <glyph glyph-name="racute" unicode="&#x155;" horiz-adv-x="338" 
d="M90 500h46.001l35 -79c56 50 101.667 81.333 137 94l10 -98c-20 -4 -42.333 -12.167 -67 -24.5s-45.334 -25.5 -62.001 -39.5v-353h-99v500zM232.001 708c3.33301 2.66699 6.16699 3.99902 8.5 3.99902s4.83301 -1.66699 7.5 -5l44 -54c4 -5.33301 6 -9.16602 6 -11.499
s-1.33301 -4.83301 -4 -7.5l-30 -25c-6 -4.66699 -13.333 -8 -22 -10l-140 -35l-22 34z" />
    <glyph glyph-name="uni0156" unicode="&#x156;" horiz-adv-x="530" 
d="M170 221v-221.002h-100v625h229c64 0 109 -17.667 135 -53s39 -84.666 39 -147.999c0 -89.333 -31 -149.666 -93 -180.999l115 -243h-110l-99 221h-116zM170 534.998v-224h126c24 0 41.5 2.5 52.5 7.5s16.5 16.5 16.5 34.5v140c0 18 -5.5 29.5 -16.5 34.5
s-28.5 7.5 -52.5 7.5h-126zM211.5 -158.502c-6.33301 8.33301 -9.50195 24.6699 -9.50195 49.0029s4.33301 42.333 13 54s25.334 17.5 50.001 17.5s41.334 -5.83301 50.001 -17.5s13 -31.834 13 -60.501s-6 -56.334 -18 -83.001l-31 -68l-39 12l8 82
c-18 1.33301 -30.167 6.16602 -36.5 14.499z" />
    <glyph glyph-name="uni0157" unicode="&#x157;" horiz-adv-x="338" 
d="M90 500h46.001l35 -79c56 50 101.667 81.333 137 94l10 -98c-20 -4 -42.333 -12.167 -67 -24.5s-45.334 -25.5 -62.001 -39.5v-353h-99v500zM84.501 -158.5c-6.33301 8.33301 -9.50195 24.6699 -9.50195 49.0029s4.33301 42.333 13 54s25.334 17.5 50.001 17.5
s41.334 -5.83301 50.001 -17.5s13 -31.834 13 -60.501s-6 -56.334 -18 -83.001l-31 -68l-39 12l8 82c-18 1.33301 -30.167 6.16602 -36.5 14.499z" />
    <glyph glyph-name="Rcaron" unicode="&#x158;" horiz-adv-x="530" 
d="M170 221v-221.002h-100v625h229c64 0 109 -17.667 135 -53s39 -84.666 39 -147.999c0 -89.333 -31 -149.666 -93 -180.999l115 -243h-110l-99 221h-116zM170 534.998v-224h126c24 0 41.5 2.5 52.5 7.5s16.5 16.5 16.5 34.5v140c0 18 -5.5 29.5 -16.5 34.5
s-28.5 7.5 -52.5 7.5h-126zM274 684.998h-18c-4 0 -7.33301 2 -10 6l-114 116l40 34l93 -64l93 64l40 -34l-114 -116c-2.66699 -4 -6 -6 -10 -6z" />
    <glyph glyph-name="rcaron" unicode="&#x159;" horiz-adv-x="338" 
d="M90 500h46.001l35 -79c56 50 101.667 81.333 137 94l10 -98c-20 -4 -42.333 -12.167 -67 -24.5s-45.334 -25.5 -62.001 -39.5v-353h-99v500zM198.001 560h-18c-4 0 -7.33301 2 -10 6l-114 116l40 34l93 -64l93 64l40 -34l-114 -116c-2.66699 -4 -6 -6 -10 -6z" />
    <glyph glyph-name="Sacute" unicode="&#x15a;" horiz-adv-x="502" 
d="M63 106c61.333 -15.333 117.336 -23.001 168.003 -23.001s91 2 121 6v163l-90 7c-84.667 6.66699 -140.5 22.667 -167.5 48s-40.5 72.166 -40.5 140.499s13.333 117.5 40 147.5s73.167 45 139.5 45s131.166 -6.33301 194.499 -19l-15 -91c-62 10 -112.5 15 -151.5 15
s-71.5 -1.66699 -97.5 -5v-168l102 -7c82 -5.33301 136 -24.333 162 -57c13.333 -17.333 22.333 -36.5 27 -57.5s7 -48.167 7 -81.5s-3.66699 -61.5 -11 -84.5s-16.333 -40.667 -27 -53s-26.334 -21.666 -47.001 -27.999s-39.334 -10.166 -56.001 -11.499
s-50.167 -2 -100.5 -2s-108.833 6.66699 -175.5 20zM314.003 832.999c3.33301 2.66699 6.16699 3.99902 8.5 3.99902s4.83301 -1.66699 7.5 -5l44 -54c4 -5.33301 6 -9.16602 6 -11.499s-1.33301 -4.83301 -4 -7.5l-30 -25c-6 -4.66699 -13.333 -8 -22 -10l-140 -35l-22 34z
" />
    <glyph glyph-name="sacute" unicode="&#x15b;" horiz-adv-x="456" 
d="M53 361c0 102.667 55.999 153.999 167.999 153.999c55.333 0 108.333 -8 159 -24l-18 -93c-48 14.667 -96.667 22 -146 22c-14 0 -35 -1.33301 -63 -4v-102c100.667 -14.667 168.834 -35.167 204.501 -61.5s53.5 -65.166 53.5 -116.499c0 -50.667 -11.667 -88 -35 -112
c-24.667 -26 -70.5 -39 -137.5 -39s-129.833 8.33301 -188.5 25l19 96c52.667 -17.333 110 -26 172 -26c22.667 0 46 1.33301 70 4v92c-104 14.667 -173 34.667 -207 60s-51 67 -51 125zM281.999 707.999c3.33301 2.66699 6.16699 3.99902 8.5 3.99902
s4.83301 -1.66699 7.5 -5l44 -54c4 -5.33301 6 -9.16602 6 -11.499s-1.33301 -4.83301 -4 -7.5l-30 -25c-6 -4.66699 -13.333 -8 -22 -10l-140 -35l-22 34z" />
    <glyph glyph-name="Scircumflex" unicode="&#x15c;" horiz-adv-x="502" 
d="M63 106c61.333 -15.333 117.336 -23.001 168.003 -23.001s91 2 121 6v163l-90 7c-84.667 6.66699 -140.5 22.667 -167.5 48s-40.5 72.166 -40.5 140.499s13.333 117.5 40 147.5s73.167 45 139.5 45s131.166 -6.33301 194.499 -19l-15 -91c-62 10 -112.5 15 -151.5 15
s-71.5 -1.66699 -97.5 -5v-168l102 -7c82 -5.33301 136 -24.333 162 -57c13.333 -17.333 22.333 -36.5 27 -57.5s7 -48.167 7 -81.5s-3.66699 -61.5 -11 -84.5s-16.333 -40.667 -27 -53s-26.334 -21.666 -47.001 -27.999s-39.334 -10.166 -56.001 -11.499
s-50.167 -2 -100.5 -2s-108.833 6.66699 -175.5 20zM242.003 836.999h18c4 0 7.33301 -2 10 -6l114 -116l-40 -34l-93 64l-93 -64l-40 34l114 116c2.66699 4 6 6 10 6z" />
    <glyph glyph-name="scircumflex" unicode="&#x15d;" horiz-adv-x="456" 
d="M53 361c0 102.667 55.999 153.999 167.999 153.999c55.333 0 108.333 -8 159 -24l-18 -93c-48 14.667 -96.667 22 -146 22c-14 0 -35 -1.33301 -63 -4v-102c100.667 -14.667 168.834 -35.167 204.501 -61.5s53.5 -65.166 53.5 -116.499c0 -50.667 -11.667 -88 -35 -112
c-24.667 -26 -70.5 -39 -137.5 -39s-129.833 8.33301 -188.5 25l19 96c52.667 -17.333 110 -26 172 -26c22.667 0 46 1.33301 70 4v92c-104 14.667 -173 34.667 -207 60s-51 67 -51 125zM222.999 711.999h18.002c3.33301 0 6.66602 -2 9.99902 -6l114 -116l-40 -34l-93 64
l-93 -64l-40 34l114 116c3.33301 4 6.66602 6 9.99902 6z" />
    <glyph glyph-name="Scedilla" unicode="&#x15e;" horiz-adv-x="502" 
d="M234 -66l0.00292969 56.002c-65.333 1.33301 -128.333 8 -189 20l18 96c61.333 -15.333 117.333 -23 168 -23s91 2 121 6v163l-90 7c-84.667 6.66699 -140.5 22.667 -167.5 48s-40.5 72.166 -40.5 140.499s13.333 117.5 40 147.5s73.167 45 139.5 45
s131.166 -6.33301 194.499 -19l-15 -91c-62 10 -112.5 15 -151.5 15s-71.5 -1.66699 -97.5 -5v-168l102 -7c82 -5.33301 136 -24.333 162 -57c13.333 -17.333 22.333 -36.5 27 -57.5s7 -49 7 -84s-4 -64.667 -12 -89s-20.333 -42.5 -37 -54.5s-34.334 -20.167 -53.001 -24.5
s-42.334 -6.83301 -71.001 -7.5c16 -20.667 24 -43.834 24 -69.501s-8.16699 -46.5 -24.5 -62.5s-38 -24 -65 -24s-52.5 5.33301 -76.5 16l9 51h35c15.333 0 26.333 2 33 6s10 12.667 10 26z" />
    <glyph glyph-name="scedilla" unicode="&#x15f;" horiz-adv-x="456" 
d="M205 -66l0.000976562 51.998c-52.667 2 -104.334 10 -155.001 24l19 96c52.667 -17.333 110 -26 172 -26c22.667 0 46 1.33301 70 4v92c-104 14.667 -173 34.667 -207 60s-51 67 -51 125c0 102.667 56 154 168 154c55.333 0 108.333 -8 159 -24l-18 -93
c-48 14.667 -96.667 22 -146 22c-14 0 -35 -1.33301 -63 -4v-102c100.667 -14.667 168.834 -35.167 204.501 -61.5s53.5 -66.166 53.5 -119.499s-12.833 -90.666 -38.5 -111.999s-61.834 -33 -108.501 -35c13.333 -19.333 20 -41.333 20 -66s-8.16699 -45 -24.5 -61
s-38 -24 -65 -24s-52.5 5.33301 -76.5 16l9 51h35c15.333 0 26.333 2 33 6s10 12.667 10 26z" />
    <glyph glyph-name="Scaron" unicode="&#x160;" horiz-adv-x="502" 
d="M63 106c61.333 -15.333 117.336 -23.001 168.003 -23.001s91 2 121 6v163l-90 7c-84.667 6.66699 -140.5 22.667 -167.5 48s-40.5 72.166 -40.5 140.499s13.333 117.5 40 147.5s73.167 45 139.5 45s131.166 -6.33301 194.499 -19l-15 -91c-62 10 -112.5 15 -151.5 15
s-71.5 -1.66699 -97.5 -5v-168l102 -7c82 -5.33301 136 -24.333 162 -57c13.333 -17.333 22.333 -36.5 27 -57.5s7 -48.167 7 -81.5s-3.66699 -61.5 -11 -84.5s-16.333 -40.667 -27 -53s-26.334 -21.666 -47.001 -27.999s-39.334 -10.166 -56.001 -11.499
s-50.167 -2 -100.5 -2s-108.833 6.66699 -175.5 20zM262.003 683.999h-18c-4 0 -7.33301 2 -10 6l-114 116l40 34l93 -64l93 64l40 -34l-114 -116c-2.66699 -4 -6 -6 -10 -6z" />
    <glyph glyph-name="scaron" unicode="&#x161;" horiz-adv-x="456" 
d="M53 361c0 102.667 55.999 153.999 167.999 153.999c55.333 0 108.333 -8 159 -24l-18 -93c-48 14.667 -96.667 22 -146 22c-14 0 -35 -1.33301 -63 -4v-102c100.667 -14.667 168.834 -35.167 204.501 -61.5s53.5 -65.166 53.5 -116.499c0 -50.667 -11.667 -88 -35 -112
c-24.667 -26 -70.5 -39 -137.5 -39s-129.833 8.33301 -188.5 25l19 96c52.667 -17.333 110 -26 172 -26c22.667 0 46 1.33301 70 4v92c-104 14.667 -173 34.667 -207 60s-51 67 -51 125zM248.999 559.999h-18.001c-4 0 -7.33301 2 -10 6l-114 116l40 34l93 -64l93 64l40 -34
l-114 -116c-3.33301 -4 -6.66602 -6 -9.99902 -6z" />
    <glyph glyph-name="uni0162" unicode="&#x162;" horiz-adv-x="492" 
d="M208 -66v66.001h-53v535h-145v90h390v-90h-145v-535c21.333 -22.667 32 -47.834 32 -75.501s-8.16699 -49.5 -24.5 -65.5s-38 -24 -65 -24s-52.5 5.33301 -76.5 16l9 51h35c15.333 0 26.333 2 33 6s10 12.667 10 26z" />
    <glyph glyph-name="uni0163" unicode="&#x163;" horiz-adv-x="339" 
d="M214 -66v57.001c-34.667 3.33301 -59 11.666 -73 24.999s-21 36 -21 68v337h-70v79h70v107l100 25v-132h89v-79h-89v-348c16 -2 34.667 -3.66699 56 -5l-6 -78c15.333 -20.667 23 -43.667 23 -69s-8.16699 -46 -24.5 -62s-38 -24 -65 -24s-52.5 5.33301 -76.5 16l9 51h35
c15.333 0 26.333 2 33 6s10 12.667 10 26z" />
    <glyph glyph-name="Tcaron" unicode="&#x164;" horiz-adv-x="410" 
d="M400 535h-145v-535h-100v535h-145v90h390v-90zM214 685h-18.001c-4 0 -7.33301 2 -10 6l-114 116l40 34l93 -64l93 64l40 -34l-114 -116c-3.33301 -4 -6.66602 -6 -9.99902 -6z" />
    <glyph glyph-name="tcaron" unicode="&#x165;" horiz-adv-x="354" 
d="M220 500h70v-79h-70v-348c16 -2 34.667 -3.66699 56 -5l-6 -79c-58 0 -97.5 6.16699 -118.5 18.5s-31.5 37.833 -31.5 76.5v337h-70v79h70v107l100 25v-132zM284.5 544.5c-6.33301 8.33301 -9.50195 24.6699 -9.50195 49.0029s4.33301 42.333 13 54
s25.334 17.5 50.001 17.5s41.334 -5.83301 50.001 -17.5s13 -31.834 13 -60.501s-6 -56.334 -18 -83.001l-31 -68l-39 12l8 82c-18 1.33301 -30.167 6.16602 -36.5 14.499z" />
    <glyph glyph-name="Tbar" unicode="&#x166;" horiz-adv-x="410" 
d="M30 241v37c0 11.333 2.66699 18.5 8 21.5s15.333 4.5 30 4.5h87v231h-145v90h390v-90h-145v-231h126v-38c0 -11.333 -2.66699 -18.333 -8 -21s-15.333 -4 -30 -4h-88v-241h-100v241h-125z" />
    <glyph glyph-name="tbar" unicode="&#x167;" horiz-adv-x="354" 
d="M50 230l-0.000976562 37c0 11.333 2.66699 18.5 8 21.5s15.333 4.5 30 4.5h32v128h-70v79h70v107l100 25v-132h89v-79h-89v-128h73v-38c0 -11.333 -2.66699 -18.333 -8 -21s-15.666 -4 -30.999 -4h-34v-157c16 -2 34.667 -3.66699 56 -5l-6 -79
c-58 0 -97.5 6.16699 -118.5 18.5s-31.5 37.833 -31.5 76.5v146h-70z" />
    <glyph glyph-name="Utilde" unicode="&#x168;" horiz-adv-x="567" 
d="M502 625l-0.000976562 -400c0 -82.667 -7.33301 -136.334 -22 -161.001c-17.333 -30.667 -38.666 -50.667 -63.999 -60c-35.333 -12.667 -73.666 -19 -114.999 -19s-73 1.83301 -95 5.5s-40.833 8.33398 -56.5 14.001s-28.667 14.167 -39 25.5s-18.5 22.5 -24.5 33.5
s-10.667 25.833 -14 44.5c-4.66699 32 -7 71 -7 117v400h100v-539h123c43.333 0 73.166 3.16699 89.499 9.5s24.5 20.833 24.5 43.5v486h100zM337.999 696.5c-11.333 -5 -23.668 -7.5 -37.001 -7.5s-30.666 10.333 -51.999 31l-15 12l-66 -33l-31 51l30 21
c28 19.333 47.667 31.5 59 36.5s23.666 7.5 36.999 7.5s31.333 -10.333 54 -31l15 -12l66 33l31 -51l-30 -21c-29.333 -19.333 -49.666 -31.5 -60.999 -36.5z" />
    <glyph glyph-name="utilde" unicode="&#x169;" 
d="M465 0h-47l-26 50c-53.333 -40 -115.333 -60 -186 -60c-38.667 0 -68.5 8 -89.5 24s-31.5 44.667 -31.5 86v400h100v-419h68c36.667 0 64.5 5 83.5 15s28.5 31 28.5 63v341h100v-500zM332 571.5c-11.333 -5 -23.668 -7.5 -37.001 -7.5s-30.666 10.333 -51.999 31l-15 12
l-66 -33l-31 51l30 21c28 19.333 47.667 31.5 59 36.5s23.666 7.5 36.999 7.5s31.333 -10.333 54 -31l15 -12l66 33l31 -51l-30 -21c-29.333 -19.333 -49.666 -31.5 -60.999 -36.5z" />
    <glyph glyph-name="Umacron" unicode="&#x16a;" horiz-adv-x="567" 
d="M502 625l-0.000976562 -400c0 -82.667 -7.33301 -136.334 -22 -161.001c-17.333 -30.667 -38.666 -50.667 -63.999 -60c-35.333 -12.667 -73.666 -19 -114.999 -19s-73 1.83301 -95 5.5s-40.833 8.33398 -56.5 14.001s-28.667 14.167 -39 25.5s-18.5 22.5 -24.5 33.5
s-10.667 25.833 -14 44.5c-4.66699 32 -7 71 -7 117v400h100v-539h123c43.333 0 73.166 3.16699 89.499 9.5s24.5 20.833 24.5 43.5v486h100zM404.999 711h-198.001c-19.333 0 -31.666 3.16699 -36.999 9.5s-8 18.5 -8 36.5v35h199c19.333 0 31.5 -3 36.5 -9
s7.5 -18 7.5 -36v-36z" />
    <glyph glyph-name="umacron" unicode="&#x16b;" 
d="M465 0h-47l-26 50c-53.333 -40 -115.333 -60 -186 -60c-38.667 0 -68.5 8 -89.5 24s-31.5 44.667 -31.5 86v400h100v-419h68c36.667 0 64.5 5 83.5 15s28.5 31 28.5 63v341h100v-500zM399 586h-198.001c-19.333 0 -31.666 3.16699 -36.999 9.5s-8 18.5 -8 36.5v35h199
c19.333 0 31.5 -3 36.5 -9s7.5 -18 7.5 -36v-36z" />
    <glyph glyph-name="Ubreve" unicode="&#x16c;" horiz-adv-x="567" 
d="M502 625l-0.000976562 -400c0 -82.667 -7.33301 -136.334 -22 -161.001c-17.333 -30.667 -38.666 -50.667 -63.999 -60c-35.333 -12.667 -73.666 -19 -114.999 -19s-73 1.83301 -95 5.5s-40.833 8.33398 -56.5 14.001s-28.667 14.167 -39 25.5s-18.5 22.5 -24.5 33.5
s-10.667 25.833 -14 44.5c-4.66699 32 -7 71 -7 117v400h100v-539h123c43.333 0 73.166 3.16699 89.499 9.5s24.5 20.833 24.5 43.5v486h100zM282.999 765c11.333 0 22.001 4 32.001 12s17 19.333 21 34l65 -11c-8.66699 -36 -23.334 -63 -44.001 -81
s-45.334 -27 -74.001 -27c-63.333 0 -102.666 36 -117.999 108l65 11c4 -14.667 11 -26 21 -34s20.667 -12 32 -12z" />
    <glyph glyph-name="ubreve" unicode="&#x16d;" 
d="M465 0h-47l-26 50c-53.333 -40 -115.333 -60 -186 -60c-38.667 0 -68.5 8 -89.5 24s-31.5 44.667 -31.5 86v400h100v-419h68c36.667 0 64.5 5 83.5 15s28.5 31 28.5 63v341h100v-500zM277 640c11.333 0 22.001 4 32.001 12s17 19.333 21 34l65 -11
c-8.66699 -36 -23.334 -63 -44.001 -81s-45.334 -27 -74.001 -27c-63.333 0 -102.666 36 -117.999 108l65 11c4 -14.667 11 -26 21 -34s20.667 -12 32 -12z" />
    <glyph glyph-name="Uring" unicode="&#x16e;" horiz-adv-x="567" 
d="M502 625l-0.000976562 -400c0 -82.667 -7.33301 -136.334 -22 -161.001c-17.333 -30.667 -38.666 -50.667 -63.999 -60c-35.333 -12.667 -73.666 -19 -114.999 -19s-73 1.83301 -95 5.5s-40.833 8.33398 -56.5 14.001s-28.667 14.167 -39 25.5s-18.5 22.5 -24.5 33.5
s-10.667 25.833 -14 44.5c-4.66699 32 -7 71 -7 117v400h100v-539h123c43.333 0 73.166 3.16699 89.499 9.5s24.5 20.833 24.5 43.5v486h100zM184.999 763c0 33.333 7.83301 58 23.5 74s40.834 24 75.501 24s59.667 -8 75 -24s23 -40.667 23 -74
s-7.66699 -58.166 -23 -74.499s-40.333 -24.5 -75 -24.5s-59.834 8.16699 -75.501 24.5s-23.5 41.166 -23.5 74.499zM240.999 784v-68h42c10 0 17.667 0.333008 23 1c12.667 2 19 10.333 19 25v67h-39c-20 0 -32.5 -2.33301 -37.5 -7s-7.5 -10.667 -7.5 -18z" />
    <glyph glyph-name="uring" unicode="&#x16f;" 
d="M465 0h-47l-26 50c-53.333 -40 -115.333 -60 -186 -60c-38.667 0 -68.5 8 -89.5 24s-31.5 44.667 -31.5 86v400h100v-419h68c36.667 0 64.5 5 83.5 15s28.5 31 28.5 63v341h100v-500zM179 638c0 33.333 7.83301 58 23.5 74s40.834 24 75.501 24s59.667 -8 75 -24
s23 -40.667 23 -74s-7.66699 -58.166 -23 -74.499s-40.333 -24.5 -75 -24.5s-59.834 8.16699 -75.501 24.5s-23.5 41.166 -23.5 74.499zM235 659v-68h42c10 0 17.667 0.333008 23 1c12.667 2 19 10.333 19 25v67h-39c-20 0 -32.5 -2.33301 -37.5 -7s-7.5 -10.667 -7.5 -18z
" />
    <glyph glyph-name="Uhungarumlaut" unicode="&#x170;" horiz-adv-x="567" 
d="M502 625l-0.000976562 -400c0 -82.667 -7.33301 -136.334 -22 -161.001c-17.333 -30.667 -38.666 -50.667 -63.999 -60c-35.333 -12.667 -73.666 -19 -114.999 -19s-73 1.83301 -95 5.5s-40.833 8.33398 -56.5 14.001s-28.667 14.167 -39 25.5s-18.5 22.5 -24.5 33.5
s-10.667 25.833 -14 44.5c-4.66699 32 -7 71 -7 117v400h100v-539h123c43.333 0 73.166 3.16699 89.499 9.5s24.5 20.833 24.5 43.5v486h100zM248.999 835c3.33301 2.66699 6.16699 3.99902 8.5 3.99902s4.83301 -1.66699 7.5 -5l44 -54c4 -5.33301 6 -9.16602 6 -11.499
s-1.33301 -4.83301 -4 -7.5l-30 -25c-6 -4.66699 -13.333 -8 -22 -10l-121 -30l-22 34zM471 834.999c3.33301 2.66699 6.16699 3.99902 8.5 3.99902s4.83301 -1.66699 7.5 -5l44 -54c4 -5.33301 6 -9.16602 6 -11.499s-1.33301 -4.83301 -4 -7.5l-30 -25
c-6 -4.66699 -13.333 -8 -22 -10l-121 -30l-22 34z" />
    <glyph glyph-name="uhungarumlaut" unicode="&#x171;" 
d="M465 0h-47l-26 50c-53.333 -40 -115.333 -60 -186 -60c-38.667 0 -68.5 8 -89.5 24s-31.5 44.667 -31.5 86v400h100v-419h68c36.667 0 64.5 5 83.5 15s28.5 31 28.5 63v341h100v-500zM220 708c3.33301 2.66699 6.16699 3.99902 8.5 3.99902s4.83301 -1.66699 7.5 -5
l44 -54c4 -5.33301 6 -9.16602 6 -11.499s-1.33301 -4.83301 -4 -7.5l-30 -25c-6 -4.66699 -13.333 -8 -22 -10l-121 -30l-22 34zM442.001 707.999c3.33301 2.66699 6.16699 3.99902 8.5 3.99902s4.83301 -1.66699 7.5 -5l44 -54c4 -5.33301 6 -9.16602 6 -11.499
s-1.33301 -4.83301 -4 -7.5l-30 -25c-6 -4.66699 -13.333 -8 -22 -10l-121 -30l-22 34z" />
    <glyph glyph-name="Uogonek" unicode="&#x172;" horiz-adv-x="567" 
d="M502 625l0.00292969 -400c0 -34.667 -0.833008 -62.167 -2.5 -82.5s-5.83398 -41.333 -12.501 -63s-16.667 -38.167 -30 -49.5c-30 -25.333 -76.667 -40 -140 -44c-7.33301 -4.66699 -11 -15 -11 -31v-21c0 -22.667 9.66699 -34 29 -34
c2.66699 0 7.33398 0.666992 14.001 2l19 5l19 -51c-22.667 -14 -47.334 -21 -74.001 -21s-47.667 8 -63 24s-23 37.333 -23 64s8.66699 47.667 26 63c-64.667 2.66699 -112.334 17 -143.001 43c-24 20 -38 57.667 -42 113c-2 20 -3 47.667 -3 83v400h100v-539h123
c43.333 0 73.166 3.16699 89.499 9.5s24.5 20.833 24.5 43.5v486h100z" />
    <glyph glyph-name="uogonek" unicode="&#x173;" 
d="M411 -45v-21c0 -22.667 9.66699 -34 29 -34c2.66699 0 7.33398 0.666992 14.001 2l19 5l19 -51c-22.667 -14 -47.334 -21 -74.001 -21s-47.667 8 -63 24s-23 35.833 -23 59.5s5.83301 43 17.5 58s32.5 26.5 62.5 34.5l-20 39c-53.333 -40 -115.333 -60 -186 -60
c-38.667 0 -68.5 8 -89.5 24s-31.5 44.667 -31.5 86v400h100v-419h68c36.667 0 64.5 5 83.5 15s28.5 31 28.5 63v341h100v-500l-20 -5c-14 -4 -23.167 -8.33301 -27.5 -13s-6.5 -13.667 -6.5 -27z" />
    <glyph glyph-name="Wcircumflex" unicode="&#x174;" horiz-adv-x="761" 
d="M331 600h99l106 -508h9l90 533h106l-122 -625h-152l-83 389h-7l-83 -389h-152l-122 625h106l90 -533h9zM371 837h18.002c3.33301 0 6.66602 -2 9.99902 -6l114 -116l-40 -34l-93 64l-93 -64l-40 34l114 116c3.33301 4 6.66602 6 9.99902 6z" />
    <glyph glyph-name="wcircumflex" unicode="&#x175;" horiz-adv-x="704" 
d="M123 0l-103 500h102l81 -415h11l96 385h84l89 -385h11l88 415h102l-112 -500h-150l-69 295h-8l-73 -295h-149zM343 712h18.002c3.33301 0 6.66602 -2 9.99902 -6l114 -116l-40 -34l-93 64l-93 -64l-40 34l114 116c3.33301 4 6.66602 6 9.99902 6z" />
    <glyph glyph-name="Ycircumflex" unicode="&#x176;" horiz-adv-x="470" 
d="M285 0h-100v200l-175 425h106l115 -310h7l116 310h106l-175 -425v-200zM226 837h18.001c3.33301 0 6.66602 -2 9.99902 -6l114 -116l-40 -34l-93 64l-93 -64l-40 34l114 116c2.66699 4 6 6 10 6z" />
    <glyph glyph-name="ycircumflex" unicode="&#x177;" horiz-adv-x="477" 
d="M219 30l-59.998 -0.000976562l-143 470h102l115 -385h10l115 385h102l-155 -515c-16.667 -55.333 -40.667 -94.166 -72 -116.499s-73 -33.5 -125 -33.5h-84v60l94 18c31.333 6 54.666 14.667 69.999 26s25.666 27 30.999 47v44zM230.002 711.999h18c4 0 7.33301 -2 10 -6
l114 -116l-40 -34l-93 64l-93 -64l-40 34l114 116c2.66699 4 6 6 10 6z" />
    <glyph glyph-name="Ydieresis" unicode="&#x178;" horiz-adv-x="470" 
d="M285 0h-100v200l-175 425h106l115 -310h7l116 310h106l-175 -425v-200zM92 756c0 22 3.33301 37.167 10 45.5s20.5 12.5 41.5 12.5s34.833 -4.16699 41.5 -12.5s10 -23.5 10 -45.5s-3.33301 -37 -10 -45s-20.5 -12 -41.5 -12s-34.833 4 -41.5 12s-10 23 -10 45zM275 756
c0 22 3.33301 37.167 10 45.5s20.5 12.5 41.5 12.5s34.833 -4.16699 41.5 -12.5s10 -23.5 10 -45.5s-3.33301 -37 -10 -45s-20.5 -12 -41.5 -12s-34.833 4 -41.5 12s-10 23 -10 45z" />
    <glyph glyph-name="Zacute" unicode="&#x179;" horiz-adv-x="499" 
d="M469 0h-439v85l299 434l-3 6h-256l-12 100h407v-85l-296 -434l3 -6h297v-100zM340 833c3.33301 2.66699 6.16699 3.99902 8.5 3.99902s4.83301 -1.66699 7.5 -5l44 -54c4 -5.33301 6 -9.16602 6 -11.499s-1.33301 -4.83301 -4 -7.5l-30 -25
c-6 -4.66699 -13.333 -8 -22 -10l-140 -35l-22 34z" />
    <glyph glyph-name="zacute" unicode="&#x17a;" horiz-adv-x="480" 
d="M424 500v-67l-227 -335l3 -6h230v-92h-370v76l230 326l-3 6h-206l-11 92h354zM320 708c3.33301 2.66699 6.16699 3.99902 8.5 3.99902s4.83301 -1.66699 7.5 -5l44 -54c4 -5.33301 6 -9.16602 6 -11.499s-1.33301 -4.83301 -4 -7.5l-30 -25
c-6 -4.66699 -13.333 -8 -22 -10l-140 -35l-22 34z" />
    <glyph glyph-name="Zdotaccent" unicode="&#x17b;" horiz-adv-x="499" 
d="M469 0h-439v85l299 434l-3 6h-256l-12 100h407v-85l-296 -434l3 -6h297v-100zM212 762c0 25.333 4.5 43.001 13.5 53.001s27 15 54 15s44.833 -5 53.5 -15s13 -27.833 13 -53.5s-4.33301 -43 -13 -52s-26.5 -13.5 -53.5 -13.5s-45 4.66699 -54 14
s-13.5 26.666 -13.5 51.999z" />
    <glyph glyph-name="zdotaccent" unicode="&#x17c;" horiz-adv-x="480" 
d="M424 500v-67l-227 -335l3 -6h230v-92h-370v76l230 326l-3 6h-206l-11 92h354zM207 637c0 25.333 4.5 43.001 13.5 53.001s27 15 54 15s44.833 -5 53.5 -15s13 -27.833 13 -53.5s-4.33301 -43 -13 -52s-26.5 -13.5 -53.5 -13.5s-45 4.66699 -54 14
s-13.5 26.666 -13.5 51.999z" />
    <glyph glyph-name="Zcaron" unicode="&#x17d;" horiz-adv-x="499" 
d="M469 0h-439v85l299 434l-3 6h-256l-12 100h407v-85l-296 -434l3 -6h297v-100zM278 684h-18c-4 0 -7.33301 2 -10 6l-114 116l40 34l93 -64l93 64l40 -34l-114 -116c-2.66699 -4 -6 -6 -10 -6z" />
    <glyph glyph-name="zcaron" unicode="&#x17e;" horiz-adv-x="480" 
d="M424 500v-67l-227 -335l3 -6h230v-92h-370v76l230 326l-3 6h-206l-11 92h354zM264 560h-18c-4 0 -7.33301 2 -10 6l-114 116l40 34l93 -64l93 64l40 -34l-114 -116c-2.66699 -4 -6 -6 -10 -6z" />
    <glyph glyph-name="florin" unicode="&#x192;" horiz-adv-x="419" 
d="M123 -165h-102.002v60l56 17c16.667 5.33301 29.334 12.666 38.001 21.999s13.334 25 14.001 47l13 306h-77v57h79l5 99c3.33301 66.667 15.5 116.334 36.5 149.001s51.5 49 91.5 49s80.667 -6.33301 122 -19l-20 -75h-51c-24.667 0 -43.5 -7.33301 -56.5 -22
s-20.5 -47 -22.5 -97l-4 -84h113l-6 -57h-109l-12 -287c-4 -110 -40 -165 -108 -165z" />
    <glyph glyph-name="Aringacute" unicode="&#x1fa;" horiz-adv-x="639" 
d="M425 0l-34 137h-234l-33 -137h-106l162 625h189l162 -625h-106zM254 533l-75 -306h190l-74 306h-41zM182 762c0 33.333 7.83398 58 23.501 74s40.834 24 75.501 24c18 0 34.333 -2.66699 49 -8l68 58c3.33301 2.66699 6.16602 4 8.49902 4s4.83301 -1.66699 7.5 -5
l29 -36c4 -5.33301 6 -9.16602 6 -11.499s-1.33301 -4.83301 -4 -7.5l-30 -25c-6 -4.66699 -13.333 -8 -22 -10l-24 -4c6.66699 -13.333 10 -33.833 10 -61.5s-7.66699 -49.667 -23 -66s-40.333 -24.5 -75 -24.5s-59.834 8.16699 -75.501 24.5s-23.5 41.166 -23.5 74.499z
M238.001 783v-68h42c10 0 17.333 0.333008 22 1c13.333 2 20 10.333 20 25v67h-39c-20 0 -32.5 -2.33301 -37.5 -7s-7.5 -10.667 -7.5 -18z" />
    <glyph glyph-name="aringacute" unicode="&#x1fb;" horiz-adv-x="580" 
d="M156 81h114c29.333 0 49.833 3.66699 61.5 11s17.5 23 17.5 47v89h-114c-29.333 0 -49.833 -3.66699 -61.5 -11s-17.5 -23 -17.5 -47v-89zM201 -10c-97.333 0 -146 51.667 -146 155c0 60 19.5 102.833 58.5 128.5s96.167 38.5 171.5 38.5h64v100
c-20.667 2.66699 -45.667 4 -75 4c-68 0 -122 -7 -162 -21l-12 84c62 20.667 121.5 31 178.5 31s99.5 -9.5 127.5 -28.5s42 -56.5 42 -112.5v-369h-46l-27 50c-44.667 -40 -102.667 -60 -174 -60zM179 638c0 33.333 7.83398 58 23.501 74s40.834 24 75.501 24
c18 0 34.333 -2.66699 49 -8l68 58c3.33301 2.66699 6.16602 4 8.49902 4s4.83301 -1.66699 7.5 -5l29 -36c4 -5.33301 6 -9.16602 6 -11.499s-1.33301 -4.83301 -4 -7.5l-30 -25c-6 -4.66699 -13.333 -8 -22 -10l-24 -4c6.66699 -13.333 10 -33.833 10 -61.5
s-7.66699 -49.667 -23 -66s-40.333 -24.5 -75 -24.5s-59.834 8.16699 -75.501 24.5s-23.5 41.166 -23.5 74.499zM235.001 659v-68h42c10 0 17.667 0.333008 23 1c12.667 2 19 10.333 19 25v67h-39c-20 0 -32.5 -2.33301 -37.5 -7s-7.5 -10.667 -7.5 -18z" />
    <glyph glyph-name="AEacute" unicode="&#x1fc;" horiz-adv-x="736" 
d="M619 351v-85h-157l45 -176h204v-90h-286l-34 137h-234l-33 -137h-106l162 625h481l-15 -90h-254l48 -184h179zM254 533l-75 -306h190l-74 306h-41zM447 833c3.33301 2.66699 6.16699 3.99902 8.5 3.99902s4.83301 -1.66699 7.5 -5l44 -54
c4 -5.33301 6 -9.16602 6 -11.499s-1.33301 -4.83301 -4 -7.5l-30 -25c-6 -4.66699 -13.333 -8 -22 -10l-140 -35l-22 34z" />
    <glyph glyph-name="aeacute" unicode="&#x1fd;" horiz-adv-x="803" 
d="M726 20c-56 -18.667 -111.833 -28 -167.5 -28s-96.5 4.16699 -122.5 12.5s-46.333 23.5 -61 45.5c-44.667 -40 -102.667 -60 -174 -60c-97.333 0 -146 51.667 -146 155c0 60 19.5 102.833 58.5 128.5s96.167 38.5 171.5 38.5h64v100c-20.667 2.66699 -45.667 4 -75 4
c-68 0 -122 -7 -162 -21l-12 84c62 20.667 122 31 180 31s100 -14.333 126 -43c30 32 79.833 48 149.5 48s118.334 -10.833 146.001 -32.5s41.5 -65.834 41.5 -132.501c0 -43.333 -3.83301 -72.166 -11.5 -86.499s-14.334 -25.333 -20.001 -33s-15.5 -14.167 -29.5 -19.5
s-26.833 -9.33301 -38.5 -12s-28.834 -5 -51.501 -7c-32.667 -2 -80.667 -3 -144 -3v-99c30.667 -7.33301 67.334 -11 110.001 -11s92.667 8 150 24zM641 420h-114c-28 0 -48.167 -3.5 -60.5 -10.5s-18.5 -20.5 -18.5 -40.5v-96h114c29.333 0 49.833 3.66699 61.5 11
s17.5 23 17.5 47v89zM156 81h114c29.333 0 49.833 3.66699 61.5 11s17.5 23 17.5 47v89h-114c-29.333 0 -49.833 -3.66699 -61.5 -11s-17.5 -23 -17.5 -47v-89zM474 708c3.33301 2.66699 6.16699 3.99902 8.5 3.99902s4.83301 -1.66699 7.5 -5l44 -54
c4 -5.33301 6 -9.16602 6 -11.499s-1.33301 -4.83301 -4 -7.5l-30 -25c-6 -4.66699 -13.333 -8 -22 -10l-140 -35l-22 34z" />
    <glyph glyph-name="Oslashacute" unicode="&#x1fe;" horiz-adv-x="581" 
d="M531 312c0 -130 -16.166 -216.999 -48.499 -260.999s-96.5 -66 -192.5 -66c-56 0 -100.333 6.66699 -133 20l-10 -20c-3.33301 -6.66699 -6.33301 -11.334 -9 -14.001c-7.33301 -7.33301 -18.666 -11 -33.999 -11h-41l40 84c-35.333 42.667 -53 130.667 -53 264
s16 222 48 266s96 66 192 66c37.333 0 69.666 -3 96.999 -9l5 9c3.33301 6.66699 6.33301 11.334 9 14.001c7.33301 7.33301 18.666 11 33.999 11h41l-28 -59c30.667 -20.667 52.167 -53.834 64.5 -99.501s18.5 -110.5 18.5 -194.5zM421.001 539.001h-5.99902l-219 -453h147
c27.333 0 47.166 3.16699 59.499 9.5s18.5 20.833 18.5 43.5v400zM160.002 486.001v-326l183 379h-106c-26.667 0 -46.167 -3.16699 -58.5 -9.5s-18.5 -20.833 -18.5 -43.5zM353.002 833.001c3.33301 2.66699 6.16699 3.99902 8.5 3.99902s4.83301 -1.66699 7.5 -5l44 -54
c4 -5.33301 6 -9.16602 6 -11.499s-1.33301 -4.83301 -4 -7.5l-30 -25c-6 -4.66699 -13.333 -8 -22 -10l-140 -35l-22 34z" />
    <glyph glyph-name="oslashacute" unicode="&#x1ff;" horiz-adv-x="550" 
d="M482 250c0 -94 -14.333 -161.667 -43 -203s-83.334 -62 -164.001 -62c-32.667 0 -61.667 3.66699 -87 11l-35 -73c-3.33301 -6.66699 -6.33301 -11.334 -9 -14.001c-7.33301 -7.33301 -18.666 -11 -33.999 -11h-41l62 128c-42 36 -63 110.667 -63 224
c0 94 14.333 161.667 43 203s83.334 62 164.001 62c32.667 0 61.667 -3.66699 87 -11l36 74c3.33301 6.66699 6.33301 11.334 9 14.001c7.33301 7.33301 18.666 11 33.999 11h41l-63 -130c42 -36 63 -110.333 63 -223zM177 361v-240l144 298h-65
c-29.333 0 -49.833 -3.66699 -61.5 -11s-17.5 -23 -17.5 -47zM294 81c29.333 0 49.833 3.66699 61.5 11s17.5 23 17.5 47v238l-144 -296h65zM340 708c3.33301 2.66699 6.16699 3.99902 8.5 3.99902s4.83301 -1.66699 7.5 -5l44 -54c4 -5.33301 6 -9.16602 6 -11.499
s-1.33301 -4.83301 -4 -7.5l-30 -25c-6 -4.66699 -13.333 -8 -22 -10l-140 -35l-22 34z" />
    <glyph glyph-name="uni0218" unicode="&#x218;" horiz-adv-x="502" 
d="M63 106c61.333 -15.333 117.336 -23.001 168.003 -23.001s91 2 121 6v163l-90 7c-84.667 6.66699 -140.5 22.667 -167.5 48s-40.5 72.166 -40.5 140.499s13.333 117.5 40 147.5s73.167 45 139.5 45s131.166 -6.33301 194.499 -19l-15 -91c-62 10 -112.5 15 -151.5 15
s-71.5 -1.66699 -97.5 -5v-168l102 -7c82 -5.33301 136 -24.333 162 -57c13.333 -17.333 22.333 -36.5 27 -57.5s7 -48.167 7 -81.5s-3.66699 -61.5 -11 -84.5s-16.333 -40.667 -27 -53s-26.334 -21.666 -47.001 -27.999s-39.334 -10.166 -56.001 -11.499
s-50.167 -2 -100.5 -2s-108.833 6.66699 -175.5 20zM204.503 -158.501c-6.33301 8.33301 -9.50195 24.6699 -9.50195 49.0029s4.33301 42.333 13 54s25.334 17.5 50.001 17.5s41.334 -5.83301 50.001 -17.5s13 -31.834 13 -60.501s-6 -56.334 -18 -83.001l-31 -68l-39 12
l8 82c-18 1.33301 -30.167 6.16602 -36.5 14.499z" />
    <glyph glyph-name="uni0219" unicode="&#x219;" horiz-adv-x="456" 
d="M53 361c0 102.667 55.999 153.999 167.999 153.999c55.333 0 108.333 -8 159 -24l-18 -93c-48 14.667 -96.667 22 -146 22c-14 0 -35 -1.33301 -63 -4v-102c100.667 -14.667 168.834 -35.167 204.501 -61.5s53.5 -65.166 53.5 -116.499c0 -50.667 -11.667 -88 -35 -112
c-24.667 -26 -70.5 -39 -137.5 -39s-129.833 8.33301 -188.5 25l19 96c52.667 -17.333 110 -26 172 -26c22.667 0 46 1.33301 70 4v92c-104 14.667 -173 34.667 -207 60s-51 67 -51 125zM169.499 -158.501c-6.33301 8.33301 -9.50195 24.6699 -9.50195 49.0029
s4.33301 42.333 13 54s25.334 17.5 50.001 17.5s41.334 -5.83301 50.001 -17.5s13 -31.834 13 -60.501s-6 -56.334 -18 -83.001l-31 -68l-39 12l8 82c-18 1.33301 -30.167 6.16602 -36.5 14.499z" />
    <glyph glyph-name="uni021A" unicode="&#x21a;" horiz-adv-x="410" 
d="M400 535h-145v-535h-100v535h-145v90h390v-90zM151.5 -158.5c-6.33301 8.33301 -9.50195 24.6699 -9.50195 49.0029s4.33301 42.333 13 54s25.334 17.5 50.001 17.5s41.334 -5.83301 50.001 -17.5s13 -31.834 13 -60.501s-6 -56.334 -18 -83.001l-31 -68l-39 12l8 82
c-18 1.33301 -30.167 6.16602 -36.5 14.499z" />
    <glyph glyph-name="uni021B" unicode="&#x21b;" horiz-adv-x="354" 
d="M220 500h89v-79h-89v-348c16 -2 34.667 -3.66699 56 -5l-6 -79c-58 0 -97.5 6.16699 -118.5 18.5s-31.5 37.833 -31.5 76.5v337h-70v79h70v107l100 25v-132zM123.5 -158.5c-6.33301 8.33301 -9.50195 24.6699 -9.50195 49.0029s4.33301 42.333 13 54
s25.334 17.5 50.001 17.5s41.334 -5.83301 50.001 -17.5s13 -31.834 13 -60.501s-6 -56.334 -18 -83.001l-31 -68l-39 12l8 82c-18 1.33301 -30.167 6.16602 -36.5 14.499z" />
    <glyph glyph-name="circumflex" unicode="&#x2c6;" horiz-adv-x="385" 
d="M183 712h18.001c3.33301 0 6.66602 -2 9.99902 -6l114 -116l-40 -34l-93 64l-93 -64l-40 34l114 116c2.66699 4 6 6 10 6z" />
    <glyph glyph-name="caron" unicode="&#x2c7;" horiz-adv-x="385" 
d="M201 560h-18.002c-3.33301 0 -6.66602 2 -9.99902 6l-114 116l40 34l93 -64l93 64l40 -34l-114 -116c-3.33301 -4 -6.66602 -6 -9.99902 -6z" />
    <glyph glyph-name="uni02C9" unicode="&#x2c9;" horiz-adv-x="399" 
d="M321 586h-198.001c-19.333 0 -31.666 3.16699 -36.999 9.5s-8 18.5 -8 36.5v35h199c19.333 0 31.5 -3 36.5 -9s7.5 -18 7.5 -36v-36z" />
    <glyph glyph-name="breve" unicode="&#x2d8;" horiz-adv-x="385" 
d="M192 640c11.333 0 22.001 4 32.001 12s17 19.333 21 34l65 -11c-8.66699 -36 -23.334 -63 -44.001 -81s-45.334 -27 -74.001 -27c-63.333 0 -102.666 36 -117.999 108l65 11c4 -14.667 11 -26 21 -34s20.667 -12 32 -12z" />
    <glyph glyph-name="dotaccent" unicode="&#x2d9;" horiz-adv-x="265" 
d="M65 637c0 25.333 4.5 43.001 13.5 53.001s27 15 54 15s44.833 -5 53.5 -15s13 -27.833 13 -53.5s-4.33301 -43 -13 -52s-26.5 -13.5 -53.5 -13.5s-45 4.66699 -54 14s-13.5 26.666 -13.5 51.999z" />
    <glyph glyph-name="ring" unicode="&#x2da;" horiz-adv-x="265" 
d="M34 638c0 33.333 7.83301 58 23.5 74s40.834 24 75.501 24s59.667 -8 75 -24s23 -40.667 23 -74s-7.66699 -58.166 -23 -74.499s-40.333 -24.5 -75 -24.5s-59.834 8.16699 -75.501 24.5s-23.5 41.166 -23.5 74.499zM90 659v-68h42c10 0 17.333 0.333008 22 1
c13.333 2 20 10.333 20 25v67h-39c-20 0 -32.5 -2.33301 -37.5 -7s-7.5 -10.667 -7.5 -18z" />
    <glyph glyph-name="ogonek" unicode="&#x2db;" horiz-adv-x="276" 
d="M129 -45l-0.000976562 -21c0 -22.667 9.66699 -34 29 -34c2.66699 0 7.33398 0.666992 14.001 2l19 5l19 -51c-22.667 -14 -47.334 -21 -74.001 -21s-47.667 8 -63 24s-23 36.667 -23 62s7.83301 46 23.5 62s43.834 27.333 84.501 34l25 4v-21l-20 -5
c-14 -4 -23.167 -8.33301 -27.5 -13s-6.5 -13.667 -6.5 -27z" />
    <glyph glyph-name="tilde" unicode="&#x2dc;" horiz-adv-x="458" 
d="M284 571.5c-11.333 -5 -23.668 -7.5 -37.001 -7.5s-30.666 10.333 -51.999 31l-15 12l-66 -33l-31 51l30 21c28 19.333 47.667 31.5 59 36.5s23.666 7.5 36.999 7.5s31.333 -10.333 54 -31l15 -12l66 33l31 -51l-30 -21c-29.333 -19.333 -49.666 -31.5 -60.999 -36.5z
" />
    <glyph glyph-name="hungarumlaut" unicode="&#x2dd;" horiz-adv-x="599" 
d="M243 708c3.33301 2.66699 6.16699 3.99902 8.5 3.99902s4.83301 -1.66699 7.5 -5l44 -54c4 -5.33301 6 -9.16602 6 -11.499s-1.33301 -4.83301 -4 -7.5l-30 -25c-6 -4.66699 -13.333 -8 -22 -10l-121 -30l-22 34zM465.001 707.999
c3.33301 2.66699 6.16699 3.99902 8.5 3.99902s4.83301 -1.66699 7.5 -5l44 -54c4 -5.33301 6 -9.16602 6 -11.499s-1.33301 -4.83301 -4 -7.5l-30 -25c-6 -4.66699 -13.333 -8 -22 -10l-121 -30l-22 34z" />
    <glyph glyph-name="uni0394" unicode="&#x394;" horiz-adv-x="663" 
d="M270 625h123l220 -573l-19 -52h-525l-19 52zM453 80c19.333 0 29 7.66699 29 23c0 6 -0.666992 10.667 -2 14l-152 398h-12l-170 -435h307z" />
    <glyph glyph-name="uni03A9" unicode="&#x3a9;" horiz-adv-x="663" 
d="M45 0l0.000976562 72.999l130 8l6 58c-49.333 20.667 -82 49.334 -98 86.001s-24 80.667 -24 132s4 91.833 12 121.5s21.5 57.334 40.5 83.001s47.167 45.167 84.5 58.5s83 20 137 20s99.667 -6.66699 137 -20s65.666 -32.833 84.999 -58.5s32.833 -53.334 40.5 -83.001
s11.5 -70.167 11.5 -121.5s-8.33301 -95.666 -25 -132.999s-50 -66.333 -100 -87l6 -56l130 -8v-73h-193l-15 210c25.333 0 44 3.33301 56 10s18 21.334 18 44.001v266h-231c-26 0 -44.833 -3.83301 -56.5 -11.5s-17.5 -24.834 -17.5 -51.501v-194
c0 -26.667 5.83301 -43.834 17.5 -51.501s30.5 -11.5 56.5 -11.5l-15 -210h-193z" />
    <glyph glyph-name="uni03BC" unicode="&#x3bc;" horiz-adv-x="560" 
d="M255 0l-82.001 0.000976562l-32 -165h-51v665h100v-419h83c30 0 53.667 5.16699 71 15.5s26 31.166 26 62.499v341l100 15v-515h-47l-26 50c-31.333 -33.333 -78.666 -50 -141.999 -50z" />
    <glyph glyph-name="pi" unicode="&#x3c0;" horiz-adv-x="617" 
d="M497 400v-327c22.667 -2.66699 38 -4.33398 46 -5.00098l-6 -79c-56.667 0 -94.167 6 -112.5 18s-27.5 37.667 -27.5 77v316h-107c-16.667 0 -29.167 -2.83301 -37.5 -8.5s-13.833 -15.5 -16.5 -29.5l-56 -362h-82l25 416l-43 12v72h392
c2.66699 11.333 4.66699 23.333 6 36l87 -7c0 -49.333 -4.66699 -83.166 -14 -101.499s-27.333 -27.5 -54 -27.5z" />
    <glyph glyph-name="Wgrave" unicode="&#x1e80;" horiz-adv-x="761" 
d="M331 600h99l106 -508h9l90 533h106l-122 -625h-152l-83 389h-7l-83 -389h-152l-122 625h106l90 -533h9zM275 749c-2.66699 2.66699 -3.99902 5.16797 -3.99902 7.50098s2 6.16602 6 11.499l44 54c2.66699 3.33301 5.16699 5 7.5 5s5.16602 -1.33301 8.49902 -4l152 -110
l-22 -34l-140 35c-8.66699 2 -16 5.33301 -22 10z" />
    <glyph glyph-name="wgrave" unicode="&#x1e81;" horiz-adv-x="704" 
d="M123 0l-103 500h102l81 -415h11l96 385h84l89 -385h11l88 415h102l-112 -500h-150l-69 295h-8l-73 -295h-149zM237 624c-2.66699 2.66699 -3.99902 5.16797 -3.99902 7.50098s2 6.16602 6 11.499l44 54c2.66699 3.33301 5.16699 5 7.5 5s5.16602 -1.33301 8.49902 -4
l152 -110l-22 -34l-140 35c-8.66699 2 -16 5.33301 -22 10z" />
    <glyph glyph-name="Wacute" unicode="&#x1e82;" horiz-adv-x="761" 
d="M331 600h99l106 -508h9l90 533h106l-122 -625h-152l-83 389h-7l-83 -389h-152l-122 625h106l90 -533h9zM443 833c3.33301 2.66699 6.16699 3.99902 8.5 3.99902s4.83301 -1.66699 7.5 -5l44 -54c4 -5.33301 6 -9.16602 6 -11.499s-1.33301 -4.83301 -4 -7.5l-30 -25
c-6 -4.66699 -13.333 -8 -22 -10l-140 -35l-22 34z" />
    <glyph glyph-name="wacute" unicode="&#x1e83;" horiz-adv-x="704" 
d="M123 0l-103 500h102l81 -415h11l96 385h84l89 -385h11l88 415h102l-112 -500h-150l-69 295h-8l-73 -295h-149zM425 708c3.33301 2.66699 6.16699 3.99902 8.5 3.99902s4.83301 -1.66699 7.5 -5l44 -54c4 -5.33301 6 -9.16602 6 -11.499s-1.33301 -4.83301 -4 -7.5
l-30 -25c-6 -4.66699 -13.333 -8 -22 -10l-140 -35l-22 34z" />
    <glyph glyph-name="Wdieresis" unicode="&#x1e84;" horiz-adv-x="761" 
d="M331 600h99l106 -508h9l90 533h106l-122 -625h-152l-83 389h-7l-83 -389h-152l-122 625h106l90 -533h9zM237 757c0 22 3.33301 37.167 10 45.5s20.5 12.5 41.5 12.5s34.833 -4.16699 41.5 -12.5s10 -23.5 10 -45.5s-3.33301 -37 -10 -45s-20.5 -12 -41.5 -12
s-34.833 4 -41.5 12s-10 23 -10 45zM420 757c0 22 3.33301 37.167 10 45.5s20.5 12.5 41.5 12.5s34.833 -4.16699 41.5 -12.5s10 -23.5 10 -45.5s-3.33301 -37 -10 -45s-20.5 -12 -41.5 -12s-34.833 4 -41.5 12s-10 23 -10 45z" />
    <glyph glyph-name="wdieresis" unicode="&#x1e85;" horiz-adv-x="704" 
d="M123 0l-103 500h102l81 -415h11l96 385h84l89 -385h11l88 415h102l-112 -500h-150l-69 295h-8l-73 -295h-149zM209 632c0 22 3.33301 37.167 10 45.5s20.5 12.5 41.5 12.5s34.833 -4.16699 41.5 -12.5s10 -23.5 10 -45.5s-3.33301 -37 -10 -45s-20.5 -12 -41.5 -12
s-34.833 4 -41.5 12s-10 23 -10 45zM392 632c0 22 3.33301 37.167 10 45.5s20.5 12.5 41.5 12.5s34.833 -4.16699 41.5 -12.5s10 -23.5 10 -45.5s-3.33301 -37 -10 -45s-20.5 -12 -41.5 -12s-34.833 4 -41.5 12s-10 23 -10 45z" />
    <glyph glyph-name="Ygrave" unicode="&#x1ef2;" horiz-adv-x="470" 
d="M285 0h-100v200l-175 425h106l115 -310h7l116 310h106l-175 -425v-200zM130 749c-2.66699 2.66699 -3.99902 5.16797 -3.99902 7.50098s2 6.16602 6 11.499l44 54c2.66699 3.33301 5.16699 5 7.5 5s5.16602 -1.33301 8.49902 -4l152 -110l-22 -34l-140 35
c-8.66699 2 -16 5.33301 -22 10z" />
    <glyph glyph-name="ygrave" unicode="&#x1ef3;" horiz-adv-x="477" 
d="M219 30l-59.998 -0.000976562l-143 470h102l115 -385h10l115 385h102l-155 -515c-16.667 -55.333 -40.667 -94.166 -72 -116.499s-73 -33.5 -125 -33.5h-84v60l94 18c31.333 6 54.666 14.667 69.999 26s25.666 27 30.999 47v44zM133.002 623.999
c-2.66699 2.66699 -3.99902 5.16797 -3.99902 7.50098s2 6.16602 6 11.499l44 54c2.66699 3.33301 5.16699 5 7.5 5s5.16602 -1.33301 8.49902 -4l152 -110l-22 -34l-140 35c-8.66699 2 -16 5.33301 -22 10z" />
    <glyph glyph-name="endash" unicode="&#x2013;" horiz-adv-x="535" 
d="M33 233v50c0 14.667 3.66699 24 11 28s20.666 6 39.999 6h418v-50c0 -14.667 -3.66699 -24 -11 -28s-20.666 -6 -39.999 -6h-418z" />
    <glyph glyph-name="emdash" unicode="&#x2014;" horiz-adv-x="794" 
d="M33 233v50c0 14.667 3.66699 24 11 28s20.666 6 39.999 6h677v-50c0 -14.667 -3.66699 -24 -11 -28s-20.666 -6 -39.999 -6h-677z" />
    <glyph glyph-name="quoteleft" unicode="&#x2018;" horiz-adv-x="251" 
d="M182.5 478.5c5.66699 -11.667 8.5 -31.334 8.5 -59.001s-4.5 -47.5 -13.5 -59.5s-26.333 -18 -52 -18s-43 6 -52 18s-13.5 33.833 -13.5 65.5s8.66699 65.834 26 102.501l47 101l43 -14l-26 -114c16 -3.33301 26.833 -10.833 32.5 -22.5z" />
    <glyph glyph-name="quoteright" unicode="&#x2019;" horiz-adv-x="251" 
d="M68.5 492.5c-5.66699 11.667 -8.5 31.334 -8.5 59.001s4.5 47.5 13.5 59.5s26.333 18 52 18s43 -6 52 -18s13.5 -33.833 13.5 -65.5s-8.66699 -65.834 -26 -102.501l-47 -101l-43 14l26 114c-16 3.33301 -26.833 10.833 -32.5 22.5z" />
    <glyph glyph-name="quotesinglbase" unicode="&#x201a;" horiz-adv-x="221" 
d="M53.5 18.5c-5.66699 11.667 -8.5 31.334 -8.5 59.001s4.5 47.5 13.5 59.5s26.333 18 52 18s43 -6 52 -18s13.5 -33.833 13.5 -65.5s-8.66699 -65.834 -26 -102.501l-47 -101l-43 14l26 114c-16 3.33301 -26.833 10.833 -32.5 22.5z" />
    <glyph glyph-name="quotedblleft" unicode="&#x201c;" horiz-adv-x="443" 
d="M182.5 478.5c5.66699 -11.667 8.5 -31.334 8.5 -59.001s-4.5 -47.5 -13.5 -59.5s-26.333 -18 -52 -18s-43 6 -52 18s-13.5 33.833 -13.5 65.5s8.66699 65.834 26 102.501l47 101l43 -14l-26 -114c16 -3.33301 26.833 -10.833 32.5 -22.5zM374.5 478.5
c5.66699 -11.667 8.5 -31.334 8.5 -59.001s-4.5 -47.5 -13.5 -59.5s-26.333 -18 -52 -18s-43 6 -52 18s-13.5 33.833 -13.5 65.5s8.66699 65.834 26 102.501l47 101l43 -14l-26 -114c16 -3.33301 26.833 -10.833 32.5 -22.5z" />
    <glyph glyph-name="quotedblright" unicode="&#x201d;" horiz-adv-x="443" 
d="M260.5 492.5c-5.66699 11.667 -8.5 31.334 -8.5 59.001s4.5 47.5 13.5 59.5s26.333 18 52 18s43 -6 52 -18s13.5 -33.833 13.5 -65.5s-8.66699 -65.834 -26 -102.501l-47 -101l-43 14l26 114c-16 3.33301 -26.833 10.833 -32.5 22.5zM68.5 492.5
c-5.66699 11.667 -8.5 31.334 -8.5 59.001s4.5 47.5 13.5 59.5s26.333 18 52 18s43 -6 52 -18s13.5 -33.833 13.5 -65.5s-8.66699 -65.834 -26 -102.501l-47 -101l-43 14l26 114c-16 3.33301 -26.833 10.833 -32.5 22.5z" />
    <glyph glyph-name="quotedblbase" unicode="&#x201e;" horiz-adv-x="413" 
d="M245.5 18.5c-5.66699 11.667 -8.5 31.334 -8.5 59.001s4.5 47.5 13.5 59.5s26.333 18 52 18s43 -6 52 -18s13.5 -33.833 13.5 -65.5s-8.66699 -65.834 -26 -102.501l-47 -101l-43 14l26 114c-16 3.33301 -26.833 10.833 -32.5 22.5zM53.5 18.5
c-5.66699 11.667 -8.5 31.334 -8.5 59.001s4.5 47.5 13.5 59.5s26.333 18 52 18s43 -6 52 -18s13.5 -33.833 13.5 -65.5s-8.66699 -65.834 -26 -102.501l-47 -101l-43 14l26 114c-16 3.33301 -26.833 10.833 -32.5 22.5z" />
    <glyph glyph-name="dagger" unicode="&#x2020;" horiz-adv-x="480" 
d="M430 400l-162 20l32 -470h-120l31 470l-161 -20v120l155 -20l-25 165h120l-25 -168l155 23v-120z" />
    <glyph glyph-name="daggerdbl" unicode="&#x2021;" horiz-adv-x="540" 
d="M460 400l-159 20l-4 -113l4 -113l159 21v-120l-146 21l16 -166h-120l15 166l-145 -21v120l159 -20l4 112l-4 113l-159 -20v120l145 -21l-15 166h120l-16 -166l146 21v-120z" />
    <glyph glyph-name="bullet" unicode="&#x2022;" horiz-adv-x="282" 
d="M80.5 257c-10.333 10.667 -15.5 29.832 -15.5 57.499s5.16699 47 15.5 58s30.5 16.5 60.5 16.5s50.167 -5.66699 60.5 -17s15.5 -30.666 15.5 -57.999s-5.16699 -46.333 -15.5 -57s-30.5 -16 -60.5 -16s-50.167 5.33301 -60.5 16z" />
    <glyph glyph-name="ellipsis" unicode="&#x2026;" horiz-adv-x="663" 
d="M45 74c0 30 4.5 51 13.5 63s26.333 18 52 18s43 -6 52 -18s13.5 -33 13.5 -63s-4.33301 -50.833 -13 -62.5s-26 -17.5 -52 -17.5s-43.5 5.83301 -52.5 17.5s-13.5 32.5 -13.5 62.5zM266 74c0 30 4.5 51 13.5 63s26.333 18 52 18s43 -6 52 -18s13.5 -33 13.5 -63
s-4.33301 -50.833 -13 -62.5s-26 -17.5 -52 -17.5s-43.5 5.83301 -52.5 17.5s-13.5 32.5 -13.5 62.5zM487 74c0 30 4.5 51 13.5 63s26.333 18 52 18s43 -6 52 -18s13.5 -33 13.5 -63s-4.33301 -50.833 -13 -62.5s-26 -17.5 -52 -17.5s-43.5 5.83301 -52.5 17.5
s-13.5 32.5 -13.5 62.5z" />
    <glyph glyph-name="perthousand" unicode="&#x2030;" horiz-adv-x="1199" 
d="M587 193c0 71.333 11 122.833 33 154.5s63.667 47.5 125 47.5s104.333 -16.333 129 -49c23.333 32.667 66 49 128 49s104 -15.833 126 -47.5s33 -83.167 33 -154.5s-11 -122.833 -33 -154.5s-64.167 -47.5 -126.5 -47.5s-104.833 16.333 -127.5 49
c-24 -32.667 -66.833 -49 -128.5 -49s-103.5 15.833 -125.5 47.5s-33 83.167 -33 154.5zM36 420c0 71.333 11 122.833 33 154.5s64.167 47.5 126.5 47.5s104.5 -15.833 126.5 -47.5s33 -83.167 33 -154.5s-11 -122.833 -33 -154.5s-64.167 -47.5 -126.5 -47.5
s-104.5 15.833 -126.5 47.5s-33 83.167 -33 154.5zM347 -40h-51l269 680c3.33301 6.66699 6.33301 11.334 9 14.001c7.33301 7.33301 18.666 11 33.999 11h51l-269 -680c-3.33301 -6.66699 -6.33301 -11.334 -9 -14.001c-7.33301 -7.33301 -18.666 -11 -33.999 -11zM940 284
v-224h64c21.333 0 36.333 2.5 45 7.5s13 16.167 13 33.5v224h-66c-22 0 -36.833 -2.33301 -44.5 -7s-11.5 -16 -11.5 -34zM685 284v-224h64c21.333 0 36.333 2.5 45 7.5s13 16.167 13 33.5v224h-66c-22 0 -36.833 -2.33301 -44.5 -7s-11.5 -16 -11.5 -34zM134 511v-224h64
c21.333 0 36.333 2.5 45 7.5s13 16.167 13 33.5v224h-66c-22 0 -36.833 -2.33301 -44.5 -7s-11.5 -16 -11.5 -34z" />
    <glyph glyph-name="guilsinglleft" unicode="&#x2039;" horiz-adv-x="236" 
d="M25 290l151 154l35 -27l-96 -167l96 -167l-35 -27l-151 153v81z" />
    <glyph glyph-name="guilsinglright" unicode="&#x203a;" horiz-adv-x="236" 
d="M60 444l151 -154v-81l-151 -153l-35 27l96 167l-96 167z" />
    <glyph glyph-name="fraction" unicode="&#x2044;" horiz-adv-x="503" 
d="M121 -40h-51l269 680c3.33301 6.66699 6.33301 11.334 9 14.001c7.33301 7.33301 18.666 11 33.999 11h51l-269 -680c-3.33301 -6.66699 -6.33301 -11.334 -9 -14.001c-7.33301 -7.33301 -18.666 -11 -33.999 -11z" />
    <glyph glyph-name="zeroinferior" unicode="&#x2080;" horiz-adv-x="373" 
d="M27 86c0 71.333 11 122.833 33 154.5s64.167 47.5 126.5 47.5s104.5 -15.833 126.5 -47.5s33 -83.167 33 -154.5s-11 -122.833 -33 -154.5s-64.167 -47.5 -126.5 -47.5s-104.5 15.833 -126.5 47.5s-33 83.167 -33 154.5zM125 177v-224h64c21.333 0 36.333 2.5 45 7.5
s13 16.167 13 33.5v224h-66c-22 0 -36.833 -2.33301 -44.5 -7s-11.5 -16 -11.5 -34z" />
    <glyph glyph-name="oneinferior" unicode="&#x2081;" horiz-adv-x="373" 
d="M167 191l-108 -9v64l136 32h66v-316h78v-69h-280v69h108v229z" />
    <glyph glyph-name="twoinferior" unicode="&#x2082;" horiz-adv-x="373" 
d="M50 269c47.333 12.667 94.5 19.001 141.5 19.001s82.5 -7.5 106.5 -22.5s36 -44.833 36 -89.5s-11.833 -76.667 -35.5 -96s-73.834 -42 -150.501 -68v-50h180v-69h-288v69c0 41.333 14 72.666 42 93.999c24.667 18 59.334 36.667 104.001 56l51 22v71
c-18 3.33301 -42.333 5 -73 5s-64 -4 -100 -12z" />
    <glyph glyph-name="threeinferior" unicode="&#x2083;" horiz-adv-x="373" 
d="M49 -104c6 36 10.999 63 14.999 81c34.667 -8.66699 65.834 -13 93.501 -13s53.167 1.33301 76.5 4v73l-104 15v59l104 17v73c-16.667 3.33301 -38.667 5 -66 5s-60 -3.66699 -98 -11l-14 67c45.333 14.667 90.5 22 135.5 22s79 -6 102 -18s34.5 -37 34.5 -75
s-18.333 -68.333 -55 -91v-6c43.333 -23.333 65 -55 65 -95c0 -41.333 -11 -71.333 -33 -90c-18 -15.333 -45 -24.333 -81 -27c-13.333 -1.33301 -36.5 -2 -69.5 -2s-68.167 4 -105.5 12z" />
    <glyph glyph-name="fourinferior" unicode="&#x2084;" horiz-adv-x="373" 
d="M27 22l97 256h188v-245h42v-70h-42v-70h-87v70h-198v59zM225 33v183h-32l-77 -183h109z" />
    <glyph glyph-name="fiveinferior" unicode="&#x2085;" horiz-adv-x="373" 
d="M58 -26c32.667 -8 65.834 -11.999 99.501 -11.999s62.167 1.33301 85.5 4v76l-53 6c-48.667 5.33301 -82.667 12.666 -102 21.999s-29 26.333 -29 51c0 2 2 54.333 6 157h252l-10 -82l-151 9v-79l44 -4c52 -4.66699 88.5 -16.5 109.5 -35.5s31.5 -46.833 31.5 -83.5
c0 -42 -11 -72.667 -33 -92c-16.667 -15.333 -43.334 -24 -80.001 -26c-12 -0.666992 -35.333 -1 -70 -1s-72 4.66699 -112 14z" />
    <glyph glyph-name="sixinferior" unicode="&#x2086;" horiz-adv-x="373" 
d="M241 -19l0.000976562 83h-58c-17.333 0 -29.333 -2 -36 -6s-10 -13.333 -10 -28v-83h59c17.333 0 29.166 2 35.499 6s9.5 13.333 9.5 28zM322.001 275l-14.001 -73.001c-42.667 5.33301 -76 8 -100 8s-47.667 -2.33301 -71 -7v-72h39c51.333 0 91.333 -8.16699 120 -24.5
s43 -48.5 43 -96.5s-13 -81 -39 -99s-65.167 -27 -117.5 -27s-89.166 16.167 -110.499 48.5s-32 83.833 -32 154.5s12.333 121.834 37 153.501s72.667 47.5 144 47.5c35.333 0 69 -4.33301 101 -13z" />
    <glyph glyph-name="seveninferior" unicode="&#x2087;" horiz-adv-x="373" 
d="M54 205l-7 73h277v-69l-122 -316h-100l126 314z" />
    <glyph glyph-name="eightinferior" unicode="&#x2088;" horiz-adv-x="373" 
d="M189 288c40.667 0 74.1689 -8.5 100.502 -25.5s39.5 -45 39.5 -84s-13.667 -68.833 -41 -89.5v-8c15.333 -7.33301 28.166 -19.166 38.499 -35.499s15.5 -33.166 15.5 -50.499c0 -74 -51 -111 -153 -111s-153 37 -153 111c0 17.333 5.16699 34.166 15.5 50.499
s23.166 28.166 38.499 35.499v8c-26.667 19.333 -40 48.833 -40 88.5s13 68 39 85s59.333 25.5 100 25.5zM152.002 60c-10 0 -14.999 -6.33301 -14.999 -19v-94h59c17.333 0 29.166 2 35.499 6s9.5 13.333 9.5 28v38l-74 36c-8.66699 3.33301 -13.667 5 -15 5zM208.003 115
c4 -2 8.66699 -2.99902 14 -2.99902s9.83301 1.83301 13.5 5.5s5.5 8.16699 5.5 13.5v90h-58c-12 0 -21 -0.333008 -27 -1c-12.667 -2.66699 -19 -13.334 -19 -32.001v-35z" />
    <glyph glyph-name="nineinferior" unicode="&#x2089;" horiz-adv-x="373" 
d="M136 191l-0.000976562 -85h60c16.667 0 28.167 2 34.5 6s9.5 13.333 9.5 28v85h-59c-17.333 0 -29.166 -1.83301 -35.499 -5.5s-9.5 -13.167 -9.5 -28.5zM239.999 46l-39.001 0.000976562c-66 0 -109.333 9.16699 -130 27.5s-31 49.666 -31 93.999s13 75.5 39 93.5
s64.833 27 116.5 27s88.334 -16.167 110.001 -48.5s32.5 -83.5 32.5 -153.5s-10.833 -121.167 -32.5 -153.5s-59.5 -48.5 -113.5 -48.5s-100.667 4 -140 12l13 79c34.667 -8.66699 67.5 -13 98.5 -13s56.5 1.66699 76.5 5v79z" />
    <glyph glyph-name="franc" unicode="&#x20a3;" horiz-adv-x="410" 
d="M270 125h-100v-125h-100v125h-60v57h60v443h320l-15 -90h-205v-186h180v-85h-180v-82h100v-57z" />
    <glyph glyph-name="lira" unicode="&#x20a4;" horiz-adv-x="526" 
d="M60 0l-0.000976562 47.999l50 17l14 153h-64v57h69l7 80h-76v57h81l3 31c6 66.667 22.167 116.334 48.5 149.001s63.833 49 112.5 49s95.334 -6.33301 140.001 -19l-20 -75h-104c-26 0 -43.667 -6.5 -53 -19.5s-17.333 -46.167 -24 -99.5l-2 -16h146l-8 -57h-142l-7 -80
h157l-8 -57h-154l-10 -128h235l25 -90h-416z" />
    <glyph glyph-name="Euro" unicode="&#x20ac;" horiz-adv-x="503" 
d="M279 75c56 0 107.335 8.00098 154.002 24.001l9 -88c-34.667 -17.333 -82.334 -26 -143.001 -26c-75.333 0 -128.333 17.667 -159 53s-49.334 94.666 -56.001 177.999h-49l7 57h324l-6 -57h-160l-3 -133c26.667 -5.33301 54 -8 82 -8zM325.002 640.001
c37.333 0 76.668 -6.33301 118.001 -19l-18 -76h-142c-36 0 -58.333 -17 -67 -51c-4.66699 -16 -7.33398 -36.333 -8.00098 -61v-23h172l-7 -57h-324l7 57h42c10.667 82 32.5 140.833 65.5 176.5s86.833 53.5 161.5 53.5z" />
    <glyph glyph-name="uni2113" unicode="&#x2113;" horiz-adv-x="280" 
d="M190 99c0 -24.667 9.66699 -37 29 -37c11.333 0 25 5.33301 41 16l20 -55c-34.667 -22.667 -67 -34 -97 -34s-53 8.16699 -69 24.5s-24 39.833 -24 70.5v541l100 15v-541z" />
    <glyph glyph-name="trademark" unicode="&#x2122;" horiz-adv-x="834" 
d="M305 671h-100v-328h-80v328h-100v61h280v-61zM416 343h-79l26 389h109l61 -233h5l61 233h109l26 -389h-79l-16 264h-4l-64 -234h-71l-64 234h-4z" />
    <glyph glyph-name="Omega" unicode="&#x2126;" horiz-adv-x="663" 
d="M45 0l0.000976562 72.999l130 8l6 58c-49.333 20.667 -82 49.334 -98 86.001s-24 80.667 -24 132s4 91.833 12 121.5s21.5 57.334 40.5 83.001s47.167 45.167 84.5 58.5s83 20 137 20s99.667 -6.66699 137 -20s65.666 -32.833 84.999 -58.5s32.833 -53.334 40.5 -83.001
s11.5 -70.167 11.5 -121.5s-8.33301 -95.666 -25 -132.999s-50 -66.333 -100 -87l6 -56l130 -8v-73h-193l-15 210c25.333 0 44 3.33301 56 10s18 21.334 18 44.001v266h-231c-26 0 -44.833 -3.83301 -56.5 -11.5s-17.5 -24.834 -17.5 -51.501v-194
c0 -26.667 5.83301 -43.834 17.5 -51.501s30.5 -11.5 56.5 -11.5l-15 -210h-193z" />
    <glyph glyph-name="estimated" unicode="&#x212e;" horiz-adv-x="600" 
d="M157 259l0.000976562 -181.003c41.333 -39.333 89.666 -59 144.999 -59c82.667 0 147 40 193 120l35 -21c-36.667 -49.333 -71.167 -84.166 -103.5 -104.499s-73.833 -30.5 -124.5 -30.5c-79.333 0 -142.166 26.333 -188.499 79s-69.5 119.334 -69.5 200.001
s23.167 146.334 69.5 197.001s109.666 76 189.999 76s142.333 -25.5 186 -76.5s67.5 -117.5 71.5 -199.5h-404zM157.001 294.997h290.999v145c-42 40 -91.167 60 -147.5 60s-104.166 -20 -143.499 -60v-145z" />
    <glyph glyph-name="partialdiff" unicode="&#x2202;" horiz-adv-x="491" 
d="M453 319c0 -127.333 -23.001 -217.001 -69.001 -269.001c-38 -43.333 -91.5 -65 -160.5 -65s-117.333 13.167 -145 39.5s-41.5 64.333 -41.5 114s3.83301 90.834 11.5 123.501s20.834 62.667 39.501 90c36.667 55.333 105.667 83 207 83c35.333 0 56.333 -0.333008 63 -1
l10 73l-177 65v53h95c111.333 -48 167 -150 167 -306zM243.999 80.999c14.667 0 26.167 0.666992 34.5 2s16.333 5.33301 24 12s12.167 16 13.5 28l30 218h-110c-22.667 0 -39.667 -2.5 -51 -7.5s-18 -16.5 -20 -34.5l-30 -218h109z" />
    <glyph glyph-name="Delta" unicode="&#x2206;" horiz-adv-x="663" 
d="M270 625h123l220 -573l-19 -52h-525l-19 52zM453 80c19.333 0 29 7.66699 29 23c0 6 -0.666992 10.667 -2 14l-152 398h-12l-170 -435h307z" />
    <glyph glyph-name="product" unicode="&#x220f;" horiz-adv-x="760" 
d="M78 625l515.999 -0.000976562c2.66699 11.333 4.66699 23.333 6 36l87 -7c0 -47.333 -6.16699 -80.666 -18.5 -99.999s-32.166 -29 -59.499 -29v-675h-100v675h-174c-19.333 0 -34 -3.5 -44 -10.5s-15.667 -20.167 -17 -39.5l-49 -625h-87l17 684l-77 19v72z" />
    <glyph glyph-name="summation" unicode="&#x2211;" horiz-adv-x="574" 
d="M231 498c0 -8 2 -15.667 6 -23l126 -234l-191 -277l8 -14h334l-18 -100h-433l-19 52l211 309l-182 362l19 52h426l-14 -75l-229 -25c-29.333 -3.33301 -44 -12.333 -44 -27z" />
    <glyph glyph-name="minus" unicode="&#x2212;" horiz-adv-x="570" 
d="M107 272v80h355v-80h-355z" />
    <glyph glyph-name="uni2215" unicode="&#x2215;" horiz-adv-x="503" 
d="M121 -40h-51l269 680c3.33301 6.66699 6.33301 11.334 9 14.001c7.33301 7.33301 18.666 11 33.999 11h51l-269 -680c-3.33301 -6.66699 -6.33301 -11.334 -9 -14.001c-7.33301 -7.33301 -18.666 -11 -33.999 -11z" />
    <glyph glyph-name="radical" unicode="&#x221a;" horiz-adv-x="504" 
d="M447 602l-152 -602h-113l-162 500h127l105 -360h8l110 510h183l-11 -48h-95z" />
    <glyph glyph-name="infinity" unicode="&#x221e;" horiz-adv-x="865" 
d="M575 25c-57.333 0 -105.001 5.99902 -143.001 17.999c-14.667 4.66699 -22 8.66699 -22 12l22 57l-10 5c-38.667 -61.333 -95.334 -92 -170.001 -92c-72.667 0 -120 20.333 -142 61c-12 20.667 -20 43.334 -24 68.001s-6 56.667 -6 96c0 76 16 132.5 48 169.5
s83.667 55.5 155 55.5c60.667 0 110.334 -6 149.001 -18c14.667 -4.66699 22 -8.66699 22 -12l-23 -57l10 -5c41.333 61.333 100.333 92 177 92c54.667 0 95.334 -12.667 122.001 -38c23.333 -22 37.333 -58.333 42 -109c2 -20.667 3 -46.667 3 -78
c0 -76 -16.5 -132.5 -49.5 -169.5s-86.5 -55.5 -160.5 -55.5zM671.999 172.999v196c-60.667 0 -100.167 -2.5 -118.5 -7.5s-30.833 -16.5 -37.5 -34.5l-66 -196h153c24 0 41.5 2.5 52.5 7.5s16.5 16.5 16.5 34.5zM192.999 326.999v-196c60.667 0 100.167 2.5 118.5 7.5
s30.833 16.5 37.5 34.5l66 196h-153c-24 0 -41.5 -2.5 -52.5 -7.5s-16.5 -16.5 -16.5 -34.5z" />
    <glyph glyph-name="integral" unicode="&#x222b;" horiz-adv-x="333" 
d="M221 441l-25.999 -482c-1.33301 -22 -7 -40.667 -17 -56s-21.333 -26.833 -34 -34.5s-28.667 -13.834 -48 -18.501c-26 -5.33301 -57.667 -8 -95 -8l-6 72c48 5.33301 78.333 18.666 91 39.999c7.33301 12 12 23.333 14 34s3.33301 25.667 4 45l25 482
c1.33301 22 6.83301 40.667 16.5 56s20.5 26.833 32.5 34.5s27.667 13.834 47 18.501c25.333 5.33301 56.666 8 93.999 8l6 -72c-46.667 -5.33301 -75.667 -18.666 -87 -39.999c-10 -18.667 -15.667 -45 -17 -79z" />
    <glyph glyph-name="approxequal" unicode="&#x2248;" horiz-adv-x="570" 
d="M107 253c22.667 -25.333 46.5 -38 71.5 -38s60.167 12.5 105.5 37.5s80.666 37.5 105.999 37.5s49.333 -12.333 72 -37v-80c-22.667 24.667 -46.667 37 -72 37s-60.666 -12.5 -105.999 -37.5s-80.5 -37.5 -105.5 -37.5s-48.833 12.667 -71.5 38v80zM107 451
c22.667 -25.333 46.5 -38 71.5 -38s60.167 12.5 105.5 37.5s80.666 37.5 105.999 37.5s49.333 -12.333 72 -37v-80c-22.667 24.667 -46.667 37 -72 37s-60.666 -12.5 -105.999 -37.5s-80.5 -37.5 -105.5 -37.5s-48.833 12.667 -71.5 38v80z" />
    <glyph glyph-name="notequal" unicode="&#x2260;" horiz-adv-x="570" 
d="M463 451v-80h-99l-57 -118h156v-80h-194l-91 -188c-3.33301 -6.66699 -6.33301 -11.334 -9 -14.001c-7.33301 -7.33301 -18.666 -11 -33.999 -11h-41l103 213h-89v80h127l57 118h-184v80h223l92 189c3.33301 6.66699 6.33301 11.334 9 14.001
c7.33301 7.33301 18.666 11 33.999 11h41l-104 -214h60z" />
    <glyph glyph-name="lessequal" unicode="&#x2264;" horiz-adv-x="600" 
d="M122 22v80h355v-80h-355zM120 331v81l322 168l38 -75l-264 -128v-11l264 -128l-38 -75z" />
    <glyph glyph-name="greaterequal" unicode="&#x2265;" horiz-adv-x="600" 
d="M122 22v80h355v-80h-355zM480 412v-81l-322 -168l-38 75l264 128v11l-264 128l38 75z" />
    <glyph glyph-name="lozenge" unicode="&#x25ca;" horiz-adv-x="660" 
d="M392 -150h-123l-198 387l198 388h123l197 -388zM182 238l141 -279h15l139 277l-139 285h-15z" />
    <glyph glyph-name="commaaccent" unicode="&#xf6c3;" horiz-adv-x="186" 
d="M39.5 -158.5c-6.33301 8.33301 -9.50195 24.6699 -9.50195 49.0029s4.33301 42.333 13 54s25.334 17.5 50.001 17.5s41.334 -5.83301 50.001 -17.5s13 -31.834 13 -60.501s-6 -56.334 -18 -83.001l-31 -68l-39 12l8 82c-18 1.33301 -30.167 6.16602 -36.5 14.499z" />
    <glyph glyph-name="apple" unicode="&#xf8ff;" horiz-adv-x="923" 
d="M589 -89l-22.999 0.996094c-9.33301 0 -19.833 -4 -31.5 -12s-20.5 -12 -26.5 -12l-46 10c-5.33301 0 -13.166 -2 -23.499 -6s-18.333 -6 -24 -6s-13.834 4.16699 -24.501 12.5s-20.334 12.5 -29.001 12.5l-24 -2c-10 0 -21 5.66699 -33 17l-18 19
c-8 4 -16.333 6.33301 -25 7s-16 2.83398 -22 6.50098s-11.333 11.334 -16 23.001s-8.83398 19 -12.501 22s-10.167 6.33301 -19.5 10s-16 8.5 -20 14.5c-3.33301 6 -5.66602 13.833 -6.99902 23.5s-3.33301 16.667 -6 21s-7.33398 8.83301 -14.001 13.5
c-14.667 12 -22 24.667 -22 38l3 25c0 6 -4.16699 14.833 -12.5 26.5s-12.5 20.5 -12.5 26.5s2 13.833 6 23.5s6 17.334 6 23.001s-2 12.834 -6 21.501s-6 16 -6 22s4.16699 15.833 12.5 29.5s12.5 23.5 12.5 29.5l-1 25c0 10 5.5 19.833 16.5 29.5s17.333 16.167 19 19.5
s3.16699 10.333 4.5 21s3.33301 18 6 22s9.16699 8 19.5 12s17.166 7.66699 20.499 11s7.33301 10.166 12 20.499s9.16699 17.333 13.5 21s12.833 6.83398 25.5 9.50098s20.834 5 24.501 7s10.5 8.66699 20.5 20s19.667 17.333 29 18l26 -2
c8.66699 0 18.167 3.83301 28.5 11.5s19.166 11.5 26.499 11.5l44 -12l45 12c8.66699 0 18.334 -4.16699 29.001 -12.5s20 -12.5 28 -12.5l28 3c10.667 0 20.334 -5.5 29.001 -16.5s15.167 -17.667 19.5 -20s11.5 -4.5 21.5 -6.5s17.5 -4.66699 22.5 -8
s9.16699 -9.66602 12.5 -18.999s6.83301 -15.666 10.5 -18.999s12.167 -8.5 25.5 -15.5s21.5 -13.167 24.5 -18.5s4.66699 -13.333 5 -24s1.33301 -17.5 3 -20.5s8.16699 -9.33301 19.5 -19s17 -19.834 17 -30.501l-1 -25c0 -8.66699 4 -19.167 12 -31.5s12 -21.5 12 -27.5
s-1.83301 -13.333 -5.5 -22s-5.5 -15.334 -5.5 -20.001s1.83301 -11.834 5.5 -21.501s5.33398 -17.167 5.00098 -22.5s-4.5 -12.166 -12.5 -20.499s-12 -17.166 -12 -26.499l2 -32c0 -10.667 -5.33301 -20.334 -16 -29.001s-16.834 -14.667 -18.501 -18s-4 -11.333 -7 -24
s-6.33301 -21.167 -10 -25.5s-9.66699 -8.33301 -18 -12s-14.166 -7.16699 -17.499 -10.5s-8 -10.5 -14 -21.5s-11.333 -18.167 -16 -21.5s-12.834 -6.5 -24.501 -9.5s-19.167 -5.5 -22.5 -7.5s-9.5 -7.5 -18.5 -16.5s-18.5 -13.5 -28.5 -13.5zM462.001 -6.00391
l32.9932 -6.99707c4 0 9.66699 2.33301 17 7c10 6.66699 19 10 27 10l15 -1c8 0 15 3.33301 21 10s10.167 10.667 12.5 12s7.83301 3.16602 16.5 5.49902s14.834 4.83301 18.501 7.5s7.66699 7.83398 12 15.501s7.66602 12.667 9.99902 15s6.5 4.83301 12.5 7.5
s10.333 5.5 13 8.5s5 9.16699 7 18.5s3.83301 15.333 5.5 18s6.16699 7 13.5 13s11 13.667 11 23l-1 20c0 7.33301 2.83301 14.166 8.5 20.499s8.83398 11.5 9.50098 15.5l-8 32l8 28c0 5.33301 -3 12.666 -9 21.999s-9 17 -9 23l1 17c0 8 -4 15.333 -12 22
s-12.667 11.334 -14 14.001s-2.16602 7.83398 -2.49902 15.501s-1.5 13.334 -3.5 17.001s-7.83301 8 -17.5 13s-15.834 8.83301 -18.501 11.5s-5.33398 7.33398 -8.00098 14.001s-5.66699 11.334 -9 14.001s-8.66602 4.66699 -15.999 6s-12.666 2.83301 -15.999 4.5
s-8 6.5 -14 14.5s-13 12 -21 12l-20 -2c-6 0 -12.667 3 -20 9s-14.333 9 -21 9l-33 -9l-32 9c-5.33301 0 -12 -2.83301 -20 -8.5s-15.333 -8.5 -22 -8.5l-17 1c-7.33301 0 -14.5 -4.16699 -21.5 -12.5s-12 -13.333 -15 -15s-8.83301 -3.33398 -17.5 -5.00098
s-14.667 -3.83398 -18 -6.50098s-6.66602 -7.66699 -9.99902 -15s-6.33301 -12.333 -9 -15s-7.5 -5.33398 -14.5 -8.00098s-11.833 -5.66699 -14.5 -9c-1.33301 -2.66699 -2.66602 -7.83398 -3.99902 -15.501s-2.66602 -12.834 -3.99902 -15.501s-6 -7.5 -14 -14.5
s-12 -14.167 -12 -21.5l1 -16c0 -5.33301 -2.83301 -13 -8.5 -23s-8.5 -17.667 -8.5 -23l8 -30l-8 -33c0 -5.33301 2.83301 -12.166 8.5 -20.499s8.5 -15.166 8.5 -20.499l-2 -16c0 -7.33301 4.16699 -14.833 12.5 -22.5s13.166 -12.834 14.499 -15.501s2.5 -7.5 3.5 -14.5
s2.83301 -12.667 5.5 -17s7.33398 -7.83301 14.001 -10.5s11.334 -5.16699 14.001 -7.5s5.83398 -7.83301 9.50098 -16.5s7.5 -14.334 11.5 -17.001s9.16699 -4 15.5 -4s11.5 -1 15.5 -3s9.83301 -7.16699 17.5 -15.5s15.167 -12.5 22.5 -12.5l15 1
c6.66699 0 14 -2.83301 22 -8.5s14 -8.83398 18 -9.50098zM461.994 416.999c46.667 0 86.667 -16.5 120 -49.5s50 -73.167 50 -120.5s-16.667 -87.5 -50 -120.5s-73.333 -49.5 -120 -49.5s-86.667 16.5 -120 49.5s-50 73.167 -50 120.5s16.667 87.5 50 120.5
s73.333 49.5 120 49.5zM504.994 291.999h52v68h-191v-68h54v-175h85v175z" />
    <glyph glyph-name="f_f" unicode="&#xfb00;" horiz-adv-x="666" 
d="M553 500h80v-80h-80v-420h-100v420h-233v-420h-100v420h-70v80h70l7 60c5.33301 45.333 18 75.833 38 91.5s45 23.5 75 23.5s61 -3.33301 93 -10l-11 -81l-102 8v-92h233l7 60c5.33301 45.333 18 75.833 38 91.5s45 23.5 75 23.5s61 -3.33301 93 -10l-11 -81l-102 8v-92z
" />
    <glyph glyph-name="f_f_i" unicode="&#xfb03;" horiz-adv-x="946" 
d="M220 420v-420h-100v420h-70v80h70l7 60c5.33301 45.333 18 75.833 38 91.5s45 23.5 75 23.5s61 -3.33301 93 -10l-11 -81l-102 8v-92h233l7 60c5.33301 45.333 18 75.833 38 91.5s45 23.5 75 23.5s61 -3.33301 93 -10l-11 -81l-102 8v-92h249l54 8v-508h-100v420h-203
v-420h-100v420h-233zM757.5 588c-8.33301 8.66699 -12.5 24.167 -12.5 46.5s4.16699 38 12.5 47s24.666 13.5 48.999 13.5s40.666 -4.5 48.999 -13.5s12.5 -24.667 12.5 -47s-4.16699 -37.833 -12.5 -46.5s-24.666 -13 -48.999 -13s-40.666 4.33301 -48.999 13z" />
    <glyph glyph-name="f_f_l" unicode="&#xfb04;" horiz-adv-x="946" 
d="M220 500h80v-80h-80v-420h-100v420h-70v80h70l7 60c5.33301 45.333 18 75.833 38 91.5s45 23.5 75 23.5s61 -3.33301 93 -10l-11 -81l-102 8v-92zM553 500h80v-80h-80v-420h-100v420h-70v80h70l7 60c5.33301 45.333 18 75.833 38 91.5s45 23.5 75 23.5
s61 -3.33301 93 -10l-11 -81l-102 8v-92zM756 84v566.001l100 15v-592c22.667 -2.66699 38 -4.33398 46 -5.00098l-6 -79c-56.667 0 -94.167 6 -112.5 18s-27.5 37.667 -27.5 77z" />
    <glyph glyph-name=".null" horiz-adv-x="0" 
 />
    <glyph glyph-name="nonmarkingreturn" horiz-adv-x="333" 
 />
    <glyph glyph-name="NULL" horiz-adv-x="0" 
 />
    <glyph glyph-name="CR" horiz-adv-x="250" 
 />
    <glyph glyph-name="eslash" horiz-adv-x="309" 
d="M280 361c0 -10.667 -10.333 -19.667 -31 -27l-208 -69l-15 44c-1.33301 5.33301 -2 8.66602 -2 9.99902c0 10.667 10.333 19.667 31 27l208 69l15 -44c1.33301 -5.33301 2 -8.66602 2 -9.99902z" />
    <glyph glyph-name="jdotlessi" horiz-adv-x="280" 
d="M-10 -165v60l52 10c32 6 48 22.667 48 50v55h100v-30c0 -52 -10.333 -89.167 -31 -111.5s-51.667 -33.5 -93 -33.5h-76z" />
    <glyph glyph-name="croatbar" horiz-adv-x="343" 
d="M50 549l-0.000976562 37c0 11.333 2.66699 18.5 8 21.5s15.333 4.5 30 4.5h205v-38c0 -11.333 -2.66699 -18.333 -8 -21s-15.666 -4 -30.999 -4h-204z" />
    <glyph glyph-name="j.alt" horiz-adv-x="280" 
d="M-10 -165v60l52 10c32 6 48 22.667 48 50v538l100 15v-528c0 -52 -10.333 -89.167 -31 -111.5s-51.667 -33.5 -93 -33.5h-76z" />
    <glyph glyph-name="tcorta" horiz-adv-x="354" 
d="M220 500h70v-79h-70v-348c16 -2 34.667 -3.66699 56 -5l-6 -79c-58 0 -97.5 6.16699 -118.5 18.5s-31.5 37.833 -31.5 76.5v337h-70v79h70v107l100 25v-132z" />
    <glyph glyph-name="ringacute" horiz-adv-x="265" 
d="M34 638c0 33.333 7.83398 58 23.501 74s40.834 24 75.501 24c18 0 34.333 -2.66699 49 -8l68 58c3.33301 2.66699 6.16602 4 8.49902 4s4.83301 -1.66699 7.5 -5l29 -36c4 -5.33301 6 -9.16602 6 -11.499s-1.33301 -4.83301 -4 -7.5l-30 -25
c-6 -4.66699 -13.333 -8 -22 -10l-24 -4c6.66699 -13.333 10 -33.833 10 -61.5s-7.66699 -49.667 -23 -66s-40.333 -24.5 -75 -24.5s-59.834 8.16699 -75.501 24.5s-23.5 41.166 -23.5 74.499zM90.001 659v-68h42c10 0 17.333 0.333008 22 1c13.333 2 20 10.333 20 25v67
h-39c-20 0 -32.5 -2.33301 -37.5 -7s-7.5 -10.667 -7.5 -18z" />
    <glyph glyph-name="ringacute.case" horiz-adv-x="265" 
d="M34 762c0 33.333 7.83398 58 23.501 74s40.834 24 75.501 24c18 0 34.333 -2.66699 49 -8l68 58c3.33301 2.66699 6.16602 4 8.49902 4s4.83301 -1.66699 7.5 -5l29 -36c4 -5.33301 6 -9.16602 6 -11.499s-1.33301 -4.83301 -4 -7.5l-30 -25
c-6 -4.66699 -13.333 -8 -22 -10l-24 -4c6.66699 -13.333 10 -33.833 10 -61.5s-7.66699 -49.667 -23 -66s-40.333 -24.5 -75 -24.5s-59.834 8.16699 -75.501 24.5s-23.5 41.166 -23.5 74.499zM90.001 783v-68h42c10 0 17.333 0.333008 22 1c13.333 2 20 10.333 20 25v67
h-39c-20 0 -32.5 -2.33301 -37.5 -7s-7.5 -10.667 -7.5 -18z" />
    </font>
</defs>
</svg>
