<?xml version="1.0" standalone="no"?>
<!DOCTYPE svg PUBLIC "-//W3C//DTD SVG 1.1//EN" "http://www.w3.org/Graphics/SVG/1.1/DTD/svg11.dtd" >
<svg>
<metadata>
Created by FontForge 20090914 at Thu Nov 24 13:09:27 2016
 By www-data
Copyright 2011 Eduardo Tunni (www.tipo.net.ar)
</metadata>
<defs>
<font id="Changa-Bold" horiz-adv-x="0" >
  <font-face 
    font-family="Changa"
    font-weight="700"
    font-stretch="normal"
    units-per-em="1000"
    panose-1="0 0 8 0 0 0 0 0 0 0"
    ascent="800"
    descent="-200"
    x-height="500"
    cap-height="625"
    bbox="-675 -598 1875 1226"
    underline-thickness="50"
    underline-position="-50"
    unicode-range="U+0020-U+FEFC"
  />
<missing-glyph horiz-adv-x="258" 
 />
    <glyph glyph-name="f_f" unicode="ff" horiz-adv-x="704" 
d="M266 564v-64h65v-115h-65v-385h-176v385h-55v115h55c2 44.667 8.5 79.5 19.5 104.5s28.333 43 52 54s55.834 16.5 96.501 16.5c31.333 0 66.666 -3.33301 105.999 -10l-10 -109zM618 564v-64h65v-115h-65v-385h-176v385h-55v115h55c2 44.667 8.5 79.5 19.5 104.5
s28.333 43 52 54s55.834 16.5 96.501 16.5c31.333 0 66.666 -3.33301 105.999 -10l-10 -109z" />
    <glyph glyph-name="fi" unicode="fi" horiz-adv-x="647" 
d="M266 564v-64h65v-115h-65v-385h-176v385h-55v115h55c2 44.667 8.5 79.5 19.5 104.5s28.333 43 52 54s55.834 16.5 96.501 16.5c31.333 0 66.666 -3.33301 105.999 -10l-10 -109zM588 502v-502h-176v479zM441 561c-13.333 5.33301 -22.834 14.668 -28.501 28.001
s-8.5 32.666 -8.5 57.999c0 36.667 6.66699 61.834 20 75.501s38.333 20.5 75 20.5s61.667 -6.83301 75 -20.5s20 -38.834 20 -75.501s-6.66699 -61.5 -20 -74.5s-38.333 -19.5 -75 -19.5c-25.333 0 -44.666 2.66699 -57.999 8z" />
    <glyph glyph-name="fl" unicode="fl" horiz-adv-x="652" 
d="M266 564v-64h65v-115h-65v-385h-176v385h-55v115h55c2 44.667 8.5 79.5 19.5 104.5s28.333 43 52 54s55.834 16.5 96.501 16.5c31.333 0 66.666 -3.33301 105.999 -10l-10 -109zM634 120l-8 -119c-36.667 -10 -70 -15 -100 -15c-39.333 0 -68.5 8.16699 -87.5 24.5
s-28.5 41.833 -28.5 76.5v563l176 15v-539c17.333 -2.66699 33.333 -4.66699 48 -6z" />
    <glyph glyph-name="f_f_i" unicode="ffi" horiz-adv-x="999" 
d="M266 564v-64h65v-115h-65v-385h-176v385h-55v115h55c2 44.667 8.5 79.5 19.5 104.5s28.333 43 52 54s55.834 16.5 96.501 16.5c31.333 0 66.666 -3.33301 105.999 -10l-10 -109zM618 564v-64h65v-115h-65v-385h-176v385h-55v115h55c2 44.667 8.5 79.5 19.5 104.5
s28.333 43 52 54s55.834 16.5 96.501 16.5c31.333 0 66.666 -3.33301 105.999 -10l-10 -109zM940 502v-502h-176v479zM793 561c-13.333 5.33301 -22.834 14.668 -28.501 28.001s-8.5 32.666 -8.5 57.999c0 36.667 6.66699 61.834 20 75.501s38.333 20.5 75 20.5
s61.667 -6.83301 75 -20.5s20 -38.834 20 -75.501s-6.66699 -61.5 -20 -74.5s-38.333 -19.5 -75 -19.5c-25.333 0 -44.666 2.66699 -57.999 8z" />
    <glyph glyph-name="f_f_l" unicode="ffl" horiz-adv-x="1004" 
d="M266 564v-64h65v-115h-65v-385h-176v385h-55v115h55c2 44.667 8.5 79.5 19.5 104.5s28.333 43 52 54s55.834 16.5 96.501 16.5c31.333 0 66.666 -3.33301 105.999 -10l-10 -109zM618 564v-64h65v-115h-65v-385h-176v385h-55v115h55c2 44.667 8.5 79.5 19.5 104.5
s28.333 43 52 54s55.834 16.5 96.501 16.5c31.333 0 66.666 -3.33301 105.999 -10l-10 -109zM986 120l-8 -119c-36.667 -10 -70 -15 -100 -15c-39.333 0 -68.5 8.16699 -87.5 24.5s-28.5 41.833 -28.5 76.5v563l176 15v-539c17.333 -2.66699 33.333 -4.66699 48 -6z" />
    <glyph glyph-name="uniFDF2" unicode="&#x627;&#xfedf;&#xfee0;&#xfeea;" horiz-adv-x="1634" arabic-form="isolated" 
d="M1215 1028l-79 -21v198l79 21v-198zM1253 962l91.001 36.001v-210l-267 -72c-12 -2.66699 -19.667 -4 -23 -4c-16.667 0 -28.834 7.16699 -36.501 21.5s-11.5 36.166 -11.5 65.499c0 41.333 4.66699 78 14 110l74 11c-6.66699 -28.667 -10 -57.334 -10 -86.001
c0 -19.333 1.66699 -35.666 5 -48.999l48 13c-4.66699 9.33301 -7 24.333 -7 45v86l79 22v-133l44 11v133zM1121 630.001l141 -0.00195312v-630h-963c-65.333 0 -114.166 6.33301 -146.499 19s-54.833 35.334 -67.5 68.001s-19 82 -19 148s6.33301 115.333 19 148
s35.167 55.334 67.5 68.001s81.166 19 146.499 19h263v-312h209v472h141v-472h209v472zM1557 629.999v-630h-141v630h141zM422.001 311.999h-163c-28.667 0 -43 -12.333 -43 -37v-80c0 -24.667 14.333 -37 43 -37h163v154z" />
    <glyph glyph-name="uniFEF5" unicode="&#xfedf;&#xfe82;" horiz-adv-x="665" arabic-form="isolated" 
d="M579 250c9.33301 -24.667 14 -52.3311 14 -82.998c0 -64.667 -21 -111.167 -63 -139.5s-110.667 -42.5 -206 -42.5c-66.667 0 -118.667 6.16699 -156 18.5s-63.833 31.666 -79.5 57.999s-23.5 62.166 -23.5 107.499c0 54.667 9.5 97.667 28.5 129s54.833 56 107.5 74
l22 8l-144 118l99 118l216 -178l41 14v178h141v-170c0 -33.333 -1 -57.833 -3 -73.5s-6 -27.5 -12 -35.5s-15.667 -14.333 -29 -19v-7c22 -25.333 37.667 -50.333 47 -75zM431 152.503c8.66699 6.33301 13 14.833 13 25.5c0 15.333 -10 30 -30 44l-54 45l-145 -49v-75h174
c19.333 0 33.333 3.16699 42 9.5zM167 688.503c-8.66699 5.66699 -19.999 16.502 -33.999 32.502l-67 -31l-23 40c39.333 31.333 68 52.166 86 62.499s32.333 15.5 43 15.5s20.167 -2.83301 28.5 -8.5s19.5 -16.834 33.5 -33.501l67 31l23 -40
c-38 -30.667 -66 -51.167 -84 -61.5s-32.667 -15.5 -44 -15.5c-10.667 0 -20.334 2.83301 -29.001 8.5z" />
    <glyph glyph-name="uniFEF6" unicode="&#xfee0;&#xfe82;" horiz-adv-x="701" arabic-form="final" 
d="M721 158v-158h-701v158h146l-34 387h141l34 -387h176v472h141v-472h97zM186 688.5c-8.66699 5.66699 -19.999 16.502 -33.999 32.502l-67 -31l-23 40c39.333 31.333 68 52.166 86 62.499s32.333 15.5 43 15.5s20.167 -2.83301 28.5 -8.5s19.5 -16.834 33.5 -33.501l67 31
l23 -40c-38 -30.667 -66 -51.167 -84 -61.5s-32.667 -15.5 -44 -15.5c-10.667 0 -20.334 2.83301 -29.001 8.5z" />
    <glyph glyph-name="uniFEF7" unicode="&#xfedf;&#xfe84;" horiz-adv-x="665" arabic-form="isolated" 
d="M579 250c9.33301 -24.667 14 -52.3311 14 -82.998c0 -64.667 -21 -111.167 -63 -139.5s-110.667 -42.5 -206 -42.5c-66.667 0 -118.667 6.16699 -156 18.5s-63.833 31.666 -79.5 57.999s-23.5 62.166 -23.5 107.499c0 54.667 9.5 97.667 28.5 129s54.833 56 107.5 74
l22 8l-144 118l99 118l216 -178l41 14v178h141v-170c0 -33.333 -1 -57.833 -3 -73.5s-6 -27.5 -12 -35.5s-15.667 -14.333 -29 -19v-7c22 -25.333 37.667 -50.333 47 -75zM431 152.503c8.66699 6.33301 13 14.833 13 25.5c0 15.333 -10 30 -30 44l-54 45l-145 -49v-75h174
c19.333 0 33.333 3.16699 42 9.5zM301 780.003v-67l-234 -62v65l38 11c-5.33301 16 -8 34 -8 54c0 49.333 15 85 45 107s73.667 35.333 131 40v-76c-34 -4 -63.333 -11 -88 -21l-1 -53c0 -15.333 6.33301 -23 19 -23c4.66699 0 10.667 1 18 3z" />
    <glyph glyph-name="uniFEF8" unicode="&#xfee0;&#xfe84;" horiz-adv-x="701" arabic-form="final" 
d="M721 158v-158h-701v158h146l-34 387h141l34 -387h176v472h141v-472h97zM320 780v-67l-234 -62v65l38 11c-5.33301 16 -8 34 -8 54c0 49.333 15 85 45 107s73.667 35.333 131 40v-76c-34 -4 -63.333 -11 -88 -21l-1 -53c0 -15.333 6.33301 -23 19 -23
c4.66699 0 10.667 1 18 3z" />
    <glyph glyph-name="uniFEF9" unicode="&#xfedf;&#xfe88;" horiz-adv-x="665" arabic-form="isolated" 
d="M579 250c9.33301 -24.667 14 -52.3311 14 -82.998c0 -64.667 -21 -111.167 -63 -139.5s-110.667 -42.5 -206 -42.5c-66.667 0 -118.667 6.16699 -156 18.5s-63.833 31.666 -79.5 57.999s-23.5 62.166 -23.5 107.499c0 54.667 9.5 97.667 28.5 129s54.833 56 107.5 74
l22 8l-144 118l99 118l216 -178l41 14v178h141v-170c0 -33.333 -1 -57.833 -3 -73.5s-6 -27.5 -12 -35.5s-15.667 -14.333 -29 -19v-7c22 -25.333 37.667 -50.333 47 -75zM431 152.503c8.66699 6.33301 13 14.833 13 25.5c0 15.333 -10 30 -30 44l-54 45l-145 -49v-75h174
c19.333 0 33.333 3.16699 42 9.5zM270 -223.997v-67l-234 -62v65l38 11c-5.33301 16 -8 34 -8 54c0 49.333 15 85 45 107s73.667 35.333 131 40v-76c-34 -4 -63.333 -11 -88 -21l-1 -53c0 -15.333 6.33301 -23 19 -23c5.33301 0 11.333 1 18 3z" />
    <glyph glyph-name="uniFEFA" unicode="&#xfee0;&#xfe88;" horiz-adv-x="701" arabic-form="final" 
d="M721 158v-158h-701v158h146l-34 387h141l34 -387h176v472h141v-472h97zM370 -224v-67l-234 -62v65l38 11c-5.33301 16 -8 34 -8 54c0 49.333 15 85 45 107s73.667 35.333 131 40v-76c-34 -4 -63.333 -11 -88 -21l-1 -53c0 -15.333 6.33301 -23 19 -23
c5.33301 0 11.333 1 18 3z" />
    <glyph glyph-name="uniFEFB" unicode="&#xfedf;&#xfe8e;" horiz-adv-x="665" arabic-form="isolated" 
d="M579 250c9.33301 -24.667 14 -52.3311 14 -82.998c0 -64.667 -21 -111.167 -63 -139.5s-110.667 -42.5 -206 -42.5c-66.667 0 -118.667 6.16699 -156 18.5s-63.833 31.666 -79.5 57.999s-23.5 62.166 -23.5 107.499c0 54.667 9.5 97.667 28.5 129s54.833 56 107.5 74
l22 8l-144 118l99 118l216 -178l41 14v178h141v-170c0 -33.333 -1 -57.833 -3 -73.5s-6 -27.5 -12 -35.5s-15.667 -14.333 -29 -19v-7c22 -25.333 37.667 -50.333 47 -75zM431 152.503c8.66699 6.33301 13 14.833 13 25.5c0 15.333 -10 30 -30 44l-54 45l-145 -49v-75h174
c19.333 0 33.333 3.16699 42 9.5z" />
    <glyph glyph-name="uniFEFC" unicode="&#xfee0;&#xfe8e;" horiz-adv-x="701" arabic-form="final" 
d="M721 158v-158h-701v158h146l-34 387h141l34 -387h176v472h141v-472h97z" />
    <glyph glyph-name="uni06440671" unicode="&#xfedf;&#xfb51;" horiz-adv-x="665" 
d="M579 250c9.33301 -24.667 14 -52.3311 14 -82.998c0 -64.667 -21 -111.167 -63 -139.5s-110.667 -42.5 -206 -42.5c-66.667 0 -118.667 6.16699 -156 18.5s-63.833 31.666 -79.5 57.999s-23.5 62.166 -23.5 107.499c0 54.667 9.5 97.667 28.5 129s54.833 56 107.5 74
l22 8l-144 118l99 118l216 -178l41 14v178h141v-170c0 -33.333 -1 -57.833 -3 -73.5s-6 -27.5 -12 -35.5s-15.667 -14.333 -29 -19v-7c22 -25.333 37.667 -50.333 47 -75zM431 152.503c8.66699 6.33301 13 14.833 13 25.5c0 15.333 -10 30 -30 44l-54 45l-145 -49v-75h174
c19.333 0 33.333 3.16699 42 9.5zM310.5 874.003c23 -14 34.5 -35.667 34.5 -65v-144h-343v66h30c3.33301 52.667 19.5 93.167 48.5 121.5s69.833 42.5 122.5 42.5c48.667 0 84.5 -7 107.5 -21zM239 731.003v86c-8 4 -20 6 -36 6c-40 0 -62 -30.667 -66 -92h102z" />
    <glyph glyph-name="uni06440671.fina" unicode="&#xfee0;&#xfb51;" horiz-adv-x="701" 
d="M721 158v-158h-701v158h146l-34 387h141l34 -387h176v472h141v-472h97zM329.5 874c23 -14 34.5 -35.667 34.5 -65v-144h-343v66h30c3.33301 52.667 19.5 93.167 48.5 121.5s69.833 42.5 122.5 42.5c48.667 0 84.5 -7 107.5 -21zM258 731v86c-8 4 -20 6 -36 6
c-40 0 -62 -30.667 -66 -92h102z" />
    <glyph glyph-name="uni066E.init" unicode="&#x66e;" horiz-adv-x="350" 
d="M-20 158h152v312h141v-470h-293v158z" />
    <glyph glyph-name="uni066E.medi" unicode="&#x66e;" horiz-adv-x="350" 
d="M370 158v-158h-390v158h152v312h141v-312h97z" />
    <glyph glyph-name="uni066E.fina" unicode="&#x66e;" horiz-adv-x="914" 
d="M935 158v-158.001h-710c-59.333 0 -102.5 17.333 -129.5 52s-40.5 90.334 -40.5 167.001c0 70.667 10.333 135.667 31 195l135 -21c-16.667 -48.667 -25 -93 -25 -133c0 -44 4.66699 -78 14 -102h487v312h140v-312h98z" />
    <glyph glyph-name="uni066F.fina" unicode="&#x66f;" horiz-adv-x="929" 
d="M949 158l-0.000976562 -158.001h-97v-73c0 -70.667 -17.5 -122.167 -52.5 -154.5s-90.833 -48.5 -167.5 -48.5h-410c-59.333 0 -102.5 20.333 -129.5 61s-40.5 106.334 -40.5 197.001c0 85.333 10.333 163.333 31 234l135 -21c-16.667 -63.333 -25 -120.666 -25 -171.999
c0 -32.667 0.833008 -59.667 2.5 -81s4.83398 -41.333 9.50098 -60h506v118h-138c-48.667 0 -87.667 8.33301 -117 25s-50.833 43 -64.5 79s-20.5 84 -20.5 144c0 57.333 8.33301 103.166 25 137.499s43.167 59.333 79.5 75s84.166 23.5 143.499 23.5
c49.333 0 91.833 -2.83301 127.5 -8.5s70.834 -15.5 105.501 -29.5v-288h97zM701.999 166.999c6 6 9 16.668 9 32.001v126h-134c-21.333 0 -36 -2.83301 -44 -8.5s-12 -16.834 -12 -33.501v-125h149c15.333 0 26 3 32 9z" />
    <glyph glyph-name="uni06A1.init" unicode="&#x6a1;" horiz-adv-x="667" 
d="M127 158c-6.66699 22.667 -11.334 43.5 -14.001 62.5s-4 42.167 -4 69.5c0 68 19.333 117.333 58 148s102 46 190 46c46.667 0 87.834 -2.83301 123.501 -8.5s72.167 -15.5 109.5 -29.5v-446h-610v158h147zM440 167c6 6 9 16.667 9 32v126h-149
c-16 0 -26.833 -3 -32.5 -9s-8.5 -17 -8.5 -33v-125h149c15.333 0 26 3 32 9z" />
    <glyph glyph-name="uni06A1.medi" unicode="&#x6a1;" horiz-adv-x="667" 
d="M687 159v-158h-97v-1h-610v158h147c-6.66699 22.667 -11.334 43.5 -14.001 62.5s-4 42.167 -4 69.5c0 68 19.333 117.333 58 148s102 46 190 46c46.667 0 87.834 -2.83301 123.501 -8.5s72.167 -15.5 109.5 -29.5v-287h97zM449 325h-149c-16 0 -26.833 -3 -32.5 -9
s-8.5 -17 -8.5 -33v-125h149c15.333 0 26 3 32 9s9 16.667 9 32v126z" />
    <glyph glyph-name="uni06A1.fina" unicode="&#x6a1;" horiz-adv-x="1014" 
d="M1034 159l0.000976562 -158.001h-97v-1h-712c-59.333 0 -102.5 17.333 -129.5 52s-40.5 90.334 -40.5 167.001c0 70.667 10.333 135.667 31 195l135 -21c-16.667 -48.667 -25 -93 -25 -133c0 -44 4.66699 -78 14 -102h264c-6.66699 22 -11.167 42.5 -13.5 61.5
s-3.5 42.5 -3.5 70.5c0 68 19.167 117.333 57.5 148s101.833 46 190.5 46c46.667 0 87.667 -2.83301 123 -8.5s71.666 -15.5 108.999 -29.5v-287h97zM796.001 321.999h-149c-16 0 -26.833 -3 -32.5 -9s-8.5 -17 -8.5 -33v-122h149c15.333 0 26 3 32 9s9 16.667 9 32v123z
" />
    <glyph glyph-name="uni06C2.fina" unicode="&#x6c2;" horiz-adv-x="639" 
d="M659 158v-158.002h-360c-65.333 0 -114.166 6.33301 -146.499 19s-54.833 35.334 -67.5 68.001s-19 82 -19 148s6.33301 115.333 19 148s35.167 55.334 67.5 68.001s81.166 19 146.499 19h263v-312h97zM422 311.998h-163c-28.667 0 -43 -12.333 -43 -37v-80
c0 -24.667 14.333 -37 43 -37h163v154zM452 704.998v-67l-234 -62v65l38 11c-5.33301 16 -8 34 -8 54c0 49.333 15 85 45 107s73.667 35.333 131 40v-76c-34 -4 -63.333 -11 -88 -21l-1 -53c0 -15.333 6.33301 -23 19 -23c4.66699 0 10.667 1 18 3z" />
    <glyph glyph-name="uni06C3.fina" unicode="&#x6c3;" horiz-adv-x="669" 
d="M688 158l0.000976562 -158h-237v320c-38.667 3.33301 -77.667 5 -117 5c-58 0 -98.333 -1.66699 -121 -5v-320h-141v317c0 40 7.66699 72 23 96s40.666 41.833 75.999 53.5s83.333 17.5 144 17.5c95.333 0 187 -11 275 -33v-293h98zM213.501 599.5
c-12.333 9 -23.002 19.667 -32.002 32s-13.5 23.166 -13.5 32.499c0 10 4.33301 21.167 13 33.5s19.167 22.833 31.5 31.5s23.5 13 33.5 13s21.167 -4.33301 33.5 -13s22.833 -19.167 31.5 -31.5s13 -23.5 13 -33.5c0 -9.33301 -4.5 -20.166 -13.5 -32.499
s-19.667 -23 -32 -32s-23.166 -13.5 -32.499 -13.5s-20.166 4.5 -32.499 13.5zM393.499 599.5c-12.333 9 -23.002 19.667 -32.002 32s-13.5 23.166 -13.5 32.499c0 10 4.33301 21.167 13 33.5s19.167 22.833 31.5 31.5s23.5 13 33.5 13s21.167 -4.33301 33.5 -13
s22.833 -19.167 31.5 -31.5s13 -23.5 13 -33.5c0 -9.33301 -4.5 -20.166 -13.5 -32.499s-19.667 -23 -32 -32s-23.166 -13.5 -32.499 -13.5s-20.166 4.5 -32.499 13.5z" />
    <glyph glyph-name="uniFB51" unicode="&#x671;" horiz-adv-x="295" arabic-form="final" 
d="M77 470h141v-312h97v-158h-238v470zM274.5 799c23 -14 34.5 -35.667 34.5 -65v-144h-343v66h30c3.33301 52.667 19.5 93.167 48.5 121.5s69.833 42.5 122.5 42.5c48.667 0 84.5 -7 107.5 -21zM203 656v86c-8 4 -20 6 -36 6c-40 0 -62 -30.667 -66 -92h102z" />
    <glyph glyph-name="uniFB57" unicode="&#x67e;" horiz-adv-x="914" arabic-form="final" 
d="M935 158v-158.001h-710c-59.333 0 -102.5 17.333 -129.5 52s-40.5 90.334 -40.5 167.001c0 70.667 10.333 135.667 31 195l135 -21c-16.667 -48.667 -25 -93 -25 -133c0 -44 4.66699 -78 14 -102h487v312h140v-312h98zM421.5 -401.501
c-12.333 9 -23.002 19.667 -32.002 32s-13.5 23.166 -13.5 32.499c0 10 4.33301 21.167 13 33.5s19.167 22.833 31.5 31.5s23.5 13 33.5 13s21.167 -4.33301 33.5 -13s22.833 -19.167 31.5 -31.5s13 -23.5 13 -33.5c0 -9.33301 -4.5 -20.166 -13.5 -32.499
s-19.667 -23 -32 -32s-23.166 -13.5 -32.499 -13.5s-20.166 4.5 -32.499 13.5zM332.498 -209.501c-12.333 9 -23.002 19.667 -32.002 32s-13.5 23.166 -13.5 32.499c0 10 4.33301 21.167 13 33.5s19.167 22.833 31.5 31.5s23.5 13 33.5 13s21.167 -4.33301 33.5 -13
s22.833 -19.167 31.5 -31.5s13 -23.5 13 -33.5c0 -9.33301 -4.5 -20.166 -13.5 -32.499s-19.667 -23 -32 -32s-23.166 -13.5 -32.499 -13.5s-20.166 4.5 -32.499 13.5zM512.496 -209.501c-12.333 9 -23.002 19.667 -32.002 32s-13.5 23.166 -13.5 32.499
c0 10 4.33301 21.167 13 33.5s19.167 22.833 31.5 31.5s23.5 13 33.5 13s21.167 -4.33301 33.5 -13s22.833 -19.167 31.5 -31.5s13 -23.5 13 -33.5c0 -9.33301 -4.5 -20.166 -13.5 -32.499s-19.667 -23 -32 -32s-23.166 -13.5 -32.499 -13.5s-20.166 4.5 -32.499 13.5z" />
    <glyph glyph-name="uniFB58" unicode="&#x67e;" horiz-adv-x="350" arabic-form="initial" 
d="M-20 158h152v312h141v-470h-293v158zM114.5 -397.5c-12.333 9 -23.002 19.667 -32.002 32s-13.5 23.166 -13.5 32.499c0 10 4.33301 21.167 13 33.5s19.167 22.833 31.5 31.5s23.5 13 33.5 13s21.167 -4.33301 33.5 -13s22.833 -19.167 31.5 -31.5s13 -23.5 13 -33.5
c0 -9.33301 -4.5 -20.166 -13.5 -32.499s-19.667 -23 -32 -32s-23.166 -13.5 -32.499 -13.5s-20.166 4.5 -32.499 13.5zM25.498 -205.5c-12.333 9 -23.002 19.667 -32.002 32s-13.5 23.166 -13.5 32.499c0 10 4.33301 21.167 13 33.5s19.167 22.833 31.5 31.5
s23.5 13 33.5 13s21.167 -4.33301 33.5 -13s22.833 -19.167 31.5 -31.5s13 -23.5 13 -33.5c0 -9.33301 -4.5 -20.166 -13.5 -32.499s-19.667 -23 -32 -32s-23.166 -13.5 -32.499 -13.5s-20.166 4.5 -32.499 13.5zM205.496 -205.5c-12.333 9 -23.002 19.667 -32.002 32
s-13.5 23.166 -13.5 32.499c0 10 4.33301 21.167 13 33.5s19.167 22.833 31.5 31.5s23.5 13 33.5 13s21.167 -4.33301 33.5 -13s22.833 -19.167 31.5 -31.5s13 -23.5 13 -33.5c0 -9.33301 -4.5 -20.166 -13.5 -32.499s-19.667 -23 -32 -32s-23.166 -13.5 -32.499 -13.5
s-20.166 4.5 -32.499 13.5z" />
    <glyph glyph-name="uniFB59" unicode="&#x67e;" horiz-adv-x="350" arabic-form="medial" 
d="M370 158v-158h-390v158h152v312h141v-312h97zM170.5 -399.5c-12.333 9 -23.002 19.667 -32.002 32s-13.5 23.166 -13.5 32.499c0 10 4.33301 21.167 13 33.5s19.167 22.833 31.5 31.5s23.5 13 33.5 13s21.167 -4.33301 33.5 -13s22.833 -19.167 31.5 -31.5
s13 -23.5 13 -33.5c0 -9.33301 -4.5 -20.166 -13.5 -32.499s-19.667 -23 -32 -32s-23.166 -13.5 -32.499 -13.5s-20.166 4.5 -32.499 13.5zM81.498 -207.5c-12.333 9 -23.002 19.667 -32.002 32s-13.5 23.166 -13.5 32.499c0 10 4.33301 21.167 13 33.5
s19.167 22.833 31.5 31.5s23.5 13 33.5 13s21.167 -4.33301 33.5 -13s22.833 -19.167 31.5 -31.5s13 -23.5 13 -33.5c0 -9.33301 -4.5 -20.166 -13.5 -32.499s-19.667 -23 -32 -32s-23.166 -13.5 -32.499 -13.5s-20.166 4.5 -32.499 13.5zM261.496 -207.5
c-12.333 9 -23.002 19.667 -32.002 32s-13.5 23.166 -13.5 32.499c0 10 4.33301 21.167 13 33.5s19.167 22.833 31.5 31.5s23.5 13 33.5 13s21.167 -4.33301 33.5 -13s22.833 -19.167 31.5 -31.5s13 -23.5 13 -33.5c0 -9.33301 -4.5 -20.166 -13.5 -32.499
s-19.667 -23 -32 -32s-23.166 -13.5 -32.499 -13.5s-20.166 4.5 -32.499 13.5z" />
    <glyph glyph-name="uniFB67" unicode="&#x679;" horiz-adv-x="914" arabic-form="final" 
d="M935 158v-158.001h-710c-59.333 0 -102.5 17.333 -129.5 52s-40.5 90.334 -40.5 167.001c0 70.667 10.333 135.667 31 195l135 -21c-16.667 -48.667 -25 -93 -25 -133c0 -44 4.66699 -78 14 -102h487v312h140v-312h98zM589 679.999c14.667 -13.333 22 -35.333 22 -66
v-124h-336v66h30v207h106v-112c8.66699 15.333 23.5 27.333 44.5 36s43.5 13 67.5 13c29.333 0 51.333 -6.66699 66 -20zM505 555.999l-0.000976562 65c-9.33301 4.66699 -21.333 7 -36 7c-35.333 0 -54.666 -24 -57.999 -72h94z" />
    <glyph glyph-name="uniFB68" unicode="&#x679;" horiz-adv-x="350" arabic-form="initial" 
d="M-20 158h152v312h141v-470h-293v158zM338 780c14.667 -13.333 22 -35.333 22 -66v-124h-336v66h30v207h106v-112c8.66699 15.333 23.5 27.333 44.5 36s43.5 13 67.5 13c29.333 0 51.333 -6.66699 66 -20zM254 656l-0.000976562 65c-9.33301 4.66699 -21.333 7 -36 7
c-35.333 0 -54.666 -24 -57.999 -72h94z" />
    <glyph glyph-name="uniFB69" unicode="&#x679;" horiz-adv-x="350" arabic-form="medial" 
d="M370 158v-158h-390v158h152v312h141v-312h97zM338 780c14.667 -13.333 22 -35.333 22 -66v-124h-336v66h30v207h106v-112c8.66699 15.333 23.5 27.333 44.5 36s43.5 13 67.5 13c29.333 0 51.333 -6.66699 66 -20zM254 656l-0.000976562 65
c-9.33301 4.66699 -21.333 7 -36 7c-35.333 0 -54.666 -24 -57.999 -72h94z" />
    <glyph glyph-name="uniFB6B" unicode="&#x6a4;" horiz-adv-x="1014" arabic-form="final" 
d="M1034 159l0.000976562 -158.001h-97v-1h-712c-59.333 0 -102.5 17.333 -129.5 52s-40.5 90.334 -40.5 167.001c0 70.667 10.333 135.667 31 195l135 -21c-16.667 -48.667 -25 -93 -25 -133c0 -44 4.66699 -78 14 -102h264c-6.66699 22 -11.167 42.5 -13.5 61.5
s-3.5 42.5 -3.5 70.5c0 68 19.167 117.333 57.5 148s101.833 46 190.5 46c46.667 0 87.667 -2.83301 123 -8.5s71.666 -15.5 108.999 -29.5v-287h97zM796.001 321.999h-149c-16 0 -26.833 -3 -32.5 -9s-8.5 -17 -8.5 -33v-122h149c15.333 0 26 3 32 9s9 16.667 9 32v123z
M605.501 599.499c-12.333 9 -23.002 19.667 -32.002 32s-13.5 23.166 -13.5 32.499c0 10 4.33301 21.167 13 33.5s19.167 22.833 31.5 31.5s23.5 13 33.5 13s21.167 -4.33301 33.5 -13s22.833 -19.167 31.5 -31.5s13 -23.5 13 -33.5c0 -9.33301 -4.5 -20.166 -13.5 -32.499
s-19.667 -23 -32 -32s-23.166 -13.5 -32.499 -13.5s-20.166 4.5 -32.499 13.5zM785.499 599.499c-12.333 9 -23.002 19.667 -32.002 32s-13.5 23.166 -13.5 32.499c0 10 4.33301 21.167 13 33.5s19.167 22.833 31.5 31.5s23.5 13 33.5 13s21.167 -4.33301 33.5 -13
s22.833 -19.167 31.5 -31.5s13 -23.5 13 -33.5c0 -9.33301 -4.5 -20.166 -13.5 -32.499s-19.667 -23 -32 -32s-23.166 -13.5 -32.499 -13.5s-20.166 4.5 -32.499 13.5zM694.497 791.499c-12.333 9 -23.002 19.667 -32.002 32s-13.5 23.166 -13.5 32.499
c0 10 4.33301 21.167 13 33.5s19.167 22.833 31.5 31.5s23.5 13 33.5 13s21.167 -4.33301 33.5 -13s22.833 -19.167 31.5 -31.5s13 -23.5 13 -33.5c0 -9.33301 -4.5 -20.166 -13.5 -32.499s-19.667 -23 -32 -32s-23.166 -13.5 -32.499 -13.5s-20.166 4.5 -32.499 13.5z" />
    <glyph glyph-name="uniFB6C" unicode="&#x6a4;" horiz-adv-x="667" arabic-form="initial" 
d="M127 158c-6.66699 22.667 -11.334 43.5 -14.001 62.5s-4 42.167 -4 69.5c0 68 19.333 117.333 58 148s102 46 190 46c46.667 0 87.834 -2.83301 123.501 -8.5s72.167 -15.5 109.5 -29.5v-446h-610v158h147zM440 167c6 6 9 16.667 9 32v126h-149
c-16 0 -26.833 -3 -32.5 -9s-8.5 -17 -8.5 -33v-125h149c15.333 0 26 3 32 9zM235.5 599.5c-12.333 9 -23.002 19.667 -32.002 32s-13.5 23.166 -13.5 32.499c0 10 4.33301 21.167 13 33.5s19.167 22.833 31.5 31.5s23.5 13 33.5 13s21.167 -4.33301 33.5 -13
s22.833 -19.167 31.5 -31.5s13 -23.5 13 -33.5c0 -9.33301 -4.5 -20.166 -13.5 -32.499s-19.667 -23 -32 -32s-23.166 -13.5 -32.499 -13.5s-20.166 4.5 -32.499 13.5zM415.498 599.5c-12.333 9 -23.002 19.667 -32.002 32s-13.5 23.166 -13.5 32.499
c0 10 4.33301 21.167 13 33.5s19.167 22.833 31.5 31.5s23.5 13 33.5 13s21.167 -4.33301 33.5 -13s22.833 -19.167 31.5 -31.5s13 -23.5 13 -33.5c0 -9.33301 -4.5 -20.166 -13.5 -32.499s-19.667 -23 -32 -32s-23.166 -13.5 -32.499 -13.5s-20.166 4.5 -32.499 13.5z
M324.496 791.5c-12.333 9 -23.002 19.667 -32.002 32s-13.5 23.166 -13.5 32.499c0 10 4.33301 21.167 13 33.5s19.167 22.833 31.5 31.5s23.5 13 33.5 13s21.167 -4.33301 33.5 -13s22.833 -19.167 31.5 -31.5s13 -23.5 13 -33.5c0 -9.33301 -4.5 -20.166 -13.5 -32.499
s-19.667 -23 -32 -32s-23.166 -13.5 -32.499 -13.5s-20.166 4.5 -32.499 13.5z" />
    <glyph glyph-name="uniFB6D" unicode="&#x6a4;" horiz-adv-x="667" arabic-form="medial" 
d="M687 159v-158h-97v-1h-610v158h147c-6.66699 22.667 -11.334 43.5 -14.001 62.5s-4 42.167 -4 69.5c0 68 19.333 117.333 58 148s102 46 190 46c46.667 0 87.834 -2.83301 123.501 -8.5s72.167 -15.5 109.5 -29.5v-287h97zM449 325h-149c-16 0 -26.833 -3 -32.5 -9
s-8.5 -17 -8.5 -33v-125h149c15.333 0 26 3 32 9s9 16.667 9 32v126zM235.5 599.5c-12.333 9 -23.002 19.667 -32.002 32s-13.5 23.166 -13.5 32.499c0 10 4.33301 21.167 13 33.5s19.167 22.833 31.5 31.5s23.5 13 33.5 13s21.167 -4.33301 33.5 -13
s22.833 -19.167 31.5 -31.5s13 -23.5 13 -33.5c0 -9.33301 -4.5 -20.166 -13.5 -32.499s-19.667 -23 -32 -32s-23.166 -13.5 -32.499 -13.5s-20.166 4.5 -32.499 13.5zM415.498 599.5c-12.333 9 -23.002 19.667 -32.002 32s-13.5 23.166 -13.5 32.499
c0 10 4.33301 21.167 13 33.5s19.167 22.833 31.5 31.5s23.5 13 33.5 13s21.167 -4.33301 33.5 -13s22.833 -19.167 31.5 -31.5s13 -23.5 13 -33.5c0 -9.33301 -4.5 -20.166 -13.5 -32.499s-19.667 -23 -32 -32s-23.166 -13.5 -32.499 -13.5s-20.166 4.5 -32.499 13.5z
M324.496 791.5c-12.333 9 -23.002 19.667 -32.002 32s-13.5 23.166 -13.5 32.499c0 10 4.33301 21.167 13 33.5s19.167 22.833 31.5 31.5s23.5 13 33.5 13s21.167 -4.33301 33.5 -13s22.833 -19.167 31.5 -31.5s13 -23.5 13 -33.5c0 -9.33301 -4.5 -20.166 -13.5 -32.499
s-19.667 -23 -32 -32s-23.166 -13.5 -32.499 -13.5s-20.166 4.5 -32.499 13.5z" />
    <glyph glyph-name="uniFB7B" unicode="&#x686;" horiz-adv-x="748" arabic-form="final" 
d="M768 158v-158.002h-104c-21.333 0 -38.5 4.5 -51.5 13.5s-23.167 23.167 -30.5 42.5l-23 60c-128.667 -1.33301 -223 -10.166 -283 -26.499s-90 -41.833 -90 -76.5v-140c13.333 -3.33301 29.333 -5 48 -5c25.333 0 50.333 2.66699 75 8l17 -151
c-35.333 -10 -66.333 -15 -93 -15c-50 0 -88.5 8.16699 -115.5 24.5s-46 42.333 -57 78s-16.5 84.5 -16.5 146.5c0 66.667 15.667 120.334 47 161.001s80.833 70.5 148.5 89.5s157.5 29.167 269.5 30.5c-16.667 30 -38.667 51.667 -66 65s-64 20 -110 20
c-40 0 -80 -2.33301 -120 -7l-21 156c55.333 6.66699 102 10 140 10c86 0 153.5 -16.667 202.5 -50s86.833 -88 113.5 -164l41 -112h79zM396.5 -57.002c-16.333 -16 -30.168 -24.001 -41.501 -24.001c-12.667 0 -27 7.83301 -43 23.5s-24 29.834 -24 42.501
s8 26.834 24 42.501s30.333 23.5 43 23.5s26.834 -7.83301 42.501 -23.5s23.5 -29.834 23.5 -42.501c0 -12 -8.16699 -26 -24.5 -42zM549.498 27.4971c15.667 -15.667 23.498 -29.835 23.498 -42.502c0 -12 -8.16699 -26 -24.5 -42s-30.166 -24 -41.499 -24
c-12.667 0 -27 7.83301 -43 23.5s-24 29.834 -24 42.501s8 26.834 24 42.501s30.333 23.5 43 23.5s26.834 -7.83301 42.501 -23.5zM472.496 -135.504c15.667 -15.667 23.498 -29.835 23.498 -42.502c0 -12 -8.16699 -26 -24.5 -42s-30.166 -24 -41.499 -24
c-12.667 0 -27 7.83301 -43 23.5s-24 29.834 -24 42.501s8 26.834 24 42.501s30.333 23.5 43 23.5s26.834 -7.83301 42.501 -23.5z" />
    <glyph glyph-name="uniFB7C" unicode="&#x686;" horiz-adv-x="582" arabic-form="initial" 
d="M582 315v-159h-116c-7.33301 0 -12.333 0.333008 -15 1c-34 -54 -77.333 -93.667 -130 -119s-112 -38 -178 -38h-163v158h177c93.333 0 158.333 37.333 195 112c-16 19.333 -36.5 33.333 -61.5 42s-56.833 13 -95.5 13c-44.667 0 -84.667 -2.33301 -120 -7l-21 156
c58 6.66699 104.667 10 140 10c81.333 0 144.833 -13.333 190.5 -40s81.167 -69.667 106.5 -129h91zM250.5 -399.5c-12.333 9 -23.002 19.667 -32.002 32s-13.5 23.166 -13.5 32.499c0 10 4.33301 21.167 13 33.5s19.167 22.833 31.5 31.5s23.5 13 33.5 13
s21.167 -4.33301 33.5 -13s22.833 -19.167 31.5 -31.5s13 -23.5 13 -33.5c0 -9.33301 -4.5 -20.166 -13.5 -32.499s-19.667 -23 -32 -32s-23.166 -13.5 -32.499 -13.5s-20.166 4.5 -32.499 13.5zM161.498 -207.5c-12.333 9 -23.002 19.667 -32.002 32
s-13.5 23.166 -13.5 32.499c0 10 4.33301 21.167 13 33.5s19.167 22.833 31.5 31.5s23.5 13 33.5 13s21.167 -4.33301 33.5 -13s22.833 -19.167 31.5 -31.5s13 -23.5 13 -33.5c0 -9.33301 -4.5 -20.166 -13.5 -32.499s-19.667 -23 -32 -32s-23.166 -13.5 -32.499 -13.5
s-20.166 4.5 -32.499 13.5zM341.496 -207.5c-12.333 9 -23.002 19.667 -32.002 32s-13.5 23.166 -13.5 32.499c0 10 4.33301 21.167 13 33.5s19.167 22.833 31.5 31.5s23.5 13 33.5 13s21.167 -4.33301 33.5 -13s22.833 -19.167 31.5 -31.5s13 -23.5 13 -33.5
c0 -9.33301 -4.5 -20.166 -13.5 -32.499s-19.667 -23 -32 -32s-23.166 -13.5 -32.499 -13.5s-20.166 4.5 -32.499 13.5z" />
    <glyph glyph-name="uniFB7D" unicode="&#x686;" horiz-adv-x="608" arabic-form="medial" 
d="M630 158v-157.999h-104c-21.333 0 -38.5 4.5 -51.5 13.5s-23.167 23.167 -30.5 42.5l-21 55c-60.667 -74 -144.667 -111 -252 -111h-191v158h207c78.667 0 134 36.667 166 110c-16 19.333 -36.667 33.666 -62 42.999s-57.333 14 -96 14
c-44.667 0 -84.667 -2.33301 -120 -7l-21 156c58 6.66699 104.667 10 140 10c86.667 0 154.5 -16.833 203.5 -50.5s86.5 -88.167 112.5 -163.5l41 -112h79zM273.5 -399.499c-12.333 9 -23.002 19.667 -32.002 32s-13.5 23.166 -13.5 32.499c0 10 4.33301 21.167 13 33.5
s19.167 22.833 31.5 31.5s23.5 13 33.5 13s21.167 -4.33301 33.5 -13s22.833 -19.167 31.5 -31.5s13 -23.5 13 -33.5c0 -9.33301 -4.5 -20.166 -13.5 -32.499s-19.667 -23 -32 -32s-23.166 -13.5 -32.499 -13.5s-20.166 4.5 -32.499 13.5zM184.498 -207.499
c-12.333 9 -23.002 19.667 -32.002 32s-13.5 23.166 -13.5 32.499c0 10 4.33301 21.167 13 33.5s19.167 22.833 31.5 31.5s23.5 13 33.5 13s21.167 -4.33301 33.5 -13s22.833 -19.167 31.5 -31.5s13 -23.5 13 -33.5c0 -9.33301 -4.5 -20.166 -13.5 -32.499
s-19.667 -23 -32 -32s-23.166 -13.5 -32.499 -13.5s-20.166 4.5 -32.499 13.5zM364.496 -207.499c-12.333 9 -23.002 19.667 -32.002 32s-13.5 23.166 -13.5 32.499c0 10 4.33301 21.167 13 33.5s19.167 22.833 31.5 31.5s23.5 13 33.5 13s21.167 -4.33301 33.5 -13
s22.833 -19.167 31.5 -31.5s13 -23.5 13 -33.5c0 -9.33301 -4.5 -20.166 -13.5 -32.499s-19.667 -23 -32 -32s-23.166 -13.5 -32.499 -13.5s-20.166 4.5 -32.499 13.5z" />
    <glyph glyph-name="uniFB89" unicode="&#x688;" horiz-adv-x="529" arabic-form="final" 
d="M549 158l0.00292969 -158h-529v158h295c-10.667 48.667 -21.667 85.167 -33 109.5s-25 41.333 -41 51s-37.667 14.5 -65 14.5c-36 0 -72 -4.33301 -108 -13l-38 154c42 11.333 90.667 17 146 17c61.333 0 109.166 -8.66699 143.499 -26s63.166 -49 86.499 -95
s46.666 -116.667 69.999 -212h73zM341.003 780c14.667 -13.333 22 -35.333 22 -66v-124h-336v66h30v207h106v-112c8.66699 15.333 23.5 27.333 44.5 36s43.5 13 67.5 13c29.333 0 51.333 -6.66699 66 -20zM257.003 656l-0.000976562 65c-9.33301 4.66699 -21.333 7 -36 7
c-35.333 0 -54.666 -24 -57.999 -72h94z" />
    <glyph glyph-name="uniFB8B" unicode="&#x698;" horiz-adv-x="333" arabic-form="final" 
d="M353 0h-94.9971c-2.66699 -73.333 -18.334 -131.333 -47.001 -174s-75 -77.667 -139 -105l-52 126c27.333 11.333 47.666 23.666 60.999 36.999s22.666 30.333 27.999 51s8 49.334 8 86.001v449h141v-312h95v-158zM63.5029 599.5c-12.333 9 -23.002 19.667 -32.002 32
s-13.5 23.166 -13.5 32.499c0 10 4.33301 21.167 13 33.5s19.167 22.833 31.5 31.5s23.5 13 33.5 13s21.167 -4.33301 33.5 -13s22.833 -19.167 31.5 -31.5s13 -23.5 13 -33.5c0 -9.33301 -4.5 -20.166 -13.5 -32.499s-19.667 -23 -32 -32s-23.166 -13.5 -32.499 -13.5
s-20.166 4.5 -32.499 13.5zM243.501 599.5c-12.333 9 -23.002 19.667 -32.002 32s-13.5 23.166 -13.5 32.499c0 10 4.33301 21.167 13 33.5s19.167 22.833 31.5 31.5s23.5 13 33.5 13s21.167 -4.33301 33.5 -13s22.833 -19.167 31.5 -31.5s13 -23.5 13 -33.5
c0 -9.33301 -4.5 -20.166 -13.5 -32.499s-19.667 -23 -32 -32s-23.166 -13.5 -32.499 -13.5s-20.166 4.5 -32.499 13.5zM152.499 791.5c-12.333 9 -23.002 19.667 -32.002 32s-13.5 23.166 -13.5 32.499c0 10 4.33301 21.167 13 33.5s19.167 22.833 31.5 31.5
s23.5 13 33.5 13s21.167 -4.33301 33.5 -13s22.833 -19.167 31.5 -31.5s13 -23.5 13 -33.5c0 -9.33301 -4.5 -20.166 -13.5 -32.499s-19.667 -23 -32 -32s-23.166 -13.5 -32.499 -13.5s-20.166 4.5 -32.499 13.5z" />
    <glyph glyph-name="uniFB8D" unicode="&#x691;" horiz-adv-x="333" arabic-form="final" 
d="M353 0h-94.9971c-2.66699 -73.333 -18.334 -131.333 -47.001 -174s-75 -77.667 -139 -105l-52 126c27.333 11.333 47.666 23.666 60.999 36.999s22.666 30.333 27.999 51s8 49.334 8 86.001v449h141v-312h95v-158zM320.003 780c14.667 -13.333 22 -35.333 22 -66v-124
h-336v66h30v207h106v-112c8.66699 15.333 23.5 27.333 44.5 36s43.5 13 67.5 13c29.333 0 51.333 -6.66699 66 -20zM236.003 656l-0.000976562 65c-9.33301 4.66699 -21.333 7 -36 7c-35.333 0 -54.666 -24 -57.999 -72h94z" />
    <glyph glyph-name="uniFB8F" unicode="&#x6a9;" horiz-adv-x="882" arabic-form="final" 
d="M902 158l0.000976562 -158.001h-677c-59.333 0 -102.5 17.333 -129.5 52s-40.5 90.334 -40.5 167.001c0 70.667 10.333 135.667 31 195l135 -21c-16.667 -48.667 -25 -93 -25 -133c0 -44 4.66699 -78 14 -102h454v130h-211c-37.333 0 -65.833 10.167 -85.5 30.5
s-29.5 49.5 -29.5 87.5c0 50 15.167 106.833 45.5 170.5s67.166 116.5 110.499 158.5l113 -61c-28 -26.667 -56 -63.167 -84 -109.5s-45.333 -85.833 -52 -118.5h156c46.667 0 82.667 -5.33301 108 -16s43.333 -28.667 54 -54s16 -61.333 16 -108v-110h97z" />
    <glyph glyph-name="uniFB90" unicode="&#x6a9;" horiz-adv-x="721" arabic-form="initial" 
d="M-20 158l523 0.000976562v130h-307c-36.667 0 -64.834 10.167 -84.501 30.5s-29.5 49.5 -29.5 87.5c0 50 15.167 106.833 45.5 170.5s67.166 116.5 110.499 158.5l113 -61c-28 -26 -56 -62.333 -84 -109s-45.667 -86.334 -53 -119.001h251
c46.667 0 82.834 -5.33301 108.501 -16s43.834 -28.667 54.501 -54s16 -61.333 16 -108v-268h-664v158z" />
    <glyph glyph-name="uniFB91" unicode="&#x6a9;" horiz-adv-x="721" arabic-form="medial" 
d="M741 158v-157.999h-761v158h523v130h-307c-36.667 0 -64.834 10.167 -84.501 30.5s-29.5 49.5 -29.5 87.5c0 50 15.167 106.833 45.5 170.5s67.166 116.5 110.499 158.5l113 -61c-28 -26 -56 -62.333 -84 -109s-45.667 -86.334 -53 -119.001h251
c46.667 0 82.834 -5.33301 108.501 -16s43.834 -28.667 54.501 -54s16 -61.333 16 -108v-110h97z" />
    <glyph glyph-name="uniFB93" unicode="&#x6af;" horiz-adv-x="882" arabic-form="final" 
d="M902 158l0.000976562 -158.001h-677c-59.333 0 -102.5 17.333 -129.5 52s-40.5 90.334 -40.5 167.001c0 70.667 10.333 135.667 31 195l135 -21c-16.667 -48.667 -25 -93 -25 -133c0 -44 4.66699 -78 14 -102h454v130h-211c-37.333 0 -65.833 10.167 -85.5 30.5
s-29.5 49.5 -29.5 87.5c0 50 15.167 106.833 45.5 170.5s67.166 116.5 110.499 158.5l113 -61c-28 -26.667 -56 -63.167 -84 -109.5s-45.333 -85.833 -52 -118.5h156c46.667 0 82.667 -5.33301 108 -16s43.333 -28.667 54 -54s16 -61.333 16 -108v-110h97zM197.501 684.499
c-30.333 -65.667 -48.5 -122.499 -54.5 -170.499l118 -39c18 111.333 68 212.666 150 303.999l-113 61c-36.667 -38 -70.167 -89.833 -100.5 -155.5z" />
    <glyph glyph-name="uniFB94" unicode="&#x6af;" horiz-adv-x="721" arabic-form="initial" 
d="M-20 158l523 0.000976562v130h-307c-36.667 0 -64.834 10.167 -84.501 30.5s-29.5 49.5 -29.5 87.5c0 50 15.167 106.833 45.5 170.5s67.166 116.5 110.499 158.5l113 -61c-28 -26 -56 -62.333 -84 -109s-45.667 -86.334 -53 -119.001h251
c46.667 0 82.834 -5.33301 108.501 -16s43.834 -28.667 54.501 -54s16 -61.333 16 -108v-268h-664v158zM-72.5 684.501c-30.333 -65.667 -48.5 -122.499 -54.5 -170.499l118 -39c18 111.333 68 212.666 150 303.999l-113 61c-36.667 -38 -70.167 -89.833 -100.5 -155.5z" />
    <glyph glyph-name="uniFB95" unicode="&#x6af;" horiz-adv-x="721" arabic-form="medial" 
d="M741 158v-157.999h-761v158h523v130h-307c-36.667 0 -64.834 10.167 -84.501 30.5s-29.5 49.5 -29.5 87.5c0 50 15.167 106.833 45.5 170.5s67.166 116.5 110.499 158.5l113 -61c-28 -26 -56 -62.333 -84 -109s-45.667 -86.334 -53 -119.001h251
c46.667 0 82.834 -5.33301 108.501 -16s43.834 -28.667 54.501 -54s16 -61.333 16 -108v-110h97zM-72.5 684.501c-30.333 -65.667 -48.5 -122.499 -54.5 -170.499l118 -39c18 111.333 68 212.666 150 303.999l-113 61c-36.667 -38 -70.167 -89.833 -100.5 -155.5z" />
    <glyph glyph-name="uniFB9F" unicode="&#x6ba;" horiz-adv-x="678" arabic-form="final" 
d="M698 158v-157.999h-97v-2c0 -66 -7 -115.333 -21 -148s-40.167 -55.834 -78.5 -69.501s-96.5 -20.5 -174.5 -20.5c-72.667 0 -127.667 6.83301 -165 20.5s-63.333 37.667 -78 72s-22 84.5 -22 150.5c0 88 11 169.333 33 244l133 -22c-16.667 -72 -25 -137 -25 -195
c0 -49.333 3.33301 -86.333 10 -111h143c37.333 0 64 3.66699 80 11s24 21.333 24 42v498h141v-312h97z" />
    <glyph glyph-name="uniFBA7" unicode="&#x6c1;" horiz-adv-x="669" arabic-form="final" 
d="M688 158l0.000976562 -158h-237v320c-38.667 3.33301 -77.667 5 -117 5c-58 0 -98.333 -1.66699 -121 -5v-320h-141v317c0 40 7.66699 72 23 96s40.666 41.833 75.999 53.5s83.333 17.5 144 17.5c95.333 0 187 -11 275 -33v-293h98z" />
    <glyph glyph-name="uniFBA8" unicode="&#x6c1;" horiz-adv-x="350" arabic-form="initial" 
d="M284 -113c6.66699 -10.667 9.99805 -27.334 9.99805 -50.001c0 -30 -5.66699 -50.667 -17 -62s-32 -17 -62 -17s-50.5 5.66699 -61.5 17s-16.5 32 -16.5 62c0.666992 18.667 2.33398 32.334 5.00098 41.001s9.33398 23.667 20.001 45l39 77h-221v158h152v312h141v-470
l-23 -92c16 -3.33301 27.333 -10.333 34 -21z" />
    <glyph glyph-name="uniFBA9" unicode="&#x6c1;" horiz-adv-x="688" arabic-form="medial" 
d="M708 0l-97.001 -0.00195312v-208c0 -40 -6.16699 -72.167 -18.5 -96.5s-33.166 -42.166 -62.499 -53.499s-69.333 -17 -120 -17c-86 0 -167 15 -243 45c-26.667 68.667 -40 140 -40 214v116h-147v158h280v-266c0 -39.333 6.33301 -81.666 19 -126.999
c35.333 -4.66699 72.333 -7 111 -7c39.333 0 66 1.66699 80 5v395h238v-158z" />
    <glyph glyph-name="uniFBAB" unicode="&#x6be;" horiz-adv-x="767" arabic-form="final" 
d="M787 158l0.00195312 -157.999h-767v158h59c1.33301 58 7.83301 100.833 19.5 128.5s30.334 46.167 56.001 55.5s64.5 14 116.5 14c53.333 0 93.166 -4.66699 119.499 -14s45.166 -27.833 56.499 -55.5s17.666 -70.5 18.999 -128.5h97l-34 140
c-8.66699 34 -22.834 61.333 -42.501 82s-48.667 36 -87 46s-89.166 15 -152.499 15l8 154c87.333 0 157.833 -7.66699 211.5 -23s95.667 -40.333 126 -75s52.833 -82.334 67.5 -143.001l48 -196h79zM202.002 158.001h141v84h-104c-24.667 0 -37 -10.333 -37 -31v-53z" />
    <glyph glyph-name="uniFBAC" unicode="&#x6be;" horiz-adv-x="767" arabic-form="initial" 
d="M717 123l0.00195312 -122.999h-737v158h99c1.33301 58 7.83301 100.833 19.5 128.5s30.334 46.167 56.001 55.5s64.5 14 116.5 14c53.333 0 93.166 -4.66699 119.499 -14s45.166 -27.833 56.499 -55.5s17.666 -70.5 18.999 -128.5h97l-34 140
c-8.66699 34 -22.834 61.333 -42.501 82s-48.667 36 -87 46s-89.166 15 -152.499 15l8 154c87.333 0 157.833 -7.66699 211.5 -23s95.667 -40.333 126 -75s52.833 -82.334 67.5 -143.001zM202.002 158.001h141v84h-104c-24.667 0 -37 -10.333 -37 -31v-53z" />
    <glyph glyph-name="uniFBAD" unicode="&#x6be;" horiz-adv-x="767" arabic-form="medial" 
d="M787 158l0.00195312 -157.999h-807v158h99c1.33301 58 7.83301 100.833 19.5 128.5s30.334 46.167 56.001 55.5s64.5 14 116.5 14c53.333 0 93.166 -4.66699 119.499 -14s45.166 -27.833 56.499 -55.5s17.666 -70.5 18.999 -128.5h97l-34 140
c-8.66699 34 -22.834 61.333 -42.501 82s-48.667 36 -87 46s-89.166 15 -152.499 15l8 154c87.333 0 157.833 -7.66699 211.5 -23s95.667 -40.333 126 -75s52.833 -82.334 67.5 -143.001l48 -196h79zM202.002 158.001h141v84h-104c-24.667 0 -37 -10.333 -37 -31v-53z" />
    <glyph glyph-name="uniFBAF" unicode="&#x6d2;" horiz-adv-x="739" arabic-form="final" 
d="M183 0v-75c0 -14.667 6 -25.667 18 -33s31.333 -12.5 58 -15.5s65 -4.5 115 -4.5c52 0 99.5 1.83301 142.5 5.5s95.167 10.5 156.5 20.5l21 -151c-108 -22 -224 -33 -348 -33c-86.667 0 -151.167 7 -193.5 21s-71.333 37.833 -87 71.5s-23.5 84.167 -23.5 151.5v200h717
v-158h-576z" />
    <glyph glyph-name="uniFBB1" unicode="&#x6d3;" horiz-adv-x="739" arabic-form="final" 
d="M183 0v-75c0 -14.667 6 -25.667 18 -33s31.333 -12.5 58 -15.5s65 -4.5 115 -4.5c52 0 99.5 1.83301 142.5 5.5s95.167 10.5 156.5 20.5l21 -151c-108 -22 -224 -33 -348 -33c-86.667 0 -151.167 7 -193.5 21s-71.333 37.833 -87 71.5s-23.5 84.167 -23.5 151.5v200h717
v-158h-576zM422 365v-67l-234 -62v65l38 11c-5.33301 16 -8 34 -8 54c0 49.333 15 85 45 107s73.667 35.333 131 40v-76c-34 -4 -63.333 -11 -88 -21l-1 -53c0 -15.333 6.33301 -23 19 -23c4.66699 0 10.667 1 18 3z" />
    <glyph glyph-name="uniFBFD" unicode="&#x6cc;" horiz-adv-x="878" arabic-form="final" 
d="M899 158l0.00195312 -158.001h-98v-51c0 -60.667 -10.833 -107.667 -32.5 -141s-59.167 -57.333 -112.5 -72s-130 -22 -230 -22c-97.333 0 -171.833 6.83301 -223.5 20.5s-88 37 -109 70s-31.5 80.833 -31.5 143.5c0 75.333 11 145 33 209l137 -23
c-9.33301 -32 -16.5 -60.5 -21.5 -85.5s-7.5 -49.167 -7.5 -72.5c0 -45.333 3.33301 -80 10 -104h281c43.333 0 76.666 1.5 99.999 4.5s40.166 8.16699 50.499 15.5s15.5 18.333 15.5 33v75h-11c-38 0 -77.333 2.83301 -118 8.5s-78.667 13.834 -114 24.501l21 151
c68 -17.333 126.667 -26 176 -26h285z" />
    <glyph glyph-name="uniFBFE" unicode="&#x6cc;" horiz-adv-x="350" arabic-form="initial" 
d="M-20 158h152v312h141v-470h-293v158zM20.5 -212.5c-12.333 9 -23.002 19.667 -32.002 32s-13.5 23.166 -13.5 32.499c0 10 4.33301 21.167 13 33.5s19.167 22.833 31.5 31.5s23.5 13 33.5 13s21.167 -4.33301 33.5 -13s22.833 -19.167 31.5 -31.5s13 -23.5 13 -33.5
c0 -9.33301 -4.5 -20.166 -13.5 -32.499s-19.667 -23 -32 -32s-23.166 -13.5 -32.499 -13.5s-20.166 4.5 -32.499 13.5zM200.498 -212.5c-12.333 9 -23.002 19.667 -32.002 32s-13.5 23.166 -13.5 32.499c0 10 4.33301 21.167 13 33.5s19.167 22.833 31.5 31.5
s23.5 13 33.5 13s21.167 -4.33301 33.5 -13s22.833 -19.167 31.5 -31.5s13 -23.5 13 -33.5c0 -9.33301 -4.5 -20.166 -13.5 -32.499s-19.667 -23 -32 -32s-23.166 -13.5 -32.499 -13.5s-20.166 4.5 -32.499 13.5z" />
    <glyph glyph-name="uniFBFF" unicode="&#x6cc;" horiz-adv-x="350" arabic-form="medial" 
d="M370 158v-158h-390v158h152v312h141v-312h97zM79.5 -221.5c-12.333 9 -23.002 19.667 -32.002 32s-13.5 23.166 -13.5 32.499c0 10 4.33301 21.167 13 33.5s19.167 22.833 31.5 31.5s23.5 13 33.5 13s21.167 -4.33301 33.5 -13s22.833 -19.167 31.5 -31.5
s13 -23.5 13 -33.5c0 -9.33301 -4.5 -20.166 -13.5 -32.499s-19.667 -23 -32 -32s-23.166 -13.5 -32.499 -13.5s-20.166 4.5 -32.499 13.5zM259.498 -221.5c-12.333 9 -23.002 19.667 -32.002 32s-13.5 23.166 -13.5 32.499c0 10 4.33301 21.167 13 33.5
s19.167 22.833 31.5 31.5s23.5 13 33.5 13s21.167 -4.33301 33.5 -13s22.833 -19.167 31.5 -31.5s13 -23.5 13 -33.5c0 -9.33301 -4.5 -20.166 -13.5 -32.499s-19.667 -23 -32 -32s-23.166 -13.5 -32.499 -13.5s-20.166 4.5 -32.499 13.5z" />
    <glyph glyph-name="uniFC64" unicode="&#xfc64;" horiz-adv-x="661" arabic-form="final" 
d="M681 158l0.000976562 -157.999h-238v312h-185v-291c0 -80 -14.167 -142.833 -42.5 -188.5s-76.166 -82.834 -143.499 -111.501l-52 126c27.333 11.333 47.666 23.666 60.999 36.999s22.666 30.333 27.999 51s8 49.334 8 86.001v449h467v-312h97zM629.001 705.001v-67
l-234 -62v65l38 11c-5.33301 16 -8 34 -8 54c0 49.333 15 85 45 107s73.667 35.333 131 40v-76c-34 -4 -63.333 -11 -88 -21l-1 -53c0 -15.333 6.33301 -23 19 -23c4.66699 0 10.667 1 18 3z" />
    <glyph glyph-name="uniFC65" unicode="&#xfc65;" horiz-adv-x="661" arabic-form="final" 
d="M681 158l0.000976562 -157.999h-238v312h-185v-291c0 -80 -14.167 -142.833 -42.5 -188.5s-76.166 -82.834 -143.499 -111.501l-52 126c27.333 11.333 47.666 23.666 60.999 36.999s22.666 30.333 27.999 51s8 49.334 8 86.001v449h467v-312h97zM629.001 705.001v-67
l-234 -62v65l38 11c-5.33301 16 -8 34 -8 54c0 49.333 15 85 45 107s73.667 35.333 131 40v-76c-34 -4 -63.333 -11 -88 -21l-1 -53c0 -15.333 6.33301 -23 19 -23c4.66699 0 10.667 1 18 3zM153.501 599.501c-12.333 9 -23.002 19.667 -32.002 32
s-13.5 23.166 -13.5 32.499c0 10 4.33301 21.167 13 33.5s19.167 22.833 31.5 31.5s23.5 13 33.5 13s21.167 -4.33301 33.5 -13s22.833 -19.167 31.5 -31.5s13 -23.5 13 -33.5c0 -9.33301 -4.5 -20.166 -13.5 -32.499s-19.667 -23 -32 -32s-23.166 -13.5 -32.499 -13.5
s-20.166 4.5 -32.499 13.5z" />
    <glyph glyph-name="uniFC67" unicode="&#xfc67;" horiz-adv-x="1005" arabic-form="final" 
d="M299.5 600.5c-12.333 9 -23.002 19.667 -32.002 32s-13.5 23.166 -13.5 32.499c0 10 4.33301 21.167 13 33.5s19.167 22.833 31.5 31.5s23.5 13 33.5 13s21.167 -4.33301 33.5 -13s22.833 -19.167 31.5 -31.5s13 -23.5 13 -33.5c0 -9.33301 -4.5 -20.166 -13.5 -32.499
s-19.667 -23 -32 -32s-23.166 -13.5 -32.499 -13.5s-20.166 4.5 -32.499 13.5zM1025 158v-157.999h-238v312h-186v-314c0 -66 -7 -115.333 -21 -148s-40.167 -55.834 -78.5 -69.501s-96.5 -20.5 -174.5 -20.5c-72.667 0 -127.667 6.83301 -165 20.5s-63.333 37.667 -78 72
s-22 84.5 -22 150.5c0 88 11 169.333 33 244l133 -22c-16.667 -72 -25 -137 -25 -195c0 -49.333 3.33301 -86.333 10 -111h143c37.333 0 64 3.66699 80 11s24 21.333 24 42v498h468v-312h97zM974.998 705.001v-67l-234 -62v65l38 11c-5.33301 16 -8 34 -8 54
c0 49.333 15 85 45 107s73.667 35.333 131 40v-76c-34 -4 -63.333 -11 -88 -21l-1 -53c0 -15.333 6.33301 -23 19 -23c4.66699 0 10.667 1 18 3z" />
    <glyph glyph-name="uniFC68" unicode="&#xfc68;" horiz-adv-x="1171" arabic-form="final" 
d="M1191 158l0.00195312 -158.001h-238v312h-444v-94l133 -13c41.333 -4.66699 73.5 -13.667 96.5 -27s39.167 -32 48.5 -56s14 -55.667 14 -95v-78c0 -60.667 -10.833 -107.667 -32.5 -141s-59.167 -57.333 -112.5 -72s-130 -22 -230 -22
c-97.333 0 -171.833 6.83301 -223.5 20.5s-88 37 -109 70s-31.5 80.833 -31.5 143.5c0 75.333 11 145 33 209l137 -23c-9.33301 -32 -16.5 -60.5 -21.5 -85.5s-7.5 -49.167 -7.5 -72.5c0 -45.333 3.33301 -80 10 -104h281c43.333 0 76.666 1.5 99.999 4.5
s40.166 8.16699 50.499 15.5s15.5 18.333 15.5 33v124l-132 14c-46 4.66699 -81.167 14.167 -105.5 28.5s-41 34.833 -50 61.5s-13.5 63.334 -13.5 110.001c0 54.667 6 96.5 18 125.5s33.833 49.833 65.5 62.5s78.167 19 139.5 19h512v-312h97zM1140 704.999v-67l-234 -62
v65l38 11c-5.33301 16 -8 34 -8 54c0 49.333 15 85 45 107s73.667 35.333 131 40v-76c-34 -4 -63.333 -11 -88 -21l-1 -53c0 -15.333 6.33301 -23 19 -23c4.66699 0 10.667 1 18 3z" />
    <glyph glyph-name="uniFC69" unicode="&#xfc69;" horiz-adv-x="1171" arabic-form="final" 
d="M1191 158l0.00195312 -158.001h-238v312h-444v-94l133 -13c41.333 -4.66699 73.5 -13.667 96.5 -27s39.167 -32 48.5 -56s14 -55.667 14 -95v-78c0 -60.667 -10.833 -107.667 -32.5 -141s-59.167 -57.333 -112.5 -72s-130 -22 -230 -22
c-97.333 0 -171.833 6.83301 -223.5 20.5s-88 37 -109 70s-31.5 80.833 -31.5 143.5c0 75.333 11 145 33 209l137 -23c-9.33301 -32 -16.5 -60.5 -21.5 -85.5s-7.5 -49.167 -7.5 -72.5c0 -45.333 3.33301 -80 10 -104h281c43.333 0 76.666 1.5 99.999 4.5
s40.166 8.16699 50.499 15.5s15.5 18.333 15.5 33v124l-132 14c-46 4.66699 -81.167 14.167 -105.5 28.5s-41 34.833 -50 61.5s-13.5 63.334 -13.5 110.001c0 54.667 6 96.5 18 125.5s33.833 49.833 65.5 62.5s78.167 19 139.5 19h512v-312h97zM1140 704.999v-67l-234 -62
v65l38 11c-5.33301 16 -8 34 -8 54c0 49.333 15 85 45 107s73.667 35.333 131 40v-76c-34 -4 -63.333 -11 -88 -21l-1 -53c0 -15.333 6.33301 -23 19 -23c4.66699 0 10.667 1 18 3zM312.502 -471.501c-12.333 9 -23.002 19.667 -32.002 32s-13.5 23.166 -13.5 32.499
c0 10 4.33301 21.167 13 33.5s19.167 22.833 31.5 31.5s23.5 13 33.5 13s21.167 -4.33301 33.5 -13s22.833 -19.167 31.5 -31.5s13 -23.5 13 -33.5c0 -9.33301 -4.5 -20.166 -13.5 -32.499s-19.667 -23 -32 -32s-23.166 -13.5 -32.499 -13.5s-20.166 4.5 -32.499 13.5z
M492.5 -471.501c-12.333 9 -23.002 19.667 -32.002 32s-13.5 23.166 -13.5 32.499c0 10 4.33301 21.167 13 33.5s19.167 22.833 31.5 31.5s23.5 13 33.5 13s21.167 -4.33301 33.5 -13s22.833 -19.167 31.5 -31.5s13 -23.5 13 -33.5c0 -9.33301 -4.5 -20.166 -13.5 -32.499
s-19.667 -23 -32 -32s-23.166 -13.5 -32.499 -13.5s-20.166 4.5 -32.499 13.5z" />
    <glyph glyph-name="uniFC6A" unicode="&#xfc6a;" horiz-adv-x="661" arabic-form="final" 
d="M681 158l0.000976562 -157.999h-238v312h-185v-291c0 -80 -14.167 -142.833 -42.5 -188.5s-76.166 -82.834 -143.499 -111.501l-52 126c27.333 11.333 47.666 23.666 60.999 36.999s22.666 30.333 27.999 51s8 49.334 8 86.001v449h467v-312h97zM479.501 -221.499
c-12.333 9 -23.002 19.667 -32.002 32s-13.5 23.166 -13.5 32.499c0 10 4.33301 21.167 13 33.5s19.167 22.833 31.5 31.5s23.5 13 33.5 13s21.167 -4.33301 33.5 -13s22.833 -19.167 31.5 -31.5s13 -23.5 13 -33.5c0 -9.33301 -4.5 -20.166 -13.5 -32.499
s-19.667 -23 -32 -32s-23.166 -13.5 -32.499 -13.5s-20.166 4.5 -32.499 13.5z" />
    <glyph glyph-name="uniFC6B" unicode="&#xfc6b;" horiz-adv-x="661" arabic-form="final" 
d="M681 158l0.000976562 -157.999h-238v312h-185v-291c0 -80 -14.167 -142.833 -42.5 -188.5s-76.166 -82.834 -143.499 -111.501l-52 126c27.333 11.333 47.666 23.666 60.999 36.999s22.666 30.333 27.999 51s8 49.334 8 86.001v449h467v-312h97zM479.501 -221.499
c-12.333 9 -23.002 19.667 -32.002 32s-13.5 23.166 -13.5 32.499c0 10 4.33301 21.167 13 33.5s19.167 22.833 31.5 31.5s23.5 13 33.5 13s21.167 -4.33301 33.5 -13s22.833 -19.167 31.5 -31.5s13 -23.5 13 -33.5c0 -9.33301 -4.5 -20.166 -13.5 -32.499
s-19.667 -23 -32 -32s-23.166 -13.5 -32.499 -13.5s-20.166 4.5 -32.499 13.5zM153.499 599.501c-12.333 9 -23.002 19.667 -32.002 32s-13.5 23.166 -13.5 32.499c0 10 4.33301 21.167 13 33.5s19.167 22.833 31.5 31.5s23.5 13 33.5 13s21.167 -4.33301 33.5 -13
s22.833 -19.167 31.5 -31.5s13 -23.5 13 -33.5c0 -9.33301 -4.5 -20.166 -13.5 -32.499s-19.667 -23 -32 -32s-23.166 -13.5 -32.499 -13.5s-20.166 4.5 -32.499 13.5z" />
    <glyph glyph-name="uniFC6D" unicode="&#xfc6d;" horiz-adv-x="1005" arabic-form="final" 
d="M299.5 600.5c-12.333 9 -23.002 19.667 -32.002 32s-13.5 23.166 -13.5 32.499c0 10 4.33301 21.167 13 33.5s19.167 22.833 31.5 31.5s23.5 13 33.5 13s21.167 -4.33301 33.5 -13s22.833 -19.167 31.5 -31.5s13 -23.5 13 -33.5c0 -9.33301 -4.5 -20.166 -13.5 -32.499
s-19.667 -23 -32 -32s-23.166 -13.5 -32.499 -13.5s-20.166 4.5 -32.499 13.5zM1025 158v-157.999h-238v312h-186v-314c0 -66 -7 -115.333 -21 -148s-40.167 -55.834 -78.5 -69.501s-96.5 -20.5 -174.5 -20.5c-72.667 0 -127.667 6.83301 -165 20.5s-63.333 37.667 -78 72
s-22 84.5 -22 150.5c0 88 11 169.333 33 244l133 -22c-16.667 -72 -25 -137 -25 -195c0 -49.333 3.33301 -86.333 10 -111h143c37.333 0 64 3.66699 80 11s24 21.333 24 42v498h468v-312h97zM825.498 -221.499c-12.333 9 -23.002 19.667 -32.002 32
s-13.5 23.166 -13.5 32.499c0 10 4.33301 21.167 13 33.5s19.167 22.833 31.5 31.5s23.5 13 33.5 13s21.167 -4.33301 33.5 -13s22.833 -19.167 31.5 -31.5s13 -23.5 13 -33.5c0 -9.33301 -4.5 -20.166 -13.5 -32.499s-19.667 -23 -32 -32s-23.166 -13.5 -32.499 -13.5
s-20.166 4.5 -32.499 13.5z" />
    <glyph glyph-name="uniFC6E" unicode="&#xfc6e;" horiz-adv-x="1171" arabic-form="final" 
d="M1191 158l0.00195312 -158.001h-238v312h-444v-94l133 -13c41.333 -4.66699 73.5 -13.667 96.5 -27s39.167 -32 48.5 -56s14 -55.667 14 -95v-78c0 -60.667 -10.833 -107.667 -32.5 -141s-59.167 -57.333 -112.5 -72s-130 -22 -230 -22
c-97.333 0 -171.833 6.83301 -223.5 20.5s-88 37 -109 70s-31.5 80.833 -31.5 143.5c0 75.333 11 145 33 209l137 -23c-9.33301 -32 -16.5 -60.5 -21.5 -85.5s-7.5 -49.167 -7.5 -72.5c0 -45.333 3.33301 -80 10 -104h281c43.333 0 76.666 1.5 99.999 4.5
s40.166 8.16699 50.499 15.5s15.5 18.333 15.5 33v124l-132 14c-46 4.66699 -81.167 14.167 -105.5 28.5s-41 34.833 -50 61.5s-13.5 63.334 -13.5 110.001c0 54.667 6 96.5 18 125.5s33.833 49.833 65.5 62.5s78.167 19 139.5 19h512v-312h97zM991.502 -201.501
c-12.333 9 -23.002 19.667 -32.002 32s-13.5 23.166 -13.5 32.499c0 10 4.33301 21.167 13 33.5s19.167 22.833 31.5 31.5s23.5 13 33.5 13s21.167 -4.33301 33.5 -13s22.833 -19.167 31.5 -31.5s13 -23.5 13 -33.5c0 -9.33301 -4.5 -20.166 -13.5 -32.499
s-19.667 -23 -32 -32s-23.166 -13.5 -32.499 -13.5s-20.166 4.5 -32.499 13.5z" />
    <glyph glyph-name="uniFC6F" unicode="&#xfc6f;" horiz-adv-x="1171" arabic-form="final" 
d="M1191 158l0.00195312 -158.001h-238v312h-444v-94l133 -13c41.333 -4.66699 73.5 -13.667 96.5 -27s39.167 -32 48.5 -56s14 -55.667 14 -95v-78c0 -60.667 -10.833 -107.667 -32.5 -141s-59.167 -57.333 -112.5 -72s-130 -22 -230 -22
c-97.333 0 -171.833 6.83301 -223.5 20.5s-88 37 -109 70s-31.5 80.833 -31.5 143.5c0 75.333 11 145 33 209l137 -23c-9.33301 -32 -16.5 -60.5 -21.5 -85.5s-7.5 -49.167 -7.5 -72.5c0 -45.333 3.33301 -80 10 -104h281c43.333 0 76.666 1.5 99.999 4.5
s40.166 8.16699 50.499 15.5s15.5 18.333 15.5 33v124l-132 14c-46 4.66699 -81.167 14.167 -105.5 28.5s-41 34.833 -50 61.5s-13.5 63.334 -13.5 110.001c0 54.667 6 96.5 18 125.5s33.833 49.833 65.5 62.5s78.167 19 139.5 19h512v-312h97zM991.502 -201.501
c-12.333 9 -23.002 19.667 -32.002 32s-13.5 23.166 -13.5 32.499c0 10 4.33301 21.167 13 33.5s19.167 22.833 31.5 31.5s23.5 13 33.5 13s21.167 -4.33301 33.5 -13s22.833 -19.167 31.5 -31.5s13 -23.5 13 -33.5c0 -9.33301 -4.5 -20.166 -13.5 -32.499
s-19.667 -23 -32 -32s-23.166 -13.5 -32.499 -13.5s-20.166 4.5 -32.499 13.5zM312.5 -471.501c-12.333 9 -23.002 19.667 -32.002 32s-13.5 23.166 -13.5 32.499c0 10 4.33301 21.167 13 33.5s19.167 22.833 31.5 31.5s23.5 13 33.5 13s21.167 -4.33301 33.5 -13
s22.833 -19.167 31.5 -31.5s13 -23.5 13 -33.5c0 -9.33301 -4.5 -20.166 -13.5 -32.499s-19.667 -23 -32 -32s-23.166 -13.5 -32.499 -13.5s-20.166 4.5 -32.499 13.5zM492.498 -471.501c-12.333 9 -23.002 19.667 -32.002 32s-13.5 23.166 -13.5 32.499
c0 10 4.33301 21.167 13 33.5s19.167 22.833 31.5 31.5s23.5 13 33.5 13s21.167 -4.33301 33.5 -13s22.833 -19.167 31.5 -31.5s13 -23.5 13 -33.5c0 -9.33301 -4.5 -20.166 -13.5 -32.499s-19.667 -23 -32 -32s-23.166 -13.5 -32.499 -13.5s-20.166 4.5 -32.499 13.5z" />
    <glyph glyph-name="uniFC70" unicode="&#xfc70;" horiz-adv-x="661" arabic-form="final" 
d="M681 158l0.000976562 -157.999h-238v312h-185v-291c0 -80 -14.167 -142.833 -42.5 -188.5s-76.166 -82.834 -143.499 -111.501l-52 126c27.333 11.333 47.666 23.666 60.999 36.999s22.666 30.333 27.999 51s8 49.334 8 86.001v449h467v-312h97zM390.501 599.501
c-12.333 9 -23.002 19.667 -32.002 32s-13.5 23.166 -13.5 32.499c0 10 4.33301 21.167 13 33.5s19.167 22.833 31.5 31.5s23.5 13 33.5 13s21.167 -4.33301 33.5 -13s22.833 -19.167 31.5 -31.5s13 -23.5 13 -33.5c0 -9.33301 -4.5 -20.166 -13.5 -32.499
s-19.667 -23 -32 -32s-23.166 -13.5 -32.499 -13.5s-20.166 4.5 -32.499 13.5zM570.499 599.501c-12.333 9 -23.002 19.667 -32.002 32s-13.5 23.166 -13.5 32.499c0 10 4.33301 21.167 13 33.5s19.167 22.833 31.5 31.5s23.5 13 33.5 13s21.167 -4.33301 33.5 -13
s22.833 -19.167 31.5 -31.5s13 -23.5 13 -33.5c0 -9.33301 -4.5 -20.166 -13.5 -32.499s-19.667 -23 -32 -32s-23.166 -13.5 -32.499 -13.5s-20.166 4.5 -32.499 13.5z" />
    <glyph glyph-name="uniFC71" unicode="&#xfc71;" horiz-adv-x="661" arabic-form="final" 
d="M681 158l0.000976562 -157.999h-238v312h-185v-291c0 -80 -14.167 -142.833 -42.5 -188.5s-76.166 -82.834 -143.499 -111.501l-52 126c27.333 11.333 47.666 23.666 60.999 36.999s22.666 30.333 27.999 51s8 49.334 8 86.001v449h467v-312h97zM390.501 599.501
c-12.333 9 -23.002 19.667 -32.002 32s-13.5 23.166 -13.5 32.499c0 10 4.33301 21.167 13 33.5s19.167 22.833 31.5 31.5s23.5 13 33.5 13s21.167 -4.33301 33.5 -13s22.833 -19.167 31.5 -31.5s13 -23.5 13 -33.5c0 -9.33301 -4.5 -20.166 -13.5 -32.499
s-19.667 -23 -32 -32s-23.166 -13.5 -32.499 -13.5s-20.166 4.5 -32.499 13.5zM570.499 599.501c-12.333 9 -23.002 19.667 -32.002 32s-13.5 23.166 -13.5 32.499c0 10 4.33301 21.167 13 33.5s19.167 22.833 31.5 31.5s23.5 13 33.5 13s21.167 -4.33301 33.5 -13
s22.833 -19.167 31.5 -31.5s13 -23.5 13 -33.5c0 -9.33301 -4.5 -20.166 -13.5 -32.499s-19.667 -23 -32 -32s-23.166 -13.5 -32.499 -13.5s-20.166 4.5 -32.499 13.5zM153.497 599.501c-12.333 9 -23.002 19.667 -32.002 32s-13.5 23.166 -13.5 32.499
c0 10 4.33301 21.167 13 33.5s19.167 22.833 31.5 31.5s23.5 13 33.5 13s21.167 -4.33301 33.5 -13s22.833 -19.167 31.5 -31.5s13 -23.5 13 -33.5c0 -9.33301 -4.5 -20.166 -13.5 -32.499s-19.667 -23 -32 -32s-23.166 -13.5 -32.499 -13.5s-20.166 4.5 -32.499 13.5z" />
    <glyph glyph-name="uniFC73" unicode="&#xfc73;" horiz-adv-x="1005" arabic-form="final" 
d="M299.5 600.5c-12.333 9 -23.002 19.667 -32.002 32s-13.5 23.166 -13.5 32.499c0 10 4.33301 21.167 13 33.5s19.167 22.833 31.5 31.5s23.5 13 33.5 13s21.167 -4.33301 33.5 -13s22.833 -19.167 31.5 -31.5s13 -23.5 13 -33.5c0 -9.33301 -4.5 -20.166 -13.5 -32.499
s-19.667 -23 -32 -32s-23.166 -13.5 -32.499 -13.5s-20.166 4.5 -32.499 13.5zM1025 158v-157.999h-238v312h-186v-314c0 -66 -7 -115.333 -21 -148s-40.167 -55.834 -78.5 -69.501s-96.5 -20.5 -174.5 -20.5c-72.667 0 -127.667 6.83301 -165 20.5s-63.333 37.667 -78 72
s-22 84.5 -22 150.5c0 88 11 169.333 33 244l133 -22c-16.667 -72 -25 -137 -25 -195c0 -49.333 3.33301 -86.333 10 -111h143c37.333 0 64 3.66699 80 11s24 21.333 24 42v498h468v-312h97zM736.498 599.501c-12.333 9 -23.002 19.667 -32.002 32
s-13.5 23.166 -13.5 32.499c0 10 4.33301 21.167 13 33.5s19.167 22.833 31.5 31.5s23.5 13 33.5 13s21.167 -4.33301 33.5 -13s22.833 -19.167 31.5 -31.5s13 -23.5 13 -33.5c0 -9.33301 -4.5 -20.166 -13.5 -32.499s-19.667 -23 -32 -32s-23.166 -13.5 -32.499 -13.5
s-20.166 4.5 -32.499 13.5zM916.496 599.501c-12.333 9 -23.002 19.667 -32.002 32s-13.5 23.166 -13.5 32.499c0 10 4.33301 21.167 13 33.5s19.167 22.833 31.5 31.5s23.5 13 33.5 13s21.167 -4.33301 33.5 -13s22.833 -19.167 31.5 -31.5s13 -23.5 13 -33.5
c0 -9.33301 -4.5 -20.166 -13.5 -32.499s-19.667 -23 -32 -32s-23.166 -13.5 -32.499 -13.5s-20.166 4.5 -32.499 13.5z" />
    <glyph glyph-name="uniFC74" unicode="&#xfc74;" horiz-adv-x="1171" arabic-form="final" 
d="M1191 158l0.00195312 -158.001h-238v312h-444v-94l133 -13c41.333 -4.66699 73.5 -13.667 96.5 -27s39.167 -32 48.5 -56s14 -55.667 14 -95v-78c0 -60.667 -10.833 -107.667 -32.5 -141s-59.167 -57.333 -112.5 -72s-130 -22 -230 -22
c-97.333 0 -171.833 6.83301 -223.5 20.5s-88 37 -109 70s-31.5 80.833 -31.5 143.5c0 75.333 11 145 33 209l137 -23c-9.33301 -32 -16.5 -60.5 -21.5 -85.5s-7.5 -49.167 -7.5 -72.5c0 -45.333 3.33301 -80 10 -104h281c43.333 0 76.666 1.5 99.999 4.5
s40.166 8.16699 50.499 15.5s15.5 18.333 15.5 33v124l-132 14c-46 4.66699 -81.167 14.167 -105.5 28.5s-41 34.833 -50 61.5s-13.5 63.334 -13.5 110.001c0 54.667 6 96.5 18 125.5s33.833 49.833 65.5 62.5s78.167 19 139.5 19h512v-312h97zM901.502 599.499
c-12.333 9 -23.002 19.667 -32.002 32s-13.5 23.166 -13.5 32.499c0 10 4.33301 21.167 13 33.5s19.167 22.833 31.5 31.5s23.5 13 33.5 13s21.167 -4.33301 33.5 -13s22.833 -19.167 31.5 -31.5s13 -23.5 13 -33.5c0 -9.33301 -4.5 -20.166 -13.5 -32.499
s-19.667 -23 -32 -32s-23.166 -13.5 -32.499 -13.5s-20.166 4.5 -32.499 13.5zM1081.5 599.499c-12.333 9 -23.002 19.667 -32.002 32s-13.5 23.166 -13.5 32.499c0 10 4.33301 21.167 13 33.5s19.167 22.833 31.5 31.5s23.5 13 33.5 13s21.167 -4.33301 33.5 -13
s22.833 -19.167 31.5 -31.5s13 -23.5 13 -33.5c0 -9.33301 -4.5 -20.166 -13.5 -32.499s-19.667 -23 -32 -32s-23.166 -13.5 -32.499 -13.5s-20.166 4.5 -32.499 13.5z" />
    <glyph glyph-name="uniFC75" unicode="&#xfc75;" horiz-adv-x="1171" arabic-form="final" 
d="M1191 158l0.00195312 -158.001h-238v312h-444v-94l133 -13c41.333 -4.66699 73.5 -13.667 96.5 -27s39.167 -32 48.5 -56s14 -55.667 14 -95v-78c0 -60.667 -10.833 -107.667 -32.5 -141s-59.167 -57.333 -112.5 -72s-130 -22 -230 -22
c-97.333 0 -171.833 6.83301 -223.5 20.5s-88 37 -109 70s-31.5 80.833 -31.5 143.5c0 75.333 11 145 33 209l137 -23c-9.33301 -32 -16.5 -60.5 -21.5 -85.5s-7.5 -49.167 -7.5 -72.5c0 -45.333 3.33301 -80 10 -104h281c43.333 0 76.666 1.5 99.999 4.5
s40.166 8.16699 50.499 15.5s15.5 18.333 15.5 33v124l-132 14c-46 4.66699 -81.167 14.167 -105.5 28.5s-41 34.833 -50 61.5s-13.5 63.334 -13.5 110.001c0 54.667 6 96.5 18 125.5s33.833 49.833 65.5 62.5s78.167 19 139.5 19h512v-312h97zM901.502 599.499
c-12.333 9 -23.002 19.667 -32.002 32s-13.5 23.166 -13.5 32.499c0 10 4.33301 21.167 13 33.5s19.167 22.833 31.5 31.5s23.5 13 33.5 13s21.167 -4.33301 33.5 -13s22.833 -19.167 31.5 -31.5s13 -23.5 13 -33.5c0 -9.33301 -4.5 -20.166 -13.5 -32.499
s-19.667 -23 -32 -32s-23.166 -13.5 -32.499 -13.5s-20.166 4.5 -32.499 13.5zM1081.5 599.499c-12.333 9 -23.002 19.667 -32.002 32s-13.5 23.166 -13.5 32.499c0 10 4.33301 21.167 13 33.5s19.167 22.833 31.5 31.5s23.5 13 33.5 13s21.167 -4.33301 33.5 -13
s22.833 -19.167 31.5 -31.5s13 -23.5 13 -33.5c0 -9.33301 -4.5 -20.166 -13.5 -32.499s-19.667 -23 -32 -32s-23.166 -13.5 -32.499 -13.5s-20.166 4.5 -32.499 13.5zM312.498 -471.501c-12.333 9 -23.002 19.667 -32.002 32s-13.5 23.166 -13.5 32.499
c0 10 4.33301 21.167 13 33.5s19.167 22.833 31.5 31.5s23.5 13 33.5 13s21.167 -4.33301 33.5 -13s22.833 -19.167 31.5 -31.5s13 -23.5 13 -33.5c0 -9.33301 -4.5 -20.166 -13.5 -32.499s-19.667 -23 -32 -32s-23.166 -13.5 -32.499 -13.5s-20.166 4.5 -32.499 13.5z
M492.496 -471.501c-12.333 9 -23.002 19.667 -32.002 32s-13.5 23.166 -13.5 32.499c0 10 4.33301 21.167 13 33.5s19.167 22.833 31.5 31.5s23.5 13 33.5 13s21.167 -4.33301 33.5 -13s22.833 -19.167 31.5 -31.5s13 -23.5 13 -33.5c0 -9.33301 -4.5 -20.166 -13.5 -32.499
s-19.667 -23 -32 -32s-23.166 -13.5 -32.499 -13.5s-20.166 4.5 -32.499 13.5z" />
    <glyph glyph-name="uniFC76" unicode="&#xfc76;" horiz-adv-x="661" arabic-form="final" 
d="M681 158l0.000976562 -157.999h-238v312h-185v-291c0 -80 -14.167 -142.833 -42.5 -188.5s-76.166 -82.834 -143.499 -111.501l-52 126c27.333 11.333 47.666 23.666 60.999 36.999s22.666 30.333 27.999 51s8 49.334 8 86.001v449h467v-312h97zM390.501 599.501
c-12.333 9 -23.002 19.667 -32.002 32s-13.5 23.166 -13.5 32.499c0 10 4.33301 21.167 13 33.5s19.167 22.833 31.5 31.5s23.5 13 33.5 13s21.167 -4.33301 33.5 -13s22.833 -19.167 31.5 -31.5s13 -23.5 13 -33.5c0 -9.33301 -4.5 -20.166 -13.5 -32.499
s-19.667 -23 -32 -32s-23.166 -13.5 -32.499 -13.5s-20.166 4.5 -32.499 13.5zM570.499 599.501c-12.333 9 -23.002 19.667 -32.002 32s-13.5 23.166 -13.5 32.499c0 10 4.33301 21.167 13 33.5s19.167 22.833 31.5 31.5s23.5 13 33.5 13s21.167 -4.33301 33.5 -13
s22.833 -19.167 31.5 -31.5s13 -23.5 13 -33.5c0 -9.33301 -4.5 -20.166 -13.5 -32.499s-19.667 -23 -32 -32s-23.166 -13.5 -32.499 -13.5s-20.166 4.5 -32.499 13.5zM479.497 791.501c-12.333 9 -23.002 19.667 -32.002 32s-13.5 23.166 -13.5 32.499
c0 10 4.33301 21.167 13 33.5s19.167 22.833 31.5 31.5s23.5 13 33.5 13s21.167 -4.33301 33.5 -13s22.833 -19.167 31.5 -31.5s13 -23.5 13 -33.5c0 -9.33301 -4.5 -20.166 -13.5 -32.499s-19.667 -23 -32 -32s-23.166 -13.5 -32.499 -13.5s-20.166 4.5 -32.499 13.5z" />
    <glyph glyph-name="uniFC77" unicode="&#xfc77;" horiz-adv-x="661" arabic-form="final" 
d="M681 158l0.000976562 -157.999h-238v312h-185v-291c0 -80 -14.167 -142.833 -42.5 -188.5s-76.166 -82.834 -143.499 -111.501l-52 126c27.333 11.333 47.666 23.666 60.999 36.999s22.666 30.333 27.999 51s8 49.334 8 86.001v449h467v-312h97zM390.501 599.501
c-12.333 9 -23.002 19.667 -32.002 32s-13.5 23.166 -13.5 32.499c0 10 4.33301 21.167 13 33.5s19.167 22.833 31.5 31.5s23.5 13 33.5 13s21.167 -4.33301 33.5 -13s22.833 -19.167 31.5 -31.5s13 -23.5 13 -33.5c0 -9.33301 -4.5 -20.166 -13.5 -32.499
s-19.667 -23 -32 -32s-23.166 -13.5 -32.499 -13.5s-20.166 4.5 -32.499 13.5zM570.499 599.501c-12.333 9 -23.002 19.667 -32.002 32s-13.5 23.166 -13.5 32.499c0 10 4.33301 21.167 13 33.5s19.167 22.833 31.5 31.5s23.5 13 33.5 13s21.167 -4.33301 33.5 -13
s22.833 -19.167 31.5 -31.5s13 -23.5 13 -33.5c0 -9.33301 -4.5 -20.166 -13.5 -32.499s-19.667 -23 -32 -32s-23.166 -13.5 -32.499 -13.5s-20.166 4.5 -32.499 13.5zM479.497 791.501c-12.333 9 -23.002 19.667 -32.002 32s-13.5 23.166 -13.5 32.499
c0 10 4.33301 21.167 13 33.5s19.167 22.833 31.5 31.5s23.5 13 33.5 13s21.167 -4.33301 33.5 -13s22.833 -19.167 31.5 -31.5s13 -23.5 13 -33.5c0 -9.33301 -4.5 -20.166 -13.5 -32.499s-19.667 -23 -32 -32s-23.166 -13.5 -32.499 -13.5s-20.166 4.5 -32.499 13.5z
M153.495 599.501c-12.333 9 -23.002 19.667 -32.002 32s-13.5 23.166 -13.5 32.499c0 10 4.33301 21.167 13 33.5s19.167 22.833 31.5 31.5s23.5 13 33.5 13s21.167 -4.33301 33.5 -13s22.833 -19.167 31.5 -31.5s13 -23.5 13 -33.5c0 -9.33301 -4.5 -20.166 -13.5 -32.499
s-19.667 -23 -32 -32s-23.166 -13.5 -32.499 -13.5s-20.166 4.5 -32.499 13.5z" />
    <glyph glyph-name="uniFC79" unicode="&#xfc79;" horiz-adv-x="1005" arabic-form="final" 
d="M299.5 600.5c-12.333 9 -23.002 19.667 -32.002 32s-13.5 23.166 -13.5 32.499c0 10 4.33301 21.167 13 33.5s19.167 22.833 31.5 31.5s23.5 13 33.5 13s21.167 -4.33301 33.5 -13s22.833 -19.167 31.5 -31.5s13 -23.5 13 -33.5c0 -9.33301 -4.5 -20.166 -13.5 -32.499
s-19.667 -23 -32 -32s-23.166 -13.5 -32.499 -13.5s-20.166 4.5 -32.499 13.5zM1025 158v-157.999h-238v312h-186v-314c0 -66 -7 -115.333 -21 -148s-40.167 -55.834 -78.5 -69.501s-96.5 -20.5 -174.5 -20.5c-72.667 0 -127.667 6.83301 -165 20.5s-63.333 37.667 -78 72
s-22 84.5 -22 150.5c0 88 11 169.333 33 244l133 -22c-16.667 -72 -25 -137 -25 -195c0 -49.333 3.33301 -86.333 10 -111h143c37.333 0 64 3.66699 80 11s24 21.333 24 42v498h468v-312h97zM736.498 599.501c-12.333 9 -23.002 19.667 -32.002 32
s-13.5 23.166 -13.5 32.499c0 10 4.33301 21.167 13 33.5s19.167 22.833 31.5 31.5s23.5 13 33.5 13s21.167 -4.33301 33.5 -13s22.833 -19.167 31.5 -31.5s13 -23.5 13 -33.5c0 -9.33301 -4.5 -20.166 -13.5 -32.499s-19.667 -23 -32 -32s-23.166 -13.5 -32.499 -13.5
s-20.166 4.5 -32.499 13.5zM916.496 599.501c-12.333 9 -23.002 19.667 -32.002 32s-13.5 23.166 -13.5 32.499c0 10 4.33301 21.167 13 33.5s19.167 22.833 31.5 31.5s23.5 13 33.5 13s21.167 -4.33301 33.5 -13s22.833 -19.167 31.5 -31.5s13 -23.5 13 -33.5
c0 -9.33301 -4.5 -20.166 -13.5 -32.499s-19.667 -23 -32 -32s-23.166 -13.5 -32.499 -13.5s-20.166 4.5 -32.499 13.5zM825.494 791.501c-12.333 9 -23.002 19.667 -32.002 32s-13.5 23.166 -13.5 32.499c0 10 4.33301 21.167 13 33.5s19.167 22.833 31.5 31.5
s23.5 13 33.5 13s21.167 -4.33301 33.5 -13s22.833 -19.167 31.5 -31.5s13 -23.5 13 -33.5c0 -9.33301 -4.5 -20.166 -13.5 -32.499s-19.667 -23 -32 -32s-23.166 -13.5 -32.499 -13.5s-20.166 4.5 -32.499 13.5z" />
    <glyph glyph-name="uniFC7A" unicode="&#xfc7a;" horiz-adv-x="1171" arabic-form="final" 
d="M1191 158l0.00195312 -158.001h-238v312h-444v-94l133 -13c41.333 -4.66699 73.5 -13.667 96.5 -27s39.167 -32 48.5 -56s14 -55.667 14 -95v-78c0 -60.667 -10.833 -107.667 -32.5 -141s-59.167 -57.333 -112.5 -72s-130 -22 -230 -22
c-97.333 0 -171.833 6.83301 -223.5 20.5s-88 37 -109 70s-31.5 80.833 -31.5 143.5c0 75.333 11 145 33 209l137 -23c-9.33301 -32 -16.5 -60.5 -21.5 -85.5s-7.5 -49.167 -7.5 -72.5c0 -45.333 3.33301 -80 10 -104h281c43.333 0 76.666 1.5 99.999 4.5
s40.166 8.16699 50.499 15.5s15.5 18.333 15.5 33v124l-132 14c-46 4.66699 -81.167 14.167 -105.5 28.5s-41 34.833 -50 61.5s-13.5 63.334 -13.5 110.001c0 54.667 6 96.5 18 125.5s33.833 49.833 65.5 62.5s78.167 19 139.5 19h512v-312h97zM901.502 599.499
c-12.333 9 -23.002 19.667 -32.002 32s-13.5 23.166 -13.5 32.499c0 10 4.33301 21.167 13 33.5s19.167 22.833 31.5 31.5s23.5 13 33.5 13s21.167 -4.33301 33.5 -13s22.833 -19.167 31.5 -31.5s13 -23.5 13 -33.5c0 -9.33301 -4.5 -20.166 -13.5 -32.499
s-19.667 -23 -32 -32s-23.166 -13.5 -32.499 -13.5s-20.166 4.5 -32.499 13.5zM1081.5 599.499c-12.333 9 -23.002 19.667 -32.002 32s-13.5 23.166 -13.5 32.499c0 10 4.33301 21.167 13 33.5s19.167 22.833 31.5 31.5s23.5 13 33.5 13s21.167 -4.33301 33.5 -13
s22.833 -19.167 31.5 -31.5s13 -23.5 13 -33.5c0 -9.33301 -4.5 -20.166 -13.5 -32.499s-19.667 -23 -32 -32s-23.166 -13.5 -32.499 -13.5s-20.166 4.5 -32.499 13.5zM990.498 791.499c-12.333 9 -23.002 19.667 -32.002 32s-13.5 23.166 -13.5 32.499
c0 10 4.33301 21.167 13 33.5s19.167 22.833 31.5 31.5s23.5 13 33.5 13s21.167 -4.33301 33.5 -13s22.833 -19.167 31.5 -31.5s13 -23.5 13 -33.5c0 -9.33301 -4.5 -20.166 -13.5 -32.499s-19.667 -23 -32 -32s-23.166 -13.5 -32.499 -13.5s-20.166 4.5 -32.499 13.5z" />
    <glyph glyph-name="uniFC7B" unicode="&#xfc7b;" horiz-adv-x="1171" arabic-form="final" 
d="M1191 158l0.00195312 -158.001h-238v312h-444v-94l133 -13c41.333 -4.66699 73.5 -13.667 96.5 -27s39.167 -32 48.5 -56s14 -55.667 14 -95v-78c0 -60.667 -10.833 -107.667 -32.5 -141s-59.167 -57.333 -112.5 -72s-130 -22 -230 -22
c-97.333 0 -171.833 6.83301 -223.5 20.5s-88 37 -109 70s-31.5 80.833 -31.5 143.5c0 75.333 11 145 33 209l137 -23c-9.33301 -32 -16.5 -60.5 -21.5 -85.5s-7.5 -49.167 -7.5 -72.5c0 -45.333 3.33301 -80 10 -104h281c43.333 0 76.666 1.5 99.999 4.5
s40.166 8.16699 50.499 15.5s15.5 18.333 15.5 33v124l-132 14c-46 4.66699 -81.167 14.167 -105.5 28.5s-41 34.833 -50 61.5s-13.5 63.334 -13.5 110.001c0 54.667 6 96.5 18 125.5s33.833 49.833 65.5 62.5s78.167 19 139.5 19h512v-312h97zM901.502 599.499
c-12.333 9 -23.002 19.667 -32.002 32s-13.5 23.166 -13.5 32.499c0 10 4.33301 21.167 13 33.5s19.167 22.833 31.5 31.5s23.5 13 33.5 13s21.167 -4.33301 33.5 -13s22.833 -19.167 31.5 -31.5s13 -23.5 13 -33.5c0 -9.33301 -4.5 -20.166 -13.5 -32.499
s-19.667 -23 -32 -32s-23.166 -13.5 -32.499 -13.5s-20.166 4.5 -32.499 13.5zM1081.5 599.499c-12.333 9 -23.002 19.667 -32.002 32s-13.5 23.166 -13.5 32.499c0 10 4.33301 21.167 13 33.5s19.167 22.833 31.5 31.5s23.5 13 33.5 13s21.167 -4.33301 33.5 -13
s22.833 -19.167 31.5 -31.5s13 -23.5 13 -33.5c0 -9.33301 -4.5 -20.166 -13.5 -32.499s-19.667 -23 -32 -32s-23.166 -13.5 -32.499 -13.5s-20.166 4.5 -32.499 13.5zM990.498 791.499c-12.333 9 -23.002 19.667 -32.002 32s-13.5 23.166 -13.5 32.499
c0 10 4.33301 21.167 13 33.5s19.167 22.833 31.5 31.5s23.5 13 33.5 13s21.167 -4.33301 33.5 -13s22.833 -19.167 31.5 -31.5s13 -23.5 13 -33.5c0 -9.33301 -4.5 -20.166 -13.5 -32.499s-19.667 -23 -32 -32s-23.166 -13.5 -32.499 -13.5s-20.166 4.5 -32.499 13.5z
M312.496 -471.501c-12.333 9 -23.002 19.667 -32.002 32s-13.5 23.166 -13.5 32.499c0 10 4.33301 21.167 13 33.5s19.167 22.833 31.5 31.5s23.5 13 33.5 13s21.167 -4.33301 33.5 -13s22.833 -19.167 31.5 -31.5s13 -23.5 13 -33.5c0 -9.33301 -4.5 -20.166 -13.5 -32.499
s-19.667 -23 -32 -32s-23.166 -13.5 -32.499 -13.5s-20.166 4.5 -32.499 13.5zM492.494 -471.501c-12.333 9 -23.002 19.667 -32.002 32s-13.5 23.166 -13.5 32.499c0 10 4.33301 21.167 13 33.5s19.167 22.833 31.5 31.5s23.5 13 33.5 13s21.167 -4.33301 33.5 -13
s22.833 -19.167 31.5 -31.5s13 -23.5 13 -33.5c0 -9.33301 -4.5 -20.166 -13.5 -32.499s-19.667 -23 -32 -32s-23.166 -13.5 -32.499 -13.5s-20.166 4.5 -32.499 13.5z" />
    <glyph glyph-name="uniFC8A" unicode="&#xfc8a;" horiz-adv-x="661" arabic-form="final" 
d="M681 158l0.000976562 -157.999h-238v312h-185v-291c0 -80 -14.167 -142.833 -42.5 -188.5s-76.166 -82.834 -143.499 -111.501l-52 126c27.333 11.333 47.666 23.666 60.999 36.999s22.666 30.333 27.999 51s8 49.334 8 86.001v449h467v-312h97zM479.501 599.501
c-12.333 9 -23.002 19.667 -32.002 32s-13.5 23.166 -13.5 32.499c0 10 4.33301 21.167 13 33.5s19.167 22.833 31.5 31.5s23.5 13 33.5 13s21.167 -4.33301 33.5 -13s22.833 -19.167 31.5 -31.5s13 -23.5 13 -33.5c0 -9.33301 -4.5 -20.166 -13.5 -32.499
s-19.667 -23 -32 -32s-23.166 -13.5 -32.499 -13.5s-20.166 4.5 -32.499 13.5z" />
    <glyph glyph-name="uniFC8B" unicode="&#xfc8b;" horiz-adv-x="661" arabic-form="final" 
d="M681 158l0.000976562 -157.999h-238v312h-185v-291c0 -80 -14.167 -142.833 -42.5 -188.5s-76.166 -82.834 -143.499 -111.501l-52 126c27.333 11.333 47.666 23.666 60.999 36.999s22.666 30.333 27.999 51s8 49.334 8 86.001v449h467v-312h97zM479.501 599.501
c-12.333 9 -23.002 19.667 -32.002 32s-13.5 23.166 -13.5 32.499c0 10 4.33301 21.167 13 33.5s19.167 22.833 31.5 31.5s23.5 13 33.5 13s21.167 -4.33301 33.5 -13s22.833 -19.167 31.5 -31.5s13 -23.5 13 -33.5c0 -9.33301 -4.5 -20.166 -13.5 -32.499
s-19.667 -23 -32 -32s-23.166 -13.5 -32.499 -13.5s-20.166 4.5 -32.499 13.5zM153.499 599.501c-12.333 9 -23.002 19.667 -32.002 32s-13.5 23.166 -13.5 32.499c0 10 4.33301 21.167 13 33.5s19.167 22.833 31.5 31.5s23.5 13 33.5 13s21.167 -4.33301 33.5 -13
s22.833 -19.167 31.5 -31.5s13 -23.5 13 -33.5c0 -9.33301 -4.5 -20.166 -13.5 -32.499s-19.667 -23 -32 -32s-23.166 -13.5 -32.499 -13.5s-20.166 4.5 -32.499 13.5z" />
    <glyph glyph-name="uniFC8D" unicode="&#xfc8d;" horiz-adv-x="1005" arabic-form="final" 
d="M299.5 600.5c-12.333 9 -23.002 19.667 -32.002 32s-13.5 23.166 -13.5 32.499c0 10 4.33301 21.167 13 33.5s19.167 22.833 31.5 31.5s23.5 13 33.5 13s21.167 -4.33301 33.5 -13s22.833 -19.167 31.5 -31.5s13 -23.5 13 -33.5c0 -9.33301 -4.5 -20.166 -13.5 -32.499
s-19.667 -23 -32 -32s-23.166 -13.5 -32.499 -13.5s-20.166 4.5 -32.499 13.5zM1025 158v-157.999h-238v312h-186v-314c0 -66 -7 -115.333 -21 -148s-40.167 -55.834 -78.5 -69.501s-96.5 -20.5 -174.5 -20.5c-72.667 0 -127.667 6.83301 -165 20.5s-63.333 37.667 -78 72
s-22 84.5 -22 150.5c0 88 11 169.333 33 244l133 -22c-16.667 -72 -25 -137 -25 -195c0 -49.333 3.33301 -86.333 10 -111h143c37.333 0 64 3.66699 80 11s24 21.333 24 42v498h468v-312h97zM825.498 599.501c-12.333 9 -23.002 19.667 -32.002 32
s-13.5 23.166 -13.5 32.499c0 10 4.33301 21.167 13 33.5s19.167 22.833 31.5 31.5s23.5 13 33.5 13s21.167 -4.33301 33.5 -13s22.833 -19.167 31.5 -31.5s13 -23.5 13 -33.5c0 -9.33301 -4.5 -20.166 -13.5 -32.499s-19.667 -23 -32 -32s-23.166 -13.5 -32.499 -13.5
s-20.166 4.5 -32.499 13.5z" />
    <glyph glyph-name="uniFC8E" unicode="&#xfc8e;" horiz-adv-x="1171" arabic-form="final" 
d="M1191 158l0.00195312 -158.001h-238v312h-444v-94l133 -13c41.333 -4.66699 73.5 -13.667 96.5 -27s39.167 -32 48.5 -56s14 -55.667 14 -95v-78c0 -60.667 -10.833 -107.667 -32.5 -141s-59.167 -57.333 -112.5 -72s-130 -22 -230 -22
c-97.333 0 -171.833 6.83301 -223.5 20.5s-88 37 -109 70s-31.5 80.833 -31.5 143.5c0 75.333 11 145 33 209l137 -23c-9.33301 -32 -16.5 -60.5 -21.5 -85.5s-7.5 -49.167 -7.5 -72.5c0 -45.333 3.33301 -80 10 -104h281c43.333 0 76.666 1.5 99.999 4.5
s40.166 8.16699 50.499 15.5s15.5 18.333 15.5 33v124l-132 14c-46 4.66699 -81.167 14.167 -105.5 28.5s-41 34.833 -50 61.5s-13.5 63.334 -13.5 110.001c0 54.667 6 96.5 18 125.5s33.833 49.833 65.5 62.5s78.167 19 139.5 19h512v-312h97zM991.502 599.499
c-12.333 9 -23.002 19.667 -32.002 32s-13.5 23.166 -13.5 32.499c0 10 4.33301 21.167 13 33.5s19.167 22.833 31.5 31.5s23.5 13 33.5 13s21.167 -4.33301 33.5 -13s22.833 -19.167 31.5 -31.5s13 -23.5 13 -33.5c0 -9.33301 -4.5 -20.166 -13.5 -32.499
s-19.667 -23 -32 -32s-23.166 -13.5 -32.499 -13.5s-20.166 4.5 -32.499 13.5z" />
    <glyph glyph-name="uniFC8F" unicode="&#xfc8f;" horiz-adv-x="1171" arabic-form="final" 
d="M1191 158l0.00195312 -158.001h-238v312h-444v-94l133 -13c41.333 -4.66699 73.5 -13.667 96.5 -27s39.167 -32 48.5 -56s14 -55.667 14 -95v-78c0 -60.667 -10.833 -107.667 -32.5 -141s-59.167 -57.333 -112.5 -72s-130 -22 -230 -22
c-97.333 0 -171.833 6.83301 -223.5 20.5s-88 37 -109 70s-31.5 80.833 -31.5 143.5c0 75.333 11 145 33 209l137 -23c-9.33301 -32 -16.5 -60.5 -21.5 -85.5s-7.5 -49.167 -7.5 -72.5c0 -45.333 3.33301 -80 10 -104h281c43.333 0 76.666 1.5 99.999 4.5
s40.166 8.16699 50.499 15.5s15.5 18.333 15.5 33v124l-132 14c-46 4.66699 -81.167 14.167 -105.5 28.5s-41 34.833 -50 61.5s-13.5 63.334 -13.5 110.001c0 54.667 6 96.5 18 125.5s33.833 49.833 65.5 62.5s78.167 19 139.5 19h512v-312h97zM991.502 599.499
c-12.333 9 -23.002 19.667 -32.002 32s-13.5 23.166 -13.5 32.499c0 10 4.33301 21.167 13 33.5s19.167 22.833 31.5 31.5s23.5 13 33.5 13s21.167 -4.33301 33.5 -13s22.833 -19.167 31.5 -31.5s13 -23.5 13 -33.5c0 -9.33301 -4.5 -20.166 -13.5 -32.499
s-19.667 -23 -32 -32s-23.166 -13.5 -32.499 -13.5s-20.166 4.5 -32.499 13.5zM312.5 -471.501c-12.333 9 -23.002 19.667 -32.002 32s-13.5 23.166 -13.5 32.499c0 10 4.33301 21.167 13 33.5s19.167 22.833 31.5 31.5s23.5 13 33.5 13s21.167 -4.33301 33.5 -13
s22.833 -19.167 31.5 -31.5s13 -23.5 13 -33.5c0 -9.33301 -4.5 -20.166 -13.5 -32.499s-19.667 -23 -32 -32s-23.166 -13.5 -32.499 -13.5s-20.166 4.5 -32.499 13.5zM492.498 -471.501c-12.333 9 -23.002 19.667 -32.002 32s-13.5 23.166 -13.5 32.499
c0 10 4.33301 21.167 13 33.5s19.167 22.833 31.5 31.5s23.5 13 33.5 13s21.167 -4.33301 33.5 -13s22.833 -19.167 31.5 -31.5s13 -23.5 13 -33.5c0 -9.33301 -4.5 -20.166 -13.5 -32.499s-19.667 -23 -32 -32s-23.166 -13.5 -32.499 -13.5s-20.166 4.5 -32.499 13.5z" />
    <glyph glyph-name="uniFC91" unicode="&#xfc91;" horiz-adv-x="661" arabic-form="final" 
d="M681 158l0.000976562 -157.999h-238v312h-185v-291c0 -80 -14.167 -142.833 -42.5 -188.5s-76.166 -82.834 -143.499 -111.501l-52 126c27.333 11.333 47.666 23.666 60.999 36.999s22.666 30.333 27.999 51s8 49.334 8 86.001v449h467v-312h97zM388.501 -221.499
c-12.333 9 -23.002 19.667 -32.002 32s-13.5 23.166 -13.5 32.499c0 10 4.33301 21.167 13 33.5s19.167 22.833 31.5 31.5s23.5 13 33.5 13s21.167 -4.33301 33.5 -13s22.833 -19.167 31.5 -31.5s13 -23.5 13 -33.5c0 -9.33301 -4.5 -20.166 -13.5 -32.499
s-19.667 -23 -32 -32s-23.166 -13.5 -32.499 -13.5s-20.166 4.5 -32.499 13.5zM568.499 -221.499c-12.333 9 -23.002 19.667 -32.002 32s-13.5 23.166 -13.5 32.499c0 10 4.33301 21.167 13 33.5s19.167 22.833 31.5 31.5s23.5 13 33.5 13s21.167 -4.33301 33.5 -13
s22.833 -19.167 31.5 -31.5s13 -23.5 13 -33.5c0 -9.33301 -4.5 -20.166 -13.5 -32.499s-19.667 -23 -32 -32s-23.166 -13.5 -32.499 -13.5s-20.166 4.5 -32.499 13.5z" />
    <glyph glyph-name="uniFC92" unicode="&#xfc92;" horiz-adv-x="661" arabic-form="final" 
d="M681 158l0.000976562 -157.999h-238v312h-185v-291c0 -80 -14.167 -142.833 -42.5 -188.5s-76.166 -82.834 -143.499 -111.501l-52 126c27.333 11.333 47.666 23.666 60.999 36.999s22.666 30.333 27.999 51s8 49.334 8 86.001v449h467v-312h97zM388.501 -221.499
c-12.333 9 -23.002 19.667 -32.002 32s-13.5 23.166 -13.5 32.499c0 10 4.33301 21.167 13 33.5s19.167 22.833 31.5 31.5s23.5 13 33.5 13s21.167 -4.33301 33.5 -13s22.833 -19.167 31.5 -31.5s13 -23.5 13 -33.5c0 -9.33301 -4.5 -20.166 -13.5 -32.499
s-19.667 -23 -32 -32s-23.166 -13.5 -32.499 -13.5s-20.166 4.5 -32.499 13.5zM568.499 -221.499c-12.333 9 -23.002 19.667 -32.002 32s-13.5 23.166 -13.5 32.499c0 10 4.33301 21.167 13 33.5s19.167 22.833 31.5 31.5s23.5 13 33.5 13s21.167 -4.33301 33.5 -13
s22.833 -19.167 31.5 -31.5s13 -23.5 13 -33.5c0 -9.33301 -4.5 -20.166 -13.5 -32.499s-19.667 -23 -32 -32s-23.166 -13.5 -32.499 -13.5s-20.166 4.5 -32.499 13.5zM153.497 599.501c-12.333 9 -23.002 19.667 -32.002 32s-13.5 23.166 -13.5 32.499
c0 10 4.33301 21.167 13 33.5s19.167 22.833 31.5 31.5s23.5 13 33.5 13s21.167 -4.33301 33.5 -13s22.833 -19.167 31.5 -31.5s13 -23.5 13 -33.5c0 -9.33301 -4.5 -20.166 -13.5 -32.499s-19.667 -23 -32 -32s-23.166 -13.5 -32.499 -13.5s-20.166 4.5 -32.499 13.5z" />
    <glyph glyph-name="uniFC94" unicode="&#xfc94;" horiz-adv-x="1005" arabic-form="final" 
d="M299.5 600.5c-12.333 9 -23.002 19.667 -32.002 32s-13.5 23.166 -13.5 32.499c0 10 4.33301 21.167 13 33.5s19.167 22.833 31.5 31.5s23.5 13 33.5 13s21.167 -4.33301 33.5 -13s22.833 -19.167 31.5 -31.5s13 -23.5 13 -33.5c0 -9.33301 -4.5 -20.166 -13.5 -32.499
s-19.667 -23 -32 -32s-23.166 -13.5 -32.499 -13.5s-20.166 4.5 -32.499 13.5zM1025 158v-157.999h-238v312h-186v-314c0 -66 -7 -115.333 -21 -148s-40.167 -55.834 -78.5 -69.501s-96.5 -20.5 -174.5 -20.5c-72.667 0 -127.667 6.83301 -165 20.5s-63.333 37.667 -78 72
s-22 84.5 -22 150.5c0 88 11 169.333 33 244l133 -22c-16.667 -72 -25 -137 -25 -195c0 -49.333 3.33301 -86.333 10 -111h143c37.333 0 64 3.66699 80 11s24 21.333 24 42v498h468v-312h97zM734.498 -221.499c-12.333 9 -23.002 19.667 -32.002 32
s-13.5 23.166 -13.5 32.499c0 10 4.33301 21.167 13 33.5s19.167 22.833 31.5 31.5s23.5 13 33.5 13s21.167 -4.33301 33.5 -13s22.833 -19.167 31.5 -31.5s13 -23.5 13 -33.5c0 -9.33301 -4.5 -20.166 -13.5 -32.499s-19.667 -23 -32 -32s-23.166 -13.5 -32.499 -13.5
s-20.166 4.5 -32.499 13.5zM914.496 -221.499c-12.333 9 -23.002 19.667 -32.002 32s-13.5 23.166 -13.5 32.499c0 10 4.33301 21.167 13 33.5s19.167 22.833 31.5 31.5s23.5 13 33.5 13s21.167 -4.33301 33.5 -13s22.833 -19.167 31.5 -31.5s13 -23.5 13 -33.5
c0 -9.33301 -4.5 -20.166 -13.5 -32.499s-19.667 -23 -32 -32s-23.166 -13.5 -32.499 -13.5s-20.166 4.5 -32.499 13.5z" />
    <glyph glyph-name="uniFCFB" unicode="&#xfcfb;" horiz-adv-x="1849" arabic-form="isolated" 
d="M1778 266c0 -68.667 -8.83105 -122.333 -26.498 -161s-44.167 -65.834 -79.5 -81.501s-82 -23.5 -140 -23.5c-40.667 0 -74.5 2.33301 -101.5 7s-49.5 12.334 -67.5 23.001c-19.333 -10.667 -43.833 -18.334 -73.5 -23.001s-67.5 -7 -113.5 -7h-223v312h-444v-94l133 -13
c41.333 -4.66699 73.5 -13.667 96.5 -27s39.167 -32 48.5 -56s14 -55.667 14 -95v-78c0 -60.667 -10.833 -107.667 -32.5 -141s-59.167 -57.333 -112.5 -72s-130 -22 -230 -22c-97.333 0 -171.833 6.83301 -223.5 20.5s-88 37 -109 70s-31.5 80.833 -31.5 143.5
c0 75.333 11 145 33 209l137 -23c-9.33301 -32 -16.5 -60.5 -21.5 -85.5s-7.5 -49.167 -7.5 -72.5c0 -45.333 3.33301 -80 10 -104h281c43.333 0 76.666 1.5 99.999 4.5s40.166 8.16699 50.499 15.5s15.5 18.333 15.5 33v124l-132 14
c-46 4.66699 -81.167 14.167 -105.5 28.5s-41 34.833 -50 61.5s-13.5 63.334 -13.5 110.001c0 54.667 6 96.5 18 125.5s33.833 49.833 65.5 62.5s78.167 19 139.5 19h512v-312h126c26 0 45 3.66699 57 11s18 21.333 18 42v169h141v-169c0 -20.667 6 -34.667 18 -42
s31 -11 57 -11h116c6.66699 22.667 10 56 10 100c0 50.667 -9.66699 114 -29 190l140 22c20 -59.333 30 -127.333 30 -204z" />
    <glyph glyph-name="uniFCFC" unicode="&#xfcfc;" horiz-adv-x="1849" arabic-form="isolated" 
d="M1778 266c0 -68.667 -8.83105 -122.333 -26.498 -161s-44.167 -65.834 -79.5 -81.501s-82 -23.5 -140 -23.5c-40.667 0 -74.5 2.33301 -101.5 7s-49.5 12.334 -67.5 23.001c-19.333 -10.667 -43.833 -18.334 -73.5 -23.001s-67.5 -7 -113.5 -7h-223v312h-444v-94l133 -13
c41.333 -4.66699 73.5 -13.667 96.5 -27s39.167 -32 48.5 -56s14 -55.667 14 -95v-78c0 -60.667 -10.833 -107.667 -32.5 -141s-59.167 -57.333 -112.5 -72s-130 -22 -230 -22c-97.333 0 -171.833 6.83301 -223.5 20.5s-88 37 -109 70s-31.5 80.833 -31.5 143.5
c0 75.333 11 145 33 209l137 -23c-9.33301 -32 -16.5 -60.5 -21.5 -85.5s-7.5 -49.167 -7.5 -72.5c0 -45.333 3.33301 -80 10 -104h281c43.333 0 76.666 1.5 99.999 4.5s40.166 8.16699 50.499 15.5s15.5 18.333 15.5 33v124l-132 14
c-46 4.66699 -81.167 14.167 -105.5 28.5s-41 34.833 -50 61.5s-13.5 63.334 -13.5 110.001c0 54.667 6 96.5 18 125.5s33.833 49.833 65.5 62.5s78.167 19 139.5 19h512v-312h126c26 0 45 3.66699 57 11s18 21.333 18 42v169h141v-169c0 -20.667 6 -34.667 18 -42
s31 -11 57 -11h116c6.66699 22.667 10 56 10 100c0 50.667 -9.66699 114 -29 190l140 22c20 -59.333 30 -127.333 30 -204zM312.502 -471.499c-12.333 9 -23.002 19.667 -32.002 32s-13.5 23.166 -13.5 32.499c0 10 4.33301 21.167 13 33.5s19.167 22.833 31.5 31.5
s23.5 13 33.5 13s21.167 -4.33301 33.5 -13s22.833 -19.167 31.5 -31.5s13 -23.5 13 -33.5c0 -9.33301 -4.5 -20.166 -13.5 -32.499s-19.667 -23 -32 -32s-23.166 -13.5 -32.499 -13.5s-20.166 4.5 -32.499 13.5zM492.5 -471.499c-12.333 9 -23.002 19.667 -32.002 32
s-13.5 23.166 -13.5 32.499c0 10 4.33301 21.167 13 33.5s19.167 22.833 31.5 31.5s23.5 13 33.5 13s21.167 -4.33301 33.5 -13s22.833 -19.167 31.5 -31.5s13 -23.5 13 -33.5c0 -9.33301 -4.5 -20.166 -13.5 -32.499s-19.667 -23 -32 -32s-23.166 -13.5 -32.499 -13.5
s-20.166 4.5 -32.499 13.5z" />
    <glyph glyph-name="uniFD0D" unicode="&#xfd0d;" horiz-adv-x="1338" arabic-form="isolated" 
d="M1268 266c0 -68.667 -8.83203 -122.331 -26.499 -160.998s-44.167 -65.834 -79.5 -81.501s-82 -23.5 -140 -23.5c-40.667 0 -74.5 2.33301 -101.5 7s-49.5 12.334 -67.5 23.001c-19.333 -10.667 -43.833 -18.334 -73.5 -23.001s-67.5 -7 -113.5 -7h-223v312h-185v-291
c0 -80 -14.167 -142.833 -42.5 -188.5s-76.166 -82.834 -143.499 -111.501l-52 126c27.333 11.333 47.666 23.666 60.999 36.999s22.666 30.333 27.999 51s8 49.334 8 86.001v449h467v-312h126c26 0 45 3.66699 57 11s18 21.333 18 42v169h141v-169
c0 -20.667 6 -34.667 18 -42s31 -11 57 -11h116c6.66699 22.667 10 56 10 100c0 50.667 -9.66699 114 -29 190l140 22c20 -59.333 30 -127.333 30 -204zM733.501 599.503c-12.333 9 -23.002 19.667 -32.002 32s-13.5 23.166 -13.5 32.499c0 10 4.33301 21.167 13 33.5
s19.167 22.833 31.5 31.5s23.5 13 33.5 13s21.167 -4.33301 33.5 -13s22.833 -19.167 31.5 -31.5s13 -23.5 13 -33.5c0 -9.33301 -4.5 -20.166 -13.5 -32.499s-19.667 -23 -32 -32s-23.166 -13.5 -32.499 -13.5s-20.166 4.5 -32.499 13.5zM913.499 599.503
c-12.333 9 -23.002 19.667 -32.002 32s-13.5 23.166 -13.5 32.499c0 10 4.33301 21.167 13 33.5s19.167 22.833 31.5 31.5s23.5 13 33.5 13s21.167 -4.33301 33.5 -13s22.833 -19.167 31.5 -31.5s13 -23.5 13 -33.5c0 -9.33301 -4.5 -20.166 -13.5 -32.499
s-19.667 -23 -32 -32s-23.166 -13.5 -32.499 -13.5s-20.166 4.5 -32.499 13.5zM822.497 791.503c-12.333 9 -23.002 19.667 -32.002 32s-13.5 23.166 -13.5 32.499c0 10 4.33301 21.167 13 33.5s19.167 22.833 31.5 31.5s23.5 13 33.5 13s21.167 -4.33301 33.5 -13
s22.833 -19.167 31.5 -31.5s13 -23.5 13 -33.5c0 -9.33301 -4.5 -20.166 -13.5 -32.499s-19.667 -23 -32 -32s-23.166 -13.5 -32.499 -13.5s-20.166 4.5 -32.499 13.5z" />
    <glyph glyph-name="uniFD0E" unicode="&#xfd0e;" horiz-adv-x="1338" arabic-form="isolated" 
d="M1268 266c0 -68.667 -8.83203 -122.331 -26.499 -160.998s-44.167 -65.834 -79.5 -81.501s-82 -23.5 -140 -23.5c-40.667 0 -74.5 2.33301 -101.5 7s-49.5 12.334 -67.5 23.001c-19.333 -10.667 -43.833 -18.334 -73.5 -23.001s-67.5 -7 -113.5 -7h-223v312h-185v-291
c0 -80 -14.167 -142.833 -42.5 -188.5s-76.166 -82.834 -143.499 -111.501l-52 126c27.333 11.333 47.666 23.666 60.999 36.999s22.666 30.333 27.999 51s8 49.334 8 86.001v449h467v-312h126c26 0 45 3.66699 57 11s18 21.333 18 42v169h141v-169
c0 -20.667 6 -34.667 18 -42s31 -11 57 -11h116c6.66699 22.667 10 56 10 100c0 50.667 -9.66699 114 -29 190l140 22c20 -59.333 30 -127.333 30 -204z" />
    <glyph glyph-name="uniFD0F" unicode="&#xfd0f;" horiz-adv-x="1152" arabic-form="isolated" 
d="M997 463.5c28.667 -10.333 49.001 -27.8311 61.001 -52.498s18 -59.667 18 -105v-307h-633v312h-185v-290c0 -80.667 -14.167 -143.834 -42.5 -189.501s-76.166 -82.834 -143.499 -111.501l-52 127c27.333 12 47.666 24.333 60.999 37s22.666 29.334 27.999 50.001
s8 49.667 8 87v448h467v-140c20 45.333 56.667 81.666 110 108.999s114 41 182 41c52 0 92.333 -5.16699 121 -15.5zM935.001 158.002v152c-23.333 7.33301 -63 11 -119 11c-67.333 0 -120 -13.667 -158 -41s-61.333 -68 -70 -122h347z" />
    <glyph glyph-name="uniFD10" unicode="&#xfd10;" horiz-adv-x="1152" arabic-form="isolated" 
d="M997 463.5c28.667 -10.333 49.001 -27.8311 61.001 -52.498s18 -59.667 18 -105v-307h-633v312h-185v-290c0 -80.667 -14.167 -143.834 -42.5 -189.501s-76.166 -82.834 -143.499 -111.501l-52 127c27.333 12 47.666 24.333 60.999 37s22.666 29.334 27.999 50.001
s8 49.667 8 87v448h467v-140c20 45.333 56.667 81.666 110 108.999s114 41 182 41c52 0 92.333 -5.16699 121 -15.5zM935.001 158.002v152c-23.333 7.33301 -63 11 -119 11c-67.333 0 -120 -13.667 -158 -41s-61.333 -68 -70 -122h347zM770.501 599.502
c-12.333 9 -23.002 19.667 -32.002 32s-13.5 23.166 -13.5 32.499c0 10 4.33301 21.167 13 33.5s19.167 22.833 31.5 31.5s23.5 13 33.5 13s21.167 -4.33301 33.5 -13s22.833 -19.167 31.5 -31.5s13 -23.5 13 -33.5c0 -9.33301 -4.5 -20.166 -13.5 -32.499
s-19.667 -23 -32 -32s-23.166 -13.5 -32.499 -13.5s-20.166 4.5 -32.499 13.5z" />
    <glyph glyph-name="uniFD17" unicode="&#xfd17;" horiz-adv-x="1855" arabic-form="final" 
d="M1875 158l0.00195312 -158.001h-343c-40.667 0 -74.5 2.33301 -101.5 7s-49.5 12.334 -67.5 23.001c-19.333 -10.667 -43.833 -18.334 -73.5 -23.001s-67.5 -7 -113.5 -7h-223v312h-444v-94l133 -13c41.333 -4.66699 73.5 -13.667 96.5 -27s39.167 -32 48.5 -56
s14 -55.667 14 -95v-78c0 -60.667 -10.833 -107.667 -32.5 -141s-59.167 -57.333 -112.5 -72s-130 -22 -230 -22c-97.333 0 -171.833 6.83301 -223.5 20.5s-88 37 -109 70s-31.5 80.833 -31.5 143.5c0 75.333 11 145 33 209l137 -23c-9.33301 -32 -16.5 -60.5 -21.5 -85.5
s-7.5 -49.167 -7.5 -72.5c0 -45.333 3.33301 -80 10 -104h281c43.333 0 76.666 1.5 99.999 4.5s40.166 8.16699 50.499 15.5s15.5 18.333 15.5 33v124l-132 14c-46 4.66699 -81.167 14.167 -105.5 28.5s-41 34.833 -50 61.5s-13.5 63.334 -13.5 110.001
c0 54.667 6 96.5 18 125.5s33.833 49.833 65.5 62.5s78.167 19 139.5 19h512v-312h126c26 0 45 3.66699 57 11s18 21.333 18 42v169h141v-169c0 -20.667 6 -34.667 18 -42s31 -11 57 -11h116c6.66699 22.667 10 56 10 100c0 50.667 -9.66699 114 -29 190l140 22
c20 -59.333 30 -127.333 30 -204c0 -43.333 -3.33301 -79.333 -10 -108h107z" />
    <glyph glyph-name="uniFD18" unicode="&#xfd18;" horiz-adv-x="1855" arabic-form="final" 
d="M1875 158l0.00195312 -158.001h-343c-40.667 0 -74.5 2.33301 -101.5 7s-49.5 12.334 -67.5 23.001c-19.333 -10.667 -43.833 -18.334 -73.5 -23.001s-67.5 -7 -113.5 -7h-223v312h-444v-94l133 -13c41.333 -4.66699 73.5 -13.667 96.5 -27s39.167 -32 48.5 -56
s14 -55.667 14 -95v-78c0 -60.667 -10.833 -107.667 -32.5 -141s-59.167 -57.333 -112.5 -72s-130 -22 -230 -22c-97.333 0 -171.833 6.83301 -223.5 20.5s-88 37 -109 70s-31.5 80.833 -31.5 143.5c0 75.333 11 145 33 209l137 -23c-9.33301 -32 -16.5 -60.5 -21.5 -85.5
s-7.5 -49.167 -7.5 -72.5c0 -45.333 3.33301 -80 10 -104h281c43.333 0 76.666 1.5 99.999 4.5s40.166 8.16699 50.499 15.5s15.5 18.333 15.5 33v124l-132 14c-46 4.66699 -81.167 14.167 -105.5 28.5s-41 34.833 -50 61.5s-13.5 63.334 -13.5 110.001
c0 54.667 6 96.5 18 125.5s33.833 49.833 65.5 62.5s78.167 19 139.5 19h512v-312h126c26 0 45 3.66699 57 11s18 21.333 18 42v169h141v-169c0 -20.667 6 -34.667 18 -42s31 -11 57 -11h116c6.66699 22.667 10 56 10 100c0 50.667 -9.66699 114 -29 190l140 22
c20 -59.333 30 -127.333 30 -204c0 -43.333 -3.33301 -79.333 -10 -108h107zM312.502 -471.501c-12.333 9 -23.002 19.667 -32.002 32s-13.5 23.166 -13.5 32.499c0 10 4.33301 21.167 13 33.5s19.167 22.833 31.5 31.5s23.5 13 33.5 13s21.167 -4.33301 33.5 -13
s22.833 -19.167 31.5 -31.5s13 -23.5 13 -33.5c0 -9.33301 -4.5 -20.166 -13.5 -32.499s-19.667 -23 -32 -32s-23.166 -13.5 -32.499 -13.5s-20.166 4.5 -32.499 13.5zM492.5 -471.501c-12.333 9 -23.002 19.667 -32.002 32s-13.5 23.166 -13.5 32.499
c0 10 4.33301 21.167 13 33.5s19.167 22.833 31.5 31.5s23.5 13 33.5 13s21.167 -4.33301 33.5 -13s22.833 -19.167 31.5 -31.5s13 -23.5 13 -33.5c0 -9.33301 -4.5 -20.166 -13.5 -32.499s-19.667 -23 -32 -32s-23.166 -13.5 -32.499 -13.5s-20.166 4.5 -32.499 13.5z" />
    <glyph glyph-name="uniFD29" unicode="&#xfd29;" horiz-adv-x="1344" arabic-form="final" 
d="M1365 158l0.000976562 -157.999h-343c-40.667 0 -74.5 2.33301 -101.5 7s-49.5 12.334 -67.5 23.001c-19.333 -10.667 -43.833 -18.334 -73.5 -23.001s-67.5 -7 -113.5 -7h-223v312h-185v-291c0 -80 -14.167 -142.833 -42.5 -188.5s-76.166 -82.834 -143.499 -111.501
l-52 126c27.333 11.333 47.666 23.666 60.999 36.999s22.666 30.333 27.999 51s8 49.334 8 86.001v449h467v-312h126c26 0 45 3.66699 57 11s18 21.333 18 42v169h141v-169c0 -20.667 6 -34.667 18 -42s31 -11 57 -11h116c6.66699 22.667 10 56 10 100
c0 50.667 -9.66699 114 -29 190l140 22c20 -59.333 30 -127.333 30 -204c0 -43.333 -3.33301 -79.333 -10 -108h107zM733.501 599.501c-12.333 9 -23.002 19.667 -32.002 32s-13.5 23.166 -13.5 32.499c0 10 4.33301 21.167 13 33.5s19.167 22.833 31.5 31.5
s23.5 13 33.5 13s21.167 -4.33301 33.5 -13s22.833 -19.167 31.5 -31.5s13 -23.5 13 -33.5c0 -9.33301 -4.5 -20.166 -13.5 -32.499s-19.667 -23 -32 -32s-23.166 -13.5 -32.499 -13.5s-20.166 4.5 -32.499 13.5zM913.499 599.501c-12.333 9 -23.002 19.667 -32.002 32
s-13.5 23.166 -13.5 32.499c0 10 4.33301 21.167 13 33.5s19.167 22.833 31.5 31.5s23.5 13 33.5 13s21.167 -4.33301 33.5 -13s22.833 -19.167 31.5 -31.5s13 -23.5 13 -33.5c0 -9.33301 -4.5 -20.166 -13.5 -32.499s-19.667 -23 -32 -32s-23.166 -13.5 -32.499 -13.5
s-20.166 4.5 -32.499 13.5zM822.497 791.501c-12.333 9 -23.002 19.667 -32.002 32s-13.5 23.166 -13.5 32.499c0 10 4.33301 21.167 13 33.5s19.167 22.833 31.5 31.5s23.5 13 33.5 13s21.167 -4.33301 33.5 -13s22.833 -19.167 31.5 -31.5s13 -23.5 13 -33.5
c0 -9.33301 -4.5 -20.166 -13.5 -32.499s-19.667 -23 -32 -32s-23.166 -13.5 -32.499 -13.5s-20.166 4.5 -32.499 13.5z" />
    <glyph glyph-name="uniFD2A" unicode="&#xfd2a;" horiz-adv-x="1344" arabic-form="final" 
d="M1365 158l0.000976562 -157.999h-343c-40.667 0 -74.5 2.33301 -101.5 7s-49.5 12.334 -67.5 23.001c-19.333 -10.667 -43.833 -18.334 -73.5 -23.001s-67.5 -7 -113.5 -7h-223v312h-185v-291c0 -80 -14.167 -142.833 -42.5 -188.5s-76.166 -82.834 -143.499 -111.501
l-52 126c27.333 11.333 47.666 23.666 60.999 36.999s22.666 30.333 27.999 51s8 49.334 8 86.001v449h467v-312h126c26 0 45 3.66699 57 11s18 21.333 18 42v169h141v-169c0 -20.667 6 -34.667 18 -42s31 -11 57 -11h116c6.66699 22.667 10 56 10 100
c0 50.667 -9.66699 114 -29 190l140 22c20 -59.333 30 -127.333 30 -204c0 -43.333 -3.33301 -79.333 -10 -108h107z" />
    <glyph glyph-name="uniFD2B" unicode="&#xfd2b;" horiz-adv-x="1153" arabic-form="final" 
d="M1173 158l0.000976562 -157.998h-97v-1h-633v312h-185v-290c0 -80.667 -14.167 -143.834 -42.5 -189.501s-76.166 -82.834 -143.499 -111.501l-52 127c27.333 12 47.666 24.333 60.999 37s22.666 29.334 27.999 50.001s8 49.667 8 87v448h467v-140
c20 45.333 56.667 81.666 110 108.999s114 41 182 41c52 0 92.333 -5.16699 121 -15.5s49 -27.833 61 -52.5s18 -59.667 18 -105v-148h97zM935.001 158.002v152c-23.333 7.33301 -63 11 -119 11c-67.333 0 -120 -13.667 -158 -41s-61.333 -68 -70 -122h347z" />
    <glyph glyph-name="uniFD2C" unicode="&#xfd2c;" horiz-adv-x="1153" arabic-form="final" 
d="M1173 158l0.000976562 -157.998h-97v-1h-633v312h-185v-290c0 -80.667 -14.167 -143.834 -42.5 -189.501s-76.166 -82.834 -143.499 -111.501l-52 127c27.333 12 47.666 24.333 60.999 37s22.666 29.334 27.999 50.001s8 49.667 8 87v448h467v-140
c20 45.333 56.667 81.666 110 108.999s114 41 182 41c52 0 92.333 -5.16699 121 -15.5s49 -27.833 61 -52.5s18 -59.667 18 -105v-148h97zM935.001 158.002v152c-23.333 7.33301 -63 11 -119 11c-67.333 0 -120 -13.667 -158 -41s-61.333 -68 -70 -122h347zM785.501 599.502
c-12.333 9 -23.002 19.667 -32.002 32s-13.5 23.166 -13.5 32.499c0 10 4.33301 21.167 13 33.5s19.167 22.833 31.5 31.5s23.5 13 33.5 13s21.167 -4.33301 33.5 -13s22.833 -19.167 31.5 -31.5s13 -23.5 13 -33.5c0 -9.33301 -4.5 -20.166 -13.5 -32.499
s-19.667 -23 -32 -32s-23.166 -13.5 -32.499 -13.5s-20.166 4.5 -32.499 13.5z" />
    <glyph glyph-name="uniFE82" unicode="&#x622;" horiz-adv-x="295" arabic-form="final" 
d="M77 470h141v-312h97v-158h-238v470zM131 613.5c-8.66699 5.66699 -19.999 16.502 -33.999 32.502l-67 -31l-23 40c39.333 31.333 68 52.166 86 62.499s32.333 15.5 43 15.5s20.167 -2.83301 28.5 -8.5s19.5 -16.834 33.5 -33.501l67 31l23 -40
c-38 -30.667 -66 -51.167 -84 -61.5s-32.667 -15.5 -44 -15.5c-10.667 0 -20.334 2.83301 -29.001 8.5z" />
    <glyph glyph-name="uniFE84" unicode="&#x623;" horiz-adv-x="295" arabic-form="final" 
d="M77 470h141v-312h97v-158h-238v470zM265 705v-67l-234 -62v65l38 11c-5.33301 16 -8 34 -8 54c0 49.333 15 85 45 107s73.667 35.333 131 40v-76c-34 -4 -63.333 -11 -88 -21l-1 -53c0 -15.333 6.33301 -23 19 -23c4.66699 0 10.667 1 18 3z" />
    <glyph glyph-name="uniFE86" unicode="&#x624;" horiz-adv-x="626" arabic-form="final" 
d="M647 0h-137.001c-18 -51.333 -43.5 -101.166 -76.5 -149.499s-71.167 -91.5 -114.5 -129.5l-94 104c56.667 48.667 101.334 107 134.001 175h-99c-48.667 0 -87.667 8.33301 -117 25s-50.833 43 -64.5 79s-20.5 84 -20.5 144c0 57.333 8.33301 103.166 25 137.499
s43.167 59.333 79.5 75s84.166 23.5 143.499 23.5c49.333 0 91.833 -2.83301 127.5 -8.5s70.834 -15.5 105.501 -29.5v-288h108v-158zM356.999 158c15.333 0 26 3.00098 32 9.00098s9 16.667 9 32v126h-134c-21.333 0 -36 -2.83301 -44 -8.5s-12 -16.834 -12 -33.501v-125
h149zM422.999 705.001v-67l-234 -62v65l38 11c-5.33301 16 -8 34 -8 54c0 49.333 15 85 45 107s73.667 35.333 131 40v-76c-34 -4 -63.333 -11 -88 -21l-1 -53c0 -15.333 6.33301 -23 19 -23c4.66699 0 10.667 1 18 3z" />
    <glyph glyph-name="uniFE88" unicode="&#x625;" horiz-adv-x="295" arabic-form="final" 
d="M77 630h141v-472h97v-158h-238v630zM265 -224v-67l-234 -62v65l38 11c-5.33301 16 -8 34 -8 54c0 49.333 15 85 45 107s73.667 35.333 131 40v-76c-34 -4 -63.333 -11 -88 -21l-1 -53c0 -15.333 6.33301 -23 19 -23c5.33301 0 11.333 1 18 3z" />
    <glyph glyph-name="uniFE8A" unicode="&#x626;" horiz-adv-x="878" arabic-form="final" 
d="M899 158l0.00195312 -158.001h-98v-51c0 -60.667 -10.833 -107.667 -32.5 -141s-59.167 -57.333 -112.5 -72s-130 -22 -230 -22c-97.333 0 -171.833 6.83301 -223.5 20.5s-88 37 -109 70s-31.5 80.833 -31.5 143.5c0 75.333 11 145 33 209l137 -23
c-9.33301 -32 -16.5 -60.5 -21.5 -85.5s-7.5 -49.167 -7.5 -72.5c0 -45.333 3.33301 -80 10 -104h281c43.333 0 76.666 1.5 99.999 4.5s40.166 8.16699 50.499 15.5s15.5 18.333 15.5 33v75h-11c-38 0 -77.333 2.83301 -118 8.5s-78.667 13.834 -114 24.501l21 151
c68 -17.333 126.667 -26 176 -26h285zM299.002 394.999v-67l-234 -62v65l38 11c-5.33301 16 -8 34 -8 54c0 49.333 15 85 45 107s73.667 35.333 131 40v-76c-34 -4 -63.333 -11 -88 -21l-1 -53c0 -15.333 6.33301 -23 19 -23c4.66699 0 10.667 1 18 3z" />
    <glyph glyph-name="uniFE8B" unicode="&#x626;" horiz-adv-x="350" arabic-form="initial" 
d="M-20 158h152v312h141v-470h-293v158zM320 705v-67l-234 -62v65l38 11c-5.33301 16 -8 34 -8 54c0 49.333 15 85 45 107s73.667 35.333 131 40v-76c-34 -4 -63.333 -11 -88 -21l-1 -53c0 -15.333 6.33301 -23 19 -23c4.66699 0 10.667 1 18 3z" />
    <glyph glyph-name="uniFE8C" unicode="&#x626;" horiz-adv-x="350" arabic-form="medial" 
d="M370 158v-158h-390v158h152v312h141v-312h97zM320 705v-67l-234 -62v65l38 11c-5.33301 16 -8 34 -8 54c0 49.333 15 85 45 107s73.667 35.333 131 40v-76c-34 -4 -63.333 -11 -88 -21l-1 -53c0 -15.333 6.33301 -23 19 -23c4.66699 0 10.667 1 18 3z" />
    <glyph glyph-name="uniFE8E" unicode="&#x627;" horiz-adv-x="295" arabic-form="final" 
d="M77 630h141v-472h97v-158h-238v630z" />
    <glyph glyph-name="uniFE90" unicode="&#x628;" horiz-adv-x="914" arabic-form="final" 
d="M935 158v-158.001h-710c-59.333 0 -102.5 17.333 -129.5 52s-40.5 90.334 -40.5 167.001c0 70.667 10.333 135.667 31 195l135 -21c-16.667 -48.667 -25 -93 -25 -133c0 -44 4.66699 -78 14 -102h487v312h140v-312h98zM421.5 -223.501
c-12.333 9 -23.002 19.667 -32.002 32s-13.5 23.166 -13.5 32.499c0 10 4.33301 21.167 13 33.5s19.167 22.833 31.5 31.5s23.5 13 33.5 13s21.167 -4.33301 33.5 -13s22.833 -19.167 31.5 -31.5s13 -23.5 13 -33.5c0 -9.33301 -4.5 -20.166 -13.5 -32.499
s-19.667 -23 -32 -32s-23.166 -13.5 -32.499 -13.5s-20.166 4.5 -32.499 13.5z" />
    <glyph glyph-name="uniFE91" unicode="&#x628;" horiz-adv-x="350" arabic-form="initial" 
d="M-20 158h152v312h141v-470h-293v158zM170.5 -221.5c-12.333 9 -23.002 19.667 -32.002 32s-13.5 23.166 -13.5 32.499c0 10 4.33301 21.167 13 33.5s19.167 22.833 31.5 31.5s23.5 13 33.5 13s21.167 -4.33301 33.5 -13s22.833 -19.167 31.5 -31.5s13 -23.5 13 -33.5
c0 -9.33301 -4.5 -20.166 -13.5 -32.499s-19.667 -23 -32 -32s-23.166 -13.5 -32.499 -13.5s-20.166 4.5 -32.499 13.5z" />
    <glyph glyph-name="uniFE92" unicode="&#x628;" horiz-adv-x="350" arabic-form="medial" 
d="M370 158v-158h-390v158h152v312h141v-312h97zM170.5 -221.5c-12.333 9 -23.002 19.667 -32.002 32s-13.5 23.166 -13.5 32.499c0 10 4.33301 21.167 13 33.5s19.167 22.833 31.5 31.5s23.5 13 33.5 13s21.167 -4.33301 33.5 -13s22.833 -19.167 31.5 -31.5
s13 -23.5 13 -33.5c0 -9.33301 -4.5 -20.166 -13.5 -32.499s-19.667 -23 -32 -32s-23.166 -13.5 -32.499 -13.5s-20.166 4.5 -32.499 13.5z" />
    <glyph glyph-name="uniFE94" unicode="&#x629;" horiz-adv-x="639" arabic-form="final" 
d="M659 158v-158.002h-360c-65.333 0 -114.166 6.33301 -146.499 19s-54.833 35.334 -67.5 68.001s-19 82 -19 148s6.33301 115.333 19 148s35.167 55.334 67.5 68.001s81.166 19 146.499 19h263v-312h97zM422 311.998h-163c-28.667 0 -43 -12.333 -43 -37v-80
c0 -24.667 14.333 -37 43 -37h163v154zM213.5 599.498c-12.333 9 -23.002 19.667 -32.002 32s-13.5 23.166 -13.5 32.499c0 10 4.33301 21.167 13 33.5s19.167 22.833 31.5 31.5s23.5 13 33.5 13s21.167 -4.33301 33.5 -13s22.833 -19.167 31.5 -31.5s13 -23.5 13 -33.5
c0 -9.33301 -4.5 -20.166 -13.5 -32.499s-19.667 -23 -32 -32s-23.166 -13.5 -32.499 -13.5s-20.166 4.5 -32.499 13.5zM393.498 599.498c-12.333 9 -23.002 19.667 -32.002 32s-13.5 23.166 -13.5 32.499c0 10 4.33301 21.167 13 33.5s19.167 22.833 31.5 31.5
s23.5 13 33.5 13s21.167 -4.33301 33.5 -13s22.833 -19.167 31.5 -31.5s13 -23.5 13 -33.5c0 -9.33301 -4.5 -20.166 -13.5 -32.499s-19.667 -23 -32 -32s-23.166 -13.5 -32.499 -13.5s-20.166 4.5 -32.499 13.5z" />
    <glyph glyph-name="uniFE96" unicode="&#x62a;" horiz-adv-x="914" arabic-form="final" 
d="M935 158v-158.001h-710c-59.333 0 -102.5 17.333 -129.5 52s-40.5 90.334 -40.5 167.001c0 70.667 10.333 135.667 31 195l135 -21c-16.667 -48.667 -25 -93 -25 -133c0 -44 4.66699 -78 14 -102h487v312h140v-312h98zM332.5 499.499
c-12.333 9 -23.002 19.667 -32.002 32s-13.5 23.166 -13.5 32.499c0 10 4.33301 21.167 13 33.5s19.167 22.833 31.5 31.5s23.5 13 33.5 13s21.167 -4.33301 33.5 -13s22.833 -19.167 31.5 -31.5s13 -23.5 13 -33.5c0 -9.33301 -4.5 -20.166 -13.5 -32.499
s-19.667 -23 -32 -32s-23.166 -13.5 -32.499 -13.5s-20.166 4.5 -32.499 13.5zM512.498 499.499c-12.333 9 -23.002 19.667 -32.002 32s-13.5 23.166 -13.5 32.499c0 10 4.33301 21.167 13 33.5s19.167 22.833 31.5 31.5s23.5 13 33.5 13s21.167 -4.33301 33.5 -13
s22.833 -19.167 31.5 -31.5s13 -23.5 13 -33.5c0 -9.33301 -4.5 -20.166 -13.5 -32.499s-19.667 -23 -32 -32s-23.166 -13.5 -32.499 -13.5s-20.166 4.5 -32.499 13.5z" />
    <glyph glyph-name="uniFE97" unicode="&#x62a;" horiz-adv-x="350" arabic-form="initial" 
d="M-20 158h152v312h141v-470h-293v158zM81.5 599.5c-12.333 9 -23.002 19.667 -32.002 32s-13.5 23.166 -13.5 32.499c0 10 4.33301 21.167 13 33.5s19.167 22.833 31.5 31.5s23.5 13 33.5 13s21.167 -4.33301 33.5 -13s22.833 -19.167 31.5 -31.5s13 -23.5 13 -33.5
c0 -9.33301 -4.5 -20.166 -13.5 -32.499s-19.667 -23 -32 -32s-23.166 -13.5 -32.499 -13.5s-20.166 4.5 -32.499 13.5zM261.498 599.5c-12.333 9 -23.002 19.667 -32.002 32s-13.5 23.166 -13.5 32.499c0 10 4.33301 21.167 13 33.5s19.167 22.833 31.5 31.5
s23.5 13 33.5 13s21.167 -4.33301 33.5 -13s22.833 -19.167 31.5 -31.5s13 -23.5 13 -33.5c0 -9.33301 -4.5 -20.166 -13.5 -32.499s-19.667 -23 -32 -32s-23.166 -13.5 -32.499 -13.5s-20.166 4.5 -32.499 13.5z" />
    <glyph glyph-name="uniFE98" unicode="&#x62a;" horiz-adv-x="350" arabic-form="medial" 
d="M370 158v-158h-390v158h152v312h141v-312h97zM81.5 599.5c-12.333 9 -23.002 19.667 -32.002 32s-13.5 23.166 -13.5 32.499c0 10 4.33301 21.167 13 33.5s19.167 22.833 31.5 31.5s23.5 13 33.5 13s21.167 -4.33301 33.5 -13s22.833 -19.167 31.5 -31.5
s13 -23.5 13 -33.5c0 -9.33301 -4.5 -20.166 -13.5 -32.499s-19.667 -23 -32 -32s-23.166 -13.5 -32.499 -13.5s-20.166 4.5 -32.499 13.5zM261.498 599.5c-12.333 9 -23.002 19.667 -32.002 32s-13.5 23.166 -13.5 32.499c0 10 4.33301 21.167 13 33.5
s19.167 22.833 31.5 31.5s23.5 13 33.5 13s21.167 -4.33301 33.5 -13s22.833 -19.167 31.5 -31.5s13 -23.5 13 -33.5c0 -9.33301 -4.5 -20.166 -13.5 -32.499s-19.667 -23 -32 -32s-23.166 -13.5 -32.499 -13.5s-20.166 4.5 -32.499 13.5z" />
    <glyph glyph-name="uniFE9A" unicode="&#x62b;" horiz-adv-x="914" arabic-form="final" 
d="M935 158v-158.001h-710c-59.333 0 -102.5 17.333 -129.5 52s-40.5 90.334 -40.5 167.001c0 70.667 10.333 135.667 31 195l135 -21c-16.667 -48.667 -25 -93 -25 -133c0 -44 4.66699 -78 14 -102h487v312h140v-312h98zM332.5 499.499
c-12.333 9 -23.002 19.667 -32.002 32s-13.5 23.166 -13.5 32.499c0 10 4.33301 21.167 13 33.5s19.167 22.833 31.5 31.5s23.5 13 33.5 13s21.167 -4.33301 33.5 -13s22.833 -19.167 31.5 -31.5s13 -23.5 13 -33.5c0 -9.33301 -4.5 -20.166 -13.5 -32.499
s-19.667 -23 -32 -32s-23.166 -13.5 -32.499 -13.5s-20.166 4.5 -32.499 13.5zM512.498 499.499c-12.333 9 -23.002 19.667 -32.002 32s-13.5 23.166 -13.5 32.499c0 10 4.33301 21.167 13 33.5s19.167 22.833 31.5 31.5s23.5 13 33.5 13s21.167 -4.33301 33.5 -13
s22.833 -19.167 31.5 -31.5s13 -23.5 13 -33.5c0 -9.33301 -4.5 -20.166 -13.5 -32.499s-19.667 -23 -32 -32s-23.166 -13.5 -32.499 -13.5s-20.166 4.5 -32.499 13.5zM421.496 691.499c-12.333 9 -23.002 19.667 -32.002 32s-13.5 23.166 -13.5 32.499
c0 10 4.33301 21.167 13 33.5s19.167 22.833 31.5 31.5s23.5 13 33.5 13s21.167 -4.33301 33.5 -13s22.833 -19.167 31.5 -31.5s13 -23.5 13 -33.5c0 -9.33301 -4.5 -20.166 -13.5 -32.499s-19.667 -23 -32 -32s-23.166 -13.5 -32.499 -13.5s-20.166 4.5 -32.499 13.5z" />
    <glyph glyph-name="uniFE9B" unicode="&#x62b;" horiz-adv-x="350" arabic-form="initial" 
d="M-20 158h152v312h141v-470h-293v158zM81.5 599.5c-12.333 9 -23.002 19.667 -32.002 32s-13.5 23.166 -13.5 32.499c0 10 4.33301 21.167 13 33.5s19.167 22.833 31.5 31.5s23.5 13 33.5 13s21.167 -4.33301 33.5 -13s22.833 -19.167 31.5 -31.5s13 -23.5 13 -33.5
c0 -9.33301 -4.5 -20.166 -13.5 -32.499s-19.667 -23 -32 -32s-23.166 -13.5 -32.499 -13.5s-20.166 4.5 -32.499 13.5zM261.498 599.5c-12.333 9 -23.002 19.667 -32.002 32s-13.5 23.166 -13.5 32.499c0 10 4.33301 21.167 13 33.5s19.167 22.833 31.5 31.5
s23.5 13 33.5 13s21.167 -4.33301 33.5 -13s22.833 -19.167 31.5 -31.5s13 -23.5 13 -33.5c0 -9.33301 -4.5 -20.166 -13.5 -32.499s-19.667 -23 -32 -32s-23.166 -13.5 -32.499 -13.5s-20.166 4.5 -32.499 13.5zM170.496 791.5c-12.333 9 -23.002 19.667 -32.002 32
s-13.5 23.166 -13.5 32.499c0 10 4.33301 21.167 13 33.5s19.167 22.833 31.5 31.5s23.5 13 33.5 13s21.167 -4.33301 33.5 -13s22.833 -19.167 31.5 -31.5s13 -23.5 13 -33.5c0 -9.33301 -4.5 -20.166 -13.5 -32.499s-19.667 -23 -32 -32s-23.166 -13.5 -32.499 -13.5
s-20.166 4.5 -32.499 13.5z" />
    <glyph glyph-name="uniFE9C" unicode="&#x62b;" horiz-adv-x="350" arabic-form="medial" 
d="M370 158v-158h-390v158h152v312h141v-312h97zM81.5 599.5c-12.333 9 -23.002 19.667 -32.002 32s-13.5 23.166 -13.5 32.499c0 10 4.33301 21.167 13 33.5s19.167 22.833 31.5 31.5s23.5 13 33.5 13s21.167 -4.33301 33.5 -13s22.833 -19.167 31.5 -31.5
s13 -23.5 13 -33.5c0 -9.33301 -4.5 -20.166 -13.5 -32.499s-19.667 -23 -32 -32s-23.166 -13.5 -32.499 -13.5s-20.166 4.5 -32.499 13.5zM261.498 599.5c-12.333 9 -23.002 19.667 -32.002 32s-13.5 23.166 -13.5 32.499c0 10 4.33301 21.167 13 33.5
s19.167 22.833 31.5 31.5s23.5 13 33.5 13s21.167 -4.33301 33.5 -13s22.833 -19.167 31.5 -31.5s13 -23.5 13 -33.5c0 -9.33301 -4.5 -20.166 -13.5 -32.499s-19.667 -23 -32 -32s-23.166 -13.5 -32.499 -13.5s-20.166 4.5 -32.499 13.5zM170.496 791.5
c-12.333 9 -23.002 19.667 -32.002 32s-13.5 23.166 -13.5 32.499c0 10 4.33301 21.167 13 33.5s19.167 22.833 31.5 31.5s23.5 13 33.5 13s21.167 -4.33301 33.5 -13s22.833 -19.167 31.5 -31.5s13 -23.5 13 -33.5c0 -9.33301 -4.5 -20.166 -13.5 -32.499
s-19.667 -23 -32 -32s-23.166 -13.5 -32.499 -13.5s-20.166 4.5 -32.499 13.5z" />
    <glyph glyph-name="uniFE9E" unicode="&#x62c;" horiz-adv-x="610" arabic-form="final" 
d="M630 158l0.00292969 -158h-104c-21.333 0 -38.5 4.5 -51.5 13.5s-23.167 23.167 -30.5 42.5l-28 72c-76 -6 -132.5 -18.333 -169.5 -37s-55.5 -44.667 -55.5 -78v-140c35.333 -4.66699 72.333 -7 111 -7c60.667 0 122.667 8 186 24l17 -151
c-69.333 -20.667 -149.333 -31 -240 -31c-54.667 0 -98.334 8.5 -131.001 25.5s-56.334 43.667 -71.001 80s-22 84.833 -22 145.5c0 88 26.167 155.167 78.5 201.5s134.5 75.833 246.5 88.5c-16.667 26.667 -38.334 46 -65.001 58s-62 18 -106 18
c-40 0 -80 -2.33301 -120 -7l-21 156c55.333 6.66699 102 10 140 10c86 0 153.5 -16.667 202.5 -50s86.833 -88 113.5 -164l41 -112h79zM277.503 23.5c15.667 15.667 29.832 23.499 42.499 23.499s26.834 -7.83301 42.501 -23.5s23.5 -29.834 23.5 -42.501
c0 -12 -8 -26 -24 -42s-30 -24 -42 -24s-26 7.83301 -42 23.5s-24 29.834 -24 42.501s7.83301 26.834 23.5 42.501z" />
    <glyph glyph-name="uniFE9F" unicode="&#x62c;" horiz-adv-x="582" arabic-form="initial" 
d="M582 315v-159h-116c-7.33301 0 -12.333 0.333008 -15 1c-34 -54 -77.333 -93.667 -130 -119s-112 -38 -178 -38h-163v158h177c93.333 0 158.333 37.333 195 112c-16 19.333 -36.5 33.333 -61.5 42s-56.833 13 -95.5 13c-44.667 0 -84.667 -2.33301 -120 -7l-21 156
c58 6.66699 104.667 10 140 10c81.333 0 144.833 -13.333 190.5 -40s81.167 -69.667 106.5 -129h91zM250.5 -221.5c-12.333 9 -23.002 19.667 -32.002 32s-13.5 23.166 -13.5 32.499c0 10 4.33301 21.167 13 33.5s19.167 22.833 31.5 31.5s23.5 13 33.5 13
s21.167 -4.33301 33.5 -13s22.833 -19.167 31.5 -31.5s13 -23.5 13 -33.5c0 -9.33301 -4.5 -20.166 -13.5 -32.499s-19.667 -23 -32 -32s-23.166 -13.5 -32.499 -13.5s-20.166 4.5 -32.499 13.5z" />
    <glyph glyph-name="uniFEA0" unicode="&#x62c;" horiz-adv-x="608" arabic-form="medial" 
d="M630 158v-157.999h-104c-21.333 0 -38.5 4.5 -51.5 13.5s-23.167 23.167 -30.5 42.5l-21 55c-60.667 -74 -144.667 -111 -252 -111h-191v158h207c78.667 0 134 36.667 166 110c-16 19.333 -36.667 33.666 -62 42.999s-57.333 14 -96 14
c-44.667 0 -84.667 -2.33301 -120 -7l-21 156c58 6.66699 104.667 10 140 10c86.667 0 154.5 -16.833 203.5 -50.5s86.5 -88.167 112.5 -163.5l41 -112h79zM273.5 -221.499c-12.333 9 -23.002 19.667 -32.002 32s-13.5 23.166 -13.5 32.499c0 10 4.33301 21.167 13 33.5
s19.167 22.833 31.5 31.5s23.5 13 33.5 13s21.167 -4.33301 33.5 -13s22.833 -19.167 31.5 -31.5s13 -23.5 13 -33.5c0 -9.33301 -4.5 -20.166 -13.5 -32.499s-19.667 -23 -32 -32s-23.166 -13.5 -32.499 -13.5s-20.166 4.5 -32.499 13.5z" />
    <glyph glyph-name="uniFEA2" unicode="&#x62d;" horiz-adv-x="610" arabic-form="final" 
d="M630 158l0.00292969 -158h-104c-21.333 0 -38.5 4.5 -51.5 13.5s-23.167 23.167 -30.5 42.5l-28 72c-76 -6 -132.5 -18.333 -169.5 -37s-55.5 -44.667 -55.5 -78v-140c35.333 -4.66699 72.333 -7 111 -7c60.667 0 122.667 8 186 24l17 -151
c-69.333 -20.667 -149.333 -31 -240 -31c-54.667 0 -98.334 8.5 -131.001 25.5s-56.334 43.667 -71.001 80s-22 84.833 -22 145.5c0 88 26.167 155.167 78.5 201.5s134.5 75.833 246.5 88.5c-16.667 26.667 -38.334 46 -65.001 58s-62 18 -106 18
c-40 0 -80 -2.33301 -120 -7l-21 156c55.333 6.66699 102 10 140 10c86 0 153.5 -16.667 202.5 -50s86.833 -88 113.5 -164l41 -112h79z" />
    <glyph glyph-name="uniFEA3" unicode="&#x62d;" horiz-adv-x="582" arabic-form="initial" 
d="M582 315v-159h-116c-7.33301 0 -12.333 0.333008 -15 1c-34 -54 -77.333 -93.667 -130 -119s-112 -38 -178 -38h-163v158h177c93.333 0 158.333 37.333 195 112c-16 19.333 -36.5 33.333 -61.5 42s-56.833 13 -95.5 13c-44.667 0 -84.667 -2.33301 -120 -7l-21 156
c58 6.66699 104.667 10 140 10c81.333 0 144.833 -13.333 190.5 -40s81.167 -69.667 106.5 -129h91z" />
    <glyph glyph-name="uniFEA4" unicode="&#x62d;" horiz-adv-x="608" arabic-form="medial" 
d="M630 158v-157.999h-104c-21.333 0 -38.5 4.5 -51.5 13.5s-23.167 23.167 -30.5 42.5l-21 55c-60.667 -74 -144.667 -111 -252 -111h-191v158h207c78.667 0 134 36.667 166 110c-16 19.333 -36.667 33.666 -62 42.999s-57.333 14 -96 14
c-44.667 0 -84.667 -2.33301 -120 -7l-21 156c58 6.66699 104.667 10 140 10c86.667 0 154.5 -16.833 203.5 -50.5s86.5 -88.167 112.5 -163.5l41 -112h79z" />
    <glyph glyph-name="uniFEA6" unicode="&#x62e;" horiz-adv-x="610" arabic-form="final" 
d="M630 158l0.00292969 -158h-104c-21.333 0 -38.5 4.5 -51.5 13.5s-23.167 23.167 -30.5 42.5l-28 72c-76 -6 -132.5 -18.333 -169.5 -37s-55.5 -44.667 -55.5 -78v-140c35.333 -4.66699 72.333 -7 111 -7c60.667 0 122.667 8 186 24l17 -151
c-69.333 -20.667 -149.333 -31 -240 -31c-54.667 0 -98.334 8.5 -131.001 25.5s-56.334 43.667 -71.001 80s-22 84.833 -22 145.5c0 88 26.167 155.167 78.5 201.5s134.5 75.833 246.5 88.5c-16.667 26.667 -38.334 46 -65.001 58s-62 18 -106 18
c-40 0 -80 -2.33301 -120 -7l-21 156c55.333 6.66699 102 10 140 10c86 0 153.5 -16.667 202.5 -50s86.833 -88 113.5 -164l41 -112h79zM261.503 622.5c-12.333 9 -23.002 19.667 -32.002 32s-13.5 23.166 -13.5 32.499c0 10 4.33301 21.167 13 33.5
s19.167 22.833 31.5 31.5s23.5 13 33.5 13s21.167 -4.33301 33.5 -13s22.833 -19.167 31.5 -31.5s13 -23.5 13 -33.5c0 -9.33301 -4.5 -20.166 -13.5 -32.499s-19.667 -23 -32 -32s-23.166 -13.5 -32.499 -13.5s-20.166 4.5 -32.499 13.5z" />
    <glyph glyph-name="uniFEA7" unicode="&#x62e;" horiz-adv-x="582" arabic-form="initial" 
d="M582 315v-159h-116c-7.33301 0 -12.333 0.333008 -15 1c-34 -54 -77.333 -93.667 -130 -119s-112 -38 -178 -38h-163v158h177c93.333 0 158.333 37.333 195 112c-16 19.333 -36.5 33.333 -61.5 42s-56.833 13 -95.5 13c-44.667 0 -84.667 -2.33301 -120 -7l-21 156
c58 6.66699 104.667 10 140 10c81.333 0 144.833 -13.333 190.5 -40s81.167 -69.667 106.5 -129h91zM244.5 599.5c-12.333 9 -23.002 19.667 -32.002 32s-13.5 23.166 -13.5 32.499c0 10 4.33301 21.167 13 33.5s19.167 22.833 31.5 31.5s23.5 13 33.5 13
s21.167 -4.33301 33.5 -13s22.833 -19.167 31.5 -31.5s13 -23.5 13 -33.5c0 -9.33301 -4.5 -20.166 -13.5 -32.499s-19.667 -23 -32 -32s-23.166 -13.5 -32.499 -13.5s-20.166 4.5 -32.499 13.5z" />
    <glyph glyph-name="uniFEA8" unicode="&#x62e;" horiz-adv-x="608" arabic-form="medial" 
d="M630 158v-157.999h-104c-21.333 0 -38.5 4.5 -51.5 13.5s-23.167 23.167 -30.5 42.5l-21 55c-60.667 -74 -144.667 -111 -252 -111h-191v158h207c78.667 0 134 36.667 166 110c-16 19.333 -36.667 33.666 -62 42.999s-57.333 14 -96 14
c-44.667 0 -84.667 -2.33301 -120 -7l-21 156c58 6.66699 104.667 10 140 10c86.667 0 154.5 -16.833 203.5 -50.5s86.5 -88.167 112.5 -163.5l41 -112h79zM244.5 599.501c-12.333 9 -23.002 19.667 -32.002 32s-13.5 23.166 -13.5 32.499c0 10 4.33301 21.167 13 33.5
s19.167 22.833 31.5 31.5s23.5 13 33.5 13s21.167 -4.33301 33.5 -13s22.833 -19.167 31.5 -31.5s13 -23.5 13 -33.5c0 -9.33301 -4.5 -20.166 -13.5 -32.499s-19.667 -23 -32 -32s-23.166 -13.5 -32.499 -13.5s-20.166 4.5 -32.499 13.5z" />
    <glyph glyph-name="uniFEAA" unicode="&#x62f;" horiz-adv-x="529" arabic-form="final" 
d="M549 158l0.00292969 -158h-529v158h295c-10.667 48.667 -21.667 85.167 -33 109.5s-25 41.333 -41 51s-37.667 14.5 -65 14.5c-36 0 -72 -4.33301 -108 -13l-38 154c42 11.333 90.667 17 146 17c61.333 0 109.166 -8.66699 143.499 -26s63.166 -49 86.499 -95
s46.666 -116.667 69.999 -212h73z" />
    <glyph glyph-name="uniFEAC" unicode="&#x630;" horiz-adv-x="529" arabic-form="final" 
d="M549 158l0.00292969 -158h-529v158h295c-10.667 48.667 -21.667 85.167 -33 109.5s-25 41.333 -41 51s-37.667 14.5 -65 14.5c-36 0 -72 -4.33301 -108 -13l-38 154c42 11.333 90.667 17 146 17c61.333 0 109.166 -8.66699 143.499 -26s63.166 -49 86.499 -95
s46.666 -116.667 69.999 -212h73zM173.503 599.5c-12.333 9 -23.002 19.667 -32.002 32s-13.5 23.166 -13.5 32.499c0 10 4.33301 21.167 13 33.5s19.167 22.833 31.5 31.5s23.5 13 33.5 13s21.167 -4.33301 33.5 -13s22.833 -19.167 31.5 -31.5s13 -23.5 13 -33.5
c0 -9.33301 -4.5 -20.166 -13.5 -32.499s-19.667 -23 -32 -32s-23.166 -13.5 -32.499 -13.5s-20.166 4.5 -32.499 13.5z" />
    <glyph glyph-name="uniFEAE" unicode="&#x631;" horiz-adv-x="333" arabic-form="final" 
d="M353 0h-94.9971c-2.66699 -73.333 -18.334 -131.333 -47.001 -174s-75 -77.667 -139 -105l-52 126c27.333 11.333 47.666 23.666 60.999 36.999s22.666 30.333 27.999 51s8 49.334 8 86.001v449h141v-312h95v-158z" />
    <glyph glyph-name="uniFEB0" unicode="&#x632;" horiz-adv-x="333" arabic-form="final" 
d="M353 0h-94.9971c-2.66699 -73.333 -18.334 -131.333 -47.001 -174s-75 -77.667 -139 -105l-52 126c27.333 11.333 47.666 23.666 60.999 36.999s22.666 30.333 27.999 51s8 49.334 8 86.001v449h141v-312h95v-158zM152.503 599.5c-12.333 9 -23.002 19.667 -32.002 32
s-13.5 23.166 -13.5 32.499c0 10 4.33301 21.167 13 33.5s19.167 22.833 31.5 31.5s23.5 13 33.5 13s21.167 -4.33301 33.5 -13s22.833 -19.167 31.5 -31.5s13 -23.5 13 -33.5c0 -9.33301 -4.5 -20.166 -13.5 -32.499s-19.667 -23 -32 -32s-23.166 -13.5 -32.499 -13.5
s-20.166 4.5 -32.499 13.5z" />
    <glyph glyph-name="uniFEB2" unicode="&#x633;" horiz-adv-x="1362" arabic-form="final" 
d="M1382 158v-157.999h-343c-40.667 0 -74.5 2.33301 -101.5 7s-49.5 12.334 -67.5 23.001c-19.333 -10.667 -43.833 -18.334 -73.5 -23.001s-67.5 -7 -113.5 -7h-82v-2c0 -66 -7 -115.333 -21 -148s-40.167 -55.834 -78.5 -69.501s-96.5 -20.5 -174.5 -20.5
c-73.333 0 -128.5 6.83301 -165.5 20.5s-62.833 37.5 -77.5 71.5s-22 84.333 -22 151c0 83.333 10 154.666 30 213.999l140 -22c-19.333 -66 -29 -121 -29 -165c0 -47.333 3.33301 -84.666 10 -111.999h143c37.333 0 64 3.66699 80 11s24 21.333 24 42v409h141v-222h126
c26 0 45 3.66699 57 11s18 21.333 18 42v169h141v-169c0 -20.667 6 -34.667 18 -42s31 -11 57 -11h116c6.66699 22.667 10 56 10 100c0 50.667 -9.66699 114 -29 190l140 22c20 -59.333 30 -127.333 30 -204c0 -43.333 -3.33301 -79.333 -10 -108h107z" />
    <glyph glyph-name="uniFEB3" unicode="&#x633;" horiz-adv-x="1028" arabic-form="initial" 
d="M957 266c0 -68.667 -8.83301 -122.332 -26.5 -160.999s-44.167 -65.834 -79.5 -81.501s-82 -23.5 -140 -23.5c-40.667 -0 -74.5 2.33301 -101.5 7s-49.5 12.334 -67.5 23.001c-19.333 -10.667 -43.833 -18.334 -73.5 -23.001s-67.5 -7 -113.5 -7h-375v158h152v222h141
v-222h126c26 0 45 3.66699 57 11s18 21.333 18 42v169h141v-169c0 -20.667 6 -34.667 18 -42s31 -11 57 -11h116c6.66699 22.667 10 56 10 100c0 50.667 -9.66699 114 -29 190l140 22c20 -59.333 30 -127.333 30 -204z" />
    <glyph glyph-name="uniFEB4" unicode="&#x633;" horiz-adv-x="1034" arabic-form="medial" 
d="M1054 158v-158h-350c-39.333 -0 -72 2.33301 -98 7s-47.667 12.334 -65 23.001c-19.333 -10.667 -43.833 -18.334 -73.5 -23.001s-67.167 -7 -112.5 -7h-375v158h152v222h141v-222h126c26 0 45 3.66699 57 11s18 21.333 18 42v169h141v-169c0 -20.667 6 -34.667 18 -42
s31 -11 57 -11h116c6.66699 22.667 10 56 10 100c0 50.667 -9.66699 114 -29 190l140 22c20 -59.333 30 -127.333 30 -204c0 -43.333 -3.33301 -79.333 -10 -108h107z" />
    <glyph glyph-name="uniFEB6" unicode="&#x634;" horiz-adv-x="1362" arabic-form="final" 
d="M1382 158v-157.999h-343c-40.667 0 -74.5 2.33301 -101.5 7s-49.5 12.334 -67.5 23.001c-19.333 -10.667 -43.833 -18.334 -73.5 -23.001s-67.5 -7 -113.5 -7h-82v-2c0 -66 -7 -115.333 -21 -148s-40.167 -55.834 -78.5 -69.501s-96.5 -20.5 -174.5 -20.5
c-73.333 0 -128.5 6.83301 -165.5 20.5s-62.833 37.5 -77.5 71.5s-22 84.333 -22 151c0 83.333 10 154.666 30 213.999l140 -22c-19.333 -66 -29 -121 -29 -165c0 -47.333 3.33301 -84.666 10 -111.999h143c37.333 0 64 3.66699 80 11s24 21.333 24 42v409h141v-222h126
c26 0 45 3.66699 57 11s18 21.333 18 42v169h141v-169c0 -20.667 6 -34.667 18 -42s31 -11 57 -11h116c6.66699 22.667 10 56 10 100c0 50.667 -9.66699 114 -29 190l140 22c20 -59.333 30 -127.333 30 -204c0 -43.333 -3.33301 -79.333 -10 -108h107zM753.5 599.501
c-12.333 9 -23.002 19.667 -32.002 32s-13.5 23.166 -13.5 32.499c0 10 4.33301 21.167 13 33.5s19.167 22.833 31.5 31.5s23.5 13 33.5 13s21.167 -4.33301 33.5 -13s22.833 -19.167 31.5 -31.5s13 -23.5 13 -33.5c0 -9.33301 -4.5 -20.166 -13.5 -32.499
s-19.667 -23 -32 -32s-23.166 -13.5 -32.499 -13.5s-20.166 4.5 -32.499 13.5zM933.498 599.501c-12.333 9 -23.002 19.667 -32.002 32s-13.5 23.166 -13.5 32.499c0 10 4.33301 21.167 13 33.5s19.167 22.833 31.5 31.5s23.5 13 33.5 13s21.167 -4.33301 33.5 -13
s22.833 -19.167 31.5 -31.5s13 -23.5 13 -33.5c0 -9.33301 -4.5 -20.166 -13.5 -32.499s-19.667 -23 -32 -32s-23.166 -13.5 -32.499 -13.5s-20.166 4.5 -32.499 13.5zM842.496 791.501c-12.333 9 -23.002 19.667 -32.002 32s-13.5 23.166 -13.5 32.499
c0 10 4.33301 21.167 13 33.5s19.167 22.833 31.5 31.5s23.5 13 33.5 13s21.167 -4.33301 33.5 -13s22.833 -19.167 31.5 -31.5s13 -23.5 13 -33.5c0 -9.33301 -4.5 -20.166 -13.5 -32.499s-19.667 -23 -32 -32s-23.166 -13.5 -32.499 -13.5s-20.166 4.5 -32.499 13.5z" />
    <glyph glyph-name="uniFEB7" unicode="&#x634;" horiz-adv-x="1028" arabic-form="initial" 
d="M957 266c0 -68.667 -8.83301 -122.332 -26.5 -160.999s-44.167 -65.834 -79.5 -81.501s-82 -23.5 -140 -23.5c-40.667 -0 -74.5 2.33301 -101.5 7s-49.5 12.334 -67.5 23.001c-19.333 -10.667 -43.833 -18.334 -73.5 -23.001s-67.5 -7 -113.5 -7h-375v158h152v222h141
v-222h126c26 0 45 3.66699 57 11s18 21.333 18 42v169h141v-169c0 -20.667 6 -34.667 18 -42s31 -11 57 -11h116c6.66699 22.667 10 56 10 100c0 50.667 -9.66699 114 -29 190l140 22c20 -59.333 30 -127.333 30 -204zM425.5 599.502c-12.333 9 -23.002 19.667 -32.002 32
s-13.5 23.166 -13.5 32.499c0 10 4.33301 21.167 13 33.5s19.167 22.833 31.5 31.5s23.5 13 33.5 13s21.167 -4.33301 33.5 -13s22.833 -19.167 31.5 -31.5s13 -23.5 13 -33.5c0 -9.33301 -4.5 -20.166 -13.5 -32.499s-19.667 -23 -32 -32s-23.166 -13.5 -32.499 -13.5
s-20.166 4.5 -32.499 13.5zM605.498 599.502c-12.333 9 -23.002 19.667 -32.002 32s-13.5 23.166 -13.5 32.499c0 10 4.33301 21.167 13 33.5s19.167 22.833 31.5 31.5s23.5 13 33.5 13s21.167 -4.33301 33.5 -13s22.833 -19.167 31.5 -31.5s13 -23.5 13 -33.5
c0 -9.33301 -4.5 -20.166 -13.5 -32.499s-19.667 -23 -32 -32s-23.166 -13.5 -32.499 -13.5s-20.166 4.5 -32.499 13.5zM514.496 791.502c-12.333 9 -23.002 19.667 -32.002 32s-13.5 23.166 -13.5 32.499c0 10 4.33301 21.167 13 33.5s19.167 22.833 31.5 31.5
s23.5 13 33.5 13s21.167 -4.33301 33.5 -13s22.833 -19.167 31.5 -31.5s13 -23.5 13 -33.5c0 -9.33301 -4.5 -20.166 -13.5 -32.499s-19.667 -23 -32 -32s-23.166 -13.5 -32.499 -13.5s-20.166 4.5 -32.499 13.5z" />
    <glyph glyph-name="uniFEB8" unicode="&#x634;" horiz-adv-x="1034" arabic-form="medial" 
d="M1054 158v-158h-350c-39.333 -0 -72 2.33301 -98 7s-47.667 12.334 -65 23.001c-19.333 -10.667 -43.833 -18.334 -73.5 -23.001s-67.167 -7 -112.5 -7h-375v158h152v222h141v-222h126c26 0 45 3.66699 57 11s18 21.333 18 42v169h141v-169c0 -20.667 6 -34.667 18 -42
s31 -11 57 -11h116c6.66699 22.667 10 56 10 100c0 50.667 -9.66699 114 -29 190l140 22c20 -59.333 30 -127.333 30 -204c0 -43.333 -3.33301 -79.333 -10 -108h107zM425.5 599.5c-12.333 9 -23.002 19.667 -32.002 32s-13.5 23.166 -13.5 32.499
c0 10 4.33301 21.167 13 33.5s19.167 22.833 31.5 31.5s23.5 13 33.5 13s21.167 -4.33301 33.5 -13s22.833 -19.167 31.5 -31.5s13 -23.5 13 -33.5c0 -9.33301 -4.5 -20.166 -13.5 -32.499s-19.667 -23 -32 -32s-23.166 -13.5 -32.499 -13.5s-20.166 4.5 -32.499 13.5z
M605.498 599.5c-12.333 9 -23.002 19.667 -32.002 32s-13.5 23.166 -13.5 32.499c0 10 4.33301 21.167 13 33.5s19.167 22.833 31.5 31.5s23.5 13 33.5 13s21.167 -4.33301 33.5 -13s22.833 -19.167 31.5 -31.5s13 -23.5 13 -33.5c0 -9.33301 -4.5 -20.166 -13.5 -32.499
s-19.667 -23 -32 -32s-23.166 -13.5 -32.499 -13.5s-20.166 4.5 -32.499 13.5zM514.496 791.5c-12.333 9 -23.002 19.667 -32.002 32s-13.5 23.166 -13.5 32.499c0 10 4.33301 21.167 13 33.5s19.167 22.833 31.5 31.5s23.5 13 33.5 13s21.167 -4.33301 33.5 -13
s22.833 -19.167 31.5 -31.5s13 -23.5 13 -33.5c0 -9.33301 -4.5 -20.166 -13.5 -32.499s-19.667 -23 -32 -32s-23.166 -13.5 -32.499 -13.5s-20.166 4.5 -32.499 13.5z" />
    <glyph glyph-name="uniFEBA" unicode="&#x635;" horiz-adv-x="1171" arabic-form="final" 
d="M1191 158v-157.998h-590v-2c0 -66 -7 -115.333 -21 -148s-40.167 -55.834 -78.5 -69.501s-96.5 -20.5 -174.5 -20.5c-73.333 0 -128.5 6.83301 -165.5 20.5s-62.833 37.5 -77.5 71.5s-22 84.333 -22 151c0 83.333 10 154.666 30 213.999l140 -22
c-19.333 -66 -29 -121 -29 -165c0 -47.333 3.33301 -84.666 10 -111.999h143c37.333 0 64 3.66699 80 11s24 21.333 24 42v499h141v-140c20 45.333 56.667 81.666 110 108.999s114 41 182 41c52 0 92.333 -5.16699 121 -15.5s49 -27.833 61 -52.5s18 -59.667 18 -105v-149
h98zM952 158.002v153c-23.333 7.33301 -63 11 -119 11c-134.667 0 -210.667 -54.667 -228 -164h347z" />
    <glyph glyph-name="uniFEBB" unicode="&#x635;" horiz-adv-x="841" arabic-form="initial" 
d="M686 464.5c28.667 -10.333 49 -27.832 61 -52.499s18 -59.667 18 -105v-307h-785v158h152v312h141v-140c20 45.333 56.667 81.666 110 108.999s114 41 182 41c52 0 92.333 -5.16699 121 -15.5zM624 158.001v153c-23.333 7.33301 -63 11 -119 11
c-134.667 0 -210.667 -54.667 -228 -164h347z" />
    <glyph glyph-name="uniFEBC" unicode="&#x635;" horiz-adv-x="842" arabic-form="medial" 
d="M862 158v-157.999h-882v158h152v312h141v-140c20 45.333 56.667 81.666 110 108.999s114 41 182 41c52 0 92.333 -5.16699 121 -15.5s49 -27.833 61 -52.5s18 -59.667 18 -105v-149h97zM277 158.001h347v153c-23.333 7.33301 -63 11 -119 11
c-134.667 0 -210.667 -54.667 -228 -164z" />
    <glyph glyph-name="uniFEBE" unicode="&#x636;" horiz-adv-x="1171" arabic-form="final" 
d="M1191 158v-157.998h-590v-2c0 -66 -7 -115.333 -21 -148s-40.167 -55.834 -78.5 -69.501s-96.5 -20.5 -174.5 -20.5c-73.333 0 -128.5 6.83301 -165.5 20.5s-62.833 37.5 -77.5 71.5s-22 84.333 -22 151c0 83.333 10 154.666 30 213.999l140 -22
c-19.333 -66 -29 -121 -29 -165c0 -47.333 3.33301 -84.666 10 -111.999h143c37.333 0 64 3.66699 80 11s24 21.333 24 42v499h141v-140c20 45.333 56.667 81.666 110 108.999s114 41 182 41c52 0 92.333 -5.16699 121 -15.5s49 -27.833 61 -52.5s18 -59.667 18 -105v-149
h98zM952 158.002v153c-23.333 7.33301 -63 11 -119 11c-134.667 0 -210.667 -54.667 -228 -164h347zM836.5 599.502c-12.333 9 -23.002 19.667 -32.002 32s-13.5 23.166 -13.5 32.499c0 10 4.33301 21.167 13 33.5s19.167 22.833 31.5 31.5s23.5 13 33.5 13
s21.167 -4.33301 33.5 -13s22.833 -19.167 31.5 -31.5s13 -23.5 13 -33.5c0 -9.33301 -4.5 -20.166 -13.5 -32.499s-19.667 -23 -32 -32s-23.166 -13.5 -32.499 -13.5s-20.166 4.5 -32.499 13.5z" />
    <glyph glyph-name="uniFEBF" unicode="&#x636;" horiz-adv-x="841" arabic-form="initial" 
d="M686 464.5c28.667 -10.333 49 -27.832 61 -52.499s18 -59.667 18 -105v-307h-785v158h152v312h141v-140c20 45.333 56.667 81.666 110 108.999s114 41 182 41c52 0 92.333 -5.16699 121 -15.5zM624 158.001v153c-23.333 7.33301 -63 11 -119 11
c-134.667 0 -210.667 -54.667 -228 -164h347zM460.5 599.501c-12.333 9 -23.002 19.667 -32.002 32s-13.5 23.166 -13.5 32.499c0 10 4.33301 21.167 13 33.5s19.167 22.833 31.5 31.5s23.5 13 33.5 13s21.167 -4.33301 33.5 -13s22.833 -19.167 31.5 -31.5
s13 -23.5 13 -33.5c0 -9.33301 -4.5 -20.166 -13.5 -32.499s-19.667 -23 -32 -32s-23.166 -13.5 -32.499 -13.5s-20.166 4.5 -32.499 13.5z" />
    <glyph glyph-name="uniFEC0" unicode="&#x636;" horiz-adv-x="842" arabic-form="medial" 
d="M862 158v-157.999h-882v158h152v312h141v-140c20 45.333 56.667 81.666 110 108.999s114 41 182 41c52 0 92.333 -5.16699 121 -15.5s49 -27.833 61 -52.5s18 -59.667 18 -105v-149h97zM277 158.001h347v153c-23.333 7.33301 -63 11 -119 11
c-134.667 0 -210.667 -54.667 -228 -164zM460.5 599.501c-12.333 9 -23.002 19.667 -32.002 32s-13.5 23.166 -13.5 32.499c0 10 4.33301 21.167 13 33.5s19.167 22.833 31.5 31.5s23.5 13 33.5 13s21.167 -4.33301 33.5 -13s22.833 -19.167 31.5 -31.5s13 -23.5 13 -33.5
c0 -9.33301 -4.5 -20.166 -13.5 -32.499s-19.667 -23 -32 -32s-23.166 -13.5 -32.499 -13.5s-20.166 4.5 -32.499 13.5z" />
    <glyph glyph-name="uniFEC2" unicode="&#x637;" horiz-adv-x="842" arabic-form="final" 
d="M862 158v-157.999h-842v158h112v472h141v-300c20 45.333 56.667 81.666 110 108.999s114 41 182 41c52 0 92.333 -5.16699 121 -15.5s49 -27.833 61 -52.5s18 -59.667 18 -105v-149h97zM624 158.001v153c-23.333 7.33301 -63 11 -119 11
c-134.667 0 -210.667 -54.667 -228 -164h347z" />
    <glyph glyph-name="uniFEC3" unicode="&#x637;" horiz-adv-x="841" arabic-form="initial" 
d="M686 464.5c28.667 -10.333 49 -27.832 61 -52.499s18 -59.667 18 -105v-307h-785v158h152v472h141v-300c20 45.333 56.667 81.666 110 108.999s114 41 182 41c52 0 92.333 -5.16699 121 -15.5zM624 311.001c-23.333 7.33301 -63 11 -119 11
c-134.667 0 -210.667 -54.667 -228 -164h347v153z" />
    <glyph glyph-name="uniFEC4" unicode="&#x637;" horiz-adv-x="842" arabic-form="medial" 
d="M862 158v-157.999h-882v158h152v472h141v-300c20 45.333 56.667 81.666 110 108.999s114 41 182 41c52 0 92.333 -5.16699 121 -15.5s49 -27.833 61 -52.5s18 -59.667 18 -105v-149h97zM624 158.001v153c-23.333 7.33301 -63 11 -119 11
c-134.667 0 -210.667 -54.667 -228 -164h347z" />
    <glyph glyph-name="uniFEC6" unicode="&#x638;" horiz-adv-x="842" arabic-form="final" 
d="M862 158v-157.999h-842v158h112v472h141v-300c20 45.333 56.667 81.666 110 108.999s114 41 182 41c52 0 92.333 -5.16699 121 -15.5s49 -27.833 61 -52.5s18 -59.667 18 -105v-149h97zM624 158.001v153c-23.333 7.33301 -63 11 -119 11
c-134.667 0 -210.667 -54.667 -228 -164h347zM520.5 599.501c-12.333 9 -23.002 19.667 -32.002 32s-13.5 23.166 -13.5 32.499c0 10 4.33301 21.167 13 33.5s19.167 22.833 31.5 31.5s23.5 13 33.5 13s21.167 -4.33301 33.5 -13s22.833 -19.167 31.5 -31.5
s13 -23.5 13 -33.5c0 -9.33301 -4.5 -20.166 -13.5 -32.499s-19.667 -23 -32 -32s-23.166 -13.5 -32.499 -13.5s-20.166 4.5 -32.499 13.5z" />
    <glyph glyph-name="uniFEC7" unicode="&#x638;" horiz-adv-x="841" arabic-form="initial" 
d="M686 464.5c28.667 -10.333 49 -27.832 61 -52.499s18 -59.667 18 -105v-307h-785v158h152v472h141v-300c20 45.333 56.667 81.666 110 108.999s114 41 182 41c52 0 92.333 -5.16699 121 -15.5zM624 311.001c-23.333 7.33301 -63 11 -119 11
c-134.667 0 -210.667 -54.667 -228 -164h347v153zM520.5 599.501c-12.333 9 -23.002 19.667 -32.002 32s-13.5 23.166 -13.5 32.499c0 10 4.33301 21.167 13 33.5s19.167 22.833 31.5 31.5s23.5 13 33.5 13s21.167 -4.33301 33.5 -13s22.833 -19.167 31.5 -31.5
s13 -23.5 13 -33.5c0 -9.33301 -4.5 -20.166 -13.5 -32.499s-19.667 -23 -32 -32s-23.166 -13.5 -32.499 -13.5s-20.166 4.5 -32.499 13.5z" />
    <glyph glyph-name="uniFEC8" unicode="&#x638;" horiz-adv-x="842" arabic-form="medial" 
d="M862 158v-157.999h-882v158h152v472h141v-300c20 45.333 56.667 81.666 110 108.999s114 41 182 41c52 0 92.333 -5.16699 121 -15.5s49 -27.833 61 -52.5s18 -59.667 18 -105v-149h97zM624 158.001v153c-23.333 7.33301 -63 11 -119 11
c-134.667 0 -210.667 -54.667 -228 -164h347zM520.5 599.501c-12.333 9 -23.002 19.667 -32.002 32s-13.5 23.166 -13.5 32.499c0 10 4.33301 21.167 13 33.5s19.167 22.833 31.5 31.5s23.5 13 33.5 13s21.167 -4.33301 33.5 -13s22.833 -19.167 31.5 -31.5
s13 -23.5 13 -33.5c0 -9.33301 -4.5 -20.166 -13.5 -32.499s-19.667 -23 -32 -32s-23.166 -13.5 -32.499 -13.5s-20.166 4.5 -32.499 13.5z" />
    <glyph glyph-name="uniFECA" unicode="&#x639;" horiz-adv-x="702" arabic-form="final" 
d="M82 32.5c25.333 33.667 64 61.168 116 82.501c-41.333 33.333 -73.333 71.666 -96 114.999s-34 89.666 -34 138.999c0 40.667 22.167 70 66.5 88s116.5 27 216.5 27c101.333 0 173.833 -8.83301 217.5 -26.5s65.5 -47.167 65.5 -88.5c0 -80 -28.667 -148.667 -86 -206
c33.333 -3.33301 64.333 -5 93 -5h81v-158h-178c-68 0 -132.333 10.333 -193 31c-52.667 -17.333 -93.334 -33.166 -122.001 -47.499s-43 -27.833 -43 -40.5v-95c32.667 -4.66699 71.334 -7 116.001 -7c60 0 122 8 186 24l18 -156c-56 -17.333 -136.333 -26 -241 -26
c-78 0 -134.333 16.5 -169 49.5s-52 84.5 -52 154.5c0 63.333 12.667 111.833 38 145.5zM243.5 226.501c23 -24.333 58.5 -42.168 106.5 -53.501c49.333 12 85.5 30.5 108.5 55.5s34.5 57.167 34.5 96.5h-284c0 -41.333 11.5 -74.166 34.5 -98.499z" />
    <glyph glyph-name="uniFECB" unicode="&#x639;" horiz-adv-x="595" arabic-form="initial" 
d="M555 158v-158.001h-575v158h131c-3.33301 26.667 -5 54.334 -5 83.001c0 60.667 6.66699 108.167 20 142.5s35 59 65 74s72 22.5 126 22.5c66.667 0 129.667 -8 189 -24l-21 -151c-56.667 11.333 -105 17 -145 17c-36 0 -66.667 -2 -92 -6v-107c0 -18 5 -31 15 -39
s26 -12 48 -12h244z" />
    <glyph glyph-name="uniFECC" unicode="&#x639;" horiz-adv-x="702" arabic-form="medial" 
d="M722 158l0.000976562 -158h-178c-67.333 -0 -131.333 10.333 -192 31c-60.667 -20.667 -125.334 -31 -194.001 -31h-178v158h173c-56.667 62.667 -85 133 -85 211c0 40.667 22.167 70 66.5 88s116.5 27 216.5 27c101.333 0 173.833 -8.83301 217.5 -26.5
s65.5 -47.167 65.5 -88.5c0 -39.333 -7.16699 -76.833 -21.5 -112.5s-34.833 -68.5 -61.5 -98.5h171zM209.001 325c0 -39.333 11.333 -71.333 34 -96s58.667 -42.667 108 -54c49.333 11.333 85.333 29.333 108 54s34 56.667 34 96h-284z" />
    <glyph glyph-name="uniFECE" unicode="&#x63a;" horiz-adv-x="702" arabic-form="final" 
d="M82 32.5c25.333 33.667 64 61.168 116 82.501c-41.333 33.333 -73.333 71.666 -96 114.999s-34 89.666 -34 138.999c0 40.667 22.167 70 66.5 88s116.5 27 216.5 27c101.333 0 173.833 -8.83301 217.5 -26.5s65.5 -47.167 65.5 -88.5c0 -80 -28.667 -148.667 -86 -206
c33.333 -3.33301 64.333 -5 93 -5h81v-158h-178c-68 0 -132.333 10.333 -193 31c-52.667 -17.333 -93.334 -33.166 -122.001 -47.499s-43 -27.833 -43 -40.5v-95c32.667 -4.66699 71.334 -7 116.001 -7c60 0 122 8 186 24l18 -156c-56 -17.333 -136.333 -26 -241 -26
c-78 0 -134.333 16.5 -169 49.5s-52 84.5 -52 154.5c0 63.333 12.667 111.833 38 145.5zM243.5 226.501c23 -24.333 58.5 -42.168 106.5 -53.501c49.333 12 85.5 30.5 108.5 55.5s34.5 57.167 34.5 96.5h-284c0 -41.333 11.5 -74.166 34.5 -98.499zM318.5 599.499
c-12.333 9 -23.002 19.667 -32.002 32s-13.5 23.166 -13.5 32.499c0 10 4.33301 21.167 13 33.5s19.167 22.833 31.5 31.5s23.5 13 33.5 13s21.167 -4.33301 33.5 -13s22.833 -19.167 31.5 -31.5s13 -23.5 13 -33.5c0 -9.33301 -4.5 -20.166 -13.5 -32.499
s-19.667 -23 -32 -32s-23.166 -13.5 -32.499 -13.5s-20.166 4.5 -32.499 13.5z" />
    <glyph glyph-name="uniFECF" unicode="&#x63a;" horiz-adv-x="595" arabic-form="initial" 
d="M555 158v-158.001h-575v158h131c-3.33301 26.667 -5 54.334 -5 83.001c0 60.667 6.66699 108.167 20 142.5s35 59 65 74s72 22.5 126 22.5c66.667 0 129.667 -8 189 -24l-21 -151c-56.667 11.333 -105 17 -145 17c-36 0 -66.667 -2 -92 -6v-107c0 -18 5 -31 15 -39
s26 -12 48 -12h244zM292.5 599.499c-12.333 9 -23.002 19.667 -32.002 32s-13.5 23.166 -13.5 32.499c0 10 4.33301 21.167 13 33.5s19.167 22.833 31.5 31.5s23.5 13 33.5 13s21.167 -4.33301 33.5 -13s22.833 -19.167 31.5 -31.5s13 -23.5 13 -33.5
c0 -9.33301 -4.5 -20.166 -13.5 -32.499s-19.667 -23 -32 -32s-23.166 -13.5 -32.499 -13.5s-20.166 4.5 -32.499 13.5z" />
    <glyph glyph-name="uniFED0" unicode="&#x63a;" horiz-adv-x="702" arabic-form="medial" 
d="M722 158l0.000976562 -158h-178c-67.333 -0 -131.333 10.333 -192 31c-60.667 -20.667 -125.334 -31 -194.001 -31h-178v158h173c-56.667 62.667 -85 133 -85 211c0 40.667 22.167 70 66.5 88s116.5 27 216.5 27c101.333 0 173.833 -8.83301 217.5 -26.5
s65.5 -47.167 65.5 -88.5c0 -39.333 -7.16699 -76.833 -21.5 -112.5s-34.833 -68.5 -61.5 -98.5h171zM209.001 325c0 -39.333 11.333 -71.333 34 -96s58.667 -42.667 108 -54c49.333 11.333 85.333 29.333 108 54s34 56.667 34 96h-284zM318.501 599.5
c-12.333 9 -23.002 19.667 -32.002 32s-13.5 23.166 -13.5 32.499c0 10 4.33301 21.167 13 33.5s19.167 22.833 31.5 31.5s23.5 13 33.5 13s21.167 -4.33301 33.5 -13s22.833 -19.167 31.5 -31.5s13 -23.5 13 -33.5c0 -9.33301 -4.5 -20.166 -13.5 -32.499
s-19.667 -23 -32 -32s-23.166 -13.5 -32.499 -13.5s-20.166 4.5 -32.499 13.5z" />
    <glyph glyph-name="uniFED2" unicode="&#x641;" horiz-adv-x="1014" arabic-form="final" 
d="M1034 159l0.000976562 -158.001h-97v-1h-712c-59.333 0 -102.5 17.333 -129.5 52s-40.5 90.334 -40.5 167.001c0 70.667 10.333 135.667 31 195l135 -21c-16.667 -48.667 -25 -93 -25 -133c0 -44 4.66699 -78 14 -102h264c-6.66699 22 -11.167 42.5 -13.5 61.5
s-3.5 42.5 -3.5 70.5c0 68 19.167 117.333 57.5 148s101.833 46 190.5 46c46.667 0 87.667 -2.83301 123 -8.5s71.666 -15.5 108.999 -29.5v-287h97zM796.001 321.999h-149c-16 0 -26.833 -3 -32.5 -9s-8.5 -17 -8.5 -33v-122h149c15.333 0 26 3 32 9s9 16.667 9 32v123z
M694.501 599.499c-12.333 9 -23.002 19.667 -32.002 32s-13.5 23.166 -13.5 32.499c0 10 4.33301 21.167 13 33.5s19.167 22.833 31.5 31.5s23.5 13 33.5 13s21.167 -4.33301 33.5 -13s22.833 -19.167 31.5 -31.5s13 -23.5 13 -33.5c0 -9.33301 -4.5 -20.166 -13.5 -32.499
s-19.667 -23 -32 -32s-23.166 -13.5 -32.499 -13.5s-20.166 4.5 -32.499 13.5z" />
    <glyph glyph-name="uniFED3" unicode="&#x641;" horiz-adv-x="667" arabic-form="initial" 
d="M127 158c-6.66699 22.667 -11.334 43.5 -14.001 62.5s-4 42.167 -4 69.5c0 68 19.333 117.333 58 148s102 46 190 46c46.667 0 87.834 -2.83301 123.501 -8.5s72.167 -15.5 109.5 -29.5v-446h-610v158h147zM440 167c6 6 9 16.667 9 32v126h-149
c-16 0 -26.833 -3 -32.5 -9s-8.5 -17 -8.5 -33v-125h149c15.333 0 26 3 32 9zM324.5 599.5c-12.333 9 -23.002 19.667 -32.002 32s-13.5 23.166 -13.5 32.499c0 10 4.33301 21.167 13 33.5s19.167 22.833 31.5 31.5s23.5 13 33.5 13s21.167 -4.33301 33.5 -13
s22.833 -19.167 31.5 -31.5s13 -23.5 13 -33.5c0 -9.33301 -4.5 -20.166 -13.5 -32.499s-19.667 -23 -32 -32s-23.166 -13.5 -32.499 -13.5s-20.166 4.5 -32.499 13.5z" />
    <glyph glyph-name="uniFED4" unicode="&#x641;" horiz-adv-x="667" arabic-form="medial" 
d="M687 159v-158h-97v-1h-610v158h147c-6.66699 22.667 -11.334 43.5 -14.001 62.5s-4 42.167 -4 69.5c0 68 19.333 117.333 58 148s102 46 190 46c46.667 0 87.834 -2.83301 123.501 -8.5s72.167 -15.5 109.5 -29.5v-287h97zM449 325h-149c-16 0 -26.833 -3 -32.5 -9
s-8.5 -17 -8.5 -33v-125h149c15.333 0 26 3 32 9s9 16.667 9 32v126zM324.5 599.5c-12.333 9 -23.002 19.667 -32.002 32s-13.5 23.166 -13.5 32.499c0 10 4.33301 21.167 13 33.5s19.167 22.833 31.5 31.5s23.5 13 33.5 13s21.167 -4.33301 33.5 -13
s22.833 -19.167 31.5 -31.5s13 -23.5 13 -33.5c0 -9.33301 -4.5 -20.166 -13.5 -32.499s-19.667 -23 -32 -32s-23.166 -13.5 -32.499 -13.5s-20.166 4.5 -32.499 13.5z" />
    <glyph glyph-name="uniFED6" unicode="&#x642;" horiz-adv-x="929" arabic-form="final" 
d="M949 158l-0.000976562 -158.001h-97v-73c0 -70.667 -17.5 -122.167 -52.5 -154.5s-90.833 -48.5 -167.5 -48.5h-410c-59.333 0 -102.5 20.333 -129.5 61s-40.5 106.334 -40.5 197.001c0 85.333 10.333 163.333 31 234l135 -21c-16.667 -63.333 -25 -120.666 -25 -171.999
c0 -32.667 0.833008 -59.667 2.5 -81s4.83398 -41.333 9.50098 -60h506v118h-138c-48.667 0 -87.667 8.33301 -117 25s-50.833 43 -64.5 79s-20.5 84 -20.5 144c0 57.333 8.33301 103.166 25 137.499s43.167 59.333 79.5 75s84.166 23.5 143.499 23.5
c49.333 0 91.833 -2.83301 127.5 -8.5s70.834 -15.5 105.501 -29.5v-288h97zM701.999 166.999c6 6 9 16.668 9 32.001v126h-134c-21.333 0 -36 -2.83301 -44 -8.5s-12 -16.834 -12 -33.501v-125h149c15.333 0 26 3 32 9zM490.499 599.5c-12.333 9 -23.002 19.667 -32.002 32
s-13.5 23.166 -13.5 32.499c0 10 4.33301 21.167 13 33.5s19.167 22.833 31.5 31.5s23.5 13 33.5 13s21.167 -4.33301 33.5 -13s22.833 -19.167 31.5 -31.5s13 -23.5 13 -33.5c0 -9.33301 -4.5 -20.166 -13.5 -32.499s-19.667 -23 -32 -32s-23.166 -13.5 -32.499 -13.5
s-20.166 4.5 -32.499 13.5zM670.497 599.5c-12.333 9 -23.002 19.667 -32.002 32s-13.5 23.166 -13.5 32.499c0 10 4.33301 21.167 13 33.5s19.167 22.833 31.5 31.5s23.5 13 33.5 13s21.167 -4.33301 33.5 -13s22.833 -19.167 31.5 -31.5s13 -23.5 13 -33.5
c0 -9.33301 -4.5 -20.166 -13.5 -32.499s-19.667 -23 -32 -32s-23.166 -13.5 -32.499 -13.5s-20.166 4.5 -32.499 13.5z" />
    <glyph glyph-name="uniFED7" unicode="&#x642;" horiz-adv-x="667" arabic-form="initial" 
d="M127 158c-6.66699 22.667 -11.334 43.5 -14.001 62.5s-4 42.167 -4 69.5c0 68 19.333 117.333 58 148s102 46 190 46c46.667 0 87.834 -2.83301 123.501 -8.5s72.167 -15.5 109.5 -29.5v-446h-610v158h147zM440 167c6 6 9 16.667 9 32v126h-149
c-16 0 -26.833 -3 -32.5 -9s-8.5 -17 -8.5 -33v-125h149c15.333 0 26 3 32 9zM235.5 599.5c-12.333 9 -23.002 19.667 -32.002 32s-13.5 23.166 -13.5 32.499c0 10 4.33301 21.167 13 33.5s19.167 22.833 31.5 31.5s23.5 13 33.5 13s21.167 -4.33301 33.5 -13
s22.833 -19.167 31.5 -31.5s13 -23.5 13 -33.5c0 -9.33301 -4.5 -20.166 -13.5 -32.499s-19.667 -23 -32 -32s-23.166 -13.5 -32.499 -13.5s-20.166 4.5 -32.499 13.5zM415.498 599.5c-12.333 9 -23.002 19.667 -32.002 32s-13.5 23.166 -13.5 32.499
c0 10 4.33301 21.167 13 33.5s19.167 22.833 31.5 31.5s23.5 13 33.5 13s21.167 -4.33301 33.5 -13s22.833 -19.167 31.5 -31.5s13 -23.5 13 -33.5c0 -9.33301 -4.5 -20.166 -13.5 -32.499s-19.667 -23 -32 -32s-23.166 -13.5 -32.499 -13.5s-20.166 4.5 -32.499 13.5z" />
    <glyph glyph-name="uniFED8" unicode="&#x642;" horiz-adv-x="667" arabic-form="medial" 
d="M687 159v-158h-97v-1h-610v158h147c-6.66699 22.667 -11.334 43.5 -14.001 62.5s-4 42.167 -4 69.5c0 68 19.333 117.333 58 148s102 46 190 46c46.667 0 87.834 -2.83301 123.501 -8.5s72.167 -15.5 109.5 -29.5v-287h97zM449 325h-149c-16 0 -26.833 -3 -32.5 -9
s-8.5 -17 -8.5 -33v-125h149c15.333 0 26 3 32 9s9 16.667 9 32v126zM235.5 599.5c-12.333 9 -23.002 19.667 -32.002 32s-13.5 23.166 -13.5 32.499c0 10 4.33301 21.167 13 33.5s19.167 22.833 31.5 31.5s23.5 13 33.5 13s21.167 -4.33301 33.5 -13
s22.833 -19.167 31.5 -31.5s13 -23.5 13 -33.5c0 -9.33301 -4.5 -20.166 -13.5 -32.499s-19.667 -23 -32 -32s-23.166 -13.5 -32.499 -13.5s-20.166 4.5 -32.499 13.5zM415.498 599.5c-12.333 9 -23.002 19.667 -32.002 32s-13.5 23.166 -13.5 32.499
c0 10 4.33301 21.167 13 33.5s19.167 22.833 31.5 31.5s23.5 13 33.5 13s21.167 -4.33301 33.5 -13s22.833 -19.167 31.5 -31.5s13 -23.5 13 -33.5c0 -9.33301 -4.5 -20.166 -13.5 -32.499s-19.667 -23 -32 -32s-23.166 -13.5 -32.499 -13.5s-20.166 4.5 -32.499 13.5z" />
    <glyph glyph-name="uniFEDA" unicode="&#x643;" horiz-adv-x="914" arabic-form="final" 
d="M566 438l-234 -62v65l38 11c-5.33301 16 -8 34 -8 54c0 49.333 15 85 45 107s73.667 35.333 131 40v-76c-34 -4 -63.333 -11 -88 -21l-1 -53c0 -15.333 6.33301 -23 19 -23c5.33301 0 11.333 1 18 3l80 22v-67zM934 158v-158.001h-709c-59.333 0 -102.5 17.333 -129.5 52
s-40.5 90.334 -40.5 167.001c0 70.667 10.333 135.667 31 195l135 -21c-16.667 -48.667 -25 -93 -25 -133c0 -44 4.66699 -78 14 -102h487v472h140v-472h97z" />
    <glyph glyph-name="uniFEDB" unicode="&#x643;" horiz-adv-x="721" arabic-form="initial" 
d="M-20 158l523 0.000976562v130h-307c-36.667 0 -64.834 10.167 -84.501 30.5s-29.5 49.5 -29.5 87.5c0 50 15.167 106.833 45.5 170.5s67.166 116.5 110.499 158.5l113 -61c-28 -26 -56 -62.333 -84 -109s-45.667 -86.334 -53 -119.001h251
c46.667 0 82.834 -5.33301 108.501 -16s43.834 -28.667 54.501 -54s16 -61.333 16 -108v-268h-664v158z" />
    <glyph glyph-name="uniFEDC" unicode="&#x643;" horiz-adv-x="721" arabic-form="medial" 
d="M741 158v-157.999h-761v158h523v130h-307c-36.667 0 -64.834 10.167 -84.501 30.5s-29.5 49.5 -29.5 87.5c0 50 15.167 106.833 45.5 170.5s67.166 116.5 110.499 158.5l113 -61c-28 -26 -56 -62.333 -84 -109s-45.667 -86.334 -53 -119.001h251
c46.667 0 82.834 -5.33301 108.501 -16s43.834 -28.667 54.501 -54s16 -61.333 16 -108v-110h97z" />
    <glyph glyph-name="uniFEDE" unicode="&#x644;" horiz-adv-x="678" arabic-form="final" 
d="M698 158v-157.999h-97v-2c0 -66 -7 -115.333 -21 -148s-40.167 -55.834 -78.5 -69.501s-96.5 -20.5 -174.5 -20.5c-72.667 0 -127.667 6.83301 -165 20.5s-63.333 37.667 -78 72s-22 84.5 -22 150.5c0 88 11 169.333 33 244l133 -22c-16.667 -72 -25 -137 -25 -195
c0 -49.333 3.33301 -86.333 10 -111h143c37.333 0 64 3.66699 80 11s24 21.333 24 42v664h141v-478h97z" />
    <glyph glyph-name="uniFEDF" unicode="&#x644;" horiz-adv-x="350" arabic-form="initial" 
d="M-20 0v158h152v472h141v-630h-293z" />
    <glyph glyph-name="uniFEE0" unicode="&#x644;" horiz-adv-x="350" arabic-form="medial" 
d="M370 158v-158h-390v158h152v472h141v-472h97z" />
    <glyph glyph-name="uniFEE2" unicode="&#x645;" horiz-adv-x="688" arabic-form="final" 
d="M708 158v-158.002h-548c-9.33301 -32 -14 -76.667 -14 -134c0 -23.333 2.33301 -48.166 7 -74.499s12.667 -60.5 24 -102.5l-139 -23c-22 70 -33 148 -33 234c0 75.333 8.83301 133.333 26.5 174s45.834 66.334 84.501 77.001c-4.66699 27.333 -7 59.333 -7 96
c0 32.667 2.66699 63.667 8 93s13.666 62 24.999 98c82 30.667 170.667 46 266 46c71.333 0 123 -13 155 -39s48 -67.667 48 -125v-162h97zM471 319.998c-16.667 3.33301 -43.333 5 -80 5c-42.667 0 -87 -4 -133 -12c-5.33301 -23.333 -8 -45.333 -8 -66
c0 -36 2 -65.667 6 -89h215v162z" />
    <glyph glyph-name="uniFEE3" unicode="&#x645;" horiz-adv-x="684" arabic-form="initial" 
d="M562.5 445c32.333 -26 48.5029 -67.667 48.5029 -125v-320h-631v158h135c-4 27.333 -6 57 -6 89c0 32.667 2.66699 63.667 8 93s13.666 62 24.999 98c81.333 30.667 169.666 46 264.999 46c71.333 0 123.166 -13 155.499 -39zM470.003 320
c-17.333 3.33301 -43.668 5 -79.001 5c-43.333 0 -87.666 -4 -132.999 -12c-5.33301 -23.333 -8 -45.333 -8 -66c0 -36 2 -65.667 6 -89h214v162z" />
    <glyph glyph-name="uniFEE4" unicode="&#x645;" horiz-adv-x="688" arabic-form="medial" 
d="M708 158l0.00292969 -158h-728v158h135c-4 27.333 -6 57 -6 89c0 32.667 2.66699 63.667 8 93s13.666 62 24.999 98c81.333 30.667 169.666 46 264.999 46c71.333 0 123.166 -13 155.499 -39s48.5 -67.667 48.5 -125v-162h97zM470.003 320
c-17.333 3.33301 -43.668 5 -79.001 5c-43.333 0 -87.666 -4 -132.999 -12c-5.33301 -23.333 -8 -45.333 -8 -66c0 -36 2 -65.667 6 -89h214v162z" />
    <glyph glyph-name="uniFEE6" unicode="&#x646;" horiz-adv-x="678" arabic-form="final" 
d="M698 158v-157.999h-97v-2c0 -66 -7 -115.333 -21 -148s-40.167 -55.834 -78.5 -69.501s-96.5 -20.5 -174.5 -20.5c-72.667 0 -127.667 6.83301 -165 20.5s-63.333 37.667 -78 72s-22 84.5 -22 150.5c0 88 11 169.333 33 244l133 -22c-16.667 -72 -25 -137 -25 -195
c0 -49.333 3.33301 -86.333 10 -111h143c37.333 0 64 3.66699 80 11s24 21.333 24 42v498h141v-312h97zM299.5 599.501c-12.333 9 -23.002 19.667 -32.002 32s-13.5 23.166 -13.5 32.499c0 10 4.33301 21.167 13 33.5s19.167 22.833 31.5 31.5s23.5 13 33.5 13
s21.167 -4.33301 33.5 -13s22.833 -19.167 31.5 -31.5s13 -23.5 13 -33.5c0 -9.33301 -4.5 -20.166 -13.5 -32.499s-19.667 -23 -32 -32s-23.166 -13.5 -32.499 -13.5s-20.166 4.5 -32.499 13.5z" />
    <glyph glyph-name="uniFEE7" unicode="&#x646;" horiz-adv-x="350" arabic-form="initial" 
d="M-20 158h152v312h141v-470h-293v158zM170.5 599.5c-12.333 9 -23.002 19.667 -32.002 32s-13.5 23.166 -13.5 32.499c0 10 4.33301 21.167 13 33.5s19.167 22.833 31.5 31.5s23.5 13 33.5 13s21.167 -4.33301 33.5 -13s22.833 -19.167 31.5 -31.5s13 -23.5 13 -33.5
c0 -9.33301 -4.5 -20.166 -13.5 -32.499s-19.667 -23 -32 -32s-23.166 -13.5 -32.499 -13.5s-20.166 4.5 -32.499 13.5z" />
    <glyph glyph-name="uniFEE8" unicode="&#x646;" horiz-adv-x="350" arabic-form="medial" 
d="M370 158v-158h-390v158h152v312h141v-312h97zM170.5 599.5c-12.333 9 -23.002 19.667 -32.002 32s-13.5 23.166 -13.5 32.499c0 10 4.33301 21.167 13 33.5s19.167 22.833 31.5 31.5s23.5 13 33.5 13s21.167 -4.33301 33.5 -13s22.833 -19.167 31.5 -31.5
s13 -23.5 13 -33.5c0 -9.33301 -4.5 -20.166 -13.5 -32.499s-19.667 -23 -32 -32s-23.166 -13.5 -32.499 -13.5s-20.166 4.5 -32.499 13.5z" />
    <glyph glyph-name="uniFEEA" unicode="&#x647;" horiz-adv-x="639" arabic-form="final" 
d="M659 158v-158.002h-360c-65.333 0 -114.166 6.33301 -146.499 19s-54.833 35.334 -67.5 68.001s-19 82 -19 148s6.33301 115.333 19 148s35.167 55.334 67.5 68.001s81.166 19 146.499 19h263v-312h97zM422 311.998h-163c-28.667 0 -43 -12.333 -43 -37v-80
c0 -24.667 14.333 -37 43 -37h163v154z" />
    <glyph glyph-name="uniFEEB" unicode="&#x647;" horiz-adv-x="767" arabic-form="initial" 
d="M717 123l0.00195312 -122.999h-737v158h99c1.33301 58 7.83301 100.833 19.5 128.5s30.334 46.167 56.001 55.5s64.5 14 116.5 14c53.333 0 93.166 -4.66699 119.499 -14s45.166 -27.833 56.499 -55.5s17.666 -70.5 18.999 -128.5h97l-34 140
c-8.66699 34 -22.834 61.333 -42.501 82s-48.667 36 -87 46s-89.166 15 -152.499 15l8 154c87.333 0 157.833 -7.66699 211.5 -23s95.667 -40.333 126 -75s52.833 -82.334 67.5 -143.001zM202.002 158.001h141v84h-104c-24.667 0 -37 -10.333 -37 -31v-53z" />
    <glyph glyph-name="uniFEEC" unicode="&#x647;" horiz-adv-x="767" arabic-form="medial" 
d="M787 158l0.00195312 -157.999h-807v158h99c1.33301 58 7.83301 100.833 19.5 128.5s30.334 46.167 56.001 55.5s64.5 14 116.5 14c53.333 0 93.166 -4.66699 119.499 -14s45.166 -27.833 56.499 -55.5s17.666 -70.5 18.999 -128.5h97l-34 140
c-8.66699 34 -22.834 61.333 -42.501 82s-48.667 36 -87 46s-89.166 15 -152.499 15l8 154c87.333 0 157.833 -7.66699 211.5 -23s95.667 -40.333 126 -75s52.833 -82.334 67.5 -143.001l48 -196h79zM202.002 158.001h141v84h-104c-24.667 0 -37 -10.333 -37 -31v-53z" />
    <glyph glyph-name="uniFEEE" unicode="&#x648;" horiz-adv-x="626" arabic-form="final" 
d="M647 0h-137.001c-18 -51.333 -43.5 -101.166 -76.5 -149.499s-71.167 -91.5 -114.5 -129.5l-94 104c56.667 48.667 101.334 107 134.001 175h-99c-48.667 0 -87.667 8.33301 -117 25s-50.833 43 -64.5 79s-20.5 84 -20.5 144c0 57.333 8.33301 103.166 25 137.499
s43.167 59.333 79.5 75s84.166 23.5 143.499 23.5c49.333 0 91.833 -2.83301 127.5 -8.5s70.834 -15.5 105.501 -29.5v-288h108v-158zM356.999 158c15.333 0 26 3.00098 32 9.00098s9 16.667 9 32v126h-134c-21.333 0 -36 -2.83301 -44 -8.5s-12 -16.834 -12 -33.501v-125
h149z" />
    <glyph glyph-name="uniFEF0" unicode="&#x649;" horiz-adv-x="878" arabic-form="final" 
d="M899 158l0.00195312 -158.001h-98v-51c0 -60.667 -10.833 -107.667 -32.5 -141s-59.167 -57.333 -112.5 -72s-130 -22 -230 -22c-97.333 0 -171.833 6.83301 -223.5 20.5s-88 37 -109 70s-31.5 80.833 -31.5 143.5c0 75.333 11 145 33 209l137 -23
c-9.33301 -32 -16.5 -60.5 -21.5 -85.5s-7.5 -49.167 -7.5 -72.5c0 -45.333 3.33301 -80 10 -104h281c43.333 0 76.666 1.5 99.999 4.5s40.166 8.16699 50.499 15.5s15.5 18.333 15.5 33v75h-11c-38 0 -77.333 2.83301 -118 8.5s-78.667 13.834 -114 24.501l21 151
c68 -17.333 126.667 -26 176 -26h285z" />
    <glyph glyph-name="uniFEF2" unicode="&#x64a;" horiz-adv-x="878" arabic-form="final" 
d="M899 158l0.00195312 -158.001h-98v-51c0 -60.667 -10.833 -107.667 -32.5 -141s-59.167 -57.333 -112.5 -72s-130 -22 -230 -22c-97.333 0 -171.833 6.83301 -223.5 20.5s-88 37 -109 70s-31.5 80.833 -31.5 143.5c0 75.333 11 145 33 209l137 -23
c-9.33301 -32 -16.5 -60.5 -21.5 -85.5s-7.5 -49.167 -7.5 -72.5c0 -45.333 3.33301 -80 10 -104h281c43.333 0 76.666 1.5 99.999 4.5s40.166 8.16699 50.499 15.5s15.5 18.333 15.5 33v75h-11c-38 0 -77.333 2.83301 -118 8.5s-78.667 13.834 -114 24.501l21 151
c68 -17.333 126.667 -26 176 -26h285zM313.502 -471.501c-12.333 9 -23.002 19.667 -32.002 32s-13.5 23.166 -13.5 32.499c0 10 4.33301 21.167 13 33.5s19.167 22.833 31.5 31.5s23.5 13 33.5 13s21.167 -4.33301 33.5 -13s22.833 -19.167 31.5 -31.5s13 -23.5 13 -33.5
c0 -9.33301 -4.5 -20.166 -13.5 -32.499s-19.667 -23 -32 -32s-23.166 -13.5 -32.499 -13.5s-20.166 4.5 -32.499 13.5zM493.5 -471.501c-12.333 9 -23.002 19.667 -32.002 32s-13.5 23.166 -13.5 32.499c0 10 4.33301 21.167 13 33.5s19.167 22.833 31.5 31.5
s23.5 13 33.5 13s21.167 -4.33301 33.5 -13s22.833 -19.167 31.5 -31.5s13 -23.5 13 -33.5c0 -9.33301 -4.5 -20.166 -13.5 -32.499s-19.667 -23 -32 -32s-23.166 -13.5 -32.499 -13.5s-20.166 4.5 -32.499 13.5z" />
    <glyph glyph-name="uniFEF3" unicode="&#x64a;" horiz-adv-x="350" arabic-form="initial" 
d="M-20 158h152v312h141v-470h-293v158zM20.5 -212.5c-12.333 9 -23.002 19.667 -32.002 32s-13.5 23.166 -13.5 32.499c0 10 4.33301 21.167 13 33.5s19.167 22.833 31.5 31.5s23.5 13 33.5 13s21.167 -4.33301 33.5 -13s22.833 -19.167 31.5 -31.5s13 -23.5 13 -33.5
c0 -9.33301 -4.5 -20.166 -13.5 -32.499s-19.667 -23 -32 -32s-23.166 -13.5 -32.499 -13.5s-20.166 4.5 -32.499 13.5zM200.498 -212.5c-12.333 9 -23.002 19.667 -32.002 32s-13.5 23.166 -13.5 32.499c0 10 4.33301 21.167 13 33.5s19.167 22.833 31.5 31.5
s23.5 13 33.5 13s21.167 -4.33301 33.5 -13s22.833 -19.167 31.5 -31.5s13 -23.5 13 -33.5c0 -9.33301 -4.5 -20.166 -13.5 -32.499s-19.667 -23 -32 -32s-23.166 -13.5 -32.499 -13.5s-20.166 4.5 -32.499 13.5z" />
    <glyph glyph-name="uniFEF4" unicode="&#x64a;" horiz-adv-x="350" arabic-form="medial" 
d="M370 158v-158h-390v158h152v312h141v-312h97zM79.5 -221.5c-12.333 9 -23.002 19.667 -32.002 32s-13.5 23.166 -13.5 32.499c0 10 4.33301 21.167 13 33.5s19.167 22.833 31.5 31.5s23.5 13 33.5 13s21.167 -4.33301 33.5 -13s22.833 -19.167 31.5 -31.5
s13 -23.5 13 -33.5c0 -9.33301 -4.5 -20.166 -13.5 -32.499s-19.667 -23 -32 -32s-23.166 -13.5 -32.499 -13.5s-20.166 4.5 -32.499 13.5zM259.498 -221.5c-12.333 9 -23.002 19.667 -32.002 32s-13.5 23.166 -13.5 32.499c0 10 4.33301 21.167 13 33.5
s19.167 22.833 31.5 31.5s23.5 13 33.5 13s21.167 -4.33301 33.5 -13s22.833 -19.167 31.5 -31.5s13 -23.5 13 -33.5c0 -9.33301 -4.5 -20.166 -13.5 -32.499s-19.667 -23 -32 -32s-23.166 -13.5 -32.499 -13.5s-20.166 4.5 -32.499 13.5z" />
    <glyph glyph-name=".notdef" horiz-adv-x="258" 
 />
    <glyph glyph-name="space" unicode=" " horiz-adv-x="212" 
 />
    <glyph glyph-name="exclam" unicode="!" horiz-adv-x="286" 
d="M49 620c0 8 2.5 14.167 7.5 18.5s13.833 6.5 26.5 6.5h121c12.667 0 21.5 -2.16699 26.5 -6.5s7.5 -10.5 7.5 -18.5l-37 -398h-114zM74 148.5c12 13 35.333 19.5 70 19.5s58 -6.5 70 -19.5s18 -35.833 18 -68.5c0 -32 -6 -54.333 -18 -67s-35.333 -19 -70 -19
s-58 6.33301 -70 19s-18 35 -18 67c0 32.667 6 55.5 18 68.5z" />
    <glyph glyph-name="quotedbl" unicode="&#x22;" horiz-adv-x="501" 
d="M49 542v81c0 18 12.333 27 37 27h97c24.667 0 37 -9 37 -27v-81l-47 -198h-78zM282 542v81c0 18 12.333 27 37 27h97c24.667 0 37 -9 37 -27v-81l-47 -198h-78z" />
    <glyph glyph-name="numbersign" unicode="#" horiz-adv-x="797" 
d="M775 494l-29.999 -75c-4.66699 -12.667 -10 -21 -16 -25s-14 -6 -24 -6h-79l-60 -154h104l-30 -75c-4.66699 -12 -10 -20 -16 -24s-14 -6 -24 -6h-76l-57 -144c-4 -9.33301 -8.83301 -15.833 -14.5 -19.5s-15.167 -5.5 -28.5 -5.5h-87l67 169h-154l-57 -144
c-4 -9.33301 -8.83301 -15.833 -14.5 -19.5s-15.167 -5.5 -28.5 -5.5h-87l67 169h-108l30 75c4.66699 12 10 20 16 24s14 6 24 6h79l61 154h-105l30 75c4.66699 12 10.167 20.167 16.5 24.5s14.166 6.5 23.499 6.5h77l58 146c4 9.33301 8.83301 15.833 14.5 19.5
s15.167 5.5 28.5 5.5h87l-68 -171h154l58 146c4 9.33301 8.83301 15.833 14.5 19.5s15.167 5.5 28.5 5.5h87l-68 -171h107zM506.001 388h-154l-60 -154h153z" />
    <glyph glyph-name="dollar" unicode="$" horiz-adv-x="569" 
d="M473.5 53.5c-33.667 -31 -87.833 -48.1719 -162.5 -51.5049l-11 -131h-107l12 133c-58 4 -111.333 13.333 -160 28l23 138c60.667 -18.667 124.667 -28 192 -28c32 0 60 1.66699 84 5v82l-86 8c-52 4.66699 -92.667 13.334 -122 26.001s-50.5 31.334 -63.5 56.001
s-19.5 57.667 -19.5 99c0 50 6.66699 89.5 20 118.5s35 50.5 65 64.5s70.667 21.667 122 23l11 131h107l-12 -135c42.667 -4 85 -11 127 -21l-21 -135c-31.333 6.66699 -59 11.334 -83 14.001s-49.333 4 -76 4c-31.333 0 -58 -1.33301 -80 -4v-82l78 -7
c76 -7.33301 130.5 -25.666 163.5 -54.999s49.5 -74.666 49.5 -135.999c0 -65.333 -16.833 -113.5 -50.5 -144.5z" />
    <glyph glyph-name="percent" unicode="%" horiz-adv-x="1245" 
d="M76 558.5c10.667 29.667 29.667 50.668 57 63.001s67.333 18.5 120 18.5s92.5 -6 119.5 -18s46 -33 57 -63s16.5 -74 16.5 -132c0 -58.667 -5.33301 -102.834 -16 -132.501s-29.5 -50.5 -56.5 -62.5s-67.167 -18 -120.5 -18s-93.5 6 -120.5 18s-45.833 33 -56.5 63
s-16 74 -16 132s5.33301 101.833 16 131.5zM174 340.001c0 -14 3.5 -23.167 10.5 -27.5s21.833 -6.5 44.5 -6.5h103v208c0 13.333 -4 22.333 -12 27s-23.667 7 -47 7h-99v-208zM520 -34.499c-5.33301 -3.66699 -14.3359 -5.5 -27.0029 -5.5h-44l262 680
c4.66699 9.33301 9.83398 15.833 15.501 19.5s14.834 5.5 27.501 5.5h43l-261 -680c-5.33301 -9.33301 -10.666 -15.833 -15.999 -19.5zM814.997 334.501c10.667 29.667 29.667 50.668 57 63.001s67.333 18.5 120 18.5s92.5 -6 119.5 -18s46 -33 57 -63s16.5 -74 16.5 -132
c0 -58.667 -5.33301 -102.834 -16 -132.501s-29.5 -50.5 -56.5 -62.5s-67.167 -18 -120.5 -18s-93.5 6 -120.5 18s-45.833 33 -56.5 63s-16 74 -16 132s5.33301 101.833 16 131.5zM912.997 116.002c0 -14 3.5 -23.167 10.5 -27.5s21.833 -6.5 44.5 -6.5h103v208
c0 13.333 -4 22.333 -12 27s-23.667 7 -47 7h-99v-208z" />
    <glyph glyph-name="ampersand" unicode="&#x26;" horiz-adv-x="645" 
d="M599 245l-52.001 0.000976562v-346l-106 -14l-23 138c-44.667 -13.333 -82.167 -23 -112.5 -29s-58.166 -9 -83.499 -9c-120.667 0 -181 64.333 -181 193c0 106.667 42.333 166.667 127 180v4l-83 27c4.66699 62 16 111.167 34 147.5s45 62.666 81 78.999
s84 24.5 144 24.5c31.333 0 64.333 -2.5 99 -7.5s60 -10.833 76 -17.5l-23 -140c-18 5.33301 -39.833 9.83301 -65.5 13.5s-47.5 5.5 -65.5 5.5c-36 0 -60.667 -5 -74 -15s-20 -28.667 -20 -56v-48h348zM380.999 245.001h-150.999v-74c0 -22.667 6.5 -40.167 19.5 -52.5
s31.833 -18.5 56.5 -18.5c35.333 0 67.666 3.33301 96.999 10z" />
    <glyph glyph-name="quotesingle" unicode="'" horiz-adv-x="268" 
d="M49 542v81c0 18 12.333 27 37 27h97c24.667 0 37 -9 37 -27v-81l-47 -198h-78z" />
    <glyph glyph-name="parenleft" unicode="(" horiz-adv-x="327" 
d="M89.5 4c-43 76 -64.5 179.001 -64.5 309.001s21.5 233 64.5 309s104.5 126 184.5 150l19 -135c-36.667 -20.667 -63.667 -56.334 -81 -107.001s-26 -123 -26 -217c0 -94.667 8.66699 -167.167 26 -217.5s44.333 -85.833 81 -106.5l-19 -135c-80 24 -141.5 74 -184.5 150z
" />
    <glyph glyph-name="parenright" unicode=")" horiz-adv-x="327" 
d="M34 -11c36.667 20.667 63.667 56.166 81 106.499s26 122.833 26 217.5c0 94 -8.66699 166.333 -26 217s-44.333 86.334 -81 107.001l19 135c80 -24 141.5 -74 184.5 -150s64.5 -179 64.5 -309s-21.5 -233 -64.5 -309s-104.5 -126 -184.5 -150z" />
    <glyph glyph-name="asterisk" unicode="*" horiz-adv-x="532" 
d="M414 439l39 -52l-111 -81l-38 53l-38 92l-38 -92l-39 -53l-111 81l39 52l75 65l-99 9l-62 19l42 131l62 -20l85 -52l-23 96v66h137v-66l-23 -96l85 52l62 20l42 -131l-62 -19l-99 -9z" />
    <glyph glyph-name="plus" unicode="+" horiz-adv-x="530" 
d="M473 248h-144v-144h-128v144h-144v128h144v144h128v-144h144v-128z" />
    <glyph glyph-name="comma" unicode="," horiz-adv-x="266" 
d="M61 -115l29 116c-20 4 -34.167 12.667 -42.5 26s-12.5 34.333 -12.5 63c0 37.333 7.16699 63 21.5 77s40.166 21 77.499 21s62.833 -7 76.5 -21s20.5 -39.667 20.5 -77c-0.666992 -23.333 -2.66699 -40.5 -6 -51.5s-11.666 -29.833 -24.999 -56.5l-61 -123z" />
    <glyph glyph-name="hyphen" unicode="-" horiz-adv-x="350" 
d="M42.5 334.5c10.333 5 26.833 7.5 49.5 7.5h231v-94c0 -16.667 -5.16699 -27.5 -15.5 -32.5s-26.833 -7.5 -49.5 -7.5h-231v94c0 16.667 5.16699 27.5 15.5 32.5z" />
    <glyph glyph-name="period" unicode="." horiz-adv-x="266" 
d="M55 166c13.333 14.667 39.333 22 78 22s64.667 -7.33301 78 -22s20 -40 20 -76c0 -24 -2.66699 -42.833 -8 -56.5s-15 -23.667 -29 -30s-34.333 -9.5 -61 -9.5s-47 3.16699 -61 9.5s-23.667 16.333 -29 30s-8 32.5 -8 56.5c0 36 6.66699 61.333 20 76z" />
    <glyph glyph-name="slash" unicode="/" horiz-adv-x="404" 
d="M73 -35c-6 -3.33301 -15 -5 -27 -5h-46l315 680c4.66699 10 10 16.667 16 20s15 5 27 5h46l-315 -680c-4.66699 -10 -10 -16.667 -16 -20z" />
    <glyph glyph-name="zero" unicode="0" horiz-adv-x="663" 
d="M70.5 512.5c17 46.333 45.832 79.168 86.499 98.501s99 29 175 29s134.333 -9.5 175 -28.5s69.334 -51.833 86.001 -98.5s25 -113.667 25 -201s-8.33301 -154.166 -25 -200.499s-45.167 -79 -85.5 -98s-98.833 -28.5 -175.5 -28.5s-135.167 9.5 -175.5 28.5
s-69 51.667 -86 98s-25.5 113.166 -25.5 200.499s8.5 154.166 25.5 200.499zM233.999 188.002c0 -14.667 1.83203 -25.667 5.49902 -33s10.334 -12.5 20.001 -15.5s24.5 -4.5 44.5 -4.5h125v302c0 20.667 -5.16699 34.667 -15.5 42s-30.5 11 -60.5 11h-119v-302z" />
    <glyph glyph-name="one" unicode="1" horiz-adv-x="511" 
d="M27 145h163v322l-173 -15v158l349 30v-495h122v-145h-461v145z" />
    <glyph glyph-name="two" unicode="2" horiz-adv-x="584" 
d="M40 134c0 41.333 8.16699 75.1689 24.5 101.502s46 51.833 89 76.5s108.833 54.667 197.5 90v81c-19.333 4.66699 -50.666 7 -93.999 7c-58.667 0 -119 -6.33301 -181 -19l-24 138c38 10 78 17.667 120 23s82 8 120 8c84.667 0 147.167 -14.167 187.5 -42.5
s60.5 -72.5 60.5 -132.5c0 -44 -7.83301 -78.833 -23.5 -104.5s-45.834 -50.834 -90.501 -75.501s-117.667 -57.334 -219 -98.001v-42h322v-145h-489v134z" />
    <glyph glyph-name="three" unicode="3" horiz-adv-x="543" 
d="M15 16l22.998 138.999c58 -12.667 118.333 -19 181 -19c46 0 79.333 2.33301 100 7v98l-172 26v93l172 29v94c-18.667 4.66699 -49 7 -91 7c-28.667 0 -59 -1.66699 -91 -5s-61 -8 -87 -14l-24 138c82.667 20.667 162.334 31 239.001 31
c82.667 0 143.834 -13.167 183.501 -39.5s59.5 -67.166 59.5 -122.499c0 -76 -31.333 -130 -94 -162v-5c62.667 -26.667 94 -76 94 -148c0 -62 -20.167 -107 -60.5 -135s-104.5 -42 -192.5 -42c-76 0 -156 10 -240 30z" />
    <glyph glyph-name="four" unicode="4" horiz-adv-x="614" 
d="M15 115v102l179 408h318v-365h68v-145h-68v-115h-176v115h-321zM336 260v233h-31l-104 -233h135z" />
    <glyph glyph-name="five" unicode="5" horiz-adv-x="575" 
d="M45 16l24.002 138.001c70 -12.667 127 -19 171 -19c50.667 0 87.667 2.33301 111 7v81l-77 8c-57.333 6 -100.833 13.833 -130.5 23.5s-50.334 23 -62.001 40s-17.5 41.167 -17.5 72.5l10 258h431l-14 -145h-241v-97l59 -6c56.667 -6.66699 101.667 -17.5 135 -32.5
s57.666 -35.833 72.999 -62.5s23 -60.667 23 -102c0 -66.667 -20 -115.834 -60 -147.501s-102.333 -47.5 -187 -47.5c-90 0 -172.667 10.333 -248 31z" />
    <glyph glyph-name="six" unicode="6" horiz-adv-x="603" 
d="M502 34.5c-40.667 -33 -107.669 -49.499 -201.002 -49.499c-66.667 0 -118.667 10.167 -156 30.5s-64.166 54 -80.499 101s-24.5 112.167 -24.5 195.5c0 84 9.5 149.5 28.5 196.5s50.333 80.667 94 101s104.5 30.5 182.5 30.5c26 0 59.833 -3.33301 101.5 -10
s72.5 -13.667 92.5 -21l-24 -138c-24.667 5.33301 -52.667 9.83301 -84 13.5s-58.333 5.5 -81 5.5c-60.667 0 -101 -3 -121 -9v-90h76c90.667 0 156.334 -15.333 197.001 -46s61 -80.334 61 -149.001c0 -74.667 -20.333 -128.5 -61 -161.5zM274.998 264.001
c-18.667 0 -31 -2.83301 -37 -8.5s-9 -16.834 -9 -33.501v-99h99c18.667 0 31 2.83301 37 8.5s9 16.834 9 33.501v99h-99z" />
    <glyph glyph-name="seven" unicode="7" horiz-adv-x="492" 
d="M90 0l185 480h-252l-13 145h457v-110l-197 -515h-180z" />
    <glyph glyph-name="eight" unicode="8" horiz-adv-x="607" 
d="M489.5 596.5c39.667 -29 59.502 -74.168 59.502 -135.501c0 -31.333 -4.33301 -60.166 -13 -86.499s-20.334 -47.166 -35.001 -62.499v-7c20 -12 36.167 -30.5 48.5 -55.5s18.5 -51.167 18.5 -78.5c0 -46 -8.83301 -82.333 -26.5 -109s-45.5 -46.167 -83.5 -58.5
s-89.333 -18.5 -154 -18.5s-116 6.16699 -154 18.5s-65.833 32 -83.5 59s-26.5 63.167 -26.5 108.5c0 28.667 6.33301 56.167 19 82.5s28.667 46.166 48 59.499v7c-14.667 14.667 -26.334 34.5 -35.001 59.5s-13 52.167 -13 81.5c0 61.333 19.833 106.5 59.5 135.5
s101.5 43.5 185.5 43.5s145.833 -14.5 185.5 -43.5zM357.002 371.999c6 0 11 1.66797 15 5.00098s6 7.66602 6 12.999v112h-99c-19.333 0 -32.166 -2.33301 -38.499 -7s-9.83301 -14 -10.5 -28l-1 -48l112 -43c7.33301 -2.66699 12.666 -4 15.999 -4zM240.002 256
c-7.33301 0 -11 -5.66699 -11 -17v-116h100c19.333 0 32.333 2.33301 39 7s10 14 10 28l1 49l-117 43c-10 4 -17.333 6 -22 6z" />
    <glyph glyph-name="nine" unicode="9" horiz-adv-x="603" 
d="M101 590.5c40.667 33 107.669 49.499 201.002 49.499c66.667 0 118.667 -10.167 156 -30.5s64.166 -54 80.499 -101s24.5 -112.167 24.5 -195.5c0 -84 -9.5 -149.5 -28.5 -196.5s-50.333 -80.667 -94 -101s-104.834 -30.5 -183.501 -30.5
c-27.333 0 -62.666 3.33301 -105.999 10s-75.666 13.667 -96.999 21l24 139c26.667 -5.33301 56.5 -9.83301 89.5 -13.5s61.5 -5.5 85.5 -5.5c59.333 0 99.666 2.66699 120.999 8v90h-76c-90.667 0 -156.334 15.333 -197.001 46s-61 80.334 -61 149.001
c0 74.667 20.333 128.5 61 161.5zM229.002 403.999c0 -17.333 2.83301 -28.668 8.5 -34.001s17.5 -8 35.5 -8h101v98c0 16.667 -3 27.834 -9 33.501s-17.667 8.5 -35 8.5h-101v-98z" />
    <glyph glyph-name="colon" unicode=":" horiz-adv-x="264" 
d="M55 166c13.333 14.667 39.333 22 78 22s64.667 -7.33301 78 -22s20 -40 20 -76c0 -24 -2.66699 -42.833 -8 -56.5s-15 -23.667 -29 -30s-34.333 -9.5 -61 -9.5s-47 3.16699 -61 9.5s-23.667 16.333 -29 30s-8 32.5 -8 56.5c0 36 6.66699 61.333 20 76zM55 483
c13.333 14.667 39.333 22 78 22s64.667 -7.33301 78 -22s20 -40 20 -76c0 -24 -2.66699 -42.833 -8 -56.5s-15 -23.667 -29 -30s-34.333 -9.5 -61 -9.5s-47 3.16699 -61 9.5s-23.667 16.333 -29 30s-8 32.5 -8 56.5c0 36 6.66699 61.333 20 76z" />
    <glyph glyph-name="semicolon" unicode=";" horiz-adv-x="264" 
d="M61 -115l29 116c-20 4 -34.167 12.667 -42.5 26s-12.5 34.333 -12.5 63c0 37.333 7.16699 63 21.5 77s40.166 21 77.499 21s62.833 -7 76.5 -21s20.5 -39.667 20.5 -77c-0.666992 -23.333 -2.66699 -40.5 -6 -51.5s-11.666 -29.833 -24.999 -56.5l-61 -123zM55 483
c13.333 14.667 39.333 22 78 22s64.667 -7.33301 78 -22s20 -40 20 -76c0 -24 -2.66699 -42.833 -8 -56.5s-15 -23.667 -29 -30s-34.333 -9.5 -61 -9.5s-47 3.16699 -61 9.5s-23.667 16.333 -29 30s-8 32.5 -8 56.5c0 36 6.66699 61.333 20 76z" />
    <glyph glyph-name="less" unicode="&#x3c;" horiz-adv-x="530" 
d="M473 389l-243 -77l243 -77v-141l-416 137v162l416 137v-141z" />
    <glyph glyph-name="equal" unicode="=" horiz-adv-x="530" 
d="M473 261v-128h-416v128h416zM473 491v-128h-416v128h416z" />
    <glyph glyph-name="greater" unicode="&#x3e;" horiz-adv-x="530" 
d="M473 393v-162l-416 -137v141l243 77l-243 77v141z" />
    <glyph glyph-name="question" unicode="?" horiz-adv-x="502" 
d="M120 363c-0.666992 12.667 3.49902 22.5 12.499 29.5s26.5 14.167 52.5 21.5l92 29v59c-23.333 3.33301 -46.333 5 -69 5c-23.333 0 -48.666 -2 -75.999 -6s-51.333 -8.66699 -72 -14l-24 121c71.333 21.333 138 32 200 32c56.667 0 101.667 -5 135 -15
s57.5 -26 72.5 -48s22.5 -51.667 22.5 -89c0 -32 -6 -58 -18 -78s-33 -37.667 -63 -53s-74 -31.333 -132 -48l-5 -87h-114zM119.999 148.5c12 13 35.333 19.5 70 19.5s58 -6.5 70 -19.5s18 -35.833 18 -68.5c0 -32 -6 -54.333 -18 -67s-35.333 -19 -70 -19
s-58 6.33301 -70 19s-18 35 -18 67c0 32.667 6 55.5 18 68.5z" />
    <glyph glyph-name="at" unicode="@" horiz-adv-x="842" 
d="M704 549c55.333 -30.667 82.999 -78.9971 82.999 -144.997v-404h-87l-45 50c-24.667 -20.667 -51.667 -36.5 -81 -47.5s-59.666 -16.5 -90.999 -16.5c-58.667 0 -101.667 13.167 -129 39.5s-41 68.166 -41 125.499c0 42.667 8.16699 75.667 24.5 99s43.833 40 82.5 50
s93.334 15 164.001 15h28v120c-16 2.66699 -38.833 5 -68.5 7s-58.5 3 -86.5 3c-48 0 -87.667 -3 -119 -9s-57.5 -19.833 -78.5 -41.5s-31.5 -54.834 -31.5 -99.501v-204c0 -48.667 10 -84.834 30 -108.501s45.167 -38.667 75.5 -45s68.833 -9.5 115.5 -9.5h189v-88
c-68.667 -13.333 -133.334 -20 -194.001 -20c-130 0 -230.333 26.5 -301 79.5s-106 145.167 -106 276.5v83c0 124 35.5 211 106.5 261s169.833 75 296.5 75c120.667 0 208.667 -15.333 264 -46zM595.499 116.003c10.333 6 15.5 17.332 15.5 33.999v73h-64
c-27.333 0 -46.166 -3.16699 -56.499 -9.5s-15.5 -18.166 -15.5 -35.499v-71h64c27.333 0 46.166 3 56.499 9z" />
    <glyph glyph-name="A" unicode="A" horiz-adv-x="619" 
d="M407 109h-195l-29 -109h-176l166 625h273l166 -625h-176zM372 238l-58 219h-9l-58 -219h125z" />
    <glyph glyph-name="B" unicode="B" horiz-adv-x="590" 
d="M535 264c18.667 -26 28 -55.334 28 -88.001c0 -56.667 -16.833 -100.167 -50.5 -130.5s-81.834 -45.5 -144.501 -45.5h-308v625h273c69.333 0 119.833 -13 151.5 -39s47.5 -67.333 47.5 -124c0 -30.667 -6 -58.667 -18 -84s-28.667 -44.666 -50 -57.999v-6
c28.667 -7.33301 52.334 -24 71.001 -50zM344.5 484.999c-7 8 -20.5 12.001 -40.5 12.001h-69v-119h69c20 0 33.5 4.16699 40.5 12.5s10.5 24.166 10.5 47.499s-3.5 39 -10.5 47zM369.5 142.5c8.33301 9.66699 12.501 26.5 12.501 50.5c0 22.667 -4 38.667 -12 48
s-21.667 14 -41 14h-94v-127h93c19.333 0 33.166 4.83301 41.499 14.5z" />
    <glyph glyph-name="C" unicode="C" horiz-adv-x="505" 
d="M402 -9c-28.667 -4 -62.3281 -5.99902 -100.995 -5.99902c-68.667 0 -121.834 10 -159.501 30s-64.334 53.167 -80.001 99.5s-23.5 112.166 -23.5 197.499c0 86 8.5 152.333 25.5 199s45.5 79.834 85.5 99.501s96.667 29.5 170 29.5c27.333 0 57.166 -2.5 89.499 -7.5
s56.166 -10.833 71.499 -17.5l-22 -140c-20 6 -42.833 10.667 -68.5 14s-47.167 5 -64.5 5c-37.333 0 -63 -5 -77 -15s-21 -28.667 -21 -56v-279c33.333 -6.66699 63 -10 89 -10c27.333 0 54.666 2.16699 81.999 6.5s51.333 10.166 72 17.499l13 -147
c-25.333 -9.33301 -52.333 -16 -81 -20z" />
    <glyph glyph-name="D" unicode="D" horiz-adv-x="648" 
d="M326 625c76.667 0 135 -9 175 -27s68.167 -49 84.5 -93s24.5 -108.333 24.5 -193s-8.16699 -149 -24.5 -193s-44.5 -74.833 -84.5 -92.5s-98.333 -26.5 -175 -26.5h-266v625h266zM236 138l106 -0.00195312c29.333 0 49.666 4.83301 60.999 14.5s17 26.834 17 51.501v217
c0 24.667 -5.66699 41.834 -17 51.501s-31.666 14.5 -60.999 14.5h-106v-349z" />
    <glyph glyph-name="E" unicode="E" horiz-adv-x="519" 
d="M236 145h245v-145h-421v625h424l-22 -145h-226v-103h209v-129h-209v-103z" />
    <glyph glyph-name="F" unicode="F" horiz-adv-x="465" 
d="M236 0h-176v625h393l-21 -145h-196v-121h177v-129h-177v-230z" />
    <glyph glyph-name="G" unicode="G" horiz-adv-x="574" 
d="M539 367l-0.000976562 -338.998c-34 -15.333 -70.333 -26.333 -109 -33s-85.334 -10 -140.001 -10c-68 0 -119.667 9.33301 -155 28s-60.333 51.167 -75 97.5s-22 113.5 -22 201.5c0 87.333 8.16699 154.166 24.5 200.499s44.5 79.166 84.5 98.499s97.667 29 173 29
c32.667 0 68 -2.5 106 -7.5s66 -10.833 84 -17.5l-22 -140c-24 6 -51.667 10.667 -83 14s-57.666 5 -78.999 5c-37.333 0 -63.166 -5 -77.499 -15s-21.5 -28.667 -21.5 -56v-296h147v111h-62v129h227z" />
    <glyph glyph-name="H" unicode="H" horiz-adv-x="648" 
d="M588 625v-625h-176v247h-176v-247h-176v625h176v-249h176v249h176z" />
    <glyph glyph-name="I" unicode="I" horiz-adv-x="295" 
d="M236 625v-625h-176v625h176z" />
    <glyph glyph-name="J" unicode="J" horiz-adv-x="381" 
d="M97 145c16 0 28 1.83203 36 5.49902s12 11.834 12 24.501v305h-100v145h276v-467c0 -105.333 -51.667 -158 -155 -158h-136l-18 145h85z" />
    <glyph glyph-name="K" unicode="K" horiz-adv-x="602" 
d="M597 0l-188 0.00195312l-78 165c-18.667 39.333 -28 69.666 -28 90.999h-67v-256h-176v625h176v-239h67c0 21.333 9.33301 51.666 28 90.999l73 148h188l-148 -304z" />
    <glyph glyph-name="L" unicode="L" horiz-adv-x="441" 
d="M60 625h176v-480h200v-145h-376v625z" />
    <glyph glyph-name="M" unicode="M" horiz-adv-x="807" 
d="M84 625h224l92 -354h7l93 354h224l39 -625h-175l-20 349h-7l-89 -349h-136l-90 349h-6l-20 -349h-175z" />
    <glyph glyph-name="N" unicode="N" horiz-adv-x="672" 
d="M65 625l174 -0.000976562l161 -260c9.33301 -15.333 15.833 -28.166 19.5 -38.499s5.5 -20.5 5.5 -30.5h6v329h176v-625h-173l-162 260c-9.33301 15.333 -15.833 28.333 -19.5 39s-5.5 20.667 -5.5 30h-6v-329h-176v625z" />
    <glyph glyph-name="O" unicode="O" horiz-adv-x="654" 
d="M64 511.5c17.333 46.333 46.5 79.333 87.5 99s99.5 29.5 175.5 29.5c75.333 0 133.5 -9.83301 174.5 -29.5s70.167 -52.667 87.5 -99s26 -112.833 26 -199.5c0 -86 -8.66699 -152.167 -26 -198.5s-46.5 -79.333 -87.5 -99s-99.167 -29.5 -174.5 -29.5
c-76 0 -134.5 9.83301 -175.5 29.5s-70.167 52.667 -87.5 99s-26 112.5 -26 198.5c0 86.667 8.66699 153.167 26 199.5zM346 135c30 0 50.833 4.33301 62.5 13s17.5 23.667 17.5 45v297h-119c-30 0 -50.833 -4.33301 -62.5 -13s-17.5 -23.667 -17.5 -45v-297h119z" />
    <glyph glyph-name="P" unicode="P" horiz-adv-x="576" 
d="M236 0h-176.001v625h275c80.667 0 138.334 -17.5 173.001 -52.5s52 -92.833 52 -173.5s-17 -140 -51 -178s-87 -57 -159 -57h-114v-164zM328.999 293c17.333 0 29.333 3 36 9s10 17 10 33v103c0 16 -3.33301 27 -10 33s-18.667 9 -36 9h-93v-187h93z" />
    <glyph glyph-name="Q" unicode="Q" horiz-adv-x="644" 
d="M614 24l-46.002 -100.999l-187 62v50l-59 -50c-73.333 0 -130.166 10 -170.499 30s-69.333 53.333 -87 100s-26.5 112.334 -26.5 197.001s8.66699 150.5 26 197.5s46.333 80.5 87 100.5s97.667 30 171 30c72.667 0 129.334 -10.167 170.001 -30.5
s69.667 -53.833 87 -100.5s26 -112.334 26 -197.001c0 -62 -5 -112.333 -15 -151s-26 -69.334 -48 -92.001zM400.498 148.001c11.667 8.66699 17.5 23.667 17.5 45v297h-112c-30 0 -50.5 -4.16699 -61.5 -12.5s-16.5 -23.5 -16.5 -45.5v-297h110
c30 0 50.833 4.33301 62.5 13z" />
    <glyph glyph-name="R" unicode="R" horiz-adv-x="614" 
d="M400 0l-90.001 191.001h-74v-191h-176v625h280c80.667 0 138.334 -17.5 173.001 -52.5s52 -92.833 52 -173.5c0 -44.667 -6.5 -81.834 -19.5 -111.501s-32.833 -52.5 -59.5 -68.5l105 -219h-191zM235.999 320.001h98c17.333 0 29.333 3 36 9s10 17 10 33v76
c0 16 -3.33301 27 -10 33s-18.667 9 -36 9h-98v-160z" />
    <glyph glyph-name="S" unicode="S" horiz-adv-x="563" 
d="M256 133c34.667 0 64.333 1.99902 89 5.99902v86l-91 8c-54 4.66699 -96.5 13.834 -127.5 27.501s-53.333 33.334 -67 59.001s-20.5 60.167 -20.5 103.5c0 54 7.5 96.667 22.5 128s39.5 54 73.5 68s80.333 21 139 21c77.333 0 153 -9 227 -27l-22 -141
c-34 6.66699 -63.5 11.5 -88.5 14.5s-51.167 4.5 -78.5 4.5c-34 0 -62 -1.66699 -84 -5v-86l82 -7c80 -7.33301 137.333 -26.5 172 -57.5s52 -78.833 52 -143.5c0 -72.667 -20.167 -125.334 -60.5 -158.001s-105.833 -49 -196.5 -49c-88.667 0 -171 11 -247 33l25 145
c65.333 -20 132.333 -30 201 -30z" />
    <glyph glyph-name="T" unicode="T" horiz-adv-x="483" 
d="M329 0h-176v480h-146v145h468v-145h-146v-480z" />
    <glyph glyph-name="U" unicode="U" horiz-adv-x="635" 
d="M152 5.5c-37.333 13.667 -63.667 37.168 -79 70.501s-23 82.333 -23 147v402h176v-490h95c24.667 0 43.167 1.5 55.5 4.5s21 8.16699 26 15.5s7.5 18.333 7.5 33v437h176v-402c0 -64 -7.66699 -112.833 -23 -146.5s-42 -57.334 -80 -71.001s-93.333 -20.5 -166 -20.5
s-127.667 6.83301 -165 20.5z" />
    <glyph glyph-name="V" unicode="V" horiz-adv-x="597" 
d="M182 625l112 -457h9l112 457h176l-156 -625h-273l-156 625h176z" />
    <glyph glyph-name="W" unicode="W" horiz-adv-x="899" 
d="M874 625l-89 -625h-263l-72 416l-73 -416h-264l-88 625h176l61 -457h9l83 457h191l83 -457h9l61 457h176z" />
    <glyph glyph-name="X" unicode="X" horiz-adv-x="606" 
d="M404 0l-107 171l-100 -171h-191l193 328l-186 297h196l99 -159l94 159h191l-186 -317l192 -308h-195z" />
    <glyph glyph-name="Y" unicode="Y" horiz-adv-x="558" 
d="M552 625l-185 -421v-204h-176v204l-185 421h185l88 -235l88 235h185z" />
    <glyph glyph-name="Z" unicode="Z" horiz-adv-x="578" 
d="M27 115l277 359l-3 6h-229l-17 145h493v-115l-275 -359l3 -6h271v-145h-520v115z" />
    <glyph glyph-name="bracketleft" unicode="[" horiz-adv-x="325" 
d="M77 732c14.667 15.333 38.834 26.333 72.501 33s79.167 10 136.5 10l9 -130l-83 -8v-649l83 -8l-9 -130c-57.333 0 -102.833 3.33301 -136.5 10s-57.834 17.667 -72.501 33s-22 36 -22 62v715c0 26 7.33301 46.667 22 62z" />
    <glyph glyph-name="backslash" unicode="\" horiz-adv-x="481" 
d="M48 665c12.667 0 21.667 -1.83301 27 -5.5s10.666 -10.167 15.999 -19.5l375 -680h-33c-12.667 0 -21.667 1.83301 -27 5.5s-10.666 10.167 -15.999 19.5l-375 680h33z" />
    <glyph glyph-name="bracketright" unicode="]" horiz-adv-x="325" 
d="M270 -45c0 -26 -7.33301 -46.667 -22 -62s-38.834 -26.333 -72.501 -33s-79.167 -10 -136.5 -10l-9 130l83 8v649l-83 8l9 130c57.333 0 102.833 -3.33301 136.5 -10s57.834 -17.667 72.501 -33s22 -36 22 -62v-715z" />
    <glyph glyph-name="asciicircum" unicode="^" horiz-adv-x="530" 
d="M347 120l-82 243l-82 -243h-141l142 384h162l143 -384h-142z" />
    <glyph glyph-name="underscore" unicode="_" horiz-adv-x="571" 
d="M41 5.5c10.667 5 27.667 7.5 51 7.5h454v-93c0 -18 -5.33301 -29.5 -16 -34.5s-27.667 -7.5 -51 -7.5h-454v93c0 18 5.33301 29.5 16 34.5z" />
    <glyph glyph-name="grave" unicode="`" horiz-adv-x="600" 
d="M117 578c-8.66699 1.33301 -17 5 -25 11l-35 30c-3.33301 3.33301 -5.83301 6.33301 -7.5 9s-2.5 5.33398 -2.5 8.00098c0 4 3 9.33301 9 16l58 69c2.66699 3.33301 5.16699 5.66602 7.5 6.99902s4.83301 2 7.5 2c4 0 7.66699 -1.33301 11 -4l180 -132l-37 -51z" />
    <glyph glyph-name="a" unicode="a" horiz-adv-x="560" 
d="M453 474.5c34.667 -26.333 51.998 -68.832 51.998 -127.499v-347h-87l-44 50c-50.667 -42.667 -108 -64 -172 -64c-59.333 0 -102.5 13.167 -129.5 39.5s-40.5 68.166 -40.5 125.499c0 42.667 8.16699 75.667 24.5 99s43.833 40 82.5 50s93.334 15 164.001 15h26v63
c-14 4 -34.667 6 -62 6c-60 0 -123.667 -8.66699 -191 -26l-21 123c69.333 22 146.333 33 231 33c76.667 0 132.334 -13.167 167.001 -39.5zM313.998 116.001c10 6 14.999 17.332 14.999 33.999v73h-63c-27.333 0 -46.166 -3.16699 -56.499 -9.5
s-15.5 -18.166 -15.5 -35.499v-71h64c27.333 0 46 3 56 9z" />
    <glyph glyph-name="b" unicode="b" horiz-adv-x="589" 
d="M465 488.5c30 -17.667 52.002 -45.833 66.002 -84.5s21 -90 21 -154s-8.16699 -115.167 -24.5 -153.5s-42 -66.333 -77 -84s-81.833 -26.5 -140.5 -26.5c-48.667 0 -92.334 3 -131.001 9s-78.334 15.667 -119.001 29v630l176 14v-172c28 12.667 64.333 19 109 19
c50 0 90 -8.83301 120 -26.5zM363.002 381.001l-86 0.000976562c-16 0 -26.833 -1.83301 -32.5 -5.5s-8.5 -10.834 -8.5 -21.501v-234h87c15.333 0 25.833 1.83301 31.5 5.5s8.5 10.5 8.5 20.5v235z" />
    <glyph glyph-name="c" unicode="c" horiz-adv-x="450" 
d="M128.5 12.5c-31.667 17.667 -54.833 45.832 -69.5 84.499s-22 89.667 -22 153s7.33301 114.333 22 153s37.667 66.834 69 84.501s73 26.5 125 26.5c29.333 0 60.666 -2 93.999 -6s58.333 -8.66699 75 -14l-15 -124c-32.667 9.33301 -69 14 -109 14
c-26.667 0 -45.5 -5.83301 -56.5 -17.5s-16.5 -31.167 -16.5 -58.5v-186c16 -4 37.333 -6 64 -6c42.667 0 85.334 8.66699 128.001 26l16 -123c-54 -22 -114 -33 -180 -33c-51.333 0 -92.833 8.83301 -124.5 26.5z" />
    <glyph glyph-name="d" unicode="d" horiz-adv-x="589" 
d="M529 668v-668.001h-87l-33 47c-16.667 -21.333 -38.5 -37 -65.5 -47s-60.167 -15 -99.5 -15c-50 0 -90 8.83301 -120 26.5s-52 45.834 -66 84.501s-21 90 -21 154s7 115.167 21 153.5s36 66.333 66 84s70 26.5 120 26.5c44.667 0 81 -6.33301 109 -19v159zM344.5 124.499
c5.66699 3.66699 8.5 10.834 8.5 21.501v234h-86c-16 0 -26.833 -1.83301 -32.5 -5.5s-8.5 -10.834 -8.5 -21.501v-234h87c15.333 0 25.833 1.83301 31.5 5.5z" />
    <glyph glyph-name="e" unicode="e" horiz-adv-x="563" 
d="M481 142l21.999 -123c-66 -22 -138.667 -33 -218 -33c-88 0 -151.333 20.5 -190 61.5s-58 108.5 -58 202.5c0 93.333 19.833 160.666 59.5 201.999s103.834 62 192.501 62c59.333 0 105.166 -5 137.499 -15s55.333 -26.667 69 -50s20.5 -56.666 20.5 -99.999
c0 -42.667 -8.66699 -75.667 -26 -99s-46.666 -40 -87.999 -50s-100 -15 -176 -15v-63c18.667 -4 44.667 -6 78 -6c56.667 0 115.667 8.66699 177 26zM241.499 375c-10.333 -6 -15.5 -17.332 -15.5 -33.999v-64h59c27.333 0 46.166 3.16699 56.499 9.5
s15.5 18.166 15.5 35.499v62h-59c-27.333 0 -46.166 -3 -56.499 -9z" />
    <glyph glyph-name="f" unicode="f" horiz-adv-x="352" 
d="M266 564v-64h65v-115h-65v-385h-176v385h-55v115h55c2 44.667 8.5 79.5 19.5 104.5s28.333 43 52 54s55.834 16.5 96.501 16.5c31.333 0 66.666 -3.33301 105.999 -10l-10 -109z" />
    <glyph glyph-name="g" unicode="g" horiz-adv-x="538" 
d="M418.5 84c27 -10 46.002 -23.332 57.002 -39.999s16.5 -39.667 16.5 -69c0 -51.333 -17.667 -88.833 -53 -112.5s-92 -35.5 -170 -35.5c-82 0 -158.667 11 -230 33l21 124c63.333 -17.333 121.666 -26 174.999 -26c34 0 67 2 99 6v46
c-63.333 4.66699 -108.833 10.667 -136.5 18s-41.5 17 -41.5 29l29 92c-54 7.33301 -93.333 25.5 -118 54.5s-37 70.833 -37 125.5c0 65.333 17.833 112.666 53.5 141.999s93.5 44 173.5 44c41.333 0 75.666 -3.33301 102.999 -10l84 65l85 -81l-56 -72
c9.33301 -24.667 14 -54 14 -88c0 -59.333 -14.5 -103.5 -43.5 -132.5s-75.833 -45.833 -140.5 -50.5l-2 -37c51.333 -6.66699 90.5 -15 117.5 -25zM198.002 237.001h77c16 0 27.167 3 33.5 9s9.5 16 9.5 30v146h-78c-16 0 -27 -2.83301 -33 -8.5s-9 -16.167 -9 -31.5v-145z
" />
    <glyph glyph-name="h" unicode="h" horiz-adv-x="590" 
d="M60 652l172 13v-187c43.333 24 95.333 36 156 36c46.667 0 83 -9.5 109 -28.5s39 -45.5 39 -79.5v-406h-176v369h-51c-28 0 -47.167 -3.33301 -57.5 -10s-15.5 -18.667 -15.5 -36v-323h-176v652z" />
    <glyph glyph-name="i" unicode="i" horiz-adv-x="295" 
d="M236 502v-502h-176v479zM89 561c-13.333 5.33301 -22.834 14.668 -28.501 28.001s-8.5 32.666 -8.5 57.999c0 36.667 6.66699 61.834 20 75.501s38.333 20.5 75 20.5s61.667 -6.83301 75 -20.5s20 -38.834 20 -75.501s-6.66699 -61.5 -20 -74.5s-38.333 -19.5 -75 -19.5
c-25.333 0 -44.666 2.66699 -57.999 8z" />
    <glyph glyph-name="j" unicode="j" horiz-adv-x="295" 
d="M-40 -164l9 108.998c24.667 0 43.5 1.83301 56.5 5.5s22 9.83398 27 18.501s7.5 21.667 7.5 39v471l176 23v-525c0 -53.333 -12.833 -92.666 -38.5 -117.999s-65.5 -38 -119.5 -38c-40.667 0 -80 5 -118 15zM89 560.998c-13.333 5.33301 -22.834 14.668 -28.501 28.001
s-8.5 32.666 -8.5 57.999c0 36.667 6.66699 61.834 20 75.501s38.333 20.5 75 20.5s61.667 -6.83301 75 -20.5s20 -38.834 20 -75.501s-6.66699 -61.5 -20 -74.5s-38.333 -19.5 -75 -19.5c-25.333 0 -44.666 2.66699 -57.999 8z" />
    <glyph glyph-name="k" unicode="k" horiz-adv-x="556" 
d="M236 213v-213h-176v650l176 15v-345h43l80 180h186l-119 -237l124 -263h-184l-85 213h-45z" />
    <glyph glyph-name="l" unicode="l" horiz-adv-x="300" 
d="M282 120l-8 -119c-36.667 -10 -70 -15 -100 -15c-39.333 0 -68.5 8.16699 -87.5 24.5s-28.5 41.833 -28.5 76.5v563l176 15v-539c17.333 -2.66699 33.333 -4.66699 48 -6z" />
    <glyph glyph-name="m" unicode="m" horiz-adv-x="870" 
d="M777 485.5c26 -19 39 -45.5 39 -79.5v-406h-176v369h-64c-18.667 0 -31.667 -2.66699 -39 -8s-11 -14.333 -11 -27v-334h-176v369h-64c-18.667 0 -31.667 -2.66699 -39 -8s-11 -14.333 -11 -27v-334h-176v500h87l45 -50c56 42.667 118 64 186 64c30 0 56 -4 78 -12
s38.667 -19.667 50 -35c50.667 31.333 104.667 47 162 47c46.667 0 83 -9.5 109 -28.5z" />
    <glyph glyph-name="n" unicode="n" horiz-adv-x="590" 
d="M60 500h87.001l45 -50c55.333 42.667 120.666 64 195.999 64c46.667 0 83 -9.5 109 -28.5s39 -45.5 39 -79.5v-406h-176v369h-74c-18.667 0 -31.667 -2.66699 -39 -8s-11 -14.333 -11 -27v-334h-176v500z" />
    <glyph glyph-name="o" unicode="o" horiz-adv-x="581" 
d="M144 13c-36.667 18 -63.667 46.167 -81 84.5s-26 89.166 -26 152.499s8.66699 114.333 26 153s44.333 66.834 81 84.501s85.334 26.5 146.001 26.5c61.333 0 110.5 -8.83301 147.5 -26.5s64 -45.834 81 -84.501s25.5 -89.667 25.5 -153s-8.66699 -114.166 -26 -152.499
s-44.5 -66.5 -81.5 -84.5s-85.833 -27 -146.5 -27s-109.334 9 -146.001 27zM315 120c16 0 26.833 1.83301 32.5 5.5s8.5 10.834 8.5 21.501v233h-89c-16 0 -26.833 -1.83301 -32.5 -5.5s-8.5 -10.834 -8.5 -21.501v-233h89z" />
    <glyph glyph-name="p" unicode="p" horiz-adv-x="589" 
d="M465 487.5c30 -17.667 52 -45.666 66 -83.999s21 -89.5 21 -153.5s-7 -115.333 -21 -154s-36 -66.834 -66 -84.501s-70 -26.5 -120 -26.5c-44.667 0 -81 6.33301 -109 19v-158l-176 -14v668h87l33 -48c16.667 21.333 38.667 37 66 47s60.333 15 99 15
c50 0 90 -8.83301 120 -26.5zM363 380.001l-86 -0.000976562c-16 0 -26.833 -1.83301 -32.5 -5.5s-8.5 -10.5 -8.5 -20.5v-235h87c15.333 0 25.833 1.83301 31.5 5.5s8.5 10.834 8.5 21.501v234z" />
    <glyph glyph-name="q" unicode="q" horiz-adv-x="589" 
d="M529 500v-654.001l-176 -14v172c-28 -12.667 -64.333 -19 -109 -19c-50 0 -90 8.83301 -120 26.5s-52 45.834 -66 84.501s-21 90 -21 154s7 115.167 21 153.5s36 66.333 66 84s70 26.5 120 26.5c38.667 0 71.667 -5 99 -15s49.333 -25.667 66 -47l33 48h87z
M344.5 124.499c5.66699 3.66699 8.5 10.833 8.5 21.5v234h-86c-16 0 -26.833 -1.83301 -32.5 -5.5s-8.5 -10.5 -8.5 -20.5v-235h87c15.333 0 25.833 1.83301 31.5 5.5z" />
    <glyph glyph-name="r" unicode="r" horiz-adv-x="361" 
d="M197 431c44.667 43.333 93.333 71.335 146 84.002l11 -171c-17.333 -2.66699 -38.333 -8.83398 -63 -18.501s-43 -18.834 -55 -27.501v-298h-176v500h87z" />
    <glyph glyph-name="s" unicode="s" horiz-adv-x="511" 
d="M90 475.5c34.667 26.333 89.001 39.5 163.001 39.5c71.333 0 139.333 -7.33301 204 -22l-21 -122c-32 8.66699 -71.333 13 -118 13c-35.333 0 -65.666 -3 -90.999 -9v-56c66 -7.33301 117.167 -17.333 153.5 -30s62.333 -29.834 78 -51.501s23.5 -50.167 23.5 -85.5
c0 -58.667 -19.167 -101.167 -57.5 -127.5s-99.833 -39.5 -184.5 -39.5c-36.667 0 -73.334 2.83301 -110.001 8.5s-70 13.834 -100 24.501l23 128c49.333 -20 103 -30 161 -30c20.667 0 47 3 79 9v58c-70.667 8 -123.834 17.833 -159.501 29.5s-60.5 28 -74.5 49
s-21 50.833 -21 89.5c0 56.667 17.333 98.167 52 124.5z" />
    <glyph glyph-name="t" unicode="t" horiz-adv-x="362" 
d="M258 385v-259c21.333 -3.33301 42 -5.33301 62 -6l-8 -119c-44.667 -10 -82.667 -15 -114 -15c-39.333 0 -68.5 8.16699 -87.5 24.5s-28.5 41.833 -28.5 76.5v298h-55v115h55v86l176 44v-130h74v-115h-74z" />
    <glyph glyph-name="u" unicode="u" horiz-adv-x="590" 
d="M531 0h-87l-44 50c-56.667 -42.667 -123 -64 -199 -64c-50.667 0 -87.667 10.833 -111 32.5s-35 56.167 -35 103.5v378h176v-393h74c18.667 0 31.667 2.66699 39 8s11 14.333 11 27v358h176v-500z" />
    <glyph glyph-name="v" unicode="v" horiz-adv-x="516" 
d="M176 500l77 -347h10l78 347h172l-122 -500h-265l-122 500h172z" />
    <glyph glyph-name="w" unicode="w" horiz-adv-x="776" 
d="M773 500l-101 -500h-234l-49 238l-50 -238h-234l-101 500h172l60 -347h10l68 347h149l68 -347h10l60 347h172z" />
    <glyph glyph-name="x" unicode="x" horiz-adv-x="549" 
d="M346 0l-81 120l-68 -120h-188l162 261l-161 239h194l80 -118l67 118h188l-161 -260l162 -240h-194z" />
    <glyph glyph-name="y" unicode="y" horiz-adv-x="506" 
d="M503 500l-117.002 -454.999h-1c-14 -56.667 -31.333 -101.167 -52 -133.5s-47.167 -55.5 -79.5 -69.5s-73.833 -21 -124.5 -21c-40 0 -77.333 5 -112 15l8 93l108 13c20 2.66699 35.333 6.66699 46 12s18.834 13.666 24.501 24.999s10.834 28.333 15.501 51l4 15h-102
l-117 455h172l72 -301h10l73 301h172z" />
    <glyph glyph-name="z" unicode="z" horiz-adv-x="516" 
d="M250 373h-186l-12 127h423v-97l-218 -270l3 -6h219v-127h-443v97l217 270z" />
    <glyph glyph-name="braceleft" unicode="{" horiz-adv-x="349" 
d="M314 -21l-8 -129c-52.667 0 -95 2.16699 -127 6.5s-57.833 14.5 -77.5 30.5s-28.5 40.667 -26.5 74l15 279l-65 17v108l65 17l-15 282c-1.33301 33.333 7.66699 58 27 74s45 26.167 77 30.5s74.333 6.5 127 6.5l8 -129l-83 -7l16 -192c0.666992 -4 1 -10 1 -18
c0 -50.667 -19 -88 -57 -112v-12c38 -24 57 -61.333 57 -112c0 -8 -0.333008 -14 -1 -18l-16 -189z" />
    <glyph glyph-name="bar" unicode="|" horiz-adv-x="260" 
d="M183 704v-884h-106v884h106z" />
    <glyph glyph-name="braceright" unicode="}" horiz-adv-x="349" 
d="M102 175c-0.666992 4 -1 10 -1 18c0 50.667 19 88 57 112v12c-38 24 -57 61.333 -57 112c0 8 0.333008 14 1 18l16 192l-83 7l8 129c52.667 0 95 -2.16699 127 -6.5s57.667 -14.5 77 -30.5s28.333 -40.667 27 -74l-15 -282l65 -17v-108l-65 -17l15 -279
c2 -33.333 -6.83301 -58 -26.5 -74s-45.5 -26.167 -77.5 -30.5s-74.333 -6.5 -127 -6.5l-8 129l83 7z" />
    <glyph glyph-name="asciitilde" unicode="~" horiz-adv-x="530" 
d="M384 215c-18 0 -35.668 3.16699 -53.001 9.5s-39.666 15.833 -66.999 28.5s-49.5 22.167 -66.5 28.5s-34.5 9.5 -52.5 9.5c-32 0 -61.333 -11 -88 -33v119c26.667 22 56 33 88 33c18 0 35.5 -3.16699 52.5 -9.5s39.167 -15.833 66.5 -28.5s49.666 -22.167 66.999 -28.5
s35 -9.5 53 -9.5c32.667 0 62.334 11.667 89.001 35v-120c-27.333 -22.667 -57 -34 -89 -34z" />
    <glyph glyph-name="uni00A0" unicode="&#xa0;" horiz-adv-x="258" 
 />
    <glyph glyph-name="exclamdown" unicode="&#xa1;" horiz-adv-x="286" 
d="M212 360.5c-12 -13 -35.333 -19.5 -70 -19.5s-58 6.5 -70 19.5s-18 35.833 -18 68.5c0 32 6 54.333 18 67s35.333 19 70 19s58 -6.33301 70 -19s18 -35 18 -67c0 -32.667 -6 -55.5 -18 -68.5zM237 -111c0 -8 -2.5 -14.167 -7.5 -18.5s-13.833 -6.5 -26.5 -6.5h-121
c-12.667 0 -21.5 2.16699 -26.5 6.5s-7.5 10.5 -7.5 18.5l37 398h114z" />
    <glyph glyph-name="cent" unicode="&#xa2;" horiz-adv-x="450" 
d="M282 52l-15.001 -181h-107l17 188c-48.667 12 -84.167 38.333 -106.5 79s-33.5 99.667 -33.5 177c0 88 14.5 152.667 43.5 194s76.167 64.333 141.5 69l16 177h107l-16 -180c45.333 -4.66699 76.333 -10 93 -16l-15 -124c-32.667 9.33301 -69 14 -109 14
c-26.667 0 -45.5 -5.83301 -56.5 -17.5s-16.5 -31.167 -16.5 -58.5v-186c16 -4 37.333 -6 64 -6c42.667 0 85.334 8.66699 128.001 26l16 -123c-44 -18 -94.333 -28.667 -151 -32z" />
    <glyph glyph-name="sterling" unicode="&#xa3;" horiz-adv-x="579" 
d="M517 145l22.001 -145h-487v88l45 32l12 148h-57v95h65l2 22c5.33301 62.667 17.166 112.5 35.499 149.5s45.166 63.833 80.499 80.5s82 25 140 25c28 0 58.5 -2.33301 91.5 -7s60.167 -10.667 81.5 -18l-35 -140c-16.667 5.33301 -37 9.83301 -61 13.5s-46 5.5 -66 5.5
c-27.333 0 -46.166 -5.33301 -56.499 -16s-16.5 -31 -18.5 -61l-5 -54h151l-9 -95h-150l-10 -123h229z" />
    <glyph glyph-name="currency" unicode="&#xa4;" horiz-adv-x="672" 
d="M556 248c-6 -25.333 -16.001 -46.332 -30.001 -62.999l101 -139l-93 -56l-104 146c-25.333 -4.66699 -56.666 -7 -93.999 -7c-38 0 -69.667 2.33301 -95 7l-104 -146l-93 56l101 140c-13.333 16 -23 36.833 -29 62.5s-9 57.167 -9 94.5s3 68.666 9 93.999
s15.667 46.333 29 63l-101 140l92 56l105 -145c25.333 4.66699 57 7 95 7s69.667 -2.33301 95 -7l104 145l93 -56l-101 -140c13.333 -16 23 -36.833 29 -62.5s9 -57.167 9 -94.5c0 -38 -3 -69.667 -9 -95zM415.999 247.001v155c0 14.667 -4.16699 24.5 -12.5 29.5
s-24.833 7.5 -49.5 7.5h-100v-155c0 -15.333 3.83301 -25.333 11.5 -30s23.5 -7 47.5 -7h103z" />
    <glyph glyph-name="yen" unicode="&#xa5;" horiz-adv-x="558" 
d="M443 378h65v-95h-106l-25 -57h131v-95h-141v-131h-176v131h-139v95h129l-25 57h-104v95h63l-109 247h185l88 -235l88 235h185z" />
    <glyph glyph-name="brokenbar" unicode="&#xa6;" horiz-adv-x="260" 
d="M183 704v-336h-106v336h106zM183 156v-336h-106v336h106z" />
    <glyph glyph-name="section" unicode="&#xa7;" horiz-adv-x="510" 
d="M471.5 100.5c7 -15 10.501 -33.166 10.501 -54.499c0 -58.667 -19.167 -101.167 -57.5 -127.5s-99.833 -39.5 -184.5 -39.5c-37.333 0 -74.333 2.83301 -111 8.5s-69.667 13.834 -99 24.501l23 128c49.333 -20 103 -30 161 -30c22.667 0 49 3 79 9v58
c-70.667 8 -123.834 17.833 -159.501 29.5s-60.5 28.167 -74.5 49.5s-21 51.666 -21 90.999c0 48 13.333 85 40 111c-14.667 10.667 -25 23.667 -31 39s-9 34.333 -9 57c0 56.667 17.333 98.167 52 124.5s89 39.5 163 39.5c73.333 0 141.333 -7.33301 204 -22l-21 -122
c-34 8.66699 -73.333 13 -118 13c-38.667 0 -69 -3 -91 -9v-56c66 -8 117.167 -18.333 153.5 -31s62.333 -29.834 78 -51.501s23.5 -50.5 23.5 -86.5c0 -50.667 -14.667 -88.667 -44 -114c15.333 -10.667 26.5 -23.5 33.5 -38.5zM308.001 182.001l-0.000976562 122
c-35.333 4 -67.666 8 -96.999 12v-121c40.667 -4.66699 73 -9 97 -13z" />
    <glyph glyph-name="dieresis" unicode="&#xa8;" horiz-adv-x="600" 
d="M47.5 574.5c-10.333 11 -15.5 30.833 -15.5 59.5c0 28 5.16699 47.833 15.5 59.5s30.833 17.5 61.5 17.5c30 0 50.167 -5.83301 60.5 -17.5s15.5 -31.5 15.5 -59.5c0 -28.667 -5.16699 -48.5 -15.5 -59.5s-30.5 -16.5 -60.5 -16.5c-30.667 0 -51.167 5.5 -61.5 16.5z
M250.5 574.5c-10.333 11 -15.5 30.833 -15.5 59.5c0 28 5.16699 47.833 15.5 59.5s30.833 17.5 61.5 17.5c30 0 50.167 -5.83301 60.5 -17.5s15.5 -31.5 15.5 -59.5c0 -28.667 -5.16699 -48.5 -15.5 -59.5s-30.5 -16.5 -60.5 -16.5c-30.667 0 -51.167 5.5 -61.5 16.5z" />
    <glyph glyph-name="copyright" unicode="&#xa9;" horiz-adv-x="563" 
d="M91 240c-40.667 40.667 -61 104.334 -61 191.001s20.333 150.167 61 190.5s104.334 60.5 191.001 60.5s150.167 -20.167 190.5 -60.5s60.5 -103.833 60.5 -190.5s-20.167 -150.334 -60.5 -191.001s-103.833 -61 -190.5 -61s-150.334 20.333 -191.001 61zM402 241.5
c29.333 13.667 50.666 35.667 63.999 66s20 71.5 20 123.5s-6.66699 93.167 -20 123.5s-34.666 52.166 -63.999 65.499s-69.333 20 -120 20c-51.333 0 -91.833 -6.66699 -121.5 -20s-51.167 -35.166 -64.5 -65.499s-20 -71.5 -20 -123.5c0 -52.667 6.66699 -94 20 -124
s34.833 -51.833 64.5 -65.5s70.167 -20.5 121.5 -20.5c50.667 0 90.667 6.83301 120 20.5zM187 309.5c-20.667 23.667 -30.999 64.168 -30.999 121.501s10.333 97.833 31 121.5s55.667 35.5 105 35.5c13.333 0 28.166 -1.5 44.499 -4.5s28.833 -6.16699 37.5 -9.5l-14 -74
c-20 4.66699 -40.333 7 -61 7c-15.333 0 -26 -1.5 -32 -4.5s-9 -8.16699 -9 -15.5v-128c4 -0.666992 9 -1.33398 15 -2.00098s12.333 -1 19 -1c28 0 52.667 4.33301 74 13l8 -81c-22.667 -9.33301 -50 -14 -82 -14c-49.333 0 -84.333 11.833 -105 35.5z" />
    <glyph glyph-name="ordfeminine" unicode="&#xaa;" horiz-adv-x="424" 
d="M354.5 719c28.333 -21.333 42.5 -55 42.5 -101l-1 -268h-73l-37 39c-19.333 -16.667 -40.333 -29.167 -63 -37.5s-46 -12.5 -70 -12.5c-47.333 0 -81.833 10.5 -103.5 31.5s-32.5 54.167 -32.5 99.5c0 30 6.66699 53.5 20 70.5s35 29.333 65 37s71.333 11.5 124 11.5h23
v50c-10.667 2.66699 -25 4 -43 4c-45.333 0 -96 -7 -152 -21l-18 103c56 17.333 117.667 26 185 26c60.667 0 105.167 -10.667 133.5 -32zM237.5 446.5c7.66699 4.33301 11.501 12.5 11.501 24.5v52h-41c-20.667 0 -34.834 -2.5 -42.501 -7.5s-11.5 -13.833 -11.5 -26.5v-49
h40c21.333 0 35.833 2.16699 43.5 6.5zM44.001 275.5c8.66699 7.66699 24.334 11.5 47.001 11.5h294v-69c0 -20.667 -4.33301 -34.834 -13 -42.501s-24.334 -11.5 -47.001 -11.5h-294v69c0 20.667 4.33301 34.834 13 42.501z" />
    <glyph glyph-name="guillemotleft" unicode="&#xab;" horiz-adv-x="541" 
d="M25 202v96l184 170l70 -46l-99 -172l99 -172l-70 -46zM262 202v96l184 170l70 -46l-99 -172l99 -172l-70 -46z" />
    <glyph glyph-name="logicalnot" unicode="&#xac;" horiz-adv-x="530" 
d="M473 376v-264h-117v136h-299v128h416z" />
    <glyph glyph-name="registered" unicode="&#xae;" horiz-adv-x="563" 
d="M91 621.5c40.667 40.333 104.334 60.5 191.001 60.5s150.167 -20.167 190.5 -60.5s60.5 -103.833 60.5 -190.5s-20.167 -150.334 -60.5 -191.001s-103.833 -61 -190.5 -61s-150.334 20.333 -191.001 61s-61 104.334 -61 191.001s20.333 150.167 61 190.5zM96 307
c13.333 -30 34.833 -51.833 64.5 -65.5s70.167 -20.5 121.5 -20.5c50.667 0 90.667 6.83301 120 20.5s50.666 35.667 63.999 66s20 71.5 20 123.5s-6.66699 93.167 -20 123.5s-34.666 52.166 -63.999 65.499s-69.333 20 -120 20c-51.333 0 -91.833 -6.66699 -121.5 -20
s-51.167 -35.166 -64.5 -65.499s-20 -71.5 -20 -123.5c0 -52.667 6.66699 -94 20 -124zM276 370h-18v-89h-96v300h146c69.333 0 104 -35 104 -105c0 -46 -14.333 -77.333 -43 -94l53 -101h-106zM287 445c8.66699 0 14.667 1.33301 18 4s5 7 5 13v25
c0 6 -1.66699 10.167 -5 12.5s-9.33301 3.5 -18 3.5h-29v-58h29z" />
    <glyph glyph-name="macron" unicode="&#xaf;" horiz-adv-x="600" 
d="M66 584c-6 8 -9 24.001 -9 48.001v56h235c16 0 27.5 -1.66699 34.5 -5s11.5 -8.83301 13.5 -16.5s3 -19.834 3 -36.501v-58h-235c-22 0 -36 4 -42 12z" />
    <glyph glyph-name="degree" unicode="&#xb0;" horiz-adv-x="407" 
d="M75.5 657c26.333 27.333 69.166 41 128.499 41c58.667 0 101.167 -13.833 127.5 -41.5s39.5 -69.5 39.5 -125.5c0 -56.667 -13.167 -98.834 -39.5 -126.501s-68.833 -41.5 -127.5 -41.5c-59.333 0 -102.166 13.833 -128.499 41.5s-39.5 69.834 -39.5 126.501
s13.167 98.667 39.5 126zM203 461c22 0 37.833 2.16797 47.5 6.50098s14.5 15.166 14.5 32.499v100h-57c-24.667 0 -42.167 -2.16699 -52.5 -6.5s-15.5 -14.833 -15.5 -31.5v-101h63z" />
    <glyph glyph-name="plusminus" unicode="&#xb1;" horiz-adv-x="530" 
d="M473 328h-144v-144h-128v144h-144v128h144v144h128v-144h144v-128zM473 128v-128h-416v128h416z" />
    <glyph glyph-name="uni00B2" unicode="&#xb2;" horiz-adv-x="453" 
d="M57 407c0 28 5.5 50.668 16.5 68.001s31.667 34 62 50s77.833 36 142.5 60v59c-12.667 2.66699 -34.334 4 -65.001 4c-45.333 0 -89.333 -4 -132 -12l-15 85c58.667 12.667 112 19 160 19c57.333 0 99.333 -9 126 -27s40 -46.333 40 -85
c0 -28.667 -5.16699 -51.334 -15.5 -68.001s-31.166 -33.167 -62.499 -49.5s-83.333 -37.833 -156 -64.5v-33h227v-89h-328v83z" />
    <glyph glyph-name="uni00B3" unicode="&#xb3;" horiz-adv-x="427" 
d="M43 334l14.001 85c43.333 -8.66699 86.333 -13 129 -13c30 0 54 1.66699 72 5v73l-122 16v56l122 20v68c-12.667 2.66699 -33.667 4 -63 4c-46.667 0 -89.334 -4 -128.001 -12l-14 85c57.333 12.667 110.333 19 159 19c54 0 94.167 -8.66699 120.5 -26s39.5 -44 39.5 -80
c0 -48.667 -20.667 -83.667 -62 -105v-3c41.333 -16.667 62 -48.667 62 -96c0 -40.667 -13 -70 -39 -88s-70.333 -27 -133 -27c-52.667 0 -105 6.33301 -157 19z" />
    <glyph glyph-name="acute" unicode="&#xb4;" horiz-adv-x="600" 
d="M108 596l179.999 133c3.33301 2.66699 6.66602 4 9.99902 4c2.66699 0 5.33398 -0.833008 8.00098 -2.5s5.33398 -4.16699 8.00098 -7.5l58 -69c6 -6.66699 9 -12 9 -16c0 -4.66699 -3.33301 -10 -10 -16l-36 -30c-6 -6 -14.333 -10 -25 -12l-166 -35z" />
    <glyph glyph-name="uni00B5" unicode="&#xb5;" horiz-adv-x="595" 
d="M60 500l175.999 0.000976562v-393h49c24.667 0 43.334 3.16699 56.001 9.5s19 20.166 19 41.499v342h176v-500h-87l-39 45c-26 -30 -68.667 -45 -128 -45h-79l-32 -165h-111v665z" />
    <glyph glyph-name="paragraph" unicode="&#xb6;" horiz-adv-x="604" 
d="M190 81l-0.000976562 156c-49.333 6.66699 -86.666 26.167 -111.999 58.5s-38 76.5 -38 132.5c0 131.333 69.333 197 208 197h307v-145h-50v-480h-171v480h-49v-480h-205v46z" />
    <glyph glyph-name="periodcentered" unicode="&#xb7;" horiz-adv-x="266" 
d="M55 322c13.333 14.667 39.333 22 78 22s64.667 -7.33301 78 -22s20 -40 20 -76c0 -24 -2.66699 -42.833 -8 -56.5s-15 -23.667 -29 -30s-34.333 -9.5 -61 -9.5s-47 3.16699 -61 9.5s-23.667 16.333 -29 30s-8 32.5 -8 56.5c0 36 6.66699 61.333 20 76z" />
    <glyph glyph-name="cedilla" unicode="&#xb8;" horiz-adv-x="600" 
d="M0 -159l9.99902 78.999h25c18 0 29.667 2.33301 35 7s8 15.334 8 32.001v62h51c22 -8.66699 39.833 -22.5 53.5 -41.5s20.5 -39.833 20.5 -62.5c0 -28.667 -9.66699 -51.5 -29 -68.5s-45.666 -25.5 -78.999 -25.5c-35.333 0 -67 6 -95 18z" />
    <glyph glyph-name="uni00B9" unicode="&#xb9;" horiz-adv-x="399" 
d="M50 413h111v221l-118 -10v97l225 19v-327h85v-89h-303v89z" />
    <glyph glyph-name="ordmasculine" unicode="&#xba;" horiz-adv-x="524" 
d="M98.5 398.5c-33 33 -49.5 86.833 -49.5 161.5c0 75.333 16.5 129.333 49.5 162s87.5 49 163.5 49s130.5 -16.5 163.5 -49.5s49.5 -86.833 49.5 -161.5s-16.5 -128.5 -49.5 -161.5s-87.5 -49.5 -163.5 -49.5s-130.5 16.5 -163.5 49.5zM282 461c13.333 0 22.5 1.5 27.5 4.5
s7.5 8.5 7.5 16.5v177h-77c-13.333 0 -22.333 -1.5 -27 -4.5s-7 -8.5 -7 -16.5v-177h76zM83 278.5c9.33301 7.66699 26.666 11.5 51.999 11.5h320v-69c0 -20.667 -4.66699 -34.834 -14 -42.501s-26.666 -11.5 -51.999 -11.5h-320v69c0 20.667 4.66699 34.834 14 42.501z" />
    <glyph glyph-name="guillemotright" unicode="&#xbb;" horiz-adv-x="541" 
d="M279 298v-96l-184 -170l-70 46l99 172l-99 172l70 46zM516 298v-96l-184 -170l-70 46l99 172l-99 172l70 46z" />
    <glyph glyph-name="onequarter" unicode="&#xbc;" horiz-adv-x="1069" 
d="M50 313h111v221l-118 -10v97l225 19v-327h85v-89h-303v89zM413 -34.5c-5.33301 -3.66699 -14.3359 -5.5 -27.0029 -5.5h-44l262 680c4.66699 9.33301 9.83398 15.833 15.501 19.5s14.834 5.5 27.501 5.5h43l-261 -680c-5.33301 -9.33301 -10.666 -15.833 -15.999 -19.5z
M634.997 76v63l136 267h197v-241h47v-89h-47v-76h-107v76h-226zM860.997 165v160h-23l-88 -160h111z" />
    <glyph glyph-name="onehalf" unicode="&#xbd;" horiz-adv-x="1085" 
d="M50 313h111v221l-118 -10v97l225 19v-327h85v-89h-303v89zM413 -34.5c-5.33301 -3.66699 -14.3359 -5.5 -27.0029 -5.5h-44l262 680c4.66699 9.33301 9.83398 15.833 15.501 19.5s14.834 5.5 27.501 5.5h43l-261 -680c-5.33301 -9.33301 -10.666 -15.833 -15.999 -19.5z
M688.997 83c0 28 5.5 50.668 16.5 68.001s31.667 34 62 50s77.833 36 142.5 60v59c-12.667 2.66699 -34.334 4 -65.001 4c-45.333 0 -89.333 -4 -132 -12l-15 85c58.667 12.667 112 19 160 19c57.333 0 99.333 -9 126 -27s40 -46.333 40 -85
c0 -28.667 -5.16699 -51.334 -15.5 -68.001s-31.166 -33.167 -62.499 -49.5s-83.333 -37.833 -156 -64.5v-33h227v-89h-328v83z" />
    <glyph glyph-name="threequarters" unicode="&#xbe;" horiz-adv-x="1097" 
d="M43 234l14.001 85c43.333 -8.66699 86.333 -13 129 -13c30 0 54 1.66699 72 5v73l-122 16v56l122 20v68c-12.667 2.66699 -33.667 4 -63 4c-46.667 0 -89.334 -4 -128.001 -12l-14 85c57.333 12.667 110.333 19 159 19c54 0 94.167 -8.66699 120.5 -26s39.5 -44 39.5 -80
c0 -48.667 -20.667 -83.667 -62 -105v-3c41.333 -16.667 62 -48.667 62 -96c0 -40.667 -13 -70 -39 -88s-70.333 -27 -133 -27c-52.667 0 -105 6.33301 -157 19zM441.001 -34.5c-5.33301 -3.66699 -14.3359 -5.5 -27.0029 -5.5h-44l262 680
c4.66699 9.33301 9.83398 15.833 15.501 19.5s14.834 5.5 27.501 5.5h43l-261 -680c-5.33301 -9.33301 -10.666 -15.833 -15.999 -19.5zM662.998 76v63l136 267h197v-241h47v-89h-47v-76h-107v76h-226zM888.998 165v160h-23l-88 -160h111z" />
    <glyph glyph-name="questiondown" unicode="&#xbf;" horiz-adv-x="502" 
d="M382 360.5c-12 -13 -35.333 -19.5 -70 -19.5s-58 6.5 -70 19.5s-18 35.833 -18 68.5c0 32 6 54.333 18 67s35.333 19 70 19s58 -6.33301 70 -19s18 -35 18 -67c0 -32.667 -6 -55.5 -18 -68.5zM382 146c0.666992 -12.667 -3.49902 -22.5 -12.499 -29.5
s-26.5 -14.167 -52.5 -21.5l-92 -29v-59c23.333 -3.33301 46.333 -5 69 -5c23.333 0 48.666 2 75.999 6s51.333 8.66699 72 14l24 -121c-71.333 -21.333 -138 -32 -200 -32c-56.667 0 -101.667 5 -135 15s-57.5 26 -72.5 48s-22.5 51.667 -22.5 89c0 32 6 58 18 78
s33 37.667 63 53s74 31.333 132 48l5 87h114z" />
    <glyph glyph-name="Agrave" unicode="&#xc0;" horiz-adv-x="619" 
d="M407 109h-195l-29 -109h-176l166 625h273l166 -625h-176zM372 238l-58 219h-9l-58 -219h125zM243 703c-8.66699 1.33301 -17 5 -25 11l-35 30c-3.33301 3.33301 -5.83301 6.33301 -7.5 9s-2.5 5.33398 -2.5 8.00098c0 4 3 9.33301 9 16l58 69
c2.66699 3.33301 5.16699 5.66602 7.5 6.99902s4.83301 2 7.5 2c4 0 7.66699 -1.33301 11 -4l180 -132l-37 -51z" />
    <glyph glyph-name="Aacute" unicode="&#xc1;" horiz-adv-x="619" 
d="M407 109h-195l-29 -109h-176l166 625h273l166 -625h-176zM372 238l-58 219h-9l-58 -219h125zM203 721l179.999 133c3.33301 2.66699 6.66602 4 9.99902 4c2.66699 0 5.33398 -0.833008 8.00098 -2.5s5.33398 -4.16699 8.00098 -7.5l58 -69c6 -6.66699 9 -12 9 -16
c0 -4.66699 -3.33301 -10 -10 -16l-36 -30c-6 -6 -14.333 -10 -25 -12l-166 -35z" />
    <glyph glyph-name="Acircumflex" unicode="&#xc2;" horiz-adv-x="619" 
d="M407 109h-195l-29 -109h-176l166 625h273l166 -625h-176zM372 238l-58 219h-9l-58 -219h125zM173 712l102 130c4 6 9 9 15 9h40c6 0 11 -3 15 -9l102 -130l-46 -45l-91 70l-91 -70z" />
    <glyph glyph-name="Atilde" unicode="&#xc3;" horiz-adv-x="619" 
d="M407 109h-195l-29 -109h-176l166 625h273l166 -625h-176zM372 238l-58 219h-9l-58 -219h125zM290 682.5c-10 6.33301 -22.668 18.167 -38.001 35.5l-78 -39l-39 65c56.667 40.667 94.667 66.667 114 78s35 17 47 17c12.667 0 23.834 -3 33.501 -9s22.5 -18 38.5 -36
l78 38l39 -65c-56 -40 -93.667 -65.667 -113 -77s-35.333 -17 -48 -17s-24 3.16699 -34 9.5z" />
    <glyph glyph-name="Adieresis" unicode="&#xc4;" horiz-adv-x="619" 
d="M407 109h-195l-29 -109h-176l166 625h273l166 -625h-176zM372 238l-58 219h-9l-58 -219h125zM147.5 699.5c-10.333 11 -15.5 30.833 -15.5 59.5c0 28 5.16699 47.833 15.5 59.5s30.833 17.5 61.5 17.5c30 0 50.167 -5.83301 60.5 -17.5s15.5 -31.5 15.5 -59.5
c0 -28.667 -5.16699 -48.5 -15.5 -59.5s-30.5 -16.5 -60.5 -16.5c-30.667 0 -51.167 5.5 -61.5 16.5zM350.5 699.5c-10.333 11 -15.5 30.833 -15.5 59.5c0 28 5.16699 47.833 15.5 59.5s30.833 17.5 61.5 17.5c30 0 50.167 -5.83301 60.5 -17.5s15.5 -31.5 15.5 -59.5
c0 -28.667 -5.16699 -48.5 -15.5 -59.5s-30.5 -16.5 -60.5 -16.5c-30.667 0 -51.167 5.5 -61.5 16.5z" />
    <glyph glyph-name="Aring" unicode="&#xc5;" horiz-adv-x="619" 
d="M407 109h-195l-29 -109h-176l166 625h273l166 -625h-176zM372 238l-58 219h-9l-58 -219h125zM224 682.5c-17.333 18.333 -26 46.5 -26 84.5c0 37.333 8.83301 65.166 26.5 83.499s46.167 27.5 85.5 27.5s67.666 -9.16699 84.999 -27.5s26 -46.166 26 -83.499
c0 -38 -8.66699 -66.167 -26 -84.5s-45.666 -27.5 -84.999 -27.5c-40 0 -68.667 9.16699 -86 27.5zM305 724c14.667 0 25.333 1.5 32 4.5s10 10.167 10 21.5v59h-31c-16 0 -27.5 -1.5 -34.5 -4.5s-10.5 -9.83301 -10.5 -20.5v-60h34z" />
    <glyph glyph-name="AE" unicode="&#xc6;" horiz-adv-x="819" 
d="M169 625h564l-23 -143h-224l28 -108h178v-131h-144l26 -100h210v-143h-359l-25 108h-182l-25 -108h-186zM367 251l-49 206h-18l-49 -206h116z" />
    <glyph glyph-name="Ccedilla" unicode="&#xc7;" horiz-adv-x="505" 
d="M337 -14c16.667 -20.667 25 -43.6689 25 -69.002c0 -28.667 -9.66699 -51.5 -29 -68.5s-45.666 -25.5 -78.999 -25.5c-35.333 0 -67 6 -95 18l10 79h25c18 0 29.667 2.33301 35 7s8 15.334 8 32.001v29c-51.333 6 -91.166 20.333 -119.499 43
s-48.666 56.334 -60.999 101.001s-18.5 104.667 -18.5 180c0 86 8.5 152.333 25.5 199s45.5 79.834 85.5 99.501s96.667 29.5 170 29.5c27.333 0 57.166 -2.5 89.499 -7.5s56.166 -10.833 71.499 -17.5l-22 -140c-20 6 -42.833 10.667 -68.5 14s-47.167 5 -64.5 5
c-37.333 0 -63 -5 -77 -15s-21 -28.667 -21 -56v-279c33.333 -6.66699 63 -10 89 -10c27.333 0 54.666 2.16699 81.999 6.5s51.333 10.166 72 17.499l13 -147c-41.333 -14.667 -90 -23 -146 -25z" />
    <glyph glyph-name="Egrave" unicode="&#xc8;" horiz-adv-x="519" 
d="M236 145h245v-145h-421v625h424l-22 -145h-226v-103h209v-129h-209v-103zM209 703c-8.66699 1.33301 -17 5 -25 11l-35 30c-3.33301 3.33301 -5.83301 6.33301 -7.5 9s-2.5 5.33398 -2.5 8.00098c0 4 3 9.33301 9 16l58 69c2.66699 3.33301 5.16699 5.66602 7.5 6.99902
s4.83301 2 7.5 2c4 0 7.66699 -1.33301 11 -4l180 -132l-37 -51z" />
    <glyph glyph-name="Eacute" unicode="&#xc9;" horiz-adv-x="519" 
d="M236 145h245v-145h-421v625h424l-22 -145h-226v-103h209v-129h-209v-103zM169 721l179.999 133c3.33301 2.66699 6.66602 4 9.99902 4c2.66699 0 5.33398 -0.833008 8.00098 -2.5s5.33398 -4.16699 8.00098 -7.5l58 -69c6 -6.66699 9 -12 9 -16
c0 -4.66699 -3.33301 -10 -10 -16l-36 -30c-6 -6 -14.333 -10 -25 -12l-166 -35z" />
    <glyph glyph-name="Ecircumflex" unicode="&#xca;" horiz-adv-x="519" 
d="M236 145h245v-145h-421v625h424l-22 -145h-226v-103h209v-129h-209v-103zM139 712l102 130c4 6 9 9 15 9h40c6 0 11 -3 15 -9l102 -130l-46 -45l-91 70l-91 -70z" />
    <glyph glyph-name="Edieresis" unicode="&#xcb;" horiz-adv-x="519" 
d="M236 145h245v-145h-421v625h424l-22 -145h-226v-103h209v-129h-209v-103zM113.5 699.5c-10.333 11 -15.5 30.833 -15.5 59.5c0 28 5.16699 47.833 15.5 59.5s30.833 17.5 61.5 17.5c30 0 50.167 -5.83301 60.5 -17.5s15.5 -31.5 15.5 -59.5
c0 -28.667 -5.16699 -48.5 -15.5 -59.5s-30.5 -16.5 -60.5 -16.5c-30.667 0 -51.167 5.5 -61.5 16.5zM316.5 699.5c-10.333 11 -15.5 30.833 -15.5 59.5c0 28 5.16699 47.833 15.5 59.5s30.833 17.5 61.5 17.5c30 0 50.167 -5.83301 60.5 -17.5s15.5 -31.5 15.5 -59.5
c0 -28.667 -5.16699 -48.5 -15.5 -59.5s-30.5 -16.5 -60.5 -16.5c-30.667 0 -51.167 5.5 -61.5 16.5z" />
    <glyph glyph-name="Igrave" unicode="&#xcc;" horiz-adv-x="295" 
d="M236 625v-625h-176v625h176zM81 703c-8.66699 1.33301 -17 5 -25 11l-35 30c-3.33301 3.33301 -5.83301 6.33301 -7.5 9s-2.5 5.33398 -2.5 8.00098c0 4 3 9.33301 9 16l58 69c2.66699 3.33301 5.16699 5.66602 7.5 6.99902s4.83301 2 7.5 2c4 0 7.66699 -1.33301 11 -4
l180 -132l-37 -51z" />
    <glyph glyph-name="Iacute" unicode="&#xcd;" horiz-adv-x="295" 
d="M236 625v-625h-176v625h176zM41 721l179.999 133c3.33301 2.66699 6.66602 4 9.99902 4c2.66699 0 5.33398 -0.833008 8.00098 -2.5s5.33398 -4.16699 8.00098 -7.5l58 -69c6 -6.66699 9 -12 9 -16c0 -4.66699 -3.33301 -10 -10 -16l-36 -30c-6 -6 -14.333 -10 -25 -12
l-166 -35z" />
    <glyph glyph-name="Icircumflex" unicode="&#xce;" horiz-adv-x="295" 
d="M236 625v-625h-176v625h176zM11 712l102 130c4 6 9 9 15 9h40c6 0 11 -3 15 -9l102 -130l-46 -45l-91 70l-91 -70z" />
    <glyph glyph-name="Idieresis" unicode="&#xcf;" horiz-adv-x="295" 
d="M236 625v-625h-176v625h176zM-14.5 699.5c-10.333 11 -15.5 30.833 -15.5 59.5c0 28 5.16699 47.833 15.5 59.5s30.833 17.5 61.5 17.5c30 0 50.167 -5.83301 60.5 -17.5s15.5 -31.5 15.5 -59.5c0 -28.667 -5.16699 -48.5 -15.5 -59.5s-30.5 -16.5 -60.5 -16.5
c-30.667 0 -51.167 5.5 -61.5 16.5zM188.5 699.5c-10.333 11 -15.5 30.833 -15.5 59.5c0 28 5.16699 47.833 15.5 59.5s30.833 17.5 61.5 17.5c30 0 50.167 -5.83301 60.5 -17.5s15.5 -31.5 15.5 -59.5c0 -28.667 -5.16699 -48.5 -15.5 -59.5s-30.5 -16.5 -60.5 -16.5
c-30.667 0 -51.167 5.5 -61.5 16.5z" />
    <glyph glyph-name="Eth" unicode="&#xd0;" horiz-adv-x="648" 
d="M501 598c40 -18 68.167 -49.001 84.5 -93.001s24.5 -108.333 24.5 -193s-8.16699 -149 -24.5 -193s-44.5 -74.833 -84.5 -92.5s-98.333 -26.5 -175 -26.5h-266v252h-52v69c0 20 3.66699 33.833 11 41.5s21 11.834 41 12.501v250h266c76.667 0 135 -9 175 -27z
M420 420.999c0 24.667 -5.66699 41.833 -17 51.5s-31.666 14.5 -60.999 14.5h-106v-112h94v-69c0 -20.667 -4 -34.834 -12 -42.501s-22.333 -11.5 -43 -11.5h-39v-114h106c29.333 0 49.666 4.83301 60.999 14.5s17 26.834 17 51.501v217z" />
    <glyph glyph-name="Ntilde" unicode="&#xd1;" horiz-adv-x="672" 
d="M65 625l174 -0.000976562l161 -260c9.33301 -15.333 15.833 -28.166 19.5 -38.499s5.5 -20.5 5.5 -30.5h6v329h176v-625h-173l-162 260c-9.33301 15.333 -15.833 28.333 -19.5 39s-5.5 20.667 -5.5 30h-6v-329h-176v625zM319 682.499
c-10 6.33301 -22.668 18.167 -38.001 35.5l-78 -39l-39 65c56.667 40.667 94.667 66.667 114 78s35 17 47 17c12.667 0 23.834 -3 33.501 -9s22.5 -18 38.5 -36l78 38l39 -65c-56 -40 -93.667 -65.667 -113 -77s-35.333 -17 -48 -17s-24 3.16699 -34 9.5z" />
    </font>
</defs>
</svg>
